#N canvas 0 39 1728 916 12;
#X obj 182 122 r button1;
#X obj 182 208 sel 0 1;
#X obj 196 407 f;
#X obj 242 408 f;
#X obj 197 477 outlet;
#X obj 34 -1 inlet;
#X obj 33 22 route 1 2 3 4 5 6 7 8 9 10 11 12;
#X obj 32 209 unpack 0 0 0 0;
#X obj 396 208 sel 0 1;
#X obj 410 407 f;
#X obj 456 408 f;
#X obj 246 209 unpack 0 0 0 0;
#X obj 607 207 sel 0 1;
#X obj 621 406 f;
#X obj 667 407 f;
#X obj 457 208 unpack 0 0 0 0;
#X obj 821 207 sel 0 1;
#X obj 835 406 f;
#X obj 881 407 f;
#X obj 671 208 unpack 0 0 0 0;
#X obj 1031 207 sel 0 1;
#X obj 1045 406 f;
#X obj 1091 407 f;
#X obj 881 208 unpack 0 0 0 0;
#X obj 1245 207 sel 0 1;
#X obj 1259 406 f;
#X obj 1305 407 f;
#X obj 1095 208 unpack 0 0 0 0;
#X obj 1456 206 sel 0 1;
#X obj 1470 405 f;
#X obj 1516 406 f;
#X obj 1306 207 unpack 0 0 0 0;
#X obj 1670 206 sel 0 1;
#X obj 1684 405 f;
#X obj 1730 406 f;
#X obj 1520 207 unpack 0 0 0 0;
#X obj 1883 206 sel 0 1;
#X obj 1897 405 f;
#X obj 1943 406 f;
#X obj 1733 207 unpack 0 0 0 0;
#X obj 2097 206 sel 0 1;
#X obj 2111 405 f;
#X obj 2157 406 f;
#X obj 1947 207 unpack 0 0 0 0;
#X obj 2308 205 sel 0 1;
#X obj 2322 404 f;
#X obj 2368 405 f;
#X obj 2158 206 unpack 0 0 0 0;
#X obj 2522 205 sel 0 1;
#X obj 2536 404 f;
#X obj 2582 405 f;
#X obj 2372 206 unpack 0 0 0 0;
#X obj 396 122 r button2;
#X obj 607 121 r button3;
#X obj 821 121 r button4;
#X obj 1031 121 r button5;
#X obj 1245 121 r button6;
#X obj 1456 120 r button7;
#X obj 1670 120 r button8;
#X obj 1883 120 r button9;
#X obj 2097 120 r button10;
#X obj 2308 119 r button11;
#X obj 2522 119 r button12;
#X obj 145 352 cyclone/gate;
#X obj 240 352 cyclone/gate;
#X obj 363 353 cyclone/gate;
#X obj 454 352 cyclone/gate;
#X obj 561 352 cyclone/gate;
#X obj 665 351 cyclone/gate;
#X obj 879 351 cyclone/gate;
#X obj 837 351 cyclone/gate;
#X obj 1089 351 cyclone/gate;
#X obj 1047 351 cyclone/gate;
#X obj 1303 351 cyclone/gate;
#X obj 1261 351 cyclone/gate;
#X obj 1514 350 cyclone/gate;
#X obj 1472 350 cyclone/gate;
#X obj 1728 350 cyclone/gate;
#X obj 1686 350 cyclone/gate;
#X obj 1941 350 cyclone/gate;
#X obj 1899 350 cyclone/gate;
#X obj 2155 350 cyclone/gate;
#X obj 2113 350 cyclone/gate;
#X obj 2366 349 cyclone/gate;
#X obj 2324 349 cyclone/gate;
#X obj 2580 349 cyclone/gate;
#X obj 2538 349 cyclone/gate;
#X connect 0 0 1 0;
#X connect 1 0 63 1;
#X connect 1 1 64 1;
#X connect 2 0 4 0;
#X connect 3 0 4 0;
#X connect 5 0 6 0;
#X connect 6 0 7 0;
#X connect 6 1 11 0;
#X connect 6 2 15 0;
#X connect 6 3 19 0;
#X connect 6 4 23 0;
#X connect 6 5 27 0;
#X connect 6 6 31 0;
#X connect 6 7 35 0;
#X connect 6 8 39 0;
#X connect 6 9 43 0;
#X connect 6 10 47 0;
#X connect 6 11 51 0;
#X connect 7 0 63 0;
#X connect 7 1 2 1;
#X connect 7 2 64 0;
#X connect 7 3 3 1;
#X connect 8 0 65 1;
#X connect 8 1 66 1;
#X connect 9 0 4 0;
#X connect 10 0 4 0;
#X connect 11 0 65 0;
#X connect 11 1 9 1;
#X connect 11 2 66 0;
#X connect 11 3 10 1;
#X connect 12 0 67 1;
#X connect 12 1 68 1;
#X connect 13 0 4 0;
#X connect 14 0 4 0;
#X connect 15 0 67 0;
#X connect 15 1 13 1;
#X connect 15 2 68 0;
#X connect 15 3 14 1;
#X connect 16 0 70 1;
#X connect 16 1 69 1;
#X connect 17 0 4 0;
#X connect 18 0 4 0;
#X connect 19 0 70 0;
#X connect 19 1 17 1;
#X connect 19 2 69 0;
#X connect 19 3 18 1;
#X connect 20 0 72 1;
#X connect 20 1 71 1;
#X connect 21 0 4 0;
#X connect 22 0 4 0;
#X connect 23 0 72 0;
#X connect 23 1 21 1;
#X connect 23 2 71 0;
#X connect 23 3 22 1;
#X connect 24 0 74 1;
#X connect 24 1 73 1;
#X connect 25 0 4 0;
#X connect 26 0 4 0;
#X connect 27 0 74 0;
#X connect 27 1 25 1;
#X connect 27 2 73 0;
#X connect 27 3 26 1;
#X connect 28 0 76 1;
#X connect 28 1 75 1;
#X connect 29 0 4 0;
#X connect 30 0 4 0;
#X connect 31 0 76 0;
#X connect 31 1 29 1;
#X connect 31 2 75 0;
#X connect 31 3 30 1;
#X connect 32 0 78 1;
#X connect 32 1 77 1;
#X connect 33 0 4 0;
#X connect 34 0 4 0;
#X connect 35 0 78 0;
#X connect 35 1 33 1;
#X connect 35 2 77 0;
#X connect 35 3 34 1;
#X connect 36 0 80 1;
#X connect 36 1 79 1;
#X connect 37 0 4 0;
#X connect 38 0 4 0;
#X connect 39 0 80 0;
#X connect 39 1 37 1;
#X connect 39 2 79 0;
#X connect 39 3 38 1;
#X connect 40 0 82 1;
#X connect 40 1 81 1;
#X connect 41 0 4 0;
#X connect 42 0 4 0;
#X connect 43 0 82 0;
#X connect 43 1 41 1;
#X connect 43 2 81 0;
#X connect 43 3 42 1;
#X connect 44 0 84 1;
#X connect 44 1 83 1;
#X connect 45 0 4 0;
#X connect 46 0 4 0;
#X connect 47 0 84 0;
#X connect 47 1 45 1;
#X connect 47 2 83 0;
#X connect 47 3 46 1;
#X connect 48 0 86 1;
#X connect 48 1 85 1;
#X connect 49 0 4 0;
#X connect 50 0 4 0;
#X connect 51 0 86 0;
#X connect 51 1 49 1;
#X connect 51 2 85 0;
#X connect 51 3 50 1;
#X connect 52 0 8 0;
#X connect 53 0 12 0;
#X connect 54 0 16 0;
#X connect 55 0 20 0;
#X connect 56 0 24 0;
#X connect 57 0 28 0;
#X connect 58 0 32 0;
#X connect 59 0 36 0;
#X connect 60 0 40 0;
#X connect 61 0 44 0;
#X connect 62 0 48 0;
#X connect 63 0 2 0;
#X connect 64 0 3 0;
#X connect 65 0 9 0;
#X connect 66 0 10 0;
#X connect 67 0 13 0;
#X connect 68 0 14 0;
#X connect 69 0 18 0;
#X connect 70 0 17 0;
#X connect 71 0 22 0;
#X connect 72 0 21 0;
#X connect 73 0 26 0;
#X connect 74 0 25 0;
#X connect 75 0 30 0;
#X connect 76 0 29 0;
#X connect 77 0 34 0;
#X connect 78 0 33 0;
#X connect 79 0 38 0;
#X connect 80 0 37 0;
#X connect 81 0 42 0;
#X connect 82 0 41 0;
#X connect 83 0 46 0;
#X connect 84 0 45 0;
#X connect 85 0 50 0;
#X connect 86 0 49 0;
