#N canvas 121 159 450 272 12;
#X obj 103 38 inlet~;
#X obj 357 38 inlet~;
#X obj 107 617 outlet~;
#X obj 107 577 *~;
#X obj 155 351 *;
#X obj 154 472 *;
#X obj 394 446 *;
#X obj 359 472 *~ 0;
#X obj 106 509 +~ 0;
#X obj 586 35 inlet;
#X obj 648 38 inlet;
#X obj 708 38 inlet;
#X obj 770 39 inlet;
#X text 584 11 ifma;
#X text 646 10 indxb;
#X text 706 12 ifmb;
#X text 766 14 imag;
#X obj 396 348 t b f;
#X obj 396 372 f;
#X obj 155 427 f;
#X obj 209 343 t b f;
#X obj 191 264 t b f;
#X obj 155 297 f;
#X obj 206 521 funcinterpol;
#X obj 840 40 inlet;
#X obj 902 43 inlet;
#X connect 0 0 8 0;
#X connect 1 0 7 0;
#X connect 3 0 2 0;
#X connect 4 0 19 0;
#X connect 5 0 8 1;
#X connect 6 0 7 1;
#X connect 7 0 23 0;
#X connect 8 0 3 0;
#X connect 9 0 22 0;
#X connect 10 0 21 0;
#X connect 11 0 18 0;
#X connect 12 0 20 0;
#X connect 12 0 17 0;
#X connect 17 0 18 0;
#X connect 17 1 6 1;
#X connect 18 0 6 0;
#X connect 19 0 5 0;
#X connect 20 0 19 0;
#X connect 20 1 5 1;
#X connect 21 0 22 0;
#X connect 21 1 4 1;
#X connect 22 0 4 0;
#X connect 23 0 3 1;
#X connect 24 0 23 1;
#X connect 25 0 23 2;
