#N canvas 353 391 793 404 12;
#N canvas 756 141 972 528 asig 0;
#X obj 94 20 inlet~;
#X obj 170 20 inlet~;
#X obj 240 10 inlet~;
#X obj 315 20 inlet~;
#X obj 100 415 outlet~;
#X obj 100 389 *~;
#X obj 167 337 osc~;
#X obj 165 291 +~;
#X obj 279 250 +~;
#N canvas 0 39 1728 658 amoda 0;
#X obj 103 38 inlet~;
#X obj 357 38 inlet~;
#X obj 105 323 outlet~;
#X obj 104 241 *~;
#X obj 193 215 osc~;
#X obj 180 81 r ifma\$1;
#X obj 424 83 r imag\$1;
#X obj 152 152 *;
#X obj 152 178 *;
#X obj 392 152 *;
#X obj 104 215 +~ 0;
#X obj 357 178 *~ 0;
#X obj 269 75 r indxa1\$1;
#X obj 439 263 metro 500;
#X obj 433 215 bng 19 250 50 0 empty empty empty 0 -10 0 12 #fcfcfc #000000 #000000;
#X obj 425 314 snapshot~;
#X floatatom 425 338 20 0 0 0 - - - 0;
#X connect 0 0 10 0;
#X connect 1 0 11 0;
#X connect 3 0 2 0;
#X connect 4 0 3 1;
#X connect 5 0 7 0;
#X connect 5 0 9 0;
#X connect 6 0 8 1;
#X connect 6 0 9 1;
#X connect 7 0 8 0;
#X connect 8 0 10 1;
#X connect 9 0 11 1;
#X connect 10 0 3 0;
#X connect 11 0 4 0;
#X connect 12 0 7 1;
#X connect 13 0 15 0;
#X connect 14 0 13 0;
#X connect 15 0 16 0;
#X restore 365 154 pd amoda;
#N canvas 915 300 813 334 amodb 0;
#X obj 103 38 inlet~;
#X obj 357 38 inlet~;
#X obj 105 323 outlet~;
#X obj 104 241 *~;
#X obj 193 215 osc~;
#X obj 120 113 r ifma\$1;
#X obj 290 70 r imag\$1;
#X obj 546 147 r ifmb\$1;
#X obj 152 152 *;
#X obj 152 178 *;
#X obj 392 152 *;
#X obj 357 178 *~ 0;
#X obj 104 215 +~ 0;
#X obj 197 115 r indxb1\$1;
#X connect 0 0 12 0;
#X connect 1 0 11 0;
#X connect 3 0 2 0;
#X connect 4 0 3 1;
#X connect 5 0 8 0;
#X connect 6 0 9 1;
#X connect 6 0 10 1;
#X connect 7 0 10 0;
#X connect 8 0 9 0;
#X connect 9 0 12 1;
#X connect 10 0 11 1;
#X connect 11 0 4 0;
#X connect 12 0 3 0;
#X connect 13 0 8 1;
#X restore 477 144 pd amodb;
#X obj 189 202 r ifc\$1;
#X obj 243 170 r imag\$1;
#X obj 188 228 * 1;
#X obj 165 257 *~ 0;
#X connect 0 0 5 0;
#X connect 1 0 14 0;
#X connect 1 0 9 1;
#X connect 1 0 10 1;
#X connect 2 0 9 0;
#X connect 3 0 10 0;
#X connect 5 0 4 0;
#X connect 6 0 5 1;
#X connect 7 0 6 0;
#X connect 8 0 7 1;
#X connect 9 0 8 0;
#X connect 10 0 8 1;
#X connect 11 0 13 0;
#X connect 13 0 14 1;
#X connect 14 0 7 0;
#X restore 68 135 pd asig;
#N canvas 750 87 978 429 env 1;
#X msg 245 254 set F\$1;
#X obj 123 440 outlet~;
#X obj 248 205 r ifn1\$1;
#X obj 413 240 r iamp\$1;
#X obj 43 132 r~ kndx\$1;
#X obj 106 174 *~ 16385;
#X obj 122 326 tabread4~;
#X obj 123 414 *~ 0;
#X obj 37 37;
#X connect 0 0 6 0;
#X connect 2 0 0 0;
#X connect 3 0 7 1;
#X connect 4 0 5 0;
#X connect 5 0 6 0;
#X connect 6 0 7 0;
#X connect 7 0 1 0;
#X restore 77 74 pd env;
#N canvas 0 38 1728 719 skew 0;
#X msg 191 249 set F\$1;
#X obj 122 550 outlet~;
#X obj 43 132 r~ kndx\$1;
#X obj 106 174 *~ 16385;
#X obj 241 125 r ifn2\$1;
#X obj 349 119 r isk\$1;
#X obj 122 326 tabread4~;
#X obj 123 414 *~ 0;
#X obj 125 489 +~ 1;
#X connect 0 0 6 0;
#X connect 2 0 3 0;
#X connect 3 0 6 0;
#X connect 4 0 0 0;
#X connect 5 0 7 1;
#X connect 6 0 7 0;
#X connect 7 0 8 0;
#X connect 8 0 1 0;
#X restore 133 74 pd skew;
#N canvas 1072 87 656 610 fda 0;
#X msg 245 254 set F\$1;
#X obj 122 606 outlet~;
#X obj 106 145 r~ kndx\$1;
#X obj 106 193 *~ 16385;
#X obj 275 65 r ifn3\$1;
#X obj 396 247 r ifma\$1;
#X obj 420 293 r idifa\$1;
#X obj 496 331 r imag\$1;
#X obj 124 297 tabread4~;
#X obj 123 414 *~ 0;
#X obj 122 469 *~ 0;
#X obj 122 523 *~ 0;
#X connect 0 0 8 0;
#X connect 2 0 3 0;
#X connect 3 0 8 0;
#X connect 4 0 0 0;
#X connect 5 0 9 1;
#X connect 6 0 10 1;
#X connect 7 0 11 1;
#X connect 8 0 9 0;
#X connect 9 0 10 0;
#X connect 10 0 11 0;
#X connect 11 0 1 0;
#X restore 196 74 pd fda;
#N canvas 1072 87 656 588 fdb 0;
#X msg 245 254 set F\$1;
#X obj 122 549 outlet~;
#X obj 43 132 r~ kndx\$1;
#X obj 106 174 *~ 16385;
#X obj 261 201 r ifn4\$1;
#X obj 501 308 r ifmb\$1;
#X obj 370 254 r idifb\$1;
#X obj 448 185 r imag\$1;
#X obj 124 297 tabread4~;
#X obj 123 414 *~ 0;
#X obj 122 469 *~ 0;
#X obj 122 523 *~ 0;
#X connect 0 0 8 0;
#X connect 2 0 3 0;
#X connect 3 0 8 0;
#X connect 4 0 0 0;
#X connect 5 0 9 1;
#X connect 6 0 10 1;
#X connect 7 0 11 1;
#X connect 8 0 9 0;
#X connect 9 0 10 0;
#X connect 10 0 11 0;
#X connect 11 0 1 0;
#X restore 250 74 pd fdb;
#X connect 1 0 0 0;
#X connect 2 0 0 1;
#X connect 3 0 0 2;
#X connect 4 0 0 3;
