#N canvas 12 364 1728 920 12;
#N canvas 512 204 1169 619 asig 0;
#X obj 94 67 inlet~;
#X obj 170 67 inlet~;
#X obj 240 57 inlet~;
#X obj 315 67 inlet~;
#X obj 100 462 outlet~;
#X obj 100 436 *~;
#X obj 167 384 osc~;
#X obj 165 338 +~;
#X obj 279 297 +~;
#N canvas 0 39 1728 602 amoda 0;
#X obj 103 38 inlet~;
#X obj 357 38 inlet~;
#X obj 105 323 outlet~;
#X obj 104 241 *~;
#X obj 193 215 osc~;
#X obj 180 81 r ifma\$1;
#X obj 424 83 r imag\$1;
#X obj 152 152 *;
#X obj 152 178 *;
#X obj 392 152 *;
#X obj 104 215 +~ 0;
#X obj 357 178 *~ 0;
#X obj 269 75 r indxa1\$1;
#X obj 586 35 inlet;
#X obj 648 38 inlet;
#X obj 708 38 inlet;
#X connect 0 0 10 0;
#X connect 1 0 11 0;
#X connect 3 0 2 0;
#X connect 4 0 3 1;
#X connect 5 0 7 0;
#X connect 5 0 9 0;
#X connect 6 0 8 1;
#X connect 6 0 9 1;
#X connect 7 0 8 0;
#X connect 8 0 10 1;
#X connect 9 0 11 1;
#X connect 10 0 3 0;
#X connect 11 0 4 0;
#X connect 12 0 7 1;
#X connect 13 0 7 0;
#X connect 13 0 9 0;
#X connect 14 0 7 1;
#X connect 15 0 8 1;
#X connect 15 0 9 1;
#X restore 365 201 pd amoda;
#N canvas 481 271 969 428 amodb 0;
#X obj 103 38 inlet~;
#X obj 357 38 inlet~;
#X obj 105 323 outlet~;
#X obj 104 241 *~;
#X obj 193 215 osc~;
#X obj 120 113 r ifma\$1;
#X obj 547 94 r imag\$1;
#X obj 394 100 r ifmb\$1;
#X obj 152 152 *;
#X obj 152 178 *;
#X obj 392 152 *;
#X obj 357 178 *~ 0;
#X obj 104 215 +~ 0;
#X obj 197 115 r indxb1\$1;
#X obj 586 35 inlet;
#X obj 648 38 inlet;
#X obj 708 38 inlet;
#X obj 770 39 inlet;
#X connect 0 0 12 0;
#X connect 1 0 11 0;
#X connect 3 0 2 0;
#X connect 4 0 3 1;
#X connect 5 0 8 0;
#X connect 6 0 9 1;
#X connect 6 0 10 1;
#X connect 7 0 10 0;
#X connect 8 0 9 0;
#X connect 9 0 12 1;
#X connect 10 0 11 1;
#X connect 11 0 4 0;
#X connect 12 0 3 0;
#X connect 13 0 8 1;
#X connect 14 0 8 0;
#X connect 15 0 8 1;
#X connect 16 0 10 0;
#X connect 17 0 10 1;
#X connect 17 0 9 1;
#X restore 477 191 pd amodb;
#X obj 189 249 r ifc\$1;
#X obj 243 217 r imag\$1;
#X obj 188 275 * 1;
#X obj 165 304 *~ 0;
#X obj 495 68 inlet;
#X obj 551 67 inlet;
#X text 549 41 imag;
#X text 493 39 ifc;
#X obj 647 64 inlet;
#X obj 703 63 inlet;
#X obj 871 59 inlet;
#X obj 808 60 inlet;
#X text 645 35 ifma;
#X text 701 37 indxa;
#X text 869 30 ifmb;
#X text 806 34 indxb;
#X connect 0 0 5 0;
#X connect 1 0 14 0;
#X connect 1 0 9 1;
#X connect 1 0 10 1;
#X connect 2 0 9 0;
#X connect 3 0 10 0;
#X connect 5 0 4 0;
#X connect 6 0 5 1;
#X connect 7 0 6 0;
#X connect 8 0 7 1;
#X connect 9 0 8 0;
#X connect 10 0 8 1;
#X connect 11 0 13 0;
#X connect 12 0 13 1;
#X connect 13 0 14 1;
#X connect 14 0 7 0;
#X connect 15 0 13 0;
#X connect 16 0 13 1;
#X connect 16 0 9 4;
#X connect 16 0 10 5;
#X connect 19 0 9 2;
#X connect 19 0 10 2;
#X connect 20 0 9 3;
#X connect 21 0 10 4;
#X connect 22 0 10 3;
#X restore 79 483 pd asig;
#X f 57;
#N canvas 750 87 978 317 env 1;
#X msg 245 254 set F\$1;
#X obj 123 440 outlet~;
#X obj 248 205 r ifn1\$1;
#X obj 413 240 r iamp\$1;
#X obj 106 174 *~ 16385;
#X obj 122 326 tabread4~;
#X obj 123 414 *~ 0;
#X obj 232 53 inlet;
#X obj 321 57 inlet;
#X obj 113 53 inlet~;
#X connect 0 0 5 0;
#X connect 2 0 0 0;
#X connect 3 0 6 1;
#X connect 4 0 5 0;
#X connect 5 0 6 0;
#X connect 6 0 1 0;
#X connect 7 0 0 0;
#X connect 8 0 6 1;
#X connect 9 0 4 0;
#X restore 81 176 pd env;
#N canvas 0 38 1728 635 skew 0;
#X msg 191 249 set F\$1;
#X obj 122 550 outlet~;
#X obj 106 174 *~ 16385;
#X obj 241 125 r ifn2\$1;
#X obj 349 119 r isk\$1;
#X obj 122 326 tabread4~;
#X obj 123 414 *~ 0;
#X obj 125 489 +~ 1;
#X obj 79 48 inlet~;
#X obj 183 48 inlet;
#X obj 354 41 inlet;
#X connect 0 0 5 0;
#X connect 2 0 5 0;
#X connect 3 0 0 0;
#X connect 4 0 6 1;
#X connect 5 0 6 0;
#X connect 6 0 7 0;
#X connect 7 0 1 0;
#X connect 8 0 2 0;
#X connect 9 0 0 0;
#X connect 10 0 6 1;
#X restore 267 178 pd skew;
#N canvas 860 110 656 582 fda 0;
#X msg 245 254 set F\$1;
#X obj 122 606 outlet~;
#X obj 106 193 *~ 16385;
#X obj 275 65 r ifn3\$1;
#X obj 396 247 r ifma\$1;
#X obj 420 293 r idifa\$1;
#X obj 496 331 r imag\$1;
#X obj 124 297 tabread4~;
#X obj 123 414 *~ 0;
#X obj 122 469 *~ 0;
#X obj 122 523 *~ 0;
#X obj 61 54 inlet~;
#X obj 163 72 inlet;
#X obj 393 89 inlet;
#X obj 459 93 inlet;
#X obj 545 90 inlet;
#X connect 0 0 7 0;
#X connect 2 0 7 0;
#X connect 3 0 0 0;
#X connect 4 0 8 1;
#X connect 5 0 9 1;
#X connect 6 0 10 1;
#X connect 7 0 8 0;
#X connect 8 0 9 0;
#X connect 9 0 10 0;
#X connect 10 0 1 0;
#X connect 11 0 2 0;
#X connect 12 0 0 0;
#X connect 13 0 8 1;
#X connect 14 0 9 1;
#X connect 15 0 10 1;
#X restore 427 180 pd fda;
#N canvas 545 160 907 710 fdb 1;
#X msg 245 254 set F\$1;
#X obj 122 549 outlet~;
#X obj 106 174 *~ 16385;
#X obj 261 201 r ifn4\$1;
#X obj 501 308 r ifmb\$1;
#X obj 370 254 r idifb\$1;
#X obj 448 185 r imag\$1;
#X obj 124 297 tabread4~;
#X obj 123 414 *~ 0;
#X obj 122 469 *~ 0;
#X obj 122 523 *~ 0;
#X obj 61 54 inlet~;
#X obj 163 72 inlet;
#X obj 393 89 inlet;
#X obj 459 93 inlet;
#X obj 545 90 inlet;
#X text 60 21 kndx;
#X text 160 22 ifn4;
#X text 382 25 ifmb;
#X text 458 24 idifb;
#X text 544 25 imag;
#X connect 0 0 7 0;
#X connect 2 0 7 0;
#X connect 3 0 0 0;
#X connect 4 0 8 1;
#X connect 5 0 9 1;
#X connect 6 0 10 1;
#X connect 7 0 8 0;
#X connect 8 0 9 0;
#X connect 9 0 10 0;
#X connect 10 0 1 0;
#X connect 11 0 2 0;
#X connect 12 0 0 0;
#X connect 13 0 8 1;
#X connect 14 0 9 1;
#X connect 15 0 10 1;
#X restore 663 181 pd fdb;
#X text 79 98 kndx;
#X text 190 96 iamp;
#X text 264 97 kndx;
#X text 146 96 ifn1;
#X text 307 97 ifn2;
#X text 426 93 kndx;
#X text 469 93 ifn3;
#X text 513 93 ifma;
#X text 552 93 idifa;
#X text 595 92 imag;
#X text 664 93 kndx;
#X text 833 92 imag;
#X text 707 93 ifn4;
#X text 751 93 ifmb;
#X text 790 93 idifb;
#X text 581 343 imag;
#X text 525 341 ifc;
#X text 677 337 ifma;
#X text 733 339 indxa;
#X text 901 332 ifmb;
#X text 838 336 indxb;
#X obj 12 24 functions;
#N canvas 1055 269 673 460 chanelvolumes 1;
#X obj 62 31 inlet~;
#X obj 68 314 *~;
#X obj 68 345 outlet~;
#X obj 65 157 *~;
#X obj 194 314 *~;
#X obj 194 345 outlet~;
#X obj 315 314 *~;
#X obj 315 345 outlet~;
#X obj 429 314 *~;
#X obj 429 345 outlet~;
#X obj 177 34 r idis\$1;
#X obj 109 160 r ch1\$1;
#X obj 230 167 r ch2\$1;
#X obj 340 169 r ch3\$1;
#X obj 474 154 r ch4\$1;
#X obj 481 258 list append 5;
#X obj 100 288 vline~;
#X obj 226 288 vline~;
#X obj 347 288 vline~;
#X obj 461 288 vline~;
#X obj 100 257 list append 4000;
#X obj 226 257 list append 4000;
#X obj 347 257 list append 4000;
#X obj 282 33 inlet;
#X obj 345 32 inlet;
#X obj 401 34 inlet;
#X obj 464 33 inlet;
#X obj 535 34 inlet;
#X connect 0 0 3 0;
#X connect 1 0 2 0;
#X connect 3 0 1 0;
#X connect 3 0 4 0;
#X connect 3 0 6 0;
#X connect 3 0 8 0;
#X connect 4 0 5 0;
#X connect 6 0 7 0;
#X connect 8 0 9 0;
#X connect 10 0 3 1;
#X connect 11 0 20 0;
#X connect 12 0 21 0;
#X connect 13 0 22 0;
#X connect 14 0 15 0;
#X connect 15 0 19 0;
#X connect 16 0 1 1;
#X connect 17 0 4 1;
#X connect 18 0 6 1;
#X connect 19 0 8 1;
#X connect 20 0 16 0;
#X connect 21 0 17 0;
#X connect 22 0 18 0;
#X connect 23 0 3 1;
#X connect 24 0 20 0;
#X connect 25 0 21 0;
#X connect 26 0 22 0;
#X connect 27 0 15 0;
#X restore 73 887 pd chanelvolumes;
#X obj 82 747 *~;
#X obj 82 670 *~;
#X obj 80 545 *~ 0.02;
#X obj 644 577 t b;
#X msg 644 652 1;
#X obj 644 533 cyclone/split 0 120;
#X obj 644 490 cyclone/clip 0 127;
#X obj 267 553 r rev\$1;
#X obj 640 722 vline~;
#X obj 642 686 list append 4000;
#N canvas 505 148 853 631 a1 0;
#X obj 162 166 inlet~;
#X obj 321 56 loadbang;
#X msg 321 95 647;
#X obj 321 134 / 25600;
#X obj 321 173 * 2;
#X obj 321 251 * 20;
#X obj 321 290 /;
#X obj 321 212 t f f;
#X obj 321 329 t b f;
#X obj 321 407 /;
#X msg 321 368 1;
#X obj 321 446 t b f;
#X obj 321 524 pow;
#X msg 321 485 0.001;
#X obj 216 354 * 1000;
#X obj 163 601 cyclone/allpass~;
#X obj 164 646 outlet~;
#X connect 0 0 15 0;
#X connect 1 0 2 0;
#X connect 2 0 3 0;
#X connect 3 0 4 0;
#X connect 4 0 7 0;
#X connect 4 0 14 0;
#X connect 5 0 6 0;
#X connect 6 0 8 0;
#X connect 7 0 5 0;
#X connect 7 1 6 1;
#X connect 8 0 10 0;
#X connect 8 1 9 1;
#X connect 9 0 11 0;
#X connect 10 0 9 0;
#X connect 11 0 13 0;
#X connect 11 1 12 1;
#X connect 12 0 15 2;
#X connect 13 0 12 0;
#X connect 14 0 15 1;
#X connect 15 0 16 0;
#X restore 424 877 pd a1;
#N canvas 505 148 853 715 a2 0;
#X obj 162 166 inlet~;
#X obj 321 56 loadbang;
#X obj 321 134 / 25600;
#X obj 321 173 * 2;
#X obj 321 251 * 20;
#X obj 321 290 /;
#X obj 321 212 t f f;
#X obj 321 329 t b f;
#X obj 321 407 /;
#X msg 321 368 1;
#X obj 321 446 t b f;
#X obj 321 524 pow;
#X msg 321 485 0.001;
#X obj 216 354 * 1000;
#X obj 163 601 cyclone/allpass~;
#X obj 164 646 outlet~;
#X msg 321 95 213;
#X connect 0 0 14 0;
#X connect 1 0 16 0;
#X connect 2 0 3 0;
#X connect 3 0 6 0;
#X connect 3 0 13 0;
#X connect 4 0 5 0;
#X connect 5 0 7 0;
#X connect 6 0 4 0;
#X connect 6 1 5 1;
#X connect 7 0 9 0;
#X connect 7 1 8 1;
#X connect 8 0 10 0;
#X connect 9 0 8 0;
#X connect 10 0 12 0;
#X connect 10 1 11 1;
#X connect 11 0 14 2;
#X connect 12 0 11 0;
#X connect 13 0 14 1;
#X connect 14 0 15 0;
#X connect 16 0 2 0;
#X restore 424 913 pd a2;
#N canvas 505 148 853 715 a3 0;
#X obj 162 166 inlet~;
#X obj 321 56 loadbang;
#X obj 321 134 / 25600;
#X obj 321 173 * 2;
#X obj 321 251 * 20;
#X obj 321 290 /;
#X obj 321 212 t f f;
#X obj 321 329 t b f;
#X obj 321 407 /;
#X msg 321 368 1;
#X obj 321 446 t b f;
#X obj 321 524 pow;
#X msg 321 485 0.001;
#X obj 216 354 * 1000;
#X obj 163 601 cyclone/allpass~;
#X obj 164 646 outlet~;
#X msg 321 95 67;
#X connect 0 0 14 0;
#X connect 1 0 16 0;
#X connect 2 0 3 0;
#X connect 3 0 6 0;
#X connect 3 0 13 0;
#X connect 4 0 5 0;
#X connect 5 0 7 0;
#X connect 6 0 4 0;
#X connect 6 1 5 1;
#X connect 7 0 9 0;
#X connect 7 1 8 1;
#X connect 8 0 10 0;
#X connect 9 0 8 0;
#X connect 10 0 12 0;
#X connect 10 1 11 1;
#X connect 11 0 14 2;
#X connect 12 0 11 0;
#X connect 13 0 14 1;
#X connect 14 0 15 0;
#X connect 16 0 2 0;
#X restore 424 949 pd a3;
#N canvas 875 261 853 631 a4 0;
#X obj 162 166 inlet~;
#X obj 321 56 loadbang;
#X obj 321 134 / 25600;
#X obj 321 173 * 2;
#X obj 321 290 /;
#X obj 321 329 t b f;
#X obj 321 407 /;
#X msg 321 368 1;
#X obj 321 446 t b f;
#X obj 321 524 pow;
#X msg 321 485 0.001;
#X obj 216 354 * 1000;
#X obj 163 601 cyclone/allpass~;
#X obj 163 640 outlet~;
#X msg 321 95 3201;
#X obj 321 251 * 32;
#X obj 321 212 t f f;
#X connect 0 0 12 0;
#X connect 1 0 14 0;
#X connect 2 0 3 0;
#X connect 3 0 11 0;
#X connect 3 0 16 0;
#X connect 4 0 5 0;
#X connect 5 0 7 0;
#X connect 5 1 6 1;
#X connect 6 0 8 0;
#X connect 7 0 6 0;
#X connect 8 0 10 0;
#X connect 8 1 9 1;
#X connect 9 0 12 2;
#X connect 10 0 9 0;
#X connect 11 0 12 1;
#X connect 12 0 13 0;
#X connect 14 0 2 0;
#X connect 15 0 4 0;
#X connect 16 0 15 0;
#X connect 16 1 4 1;
#X restore 425 1009 pd a4;
#N canvas 875 277 853 715 a5 0;
#X obj 162 166 inlet~;
#X obj 321 56 loadbang;
#X obj 321 134 / 25600;
#X obj 321 173 * 2;
#X obj 321 290 /;
#X obj 321 329 t b f;
#X obj 321 407 /;
#X msg 321 368 1;
#X obj 321 446 t b f;
#X obj 321 524 pow;
#X msg 321 485 0.001;
#X obj 216 354 * 1000;
#X obj 163 601 cyclone/allpass~;
#X obj 163 640 outlet~;
#X obj 321 251 * 32;
#X obj 321 212 t f f;
#X msg 321 95 3667;
#X connect 0 0 12 0;
#X connect 1 0 16 0;
#X connect 2 0 3 0;
#X connect 3 0 11 0;
#X connect 3 0 15 0;
#X connect 4 0 5 0;
#X connect 5 0 7 0;
#X connect 5 1 6 1;
#X connect 6 0 8 0;
#X connect 7 0 6 0;
#X connect 8 0 10 0;
#X connect 8 1 9 1;
#X connect 9 0 12 2;
#X connect 10 0 9 0;
#X connect 11 0 12 1;
#X connect 12 0 13 0;
#X connect 14 0 4 0;
#X connect 15 0 14 0;
#X connect 15 1 4 1;
#X connect 16 0 2 0;
#X restore 479 1009 pd a5;
#N canvas 875 277 853 687 a6 0;
#X obj 162 166 inlet~;
#X obj 321 56 loadbang;
#X obj 321 134 / 25600;
#X obj 321 173 * 2;
#X obj 321 290 /;
#X obj 321 329 t b f;
#X obj 321 407 /;
#X msg 321 368 1;
#X obj 321 446 t b f;
#X obj 321 524 pow;
#X msg 321 485 0.001;
#X obj 216 354 * 1000;
#X obj 163 601 cyclone/allpass~;
#X obj 163 640 outlet~;
#X obj 321 251 * 32;
#X obj 321 212 t f f;
#X msg 321 95 4053;
#X connect 0 0 12 0;
#X connect 1 0 16 0;
#X connect 2 0 3 0;
#X connect 3 0 11 0;
#X connect 3 0 15 0;
#X connect 4 0 5 0;
#X connect 5 0 7 0;
#X connect 5 1 6 1;
#X connect 6 0 8 0;
#X connect 7 0 6 0;
#X connect 8 0 10 0;
#X connect 8 1 9 1;
#X connect 9 0 12 2;
#X connect 10 0 9 0;
#X connect 11 0 12 1;
#X connect 12 0 13 0;
#X connect 14 0 4 0;
#X connect 15 0 14 0;
#X connect 15 1 4 1;
#X connect 16 0 2 0;
#X restore 534 1009 pd a6;
#N canvas 875 277 853 659 a7 0;
#X obj 162 166 inlet~;
#X obj 321 56 loadbang;
#X obj 321 134 / 25600;
#X obj 321 173 * 2;
#X obj 321 290 /;
#X obj 321 329 t b f;
#X obj 321 407 /;
#X msg 321 368 1;
#X obj 321 446 t b f;
#X obj 321 524 pow;
#X msg 321 485 0.001;
#X obj 216 354 * 1000;
#X obj 163 601 cyclone/allpass~;
#X obj 163 640 outlet~;
#X obj 321 251 * 32;
#X obj 321 212 t f f;
#X msg 321 95 4451;
#X connect 0 0 12 0;
#X connect 1 0 16 0;
#X connect 2 0 3 0;
#X connect 3 0 11 0;
#X connect 3 0 15 0;
#X connect 4 0 5 0;
#X connect 5 0 7 0;
#X connect 5 1 6 1;
#X connect 6 0 8 0;
#X connect 7 0 6 0;
#X connect 8 0 10 0;
#X connect 8 1 9 1;
#X connect 9 0 12 2;
#X connect 10 0 9 0;
#X connect 11 0 12 1;
#X connect 12 0 13 0;
#X connect 14 0 4 0;
#X connect 15 0 14 0;
#X connect 15 1 4 1;
#X connect 16 0 2 0;
#X restore 585 1009 pd a7;
#N canvas 774 191 669 265 lines 0;
#X obj 96 23 inlet~;
#X obj 165 23 inlet~;
#X obj 235 23 inlet~;
#X obj 299 23 inlet~;
#X obj 97 131 +~;
#X obj 97 162 *~;
#X obj 166 100 +~;
#X obj 197 100 +~;
#X obj 166 131 +~;
#X obj 97 100 -~;
#X obj 236 100 -~;
#X obj 236 131 -~;
#X obj 236 162 -~;
#X obj 300 131 -~;
#X obj 300 162 -~;
#X obj 300 100 +~;
#X obj 97 193 outlet~;
#X obj 165 193 outlet~;
#X obj 236 193 outlet~;
#X obj 300 193 outlet~;
#X connect 0 0 9 0;
#X connect 0 0 6 0;
#X connect 0 0 10 0;
#X connect 0 0 15 0;
#X connect 1 0 9 1;
#X connect 1 0 6 1;
#X connect 1 0 10 1;
#X connect 1 0 15 1;
#X connect 2 0 4 1;
#X connect 2 0 7 0;
#X connect 2 0 11 1;
#X connect 2 0 13 1;
#X connect 3 0 5 1;
#X connect 3 0 7 1;
#X connect 3 0 12 1;
#X connect 3 0 14 1;
#X connect 4 0 5 0;
#X connect 5 0 16 0;
#X connect 6 0 8 0;
#X connect 7 0 8 1;
#X connect 8 0 17 0;
#X connect 9 0 4 0;
#X connect 10 0 11 0;
#X connect 11 0 12 0;
#X connect 12 0 18 0;
#X connect 13 0 14 0;
#X connect 14 0 19 0;
#X connect 15 0 13 0;
#X restore 425 1045 pd lines;
#X obj 130 1157 +~;
#N canvas 1148 323 450 299 AZ1 0;
#X obj 37 37 inlet~;
#X obj 213 37 inlet~;
#X obj 213 71 *~ 0.089;
#X obj 214 171 osc~;
#X obj 318 71 loadbang;
#X msg 239 136 0.75;
#X obj 214 205 *~ -1000;
#X obj 214 239 +~ 1000;
#X obj 214 273 /~ 25600;
#X obj 214 307 *~ 2;
#X obj 39 414 delwrite~ \$0-delay 1000;
#X obj 214 413 delread4~ \$0-delay 1000;
#X obj 215 506 outlet~;
#X connect 0 0 10 0;
#X connect 1 0 2 0;
#X connect 2 0 3 0;
#X connect 3 0 6 0;
#X connect 4 0 5 0;
#X connect 5 0 3 1;
#X connect 6 0 7 0;
#X connect 7 0 8 0;
#X connect 8 0 9 0;
#X connect 9 0 11 0;
#X connect 11 0 12 0;
#X restore 425 1081 pd AZ1;
#N canvas 1148 323 450 523 AZ2 0;
#X obj 37 37 inlet~;
#X obj 213 37 inlet~;
#X obj 214 171 osc~;
#X obj 318 71 loadbang;
#X msg 239 136 0.75;
#X obj 214 205 *~ -1000;
#X obj 214 239 +~ 1000;
#X obj 214 273 /~ 25600;
#X obj 214 307 *~ 2;
#X obj 39 385 delwrite~ \$0-delay 1000;
#X obj 214 413 delread4~ \$0-delay 1000;
#X obj 215 506 outlet~;
#X obj 213 71 *~ 0.0083;
#X connect 0 0 9 0;
#X connect 1 0 12 0;
#X connect 2 0 5 0;
#X connect 3 0 4 0;
#X connect 4 0 2 1;
#X connect 5 0 6 0;
#X connect 6 0 7 0;
#X connect 7 0 8 0;
#X connect 8 0 10 0;
#X connect 10 0 11 0;
#X connect 12 0 2 0;
#X restore 478 1081 pd AZ2;
#N canvas 1278 299 450 215 AZ3 0;
#X obj 37 37 inlet~;
#X obj 213 37 inlet~;
#X obj 213 71 *~ 0.089;
#X obj 214 171 osc~;
#X obj 318 71 loadbang;
#X msg 239 136 0.75;
#X obj 214 205 *~ -1000;
#X obj 214 239 +~ 1000;
#X obj 214 273 /~ 25600;
#X obj 214 307 *~ 2;
#X obj 39 385 delwrite~ \$0-delay 1000;
#X obj 214 413 delread4~ \$0-delay 1000;
#X obj 215 506 outlet~;
#X connect 0 0 10 0;
#X connect 1 0 2 0;
#X connect 2 0 3 0;
#X connect 3 0 6 0;
#X connect 4 0 5 0;
#X connect 5 0 3 1;
#X connect 6 0 7 0;
#X connect 7 0 8 0;
#X connect 8 0 9 0;
#X connect 9 0 11 0;
#X connect 11 0 12 0;
#X restore 529 1081 pd AZ3;
#N canvas 1278 299 450 103 AZ4 0;
#X obj 37 37 inlet~;
#X obj 213 37 inlet~;
#X obj 214 171 osc~;
#X obj 318 71 loadbang;
#X msg 239 136 0.75;
#X obj 214 205 *~ -1000;
#X obj 214 239 +~ 1000;
#X obj 214 273 /~ 25600;
#X obj 214 307 *~ 2;
#X obj 39 385 delwrite~ \$0-delay 1000;
#X obj 214 413 delread4~ \$0-delay 1000;
#X obj 215 506 outlet~;
#X obj 213 71 *~ 0.0101;
#X connect 0 0 9 0;
#X connect 1 0 12 0;
#X connect 2 0 5 0;
#X connect 3 0 4 0;
#X connect 4 0 2 1;
#X connect 5 0 6 0;
#X connect 6 0 7 0;
#X connect 7 0 8 0;
#X connect 8 0 10 0;
#X connect 10 0 11 0;
#X connect 12 0 2 0;
#X restore 587 1081 pd AZ4;
#X obj 198 1157 +~;
#X obj 262 1157 +~;
#X obj 331 1157 +~;
#N canvas 904 168 439 426 arevsc 1;
#X obj 63 401 outlet~;
#X obj 63 354 line~;
#X obj 23 16 r preset;
#X obj 63 166 stripnote;
#X obj 23 63 list split 1;
#X obj 63 119 unpack f f f;
#X obj 63 213 t b;
#X obj 63 260 f;
#X obj 63 307 text get arevsclines;
#X obj 245 48 inlet;
#X connect 1 0 0 0;
#X connect 2 0 4 0;
#X connect 3 0 6 0;
#X connect 4 1 5 0;
#X connect 5 0 3 0;
#X connect 5 1 3 1;
#X connect 5 2 7 1;
#X connect 6 0 7 0;
#X connect 7 0 8 0;
#X connect 8 0 1 0;
#X connect 9 0 1 0;
#X restore 644 1043 pd arevsc;
#X obj 137 1380 +~;
#X text 41 1212 ch1+4;
#X text 453 1216 ch2+3;
#X obj 195 1378 +~;
#X obj 136 1408 dac~ 1 2;
#X text 163 819 idis;
#X text 211 819 ch1;
#X text 244 820 ch2;
#X text 273 819 ch3;
#X text 303 821 ch4;
#X text 378 551 rev;
#X obj 168 760 loadbang;
#X msg 168 784 0.1;
#X floatatom 168 839 5 0 0 0 - - - 0;
#X floatatom 214 842 5 0 0 0 - - - 0;
#X floatatom 254 844 5 0 0 0 - - - 0;
#X floatatom 297 847 5 0 0 0 - - - 0;
#X floatatom 350 846 5 0 0 0 - - - 0;
#X text 351 97 isk;
#X floatatom 146 126 5 0 0 0 - - - 0;
#X floatatom 192 126 5 0 0 0 - - - 0;
#X floatatom 308 123 5 0 0 0 - - - 0;
#X floatatom 355 121 5 0 0 0 - - - 0;
#X floatatom 467 115 5 0 0 0 - - - 0;
#X floatatom 513 115 5 0 0 0 - - - 0;
#X floatatom 595 115 5 0 0 0 - - - 0;
#X floatatom 556 115 5 0 0 0 - - - 0;
#X floatatom 705 113 5 0 0 0 - - - 0;
#X floatatom 751 113 5 0 0 0 - - - 0;
#X floatatom 833 113 5 0 0 0 - - - 0;
#X floatatom 794 113 5 0 0 0 - - - 0;
#X obj 143 13 loadbang;
#X obj 78 76 sig~;
#X floatatom 528 370 5 0 0 0 - - - 0;
#X floatatom 582 370 5 0 0 0 - - - 0;
#X floatatom 679 370 5 0 0 0 - - - 0;
#X floatatom 735 367 5 0 0 0 - - - 0;
#X floatatom 841 365 5 0 0 0 - - - 0;
#X floatatom 903 365 5 0 0 0 - - - 0;
#X msg 594 60 1;
#X msg 559 60 1;
#X msg 796 62 1;
#X msg 734 312 1;
#X msg 838 310 1;
#X text 1067 99 DSP on/off;
#X obj 988 72 tgl 17 0 empty empty empty 17 7 0 10 #dfdfdf #000000 #000000 0 1;
#X msg 988 100 \; pd dsp \$1;
#X msg 143 53 2;
#N canvas 150 188 734 521 volumes 0;
#X obj 128 124 vu 15 120 empty empty -1 -8 0 12 #404040 #000000 1 0;
#N canvas 329 161 1399 389 vu 0;
#X obj 59 129 env~ 1024;
#X obj 161 111 abs~;
#X obj 161 213 snapshot~;
#X obj 161 256 rmstodb;
#X obj 161 21 inlet~;
#X obj 161 288 - 100;
#X obj 59 287 - 100;
#X obj 59 361 outlet;
#X obj 161 361 outlet;
#X text 344 307 Check the help file of env~ and slop~ for more details., f 31;
#X obj 239 89 expr 1000 / $f1;
#X floatatom 239 117 5 0 0 0 - - - 0;
#X obj 161 146 slop~ 0 0 0 0 1e+09;
#X obj 239 18 inlet;
#X floatatom 239 57 5 0 0 0 - - - 0;
#X text 359 89 convert to hz;
#X text 282 118 hz;
#X text 284 57 peak decay time in ms;
#X obj 59 171 t f b;
#X text 345 132 The env~ object is dedicated to RMS analysis. Its output is in dB (0-100 range \, pd style) but needs to be converted to dBFS (and we do that by simply subtracting 100)., f 31;
#X text 345 225 The slop~ object is used here for peak detection. We need to convert the output to dB with rmstodb and also subtract by 100 to convert it to dBFS., f 31;
#X connect 0 0 18 0;
#X connect 1 0 12 0;
#X connect 2 0 3 0;
#X connect 3 0 5 0;
#X connect 4 0 0 0;
#X connect 4 0 1 0;
#X connect 5 0 8 0;
#X connect 6 0 7 0;
#X connect 10 0 11 0;
#X connect 11 0 12 3;
#X connect 12 0 2 0;
#X connect 13 0 14 0;
#X connect 14 0 10 0;
#X connect 18 0 6 0;
#X connect 18 1 2 0;
#X restore 127 74 pd vu;
#X obj 382 14 loadbang;
#X obj 414 53 f 500;
#X obj 196 124 vu 15 120 empty empty -1 -8 0 12 #404040 #000000 1 0;
#N canvas 329 161 1399 389 vu 0;
#X obj 59 129 env~ 1024;
#X obj 161 111 abs~;
#X obj 161 213 snapshot~;
#X obj 161 256 rmstodb;
#X obj 161 21 inlet~;
#X obj 161 288 - 100;
#X obj 59 287 - 100;
#X obj 59 361 outlet;
#X obj 161 361 outlet;
#X text 344 307 Check the help file of env~ and slop~ for more details., f 31;
#X obj 239 89 expr 1000 / $f1;
#X floatatom 239 117 5 0 0 0 - - - 0;
#X obj 161 146 slop~ 0 0 0 0 1e+09;
#X obj 239 18 inlet;
#X floatatom 239 57 5 0 0 0 - - - 0;
#X text 359 89 convert to hz;
#X text 282 118 hz;
#X text 284 57 peak decay time in ms;
#X obj 59 171 t f b;
#X text 345 132 The env~ object is dedicated to RMS analysis. Its output is in dB (0-100 range \, pd style) but needs to be converted to dBFS (and we do that by simply subtracting 100)., f 31;
#X text 345 225 The slop~ object is used here for peak detection. We need to convert the output to dB with rmstodb and also subtract by 100 to convert it to dBFS., f 31;
#X connect 0 0 18 0;
#X connect 1 0 12 0;
#X connect 2 0 3 0;
#X connect 3 0 5 0;
#X connect 4 0 0 0;
#X connect 4 0 1 0;
#X connect 5 0 8 0;
#X connect 6 0 7 0;
#X connect 10 0 11 0;
#X connect 11 0 12 3;
#X connect 12 0 2 0;
#X connect 13 0 14 0;
#X connect 14 0 10 0;
#X connect 18 0 6 0;
#X connect 18 1 2 0;
#X restore 200 81 pd vu;
#X obj 261 124 vu 15 120 empty empty -1 -8 0 12 #404040 #000000 1 0;
#N canvas 329 161 1399 389 vu 0;
#X obj 59 129 env~ 1024;
#X obj 161 111 abs~;
#X obj 161 213 snapshot~;
#X obj 161 256 rmstodb;
#X obj 161 21 inlet~;
#X obj 161 288 - 100;
#X obj 59 287 - 100;
#X obj 59 361 outlet;
#X obj 161 361 outlet;
#X text 344 307 Check the help file of env~ and slop~ for more details., f 31;
#X obj 239 89 expr 1000 / $f1;
#X floatatom 239 117 5 0 0 0 - - - 0;
#X obj 161 146 slop~ 0 0 0 0 1e+09;
#X obj 239 18 inlet;
#X floatatom 239 57 5 0 0 0 - - - 0;
#X text 359 89 convert to hz;
#X text 282 118 hz;
#X text 284 57 peak decay time in ms;
#X obj 59 171 t f b;
#X text 345 132 The env~ object is dedicated to RMS analysis. Its output is in dB (0-100 range \, pd style) but needs to be converted to dBFS (and we do that by simply subtracting 100)., f 31;
#X text 345 225 The slop~ object is used here for peak detection. We need to convert the output to dB with rmstodb and also subtract by 100 to convert it to dBFS., f 31;
#X connect 0 0 18 0;
#X connect 1 0 12 0;
#X connect 2 0 3 0;
#X connect 3 0 5 0;
#X connect 4 0 0 0;
#X connect 4 0 1 0;
#X connect 5 0 8 0;
#X connect 6 0 7 0;
#X connect 10 0 11 0;
#X connect 11 0 12 3;
#X connect 12 0 2 0;
#X connect 13 0 14 0;
#X connect 14 0 10 0;
#X connect 18 0 6 0;
#X connect 18 1 2 0;
#X restore 265 81 pd vu;
#X obj 322 124 vu 15 120 empty empty -1 -8 0 12 #404040 #000000 1 0;
#N canvas 329 161 1399 389 vu 0;
#X obj 59 129 env~ 1024;
#X obj 161 111 abs~;
#X obj 161 213 snapshot~;
#X obj 161 256 rmstodb;
#X obj 161 21 inlet~;
#X obj 161 288 - 100;
#X obj 59 287 - 100;
#X obj 59 361 outlet;
#X obj 161 361 outlet;
#X text 344 307 Check the help file of env~ and slop~ for more details., f 31;
#X obj 239 89 expr 1000 / $f1;
#X floatatom 239 117 5 0 0 0 - - - 0;
#X obj 161 146 slop~ 0 0 0 0 1e+09;
#X obj 239 18 inlet;
#X floatatom 239 57 5 0 0 0 - - - 0;
#X text 359 89 convert to hz;
#X text 282 118 hz;
#X text 284 57 peak decay time in ms;
#X obj 59 171 t f b;
#X text 345 132 The env~ object is dedicated to RMS analysis. Its output is in dB (0-100 range \, pd style) but needs to be converted to dBFS (and we do that by simply subtracting 100)., f 31;
#X text 345 225 The slop~ object is used here for peak detection. We need to convert the output to dB with rmstodb and also subtract by 100 to convert it to dBFS., f 31;
#X connect 0 0 18 0;
#X connect 1 0 12 0;
#X connect 2 0 3 0;
#X connect 3 0 5 0;
#X connect 4 0 0 0;
#X connect 4 0 1 0;
#X connect 5 0 8 0;
#X connect 6 0 7 0;
#X connect 10 0 11 0;
#X connect 11 0 12 3;
#X connect 12 0 2 0;
#X connect 13 0 14 0;
#X connect 14 0 10 0;
#X connect 18 0 6 0;
#X connect 18 1 2 0;
#X restore 326 81 pd vu;
#X obj 104 3 inlet~;
#X obj 178 3 inlet~;
#X obj 243 3 inlet~;
#X obj 304 3 inlet~;
#X obj 103 301 outlet~;
#X obj 173 301 outlet~;
#X obj 232 301 outlet~;
#X obj 291 301 outlet~;
#X obj 104 45 *~ 0.02;
#X obj 178 44 *~ 0.02;
#X obj 249 43 *~ 0.02;
#X obj 323 42 *~ 0.02;
#X connect 1 0 0 0;
#X connect 1 1 0 1;
#X connect 2 0 3 0;
#X connect 3 0 1 1;
#X connect 3 0 5 1;
#X connect 3 0 7 1;
#X connect 3 0 9 1;
#X connect 5 0 4 0;
#X connect 5 1 4 1;
#X connect 7 0 6 0;
#X connect 7 1 6 1;
#X connect 9 0 8 0;
#X connect 9 1 8 1;
#X connect 10 0 18 0;
#X connect 11 0 19 0;
#X connect 12 0 20 0;
#X connect 13 0 21 0;
#X connect 18 0 1 0;
#X connect 18 0 14 0;
#X connect 19 0 5 0;
#X connect 19 0 15 0;
#X connect 20 0 16 0;
#X connect 20 0 7 0;
#X connect 21 0 9 0;
#X connect 21 0 17 0;
#X coords 0 -1 1 1 290 150 1 100 100;
#X restore 113 1188 pd volumes;
#X msg 514 61 500;
#X msg 753 62 501;
#X msg 528 314 300;
#X msg 78 54 0.5;
#X msg 190 51 151;
#X msg 356 58 0.06;
#X msg 312 59 6;
#X msg 470 59 1;
#X msg 707 61 4;
#X msg 214 787 0.2;
#X msg 305 633 0.2;
#X floatatom 305 683 5 0 0 0 - - - 0;
#X text 681 953 ch4;
#X floatatom 728 978 5 0 0 0 - - - 0;
#N canvas 512 204 1169 619 asig 0;
#X obj 94 67 inlet~;
#X obj 170 67 inlet~;
#X obj 240 57 inlet~;
#X obj 315 67 inlet~;
#X obj 100 462 outlet~;
#X obj 100 436 *~;
#X obj 167 384 osc~;
#X obj 165 338 +~;
#X obj 279 297 +~;
#N canvas 0 39 1728 602 amoda 0;
#X obj 103 38 inlet~;
#X obj 357 38 inlet~;
#X obj 105 323 outlet~;
#X obj 104 241 *~;
#X obj 193 215 osc~;
#X obj 180 81 r ifma\$1;
#X obj 424 83 r imag\$1;
#X obj 152 152 *;
#X obj 152 178 *;
#X obj 392 152 *;
#X obj 104 215 +~ 0;
#X obj 357 178 *~ 0;
#X obj 269 75 r indxa1\$1;
#X obj 586 35 inlet;
#X obj 648 38 inlet;
#X obj 708 38 inlet;
#X connect 0 0 10 0;
#X connect 1 0 11 0;
#X connect 3 0 2 0;
#X connect 4 0 3 1;
#X connect 5 0 7 0;
#X connect 5 0 9 0;
#X connect 6 0 8 1;
#X connect 6 0 9 1;
#X connect 7 0 8 0;
#X connect 8 0 10 1;
#X connect 9 0 11 1;
#X connect 10 0 3 0;
#X connect 11 0 4 0;
#X connect 12 0 7 1;
#X connect 13 0 7 0;
#X connect 13 0 9 0;
#X connect 14 0 7 1;
#X connect 15 0 8 1;
#X connect 15 0 9 1;
#X restore 365 201 pd amoda;
#N canvas 481 271 969 428 amodb 0;
#X obj 103 38 inlet~;
#X obj 357 38 inlet~;
#X obj 105 323 outlet~;
#X obj 104 241 *~;
#X obj 193 215 osc~;
#X obj 120 113 r ifma\$1;
#X obj 547 94 r imag\$1;
#X obj 394 100 r ifmb\$1;
#X obj 152 152 *;
#X obj 152 178 *;
#X obj 392 152 *;
#X obj 357 178 *~ 0;
#X obj 104 215 +~ 0;
#X obj 197 115 r indxb1\$1;
#X obj 586 35 inlet;
#X obj 648 38 inlet;
#X obj 708 38 inlet;
#X obj 770 39 inlet;
#X connect 0 0 12 0;
#X connect 1 0 11 0;
#X connect 3 0 2 0;
#X connect 4 0 3 1;
#X connect 5 0 8 0;
#X connect 6 0 9 1;
#X connect 6 0 10 1;
#X connect 7 0 10 0;
#X connect 8 0 9 0;
#X connect 9 0 12 1;
#X connect 10 0 11 1;
#X connect 11 0 4 0;
#X connect 12 0 3 0;
#X connect 13 0 8 1;
#X connect 14 0 8 0;
#X connect 15 0 8 1;
#X connect 16 0 10 0;
#X connect 17 0 10 1;
#X connect 17 0 9 1;
#X restore 477 191 pd amodb;
#X obj 189 249 r ifc\$1;
#X obj 243 217 r imag\$1;
#X obj 188 275 * 1;
#X obj 165 304 *~ 0;
#X obj 495 68 inlet;
#X obj 551 67 inlet;
#X text 549 41 imag;
#X text 493 39 ifc;
#X obj 647 64 inlet;
#X obj 703 63 inlet;
#X obj 871 59 inlet;
#X obj 808 60 inlet;
#X text 645 35 ifma;
#X text 701 37 indxa;
#X text 869 30 ifmb;
#X text 806 34 indxb;
#X connect 0 0 5 0;
#X connect 1 0 14 0;
#X connect 1 0 9 1;
#X connect 1 0 10 1;
#X connect 2 0 9 0;
#X connect 3 0 10 0;
#X connect 5 0 4 0;
#X connect 6 0 5 1;
#X connect 7 0 6 0;
#X connect 8 0 7 1;
#X connect 9 0 8 0;
#X connect 10 0 8 1;
#X connect 11 0 13 0;
#X connect 12 0 13 1;
#X connect 13 0 14 1;
#X connect 14 0 7 0;
#X connect 15 0 13 0;
#X connect 16 0 13 1;
#X connect 16 0 9 4;
#X connect 16 0 10 5;
#X connect 19 0 9 2;
#X connect 19 0 10 2;
#X connect 20 0 9 3;
#X connect 21 0 10 4;
#X connect 22 0 10 3;
#X restore 1209 488 pd asig;
#X f 57;
#N canvas 750 87 978 289 env 0;
#X msg 245 254 set F\$1;
#X obj 123 440 outlet~;
#X obj 248 205 r ifn1\$1;
#X obj 413 240 r iamp\$1;
#X obj 106 174 *~ 16385;
#X obj 122 326 tabread4~;
#X obj 123 414 *~ 0;
#X obj 232 53 inlet;
#X obj 321 57 inlet;
#X obj 113 53 inlet~;
#X connect 0 0 5 0;
#X connect 2 0 0 0;
#X connect 3 0 6 1;
#X connect 4 0 5 0;
#X connect 5 0 6 0;
#X connect 6 0 1 0;
#X connect 7 0 0 0;
#X connect 8 0 6 1;
#X connect 9 0 4 0;
#X restore 1211 181 pd env;
#N canvas 0 38 1728 635 skew 0;
#X msg 191 249 set F\$1;
#X obj 122 550 outlet~;
#X obj 106 174 *~ 16385;
#X obj 241 125 r ifn2\$1;
#X obj 349 119 r isk\$1;
#X obj 122 326 tabread4~;
#X obj 123 414 *~ 0;
#X obj 125 489 +~ 1;
#X obj 79 48 inlet~;
#X obj 183 48 inlet;
#X obj 354 41 inlet;
#X connect 0 0 5 0;
#X connect 2 0 5 0;
#X connect 3 0 0 0;
#X connect 4 0 6 1;
#X connect 5 0 6 0;
#X connect 6 0 7 0;
#X connect 7 0 1 0;
#X connect 8 0 2 0;
#X connect 9 0 0 0;
#X connect 10 0 6 1;
#X restore 1397 183 pd skew;
#N canvas 860 110 656 582 fda 0;
#X msg 245 254 set F\$1;
#X obj 122 606 outlet~;
#X obj 106 193 *~ 16385;
#X obj 275 65 r ifn3\$1;
#X obj 396 247 r ifma\$1;
#X obj 420 293 r idifa\$1;
#X obj 496 331 r imag\$1;
#X obj 124 297 tabread4~;
#X obj 123 414 *~ 0;
#X obj 122 469 *~ 0;
#X obj 122 523 *~ 0;
#X obj 61 54 inlet~;
#X obj 163 72 inlet;
#X obj 393 89 inlet;
#X obj 459 93 inlet;
#X obj 545 90 inlet;
#X connect 0 0 7 0;
#X connect 2 0 7 0;
#X connect 3 0 0 0;
#X connect 4 0 8 1;
#X connect 5 0 9 1;
#X connect 6 0 10 1;
#X connect 7 0 8 0;
#X connect 8 0 9 0;
#X connect 9 0 10 0;
#X connect 10 0 1 0;
#X connect 11 0 2 0;
#X connect 12 0 0 0;
#X connect 13 0 8 1;
#X connect 14 0 9 1;
#X connect 15 0 10 1;
#X restore 1557 185 pd fda;
#N canvas 545 160 907 682 fdb 0;
#X msg 245 254 set F\$1;
#X obj 122 549 outlet~;
#X obj 106 174 *~ 16385;
#X obj 261 201 r ifn4\$1;
#X obj 501 308 r ifmb\$1;
#X obj 370 254 r idifb\$1;
#X obj 448 185 r imag\$1;
#X obj 124 297 tabread4~;
#X obj 123 414 *~ 0;
#X obj 122 469 *~ 0;
#X obj 122 523 *~ 0;
#X obj 61 54 inlet~;
#X obj 163 72 inlet;
#X obj 393 89 inlet;
#X obj 459 93 inlet;
#X obj 545 90 inlet;
#X text 60 21 kndx;
#X text 160 22 ifn4;
#X text 382 25 ifmb;
#X text 458 24 idifb;
#X text 544 25 imag;
#X connect 0 0 7 0;
#X connect 2 0 7 0;
#X connect 3 0 0 0;
#X connect 4 0 8 1;
#X connect 5 0 9 1;
#X connect 6 0 10 1;
#X connect 7 0 8 0;
#X connect 8 0 9 0;
#X connect 9 0 10 0;
#X connect 10 0 1 0;
#X connect 11 0 2 0;
#X connect 12 0 0 0;
#X connect 13 0 8 1;
#X connect 14 0 9 1;
#X connect 15 0 10 1;
#X restore 1793 186 pd fdb;
#X text 1209 103 kndx;
#X text 1320 101 iamp;
#X text 1394 102 kndx;
#X text 1276 101 ifn1;
#X text 1437 102 ifn2;
#X text 1556 98 kndx;
#X text 1599 98 ifn3;
#X text 1643 98 ifma;
#X text 1682 98 idifa;
#X text 1725 97 imag;
#X text 1794 98 kndx;
#X text 1963 97 imag;
#X text 1837 98 ifn4;
#X text 1881 98 ifmb;
#X text 1920 98 idifb;
#X text 1711 348 imag;
#X text 1655 346 ifc;
#X text 1807 342 ifma;
#X text 1863 344 indxa;
#X text 2031 337 ifmb;
#X text 1968 341 indxb;
#X text 1481 102 isk;
#X floatatom 1276 131 5 0 0 0 - - - 0;
#X floatatom 1322 131 5 0 0 0 - - - 0;
#X floatatom 1438 128 5 0 0 0 - - - 0;
#X floatatom 1484 128 5 0 0 0 - - - 0;
#X floatatom 1597 120 5 0 0 0 - - - 0;
#X floatatom 1643 120 5 0 0 0 - - - 0;
#X floatatom 1725 120 5 0 0 0 - - - 0;
#X floatatom 1686 120 5 0 0 0 - - - 0;
#X floatatom 1835 118 5 0 0 0 - - - 0;
#X floatatom 1881 118 5 0 0 0 - - - 0;
#X floatatom 1963 118 5 0 0 0 - - - 0;
#X floatatom 1924 118 5 0 0 0 - - - 0;
#X obj 1273 18 loadbang;
#X obj 1208 81 sig~;
#X floatatom 1658 375 5 0 0 0 - - - 0;
#X floatatom 1712 375 5 0 0 0 - - - 0;
#X floatatom 1809 375 5 0 0 0 - - - 0;
#X floatatom 1865 372 5 0 0 0 - - - 0;
#X floatatom 1971 370 5 0 0 0 - - - 0;
#X floatatom 2033 370 5 0 0 0 - - - 0;
#X msg 1724 65 1;
#X msg 1689 65 1;
#X msg 1926 67 1;
#X msg 1864 317 1;
#X msg 1968 315 1;
#X msg 1273 58 2;
#X msg 1644 66 500;
#X msg 1883 67 501;
#X msg 1658 319 300;
#X msg 1208 59 0.5;
#X msg 1320 56 151;
#X msg 1486 63 0.06;
#X msg 1442 64 6;
#X msg 1600 64 1;
#X msg 1837 66 4;
#X obj 26 129 phasor~ 0.11;
#X obj 1156 134 phasor~ 0.1;
#X connect 0 0 30 0;
#X connect 1 0 0 0;
#X connect 2 0 0 1;
#X connect 3 0 0 2;
#X connect 4 0 0 3;
#X connect 27 0 46 0;
#X connect 27 1 51 0;
#X connect 27 2 52 0;
#X connect 27 3 53 0;
#X connect 28 0 38 0;
#X connect 29 0 28 0;
#X connect 30 0 29 0;
#X connect 30 0 27 0;
#X connect 31 0 32 0;
#X connect 32 0 37 0;
#X connect 33 0 31 0;
#X connect 34 0 33 0;
#X connect 35 0 29 1;
#X connect 36 0 28 1;
#X connect 37 0 36 0;
#X connect 38 0 39 0;
#X connect 39 0 40 0;
#X connect 40 0 41 0;
#X connect 40 0 42 0;
#X connect 40 0 43 0;
#X connect 40 0 44 0;
#X connect 41 0 45 0;
#X connect 42 0 45 1;
#X connect 43 0 45 2;
#X connect 44 0 45 3;
#X connect 45 0 47 0;
#X connect 45 1 48 0;
#X connect 45 2 49 0;
#X connect 45 3 50 0;
#X connect 46 0 103 0;
#X connect 47 0 46 1;
#X connect 48 0 51 1;
#X connect 49 0 52 1;
#X connect 50 0 53 1;
#X connect 51 0 103 1;
#X connect 52 0 103 2;
#X connect 53 0 103 3;
#X connect 54 0 47 1;
#X connect 54 0 48 1;
#X connect 54 0 49 1;
#X connect 54 0 50 1;
#X connect 55 0 59 0;
#X connect 58 0 59 1;
#X connect 66 0 67 0;
#X connect 66 0 113 0;
#X connect 66 0 114 0;
#X connect 67 0 68 0;
#X connect 68 0 27 1;
#X connect 69 0 27 2;
#X connect 70 0 27 3;
#X connect 71 0 27 4;
#X connect 72 0 27 5;
#X connect 74 0 1 1;
#X connect 75 0 1 2;
#X connect 76 0 2 1;
#X connect 77 0 2 2;
#X connect 78 0 3 1;
#X connect 79 0 3 2;
#X connect 80 0 3 4;
#X connect 81 0 3 3;
#X connect 82 0 4 1;
#X connect 83 0 4 2;
#X connect 84 0 4 4;
#X connect 85 0 4 3;
#X connect 86 0 107 0;
#X connect 86 0 102 0;
#X connect 86 0 110 0;
#X connect 86 0 111 0;
#X connect 86 0 112 0;
#X connect 86 0 94 0;
#X connect 86 0 108 0;
#X connect 86 0 109 0;
#X connect 86 0 104 0;
#X connect 86 0 105 0;
#X connect 86 0 96 0;
#X connect 86 0 106 0;
#X connect 86 0 97 0;
#X connect 86 0 98 0;
#X connect 88 0 0 4;
#X connect 89 0 0 5;
#X connect 90 0 0 6;
#X connect 91 0 0 7;
#X connect 92 0 0 8;
#X connect 93 0 0 9;
#X connect 94 0 80 0;
#X connect 94 0 84 0;
#X connect 94 0 89 0;
#X connect 95 0 81 0;
#X connect 96 0 85 0;
#X connect 97 0 91 0;
#X connect 98 0 92 0;
#X connect 100 0 101 0;
#X connect 102 0 74 0;
#X connect 103 0 55 0;
#X connect 103 1 58 0;
#X connect 103 2 58 1;
#X connect 103 3 55 1;
#X connect 104 0 79 0;
#X connect 104 0 90 0;
#X connect 105 0 83 0;
#X connect 105 0 93 0;
#X connect 106 0 88 0;
#X connect 107 0 87 0;
#X connect 108 0 75 0;
#X connect 109 0 77 0;
#X connect 110 0 76 0;
#X connect 111 0 78 0;
#X connect 112 0 82 0;
#X connect 113 0 69 0;
#X connect 113 0 70 0;
#X connect 113 0 71 0;
#X connect 113 0 72 0;
#X connect 114 0 115 0;
#X connect 115 0 29 1;
#X connect 117 0 54 0;
#X connect 118 0 30 0;
#X connect 119 0 118 0;
#X connect 120 0 118 1;
#X connect 121 0 118 2;
#X connect 122 0 118 3;
#X connect 145 0 119 1;
#X connect 146 0 119 2;
#X connect 147 0 120 1;
#X connect 148 0 120 2;
#X connect 149 0 121 1;
#X connect 150 0 121 2;
#X connect 151 0 121 4;
#X connect 152 0 121 3;
#X connect 153 0 122 1;
#X connect 154 0 122 2;
#X connect 155 0 122 4;
#X connect 156 0 122 3;
#X connect 157 0 174 0;
#X connect 157 0 170 0;
#X connect 157 0 177 0;
#X connect 157 0 178 0;
#X connect 157 0 179 0;
#X connect 157 0 165 0;
#X connect 157 0 175 0;
#X connect 157 0 176 0;
#X connect 157 0 171 0;
#X connect 157 0 172 0;
#X connect 157 0 167 0;
#X connect 157 0 173 0;
#X connect 157 0 168 0;
#X connect 157 0 169 0;
#X connect 159 0 118 4;
#X connect 160 0 118 5;
#X connect 161 0 118 6;
#X connect 162 0 118 7;
#X connect 163 0 118 8;
#X connect 164 0 118 9;
#X connect 165 0 151 0;
#X connect 165 0 155 0;
#X connect 165 0 160 0;
#X connect 166 0 152 0;
#X connect 167 0 156 0;
#X connect 168 0 162 0;
#X connect 169 0 163 0;
#X connect 170 0 145 0;
#X connect 171 0 150 0;
#X connect 171 0 161 0;
#X connect 172 0 154 0;
#X connect 172 0 164 0;
#X connect 173 0 159 0;
#X connect 174 0 158 0;
#X connect 175 0 146 0;
#X connect 176 0 148 0;
#X connect 177 0 147 0;
#X connect 178 0 149 0;
#X connect 179 0 153 0;
#X connect 180 0 1 0;
#X connect 180 0 2 0;
#X connect 180 0 3 0;
#X connect 180 0 4 0;
#X connect 181 0 119 0;
#X connect 181 0 120 0;
#X connect 181 0 121 0;
#X connect 181 0 122 0;
