#N canvas 498 536 621 389 12;
#X obj 170 24 r xvaluestick;
#X obj 268 24 r yvaluestick;
#X obj 366 24 r zvaluestick;
#X obj 464 24 r slidervaluestick;
#X obj 140 57 cyclone/switch 4;
#X connect 0 0 4 1;
#X connect 1 0 4 2;
#X connect 2 0 4 3;
#X connect 3 0 4 4;
