#N canvas 667 112 938 842 12;
#X floatatom 347 82 5 0 0 0 - - - 0;
#X obj 454 136 text define -k test;
#A set 1 2 1 \; 2 1 2 \; 3 1 1 \; 4 2 2 \;;
#X obj 348 217 text search test;
#X obj 348 258 text get test;
#X obj 348 326 list split 1;
#X obj 248 443 list prepend;
#X obj 374 379 list split 1;
#X text 478 324 get rid of header;
#X text 397 78 cueinput;
#X text 603 135 storrage for input routing;
#X text 495 217 search for cue;
#X text 493 253 get cue;
#X obj 248 474 route 1 2;
#X obj 248 412 list prepend;
#X text 244 136 datainput;
#X floatatom 205 135 5 0 0 0 - - - 0;
#X obj 247 531 route 1 2;
#X obj 343 532 route 1 2;
#X text 402 472 decide engine;
#X text 480 530 decide param;
#X floatatom 244 584 5 0 0 0 - - - 0;
#X floatatom 287 584 5 0 0 0 - - - 0;
#X floatatom 343 586 5 0 0 0 - - - 0;
#X floatatom 386 586 5 0 0 0 - - - 0;
#X obj 348 292 route -1;
#X text 479 294 get rid of false data;
#X text 38 130 NORMALIZE VALUES!;
#X obj 67 392 text define -k scaling;
#A set 1 2 45 1 \; 2 3 4 1 \; 3 4 5 2 \; 4 7 -12 0.1 \;;
#X obj 61 568 list split 1;
#X obj 61 534 route -1;
#X obj 61 459 text search scaling;
#X obj 61 500 text get scaling;
#X obj 249 202 / 100;
#X obj 243 696 * 1;
#X obj 245 729 + 0;
#X text 289 732 offset;
#X obj 62 626 print;
#X obj 110 609 unpack 0 0 0;
#X obj 242 662 pow;
#X floatatom 246 772 5 0 0 0 - - - 0;
#X text 288 661 exponent values between 1e-05 and N;
#X text 285 695 range;
#X connect 0 0 2 0;
#X connect 0 0 30 0;
#X connect 2 0 3 0;
#X connect 3 0 24 0;
#X connect 4 1 6 0;
#X connect 5 0 12 0;
#X connect 6 0 5 1;
#X connect 6 1 13 1;
#X connect 12 0 16 0;
#X connect 12 1 17 0;
#X connect 13 0 5 0;
#X connect 15 0 32 0;
#X connect 16 0 20 0;
#X connect 16 0 38 0;
#X connect 16 1 21 0;
#X connect 16 1 38 0;
#X connect 17 0 22 0;
#X connect 17 0 38 0;
#X connect 17 1 23 0;
#X connect 17 1 38 0;
#X connect 24 1 4 0;
#X connect 28 1 36 0;
#X connect 28 1 37 0;
#X connect 29 1 28 0;
#X connect 30 0 31 0;
#X connect 31 0 29 0;
#X connect 32 0 13 0;
#X connect 33 0 34 0;
#X connect 34 0 39 0;
#X connect 37 0 34 1;
#X connect 37 1 33 1;
#X connect 37 2 38 1;
#X connect 38 0 33 0;
