#N canvas 443 347 1152 485 12;
#X obj 139 241 outlet;
#X obj 80 24 inlet;
#X obj 170 24 r iconfader_1;
#X obj 140 156 cyclone/switch 9, f 101;
#X obj 269 23 r iconfader_2;
#X obj 374 24 r iconfader_3;
#X obj 473 23 r iconfader_4;
#X obj 574 24 r iconfader_5;
#X obj 673 23 r iconfader_6;
#X obj 778 24 r iconfader_7;
#X obj 877 23 r iconfader_8;
#X obj 980 24 r iconfader_9;
#X connect 1 0 3 0;
#X connect 2 0 3 1;
#X connect 3 0 0 0;
#X connect 4 0 3 2;
#X connect 5 0 3 3;
#X connect 6 0 3 4;
#X connect 7 0 3 5;
#X connect 8 0 3 6;
#X connect 9 0 3 7;
#X connect 10 0 3 8;
#X connect 11 0 3 9;
