#N canvas 129 177 1315 798 12;
#X obj 215 54 bendin;
#X obj 278 114 cyclone/scale 0 16383 0 1;
#X obj 44 127 cyclone/xbendout;
#X obj 43 160 midiout;
#X text 44 88 Feedbackloop for motorized faders, f 17;
#X obj 184 307 s iconfader_1;
#X obj 290 307 s iconfader_2;
#X obj 396 307 s iconfader_3;
#X obj 502 307 s iconfader_4;
#X obj 607 309 s iconfader_5;
#X obj 713 309 s iconfader_6;
#X obj 819 309 s iconfader_7;
#X obj 925 309 s iconfader_8;
#X obj 1027 310 s iconfader_9;
#X obj 184 158 cyclone/gate 9;
#X text 63 304 Fader;
#X obj 186 363 notein 1;
#X text 73 399 touch;
#X obj 188 393 route 104 105 106 107 108 109 110 111 112;
#X obj 192 452 route 24 25 26 27 28 29 30 31;
#X text 79 455 sel;
#X text 81 508 mute;
#X text 78 541 solo;
#X text 82 582 rec;
#X obj 193 501 route 16 17 18 19 20 21 22 23;
#X obj 193 540 route 8 9 10 11 12 13 14 15;
#X obj 191 579 route 0 1 2 3 4 5 6 7;
#X obj 188 420 s iconfader_fadertouch1;
#X obj 354 420 s iconfader_fadertouch2;
#X obj 522 420 s iconfader_fadertouch3;
#X obj 688 420 s iconfader_fadertouch4;
#X obj 858 420 s iconfader_fadertouch5;
#X obj 1024 420 s iconfader_fadertouch6;
#X obj 1192 420 s iconfader_fadertouch7;
#X obj 1358 420 s iconfader_fadertouch8;
#X obj 1525 419 s iconfader_fadertouch9;
#X obj 193 477 s iconfader_sel1;
#X obj 311 477 s iconfader_sel2;
#X obj 434 478 s iconfader_sel3;
#X obj 552 478 s iconfader_sel4;
#X obj 673 479 s iconfader_sel5;
#X obj 791 479 s iconfader_sel6;
#X obj 914 480 s iconfader_sel7;
#X obj 1032 480 s iconfader_sel8;
#X obj 192 521 s iconfader_mute1;
#X obj 192 562 s iconfader_solo1;
#X obj 327 522 s iconfader_mute2;
#X obj 327 563 s iconfader_solo2;
#X obj 327 604 s iconfader_rec2;
#X obj 192 603 s iconfader_rec1;
#X obj 467 522 s iconfader_mute3;
#X obj 467 563 s iconfader_solo3;
#X obj 467 604 s iconfader_rec3;
#X obj 602 523 s iconfader_mute4;
#X obj 602 564 s iconfader_solo4;
#X obj 602 605 s iconfader_rec4;
#X obj 738 523 s iconfader_mute5;
#X obj 738 564 s iconfader_solo5;
#X obj 738 605 s iconfader_rec5;
#X obj 873 524 s iconfader_mute6;
#X obj 873 565 s iconfader_solo6;
#X obj 873 606 s iconfader_rec6;
#X obj 1013 524 s iconfader_mute7;
#X obj 1013 565 s iconfader_solo7;
#X obj 1013 606 s iconfader_rec7;
#X obj 1148 525 s iconfader_mute8;
#X obj 1148 566 s iconfader_solo8;
#X obj 1148 607 s iconfader_rec8;
#X connect 0 0 1 0;
#X connect 0 0 2 0;
#X connect 0 1 2 1;
#X connect 0 1 14 0;
#X connect 1 0 14 1;
#X connect 2 0 3 0;
#X connect 14 0 5 0;
#X connect 14 1 6 0;
#X connect 14 2 7 0;
#X connect 14 3 8 0;
#X connect 14 4 9 0;
#X connect 14 5 10 0;
#X connect 14 6 11 0;
#X connect 14 7 12 0;
#X connect 14 8 13 0;
#X connect 16 0 18 0;
#X connect 16 0 19 0;
#X connect 16 0 24 0;
#X connect 16 0 26 0;
#X connect 16 0 25 0;
#X connect 18 0 27 0;
#X connect 18 1 28 0;
#X connect 18 2 29 0;
#X connect 18 3 30 0;
#X connect 18 4 31 0;
#X connect 18 5 32 0;
#X connect 18 6 33 0;
#X connect 18 7 34 0;
#X connect 18 8 35 0;
#X connect 19 0 36 0;
#X connect 19 1 37 0;
#X connect 19 2 38 0;
#X connect 19 3 39 0;
#X connect 19 4 40 0;
#X connect 19 5 41 0;
#X connect 19 6 42 0;
#X connect 19 7 43 0;
#X connect 24 0 44 0;
#X connect 24 1 46 0;
#X connect 24 2 50 0;
#X connect 24 3 53 0;
#X connect 24 4 56 0;
#X connect 24 5 59 0;
#X connect 24 6 62 0;
#X connect 24 7 65 0;
#X connect 25 0 45 0;
#X connect 25 1 47 0;
#X connect 25 2 51 0;
#X connect 25 3 54 0;
#X connect 25 4 57 0;
#X connect 25 5 60 0;
#X connect 25 6 63 0;
#X connect 25 7 66 0;
#X connect 26 0 49 0;
#X connect 26 1 48 0;
#X connect 26 2 52 0;
#X connect 26 3 55 0;
#X connect 26 4 58 0;
#X connect 26 5 61 0;
#X connect 26 6 64 0;
#X connect 26 7 67 0;
