#N canvas 9 108 1719 756 12;
#X obj 1337 541 outlet;
#X obj 34 -1 inlet;
#X obj 36 70 route 104 105 106 107 108 109 110 111 112;
#X obj 38 204 route 24 25 26 27 28 29 30 31;
#X obj 38 287 route 16 17 18 19 20 21 22 23;
#X obj 40 357 route 8 9 10 11 12 13 14 15;
#X obj 39 439 route 0 1 2 3 4 5 6 7;
#X obj 35 108 r iconfader_fadertouch1;
#X obj 39 229 r iconfader_sel1;
#X obj 201 108 r iconfader_fadertouch2;
#X obj 369 108 r iconfader_fadertouch3;
#X obj 535 108 r iconfader_fadertouch4;
#X obj 705 108 r iconfader_fadertouch5;
#X obj 871 108 r iconfader_fadertouch6;
#X obj 1039 108 r iconfader_fadertouch7;
#X obj 1205 108 r iconfader_fadertouch8;
#X obj 1372 107 r iconfader_fadertouch9;
#X obj 157 229 r iconfader_sel2;
#X obj 280 230 r iconfader_sel3;
#X obj 398 230 r iconfader_sel4;
#X obj 519 231 r iconfader_sel5;
#X obj 637 231 r iconfader_sel6;
#X obj 760 232 r iconfader_sel7;
#X obj 878 232 r iconfader_sel8;
#X obj 37 307 r iconfader_mute1;
#X obj 172 308 r iconfader_mute2;
#X obj 312 308 r iconfader_mute3;
#X obj 447 309 r iconfader_mute4;
#X obj 583 309 r iconfader_mute5;
#X obj 717 303 r iconfader_mute6;
#X obj 857 303 r iconfader_mute7;
#X obj 992 304 r iconfader_mute8;
#X obj 995 383 r iconfader_solo8;
#X obj 860 382 r iconfader_solo7;
#X obj 720 382 r iconfader_solo6;
#X obj 585 381 r iconfader_solo5;
#X obj 449 381 r iconfader_solo4;
#X obj 314 380 r iconfader_solo3;
#X obj 174 380 r iconfader_solo2;
#X obj 39 379 r iconfader_solo1;
#X obj 40 463 r iconfader_rec1;
#X obj 175 464 r iconfader_rec2;
#X obj 315 464 r iconfader_rec3;
#X obj 450 465 r iconfader_rec4;
#X obj 586 465 r iconfader_rec5;
#X obj 721 466 r iconfader_rec6;
#X obj 861 466 r iconfader_rec7;
#X obj 996 467 r iconfader_rec8;
#N canvas 150 188 597 381 gates 0;
#X obj 65 24 inlet;
#X obj 241 337 outlet;
#X obj 218 61 sel 0 1;
#X obj 234 205 gate;
#X obj 276 205 gate;
#X obj 232 260 f;
#X obj 278 261 f;
#X obj 68 62 unpack 0 0 0 0;
#X obj 218 21 inlet;
#X connect 0 0 7 0;
#X connect 2 0 3 1;
#X connect 2 1 4 1;
#X connect 3 0 5 0;
#X connect 4 0 6 0;
#X connect 5 0 1 0;
#X connect 6 0 1 0;
#X connect 7 0 3 0;
#X connect 7 1 5 1;
#X connect 7 2 4 0;
#X connect 7 3 6 1;
#X connect 8 0 2 0;
#X restore 33 160 pd gates;
#N canvas 150 188 597 381 gates 0;
#X obj 65 24 inlet;
#X obj 241 337 outlet;
#X obj 218 61 sel 0 1;
#X obj 234 205 gate;
#X obj 276 205 gate;
#X obj 232 260 f;
#X obj 278 261 f;
#X obj 68 62 unpack 0 0 0 0;
#X obj 218 21 inlet;
#X connect 0 0 7 0;
#X connect 2 0 3 1;
#X connect 2 1 4 1;
#X connect 3 0 5 0;
#X connect 4 0 6 0;
#X connect 5 0 1 0;
#X connect 6 0 1 0;
#X connect 7 0 3 0;
#X connect 7 1 5 1;
#X connect 7 2 4 0;
#X connect 7 3 6 1;
#X connect 8 0 2 0;
#X restore 201 158 pd gates;
#N canvas 150 188 597 381 gates 0;
#X obj 65 24 inlet;
#X obj 241 337 outlet;
#X obj 218 61 sel 0 1;
#X obj 234 205 gate;
#X obj 276 205 gate;
#X obj 232 260 f;
#X obj 278 261 f;
#X obj 68 62 unpack 0 0 0 0;
#X obj 218 21 inlet;
#X connect 0 0 7 0;
#X connect 2 0 3 1;
#X connect 2 1 4 1;
#X connect 3 0 5 0;
#X connect 4 0 6 0;
#X connect 5 0 1 0;
#X connect 6 0 1 0;
#X connect 7 0 3 0;
#X connect 7 1 5 1;
#X connect 7 2 4 0;
#X connect 7 3 6 1;
#X connect 8 0 2 0;
#X restore 369 153 pd gates;
#N canvas 150 188 597 381 gates 0;
#X obj 65 24 inlet;
#X obj 241 337 outlet;
#X obj 218 61 sel 0 1;
#X obj 234 205 gate;
#X obj 276 205 gate;
#X obj 232 260 f;
#X obj 278 261 f;
#X obj 68 62 unpack 0 0 0 0;
#X obj 218 21 inlet;
#X connect 0 0 7 0;
#X connect 2 0 3 1;
#X connect 2 1 4 1;
#X connect 3 0 5 0;
#X connect 4 0 6 0;
#X connect 5 0 1 0;
#X connect 6 0 1 0;
#X connect 7 0 3 0;
#X connect 7 1 5 1;
#X connect 7 2 4 0;
#X connect 7 3 6 1;
#X connect 8 0 2 0;
#X restore 537 151 pd gates;
#N canvas 150 188 597 381 gates 0;
#X obj 65 24 inlet;
#X obj 241 337 outlet;
#X obj 218 61 sel 0 1;
#X obj 234 205 gate;
#X obj 276 205 gate;
#X obj 232 260 f;
#X obj 278 261 f;
#X obj 68 62 unpack 0 0 0 0;
#X obj 218 21 inlet;
#X connect 0 0 7 0;
#X connect 2 0 3 1;
#X connect 2 1 4 1;
#X connect 3 0 5 0;
#X connect 4 0 6 0;
#X connect 5 0 1 0;
#X connect 6 0 1 0;
#X connect 7 0 3 0;
#X connect 7 1 5 1;
#X connect 7 2 4 0;
#X connect 7 3 6 1;
#X connect 8 0 2 0;
#X restore 707 153 pd gates;
#N canvas 150 188 597 381 gates 0;
#X obj 65 24 inlet;
#X obj 241 337 outlet;
#X obj 218 61 sel 0 1;
#X obj 234 205 gate;
#X obj 276 205 gate;
#X obj 232 260 f;
#X obj 278 261 f;
#X obj 68 62 unpack 0 0 0 0;
#X obj 218 21 inlet;
#X connect 0 0 7 0;
#X connect 2 0 3 1;
#X connect 2 1 4 1;
#X connect 3 0 5 0;
#X connect 4 0 6 0;
#X connect 5 0 1 0;
#X connect 6 0 1 0;
#X connect 7 0 3 0;
#X connect 7 1 5 1;
#X connect 7 2 4 0;
#X connect 7 3 6 1;
#X connect 8 0 2 0;
#X restore 875 151 pd gates;
#N canvas 150 188 597 381 gates 0;
#X obj 65 24 inlet;
#X obj 241 337 outlet;
#X obj 218 61 sel 0 1;
#X obj 234 205 gate;
#X obj 276 205 gate;
#X obj 232 260 f;
#X obj 278 261 f;
#X obj 68 62 unpack 0 0 0 0;
#X obj 218 21 inlet;
#X connect 0 0 7 0;
#X connect 2 0 3 1;
#X connect 2 1 4 1;
#X connect 3 0 5 0;
#X connect 4 0 6 0;
#X connect 5 0 1 0;
#X connect 6 0 1 0;
#X connect 7 0 3 0;
#X connect 7 1 5 1;
#X connect 7 2 4 0;
#X connect 7 3 6 1;
#X connect 8 0 2 0;
#X restore 1043 146 pd gates;
#N canvas 150 188 597 381 gates 0;
#X obj 65 24 inlet;
#X obj 241 337 outlet;
#X obj 218 61 sel 0 1;
#X obj 234 205 gate;
#X obj 276 205 gate;
#X obj 232 260 f;
#X obj 278 261 f;
#X obj 68 62 unpack 0 0 0 0;
#X obj 218 21 inlet;
#X connect 0 0 7 0;
#X connect 2 0 3 1;
#X connect 2 1 4 1;
#X connect 3 0 5 0;
#X connect 4 0 6 0;
#X connect 5 0 1 0;
#X connect 6 0 1 0;
#X connect 7 0 3 0;
#X connect 7 1 5 1;
#X connect 7 2 4 0;
#X connect 7 3 6 1;
#X connect 8 0 2 0;
#X restore 1211 144 pd gates;
#N canvas 150 188 597 381 gates 0;
#X obj 65 24 inlet;
#X obj 241 337 outlet;
#X obj 218 61 sel 0 1;
#X obj 234 205 gate;
#X obj 276 205 gate;
#X obj 232 260 f;
#X obj 278 261 f;
#X obj 68 62 unpack 0 0 0 0;
#X obj 218 21 inlet;
#X connect 0 0 7 0;
#X connect 2 0 3 1;
#X connect 2 1 4 1;
#X connect 3 0 5 0;
#X connect 4 0 6 0;
#X connect 5 0 1 0;
#X connect 6 0 1 0;
#X connect 7 0 3 0;
#X connect 7 1 5 1;
#X connect 7 2 4 0;
#X connect 7 3 6 1;
#X connect 8 0 2 0;
#X restore 1374 142 pd gates;
#N canvas 150 188 597 381 gates 0;
#X obj 65 24 inlet;
#X obj 241 337 outlet;
#X obj 218 61 sel 0 1;
#X obj 234 205 gate;
#X obj 276 205 gate;
#X obj 232 260 f;
#X obj 278 261 f;
#X obj 68 62 unpack 0 0 0 0;
#X obj 218 21 inlet;
#X connect 0 0 7 0;
#X connect 2 0 3 1;
#X connect 2 1 4 1;
#X connect 3 0 5 0;
#X connect 4 0 6 0;
#X connect 5 0 1 0;
#X connect 6 0 1 0;
#X connect 7 0 3 0;
#X connect 7 1 5 1;
#X connect 7 2 4 0;
#X connect 7 3 6 1;
#X connect 8 0 2 0;
#X restore 36 262 pd gates;
#N canvas 150 188 597 381 gates 0;
#X obj 65 24 inlet;
#X obj 241 337 outlet;
#X obj 218 61 sel 0 1;
#X obj 234 205 gate;
#X obj 276 205 gate;
#X obj 232 260 f;
#X obj 278 261 f;
#X obj 68 62 unpack 0 0 0 0;
#X obj 218 21 inlet;
#X connect 0 0 7 0;
#X connect 2 0 3 1;
#X connect 2 1 4 1;
#X connect 3 0 5 0;
#X connect 4 0 6 0;
#X connect 5 0 1 0;
#X connect 6 0 1 0;
#X connect 7 0 3 0;
#X connect 7 1 5 1;
#X connect 7 2 4 0;
#X connect 7 3 6 1;
#X connect 8 0 2 0;
#X restore 204 262 pd gates;
#N canvas 150 188 597 381 gates 0;
#X obj 65 24 inlet;
#X obj 241 337 outlet;
#X obj 218 61 sel 0 1;
#X obj 234 205 gate;
#X obj 276 205 gate;
#X obj 232 260 f;
#X obj 278 261 f;
#X obj 68 62 unpack 0 0 0 0;
#X obj 218 21 inlet;
#X connect 0 0 7 0;
#X connect 2 0 3 1;
#X connect 2 1 4 1;
#X connect 3 0 5 0;
#X connect 4 0 6 0;
#X connect 5 0 1 0;
#X connect 6 0 1 0;
#X connect 7 0 3 0;
#X connect 7 1 5 1;
#X connect 7 2 4 0;
#X connect 7 3 6 1;
#X connect 8 0 2 0;
#X restore 282 262 pd gates;
#N canvas 150 188 597 381 gates 0;
#X obj 65 24 inlet;
#X obj 241 337 outlet;
#X obj 218 61 sel 0 1;
#X obj 234 205 gate;
#X obj 276 205 gate;
#X obj 232 260 f;
#X obj 278 261 f;
#X obj 68 62 unpack 0 0 0 0;
#X obj 218 21 inlet;
#X connect 0 0 7 0;
#X connect 2 0 3 1;
#X connect 2 1 4 1;
#X connect 3 0 5 0;
#X connect 4 0 6 0;
#X connect 5 0 1 0;
#X connect 6 0 1 0;
#X connect 7 0 3 0;
#X connect 7 1 5 1;
#X connect 7 2 4 0;
#X connect 7 3 6 1;
#X connect 8 0 2 0;
#X restore 405 260 pd gates;
#N canvas 150 188 597 381 gates 0;
#X obj 65 24 inlet;
#X obj 241 337 outlet;
#X obj 218 61 sel 0 1;
#X obj 234 205 gate;
#X obj 276 205 gate;
#X obj 232 260 f;
#X obj 278 261 f;
#X obj 68 62 unpack 0 0 0 0;
#X obj 218 21 inlet;
#X connect 0 0 7 0;
#X connect 2 0 3 1;
#X connect 2 1 4 1;
#X connect 3 0 5 0;
#X connect 4 0 6 0;
#X connect 5 0 1 0;
#X connect 6 0 1 0;
#X connect 7 0 3 0;
#X connect 7 1 5 1;
#X connect 7 2 4 0;
#X connect 7 3 6 1;
#X connect 8 0 2 0;
#X restore 521 258 pd gates;
#N canvas 150 188 597 381 gates 0;
#X obj 65 24 inlet;
#X obj 241 337 outlet;
#X obj 218 61 sel 0 1;
#X obj 234 205 gate;
#X obj 276 205 gate;
#X obj 232 260 f;
#X obj 278 261 f;
#X obj 68 62 unpack 0 0 0 0;
#X obj 218 21 inlet;
#X connect 0 0 7 0;
#X connect 2 0 3 1;
#X connect 2 1 4 1;
#X connect 3 0 5 0;
#X connect 4 0 6 0;
#X connect 5 0 1 0;
#X connect 6 0 1 0;
#X connect 7 0 3 0;
#X connect 7 1 5 1;
#X connect 7 2 4 0;
#X connect 7 3 6 1;
#X connect 8 0 2 0;
#X restore 638 261 pd gates;
#N canvas 150 188 597 381 gates 0;
#X obj 65 24 inlet;
#X obj 241 337 outlet;
#X obj 218 61 sel 0 1;
#X obj 234 205 gate;
#X obj 276 205 gate;
#X obj 232 260 f;
#X obj 278 261 f;
#X obj 68 62 unpack 0 0 0 0;
#X obj 218 21 inlet;
#X connect 0 0 7 0;
#X connect 2 0 3 1;
#X connect 2 1 4 1;
#X connect 3 0 5 0;
#X connect 4 0 6 0;
#X connect 5 0 1 0;
#X connect 6 0 1 0;
#X connect 7 0 3 0;
#X connect 7 1 5 1;
#X connect 7 2 4 0;
#X connect 7 3 6 1;
#X connect 8 0 2 0;
#X restore 806 261 pd gates;
#N canvas 150 188 597 381 gates 0;
#X obj 65 24 inlet;
#X obj 241 337 outlet;
#X obj 218 61 sel 0 1;
#X obj 234 205 gate;
#X obj 276 205 gate;
#X obj 232 260 f;
#X obj 278 261 f;
#X obj 68 62 unpack 0 0 0 0;
#X obj 218 21 inlet;
#X connect 0 0 7 0;
#X connect 2 0 3 1;
#X connect 2 1 4 1;
#X connect 3 0 5 0;
#X connect 4 0 6 0;
#X connect 5 0 1 0;
#X connect 6 0 1 0;
#X connect 7 0 3 0;
#X connect 7 1 5 1;
#X connect 7 2 4 0;
#X connect 7 3 6 1;
#X connect 8 0 2 0;
#X restore 974 261 pd gates;
#N canvas 150 188 597 381 gates 0;
#X obj 65 24 inlet;
#X obj 241 337 outlet;
#X obj 218 61 sel 0 1;
#X obj 234 205 gate;
#X obj 276 205 gate;
#X obj 232 260 f;
#X obj 278 261 f;
#X obj 68 62 unpack 0 0 0 0;
#X obj 218 21 inlet;
#X connect 0 0 7 0;
#X connect 2 0 3 1;
#X connect 2 1 4 1;
#X connect 3 0 5 0;
#X connect 4 0 6 0;
#X connect 5 0 1 0;
#X connect 6 0 1 0;
#X connect 7 0 3 0;
#X connect 7 1 5 1;
#X connect 7 2 4 0;
#X connect 7 3 6 1;
#X connect 8 0 2 0;
#X restore 42 336 pd gates;
#N canvas 150 188 597 381 gates 0;
#X obj 65 24 inlet;
#X obj 241 337 outlet;
#X obj 218 61 sel 0 1;
#X obj 234 205 gate;
#X obj 276 205 gate;
#X obj 232 260 f;
#X obj 278 261 f;
#X obj 68 62 unpack 0 0 0 0;
#X obj 218 21 inlet;
#X connect 0 0 7 0;
#X connect 2 0 3 1;
#X connect 2 1 4 1;
#X connect 3 0 5 0;
#X connect 4 0 6 0;
#X connect 5 0 1 0;
#X connect 6 0 1 0;
#X connect 7 0 3 0;
#X connect 7 1 5 1;
#X connect 7 2 4 0;
#X connect 7 3 6 1;
#X connect 8 0 2 0;
#X restore 210 334 pd gates;
#N canvas 150 188 597 381 gates 0;
#X obj 65 24 inlet;
#X obj 241 337 outlet;
#X obj 218 61 sel 0 1;
#X obj 234 205 gate;
#X obj 276 205 gate;
#X obj 232 260 f;
#X obj 278 261 f;
#X obj 68 62 unpack 0 0 0 0;
#X obj 218 21 inlet;
#X connect 0 0 7 0;
#X connect 2 0 3 1;
#X connect 2 1 4 1;
#X connect 3 0 5 0;
#X connect 4 0 6 0;
#X connect 5 0 1 0;
#X connect 6 0 1 0;
#X connect 7 0 3 0;
#X connect 7 1 5 1;
#X connect 7 2 4 0;
#X connect 7 3 6 1;
#X connect 8 0 2 0;
#X restore 335 338 pd gates;
#N canvas 150 188 597 381 gates 0;
#X obj 65 24 inlet;
#X obj 241 337 outlet;
#X obj 218 61 sel 0 1;
#X obj 234 205 gate;
#X obj 276 205 gate;
#X obj 232 260 f;
#X obj 278 261 f;
#X obj 68 62 unpack 0 0 0 0;
#X obj 218 21 inlet;
#X connect 0 0 7 0;
#X connect 2 0 3 1;
#X connect 2 1 4 1;
#X connect 3 0 5 0;
#X connect 4 0 6 0;
#X connect 5 0 1 0;
#X connect 6 0 1 0;
#X connect 7 0 3 0;
#X connect 7 1 5 1;
#X connect 7 2 4 0;
#X connect 7 3 6 1;
#X connect 8 0 2 0;
#X restore 447 339 pd gates;
#N canvas 150 188 597 381 gates 0;
#X obj 65 24 inlet;
#X obj 241 337 outlet;
#X obj 218 61 sel 0 1;
#X obj 234 205 gate;
#X obj 276 205 gate;
#X obj 232 260 f;
#X obj 278 261 f;
#X obj 68 62 unpack 0 0 0 0;
#X obj 218 21 inlet;
#X connect 0 0 7 0;
#X connect 2 0 3 1;
#X connect 2 1 4 1;
#X connect 3 0 5 0;
#X connect 4 0 6 0;
#X connect 5 0 1 0;
#X connect 6 0 1 0;
#X connect 7 0 3 0;
#X connect 7 1 5 1;
#X connect 7 2 4 0;
#X connect 7 3 6 1;
#X connect 8 0 2 0;
#X restore 617 341 pd gates;
#N canvas 150 188 597 381 gates 0;
#X obj 65 24 inlet;
#X obj 241 337 outlet;
#X obj 218 61 sel 0 1;
#X obj 234 205 gate;
#X obj 276 205 gate;
#X obj 232 260 f;
#X obj 278 261 f;
#X obj 68 62 unpack 0 0 0 0;
#X obj 218 21 inlet;
#X connect 0 0 7 0;
#X connect 2 0 3 1;
#X connect 2 1 4 1;
#X connect 3 0 5 0;
#X connect 4 0 6 0;
#X connect 5 0 1 0;
#X connect 6 0 1 0;
#X connect 7 0 3 0;
#X connect 7 1 5 1;
#X connect 7 2 4 0;
#X connect 7 3 6 1;
#X connect 8 0 2 0;
#X restore 785 339 pd gates;
#N canvas 150 188 597 381 gates 0;
#X obj 65 24 inlet;
#X obj 241 337 outlet;
#X obj 218 61 sel 0 1;
#X obj 234 205 gate;
#X obj 276 205 gate;
#X obj 232 260 f;
#X obj 278 261 f;
#X obj 68 62 unpack 0 0 0 0;
#X obj 218 21 inlet;
#X connect 0 0 7 0;
#X connect 2 0 3 1;
#X connect 2 1 4 1;
#X connect 3 0 5 0;
#X connect 4 0 6 0;
#X connect 5 0 1 0;
#X connect 6 0 1 0;
#X connect 7 0 3 0;
#X connect 7 1 5 1;
#X connect 7 2 4 0;
#X connect 7 3 6 1;
#X connect 8 0 2 0;
#X restore 858 342 pd gates;
#N canvas 150 188 597 381 gates 0;
#X obj 65 24 inlet;
#X obj 241 337 outlet;
#X obj 218 61 sel 0 1;
#X obj 234 205 gate;
#X obj 276 205 gate;
#X obj 232 260 f;
#X obj 278 261 f;
#X obj 68 62 unpack 0 0 0 0;
#X obj 218 21 inlet;
#X connect 0 0 7 0;
#X connect 2 0 3 1;
#X connect 2 1 4 1;
#X connect 3 0 5 0;
#X connect 4 0 6 0;
#X connect 5 0 1 0;
#X connect 6 0 1 0;
#X connect 7 0 3 0;
#X connect 7 1 5 1;
#X connect 7 2 4 0;
#X connect 7 3 6 1;
#X connect 8 0 2 0;
#X restore 1026 340 pd gates;
#N canvas 150 188 597 381 gates 0;
#X obj 65 24 inlet;
#X obj 241 337 outlet;
#X obj 218 61 sel 0 1;
#X obj 234 205 gate;
#X obj 276 205 gate;
#X obj 232 260 f;
#X obj 278 261 f;
#X obj 68 62 unpack 0 0 0 0;
#X obj 218 21 inlet;
#X connect 0 0 7 0;
#X connect 2 0 3 1;
#X connect 2 1 4 1;
#X connect 3 0 5 0;
#X connect 4 0 6 0;
#X connect 5 0 1 0;
#X connect 6 0 1 0;
#X connect 7 0 3 0;
#X connect 7 1 5 1;
#X connect 7 2 4 0;
#X connect 7 3 6 1;
#X connect 8 0 2 0;
#X restore 40 411 pd gates;
#N canvas 150 188 597 381 gates 0;
#X obj 65 24 inlet;
#X obj 241 337 outlet;
#X obj 218 61 sel 0 1;
#X obj 234 205 gate;
#X obj 276 205 gate;
#X obj 232 260 f;
#X obj 278 261 f;
#X obj 68 62 unpack 0 0 0 0;
#X obj 218 21 inlet;
#X connect 0 0 7 0;
#X connect 2 0 3 1;
#X connect 2 1 4 1;
#X connect 3 0 5 0;
#X connect 4 0 6 0;
#X connect 5 0 1 0;
#X connect 6 0 1 0;
#X connect 7 0 3 0;
#X connect 7 1 5 1;
#X connect 7 2 4 0;
#X connect 7 3 6 1;
#X connect 8 0 2 0;
#X restore 208 409 pd gates;
#N canvas 150 188 597 381 gates 0;
#X obj 65 24 inlet;
#X obj 241 337 outlet;
#X obj 218 61 sel 0 1;
#X obj 234 205 gate;
#X obj 276 205 gate;
#X obj 232 260 f;
#X obj 278 261 f;
#X obj 68 62 unpack 0 0 0 0;
#X obj 218 21 inlet;
#X connect 0 0 7 0;
#X connect 2 0 3 1;
#X connect 2 1 4 1;
#X connect 3 0 5 0;
#X connect 4 0 6 0;
#X connect 5 0 1 0;
#X connect 6 0 1 0;
#X connect 7 0 3 0;
#X connect 7 1 5 1;
#X connect 7 2 4 0;
#X connect 7 3 6 1;
#X connect 8 0 2 0;
#X restore 311 412 pd gates;
#N canvas 150 188 597 381 gates 0;
#X obj 65 24 inlet;
#X obj 241 337 outlet;
#X obj 218 61 sel 0 1;
#X obj 234 205 gate;
#X obj 276 205 gate;
#X obj 232 260 f;
#X obj 278 261 f;
#X obj 68 62 unpack 0 0 0 0;
#X obj 218 21 inlet;
#X connect 0 0 7 0;
#X connect 2 0 3 1;
#X connect 2 1 4 1;
#X connect 3 0 5 0;
#X connect 4 0 6 0;
#X connect 5 0 1 0;
#X connect 6 0 1 0;
#X connect 7 0 3 0;
#X connect 7 1 5 1;
#X connect 7 2 4 0;
#X connect 7 3 6 1;
#X connect 8 0 2 0;
#X restore 451 415 pd gates;
#N canvas 150 188 597 381 gates 0;
#X obj 65 24 inlet;
#X obj 241 337 outlet;
#X obj 218 61 sel 0 1;
#X obj 234 205 gate;
#X obj 276 205 gate;
#X obj 232 260 f;
#X obj 278 261 f;
#X obj 68 62 unpack 0 0 0 0;
#X obj 218 21 inlet;
#X connect 0 0 7 0;
#X connect 2 0 3 1;
#X connect 2 1 4 1;
#X connect 3 0 5 0;
#X connect 4 0 6 0;
#X connect 5 0 1 0;
#X connect 6 0 1 0;
#X connect 7 0 3 0;
#X connect 7 1 5 1;
#X connect 7 2 4 0;
#X connect 7 3 6 1;
#X connect 8 0 2 0;
#X restore 621 417 pd gates;
#N canvas 150 188 597 381 gates 0;
#X obj 65 24 inlet;
#X obj 241 337 outlet;
#X obj 218 61 sel 0 1;
#X obj 234 205 gate;
#X obj 276 205 gate;
#X obj 232 260 f;
#X obj 278 261 f;
#X obj 68 62 unpack 0 0 0 0;
#X obj 218 21 inlet;
#X connect 0 0 7 0;
#X connect 2 0 3 1;
#X connect 2 1 4 1;
#X connect 3 0 5 0;
#X connect 4 0 6 0;
#X connect 5 0 1 0;
#X connect 6 0 1 0;
#X connect 7 0 3 0;
#X connect 7 1 5 1;
#X connect 7 2 4 0;
#X connect 7 3 6 1;
#X connect 8 0 2 0;
#X restore 789 415 pd gates;
#N canvas 150 188 597 381 gates 0;
#X obj 65 24 inlet;
#X obj 241 337 outlet;
#X obj 218 61 sel 0 1;
#X obj 234 205 gate;
#X obj 276 205 gate;
#X obj 232 260 f;
#X obj 278 261 f;
#X obj 68 62 unpack 0 0 0 0;
#X obj 218 21 inlet;
#X connect 0 0 7 0;
#X connect 2 0 3 1;
#X connect 2 1 4 1;
#X connect 3 0 5 0;
#X connect 4 0 6 0;
#X connect 5 0 1 0;
#X connect 6 0 1 0;
#X connect 7 0 3 0;
#X connect 7 1 5 1;
#X connect 7 2 4 0;
#X connect 7 3 6 1;
#X connect 8 0 2 0;
#X restore 882 418 pd gates;
#N canvas 150 188 597 381 gates 0;
#X obj 65 24 inlet;
#X obj 241 337 outlet;
#X obj 218 61 sel 0 1;
#X obj 234 205 gate;
#X obj 276 205 gate;
#X obj 232 260 f;
#X obj 278 261 f;
#X obj 68 62 unpack 0 0 0 0;
#X obj 218 21 inlet;
#X connect 0 0 7 0;
#X connect 2 0 3 1;
#X connect 2 1 4 1;
#X connect 3 0 5 0;
#X connect 4 0 6 0;
#X connect 5 0 1 0;
#X connect 6 0 1 0;
#X connect 7 0 3 0;
#X connect 7 1 5 1;
#X connect 7 2 4 0;
#X connect 7 3 6 1;
#X connect 8 0 2 0;
#X restore 1050 416 pd gates;
#N canvas 150 188 597 381 gates 0;
#X obj 65 24 inlet;
#X obj 241 337 outlet;
#X obj 218 61 sel 0 1;
#X obj 234 205 gate;
#X obj 276 205 gate;
#X obj 232 260 f;
#X obj 278 261 f;
#X obj 68 62 unpack 0 0 0 0;
#X obj 218 21 inlet;
#X connect 0 0 7 0;
#X connect 2 0 3 1;
#X connect 2 1 4 1;
#X connect 3 0 5 0;
#X connect 4 0 6 0;
#X connect 5 0 1 0;
#X connect 6 0 1 0;
#X connect 7 0 3 0;
#X connect 7 1 5 1;
#X connect 7 2 4 0;
#X connect 7 3 6 1;
#X connect 8 0 2 0;
#X restore 49 505 pd gates;
#N canvas 150 188 597 381 gates 0;
#X obj 65 24 inlet;
#X obj 241 337 outlet;
#X obj 218 61 sel 0 1;
#X obj 234 205 gate;
#X obj 276 205 gate;
#X obj 232 260 f;
#X obj 278 261 f;
#X obj 68 62 unpack 0 0 0 0;
#X obj 218 21 inlet;
#X connect 0 0 7 0;
#X connect 2 0 3 1;
#X connect 2 1 4 1;
#X connect 3 0 5 0;
#X connect 4 0 6 0;
#X connect 5 0 1 0;
#X connect 6 0 1 0;
#X connect 7 0 3 0;
#X connect 7 1 5 1;
#X connect 7 2 4 0;
#X connect 7 3 6 1;
#X connect 8 0 2 0;
#X restore 217 503 pd gates;
#N canvas 150 188 597 381 gates 0;
#X obj 65 24 inlet;
#X obj 241 337 outlet;
#X obj 218 61 sel 0 1;
#X obj 234 205 gate;
#X obj 276 205 gate;
#X obj 232 260 f;
#X obj 278 261 f;
#X obj 68 62 unpack 0 0 0 0;
#X obj 218 21 inlet;
#X connect 0 0 7 0;
#X connect 2 0 3 1;
#X connect 2 1 4 1;
#X connect 3 0 5 0;
#X connect 4 0 6 0;
#X connect 5 0 1 0;
#X connect 6 0 1 0;
#X connect 7 0 3 0;
#X connect 7 1 5 1;
#X connect 7 2 4 0;
#X connect 7 3 6 1;
#X connect 8 0 2 0;
#X restore 385 498 pd gates;
#N canvas 150 188 597 381 gates 0;
#X obj 65 24 inlet;
#X obj 241 337 outlet;
#X obj 218 61 sel 0 1;
#X obj 234 205 gate;
#X obj 276 205 gate;
#X obj 232 260 f;
#X obj 278 261 f;
#X obj 68 62 unpack 0 0 0 0;
#X obj 218 21 inlet;
#X connect 0 0 7 0;
#X connect 2 0 3 1;
#X connect 2 1 4 1;
#X connect 3 0 5 0;
#X connect 4 0 6 0;
#X connect 5 0 1 0;
#X connect 6 0 1 0;
#X connect 7 0 3 0;
#X connect 7 1 5 1;
#X connect 7 2 4 0;
#X connect 7 3 6 1;
#X connect 8 0 2 0;
#X restore 468 498 pd gates;
#N canvas 150 188 597 381 gates 0;
#X obj 65 24 inlet;
#X obj 241 337 outlet;
#X obj 218 61 sel 0 1;
#X obj 234 205 gate;
#X obj 276 205 gate;
#X obj 232 260 f;
#X obj 278 261 f;
#X obj 68 62 unpack 0 0 0 0;
#X obj 218 21 inlet;
#X connect 0 0 7 0;
#X connect 2 0 3 1;
#X connect 2 1 4 1;
#X connect 3 0 5 0;
#X connect 4 0 6 0;
#X connect 5 0 1 0;
#X connect 6 0 1 0;
#X connect 7 0 3 0;
#X connect 7 1 5 1;
#X connect 7 2 4 0;
#X connect 7 3 6 1;
#X connect 8 0 2 0;
#X restore 627 501 pd gates;
#N canvas 150 188 597 381 gates 0;
#X obj 65 24 inlet;
#X obj 241 337 outlet;
#X obj 218 61 sel 0 1;
#X obj 234 205 gate;
#X obj 276 205 gate;
#X obj 232 260 f;
#X obj 278 261 f;
#X obj 68 62 unpack 0 0 0 0;
#X obj 218 21 inlet;
#X connect 0 0 7 0;
#X connect 2 0 3 1;
#X connect 2 1 4 1;
#X connect 3 0 5 0;
#X connect 4 0 6 0;
#X connect 5 0 1 0;
#X connect 6 0 1 0;
#X connect 7 0 3 0;
#X connect 7 1 5 1;
#X connect 7 2 4 0;
#X connect 7 3 6 1;
#X connect 8 0 2 0;
#X restore 795 499 pd gates;
#N canvas 150 188 597 381 gates 0;
#X obj 65 24 inlet;
#X obj 241 337 outlet;
#X obj 218 61 sel 0 1;
#X obj 234 205 gate;
#X obj 276 205 gate;
#X obj 232 260 f;
#X obj 278 261 f;
#X obj 68 62 unpack 0 0 0 0;
#X obj 218 21 inlet;
#X connect 0 0 7 0;
#X connect 2 0 3 1;
#X connect 2 1 4 1;
#X connect 3 0 5 0;
#X connect 4 0 6 0;
#X connect 5 0 1 0;
#X connect 6 0 1 0;
#X connect 7 0 3 0;
#X connect 7 1 5 1;
#X connect 7 2 4 0;
#X connect 7 3 6 1;
#X connect 8 0 2 0;
#X restore 963 494 pd gates;
#N canvas 150 188 597 381 gates 0;
#X obj 65 24 inlet;
#X obj 241 337 outlet;
#X obj 218 61 sel 0 1;
#X obj 234 205 gate;
#X obj 276 205 gate;
#X obj 232 260 f;
#X obj 278 261 f;
#X obj 68 62 unpack 0 0 0 0;
#X obj 218 21 inlet;
#X connect 0 0 7 0;
#X connect 2 0 3 1;
#X connect 2 1 4 1;
#X connect 3 0 5 0;
#X connect 4 0 6 0;
#X connect 5 0 1 0;
#X connect 6 0 1 0;
#X connect 7 0 3 0;
#X connect 7 1 5 1;
#X connect 7 2 4 0;
#X connect 7 3 6 1;
#X connect 8 0 2 0;
#X restore 1073 499 pd gates;
#X text 820 43 fadertouch 104 105 106 107 108 109 110 111 112;
#X text 1302 213 select 24 25 26 27 28 29 30 31;
#X text 1375 280 mute 16 17 18 19 20 21 22 23;
#X text 1413 352 solo 8 9 10 11 12 13 14 15;
#X text 1418 453 record 0 1 2 3 4 5 6 7;
#X connect 1 0 2 0;
#X connect 1 0 6 0;
#X connect 1 0 5 0;
#X connect 1 0 4 0;
#X connect 1 0 3 0;
#X connect 2 0 48 0;
#X connect 2 1 49 0;
#X connect 2 2 50 0;
#X connect 2 3 51 0;
#X connect 2 4 52 0;
#X connect 2 5 53 0;
#X connect 2 6 54 0;
#X connect 2 7 55 0;
#X connect 2 8 56 0;
#X connect 3 0 57 0;
#X connect 3 1 58 0;
#X connect 3 2 59 0;
#X connect 3 3 60 0;
#X connect 3 4 61 0;
#X connect 3 5 62 0;
#X connect 3 6 63 0;
#X connect 3 7 64 0;
#X connect 4 0 65 0;
#X connect 4 1 66 0;
#X connect 4 2 67 0;
#X connect 4 3 68 0;
#X connect 4 4 69 0;
#X connect 4 5 70 0;
#X connect 4 6 71 0;
#X connect 4 7 72 0;
#X connect 5 0 73 0;
#X connect 5 1 74 0;
#X connect 5 2 75 0;
#X connect 5 3 76 0;
#X connect 5 4 77 0;
#X connect 5 5 78 0;
#X connect 5 6 79 0;
#X connect 5 7 80 0;
#X connect 6 0 81 0;
#X connect 6 1 82 0;
#X connect 6 2 83 0;
#X connect 6 3 84 0;
#X connect 6 4 85 0;
#X connect 6 5 86 0;
#X connect 6 6 87 0;
#X connect 6 7 88 0;
#X connect 7 0 48 1;
#X connect 8 0 57 1;
#X connect 9 0 49 1;
#X connect 10 0 50 1;
#X connect 12 0 52 1;
#X connect 13 0 53 1;
#X connect 14 0 54 1;
#X connect 15 0 55 1;
#X connect 16 0 56 1;
#X connect 17 0 58 1;
#X connect 18 0 59 1;
#X connect 19 0 60 1;
#X connect 20 0 61 1;
#X connect 21 0 62 1;
#X connect 22 0 63 1;
#X connect 23 0 64 1;
#X connect 24 0 65 1;
#X connect 25 0 66 1;
#X connect 26 0 67 1;
#X connect 27 0 68 1;
#X connect 28 0 69 1;
#X connect 29 0 70 1;
#X connect 30 0 71 1;
#X connect 31 0 72 1;
#X connect 32 0 80 1;
#X connect 33 0 79 1;
#X connect 34 0 78 1;
#X connect 35 0 77 1;
#X connect 36 0 76 1;
#X connect 37 0 75 1;
#X connect 38 0 74 1;
#X connect 39 0 73 1;
#X connect 40 0 81 1;
#X connect 41 0 82 1;
#X connect 42 0 83 1;
#X connect 43 0 84 1;
#X connect 44 0 85 1;
#X connect 45 0 86 1;
#X connect 46 0 87 1;
#X connect 47 0 88 1;
#X connect 48 0 0 0;
#X connect 49 0 0 0;
#X connect 50 0 0 0;
#X connect 51 0 0 0;
#X connect 52 0 0 0;
#X connect 53 0 0 0;
#X connect 54 0 0 0;
#X connect 55 0 0 0;
#X connect 56 0 0 0;
#X connect 57 0 0 0;
#X connect 58 0 0 0;
#X connect 59 0 0 0;
#X connect 60 0 0 0;
#X connect 61 0 0 0;
#X connect 62 0 0 0;
#X connect 63 0 0 0;
#X connect 64 0 0 0;
#X connect 65 0 0 0;
#X connect 66 0 0 0;
#X connect 67 0 0 0;
#X connect 68 0 0 0;
#X connect 69 0 0 0;
#X connect 70 0 0 0;
#X connect 71 0 0 0;
#X connect 72 0 0 0;
#X connect 73 0 0 0;
#X connect 74 0 0 0;
#X connect 75 0 0 0;
#X connect 76 0 0 0;
#X connect 77 0 0 0;
#X connect 78 0 0 0;
#X connect 79 0 0 0;
#X connect 80 0 0 0;
#X connect 81 0 0 0;
#X connect 82 0 0 0;
#X connect 83 0 0 0;
#X connect 84 0 0 0;
#X connect 85 0 0 0;
#X connect 86 0 0 0;
#X connect 87 0 0 0;
#X connect 88 0 0 0;
