#N canvas 630 62 1098 856 12;
#X obj 55 430 list split 1;
#X obj 55 396 route -1;
#X obj 237 558 * 1;
#X obj 239 591 + 0;
#X text 283 594 offset;
#X obj 236 524 pow;
#X text 282 523 exponent values between 1e-05 and N;
#X text 279 557 range;
#X obj 239 627 outlet;
#X obj 245 262 r cue;
#X text 312 258 receive cue;
#X text 419 430 datainlet;
#X text 539 270 format: cue input offset range exponent;
#X obj 104 471 unpack 0 0 0 0;
#X obj 274 429 Icon_continuousdata;
#X obj 53 20 loadbang;
#X obj 253 76 symbol \$1;
#X obj 253 20 bng 19 250 50 0 empty empty empty 0 -10 0 12 #fcfcfc #000000 #000000;
#X obj 330 76 symbol \$2;
#X obj 252 99 pack s s;
#X obj 253 44 t b b;
#X obj 53 77 symbol \$1;
#X obj 130 77 symbol \$2;
#X obj 52 100 pack s s;
#X obj 53 45 t b b;
#X msg 52 125 read \$1_\$2_scalingicon.txt;
#X msg 249 124 write \$1_\$2_scalingicon.txt;
#X obj 53 156 text define -k \$1_\$2_scalingicon;
#A set;
#X obj 55 321 text search \$1_\$2_scalingicon;
#X obj 55 362 text get \$1_\$2_scalingicon;
#X obj 156 1 r update;
#X connect 0 1 13 0;
#X connect 1 1 0 0;
#X connect 2 0 3 0;
#X connect 3 0 8 0;
#X connect 5 0 2 0;
#X connect 9 0 28 0;
#X connect 13 0 14 0;
#X connect 13 1 3 1;
#X connect 13 2 2 1;
#X connect 13 3 5 1;
#X connect 14 0 5 0;
#X connect 15 0 24 0;
#X connect 16 0 19 0;
#X connect 17 0 20 0;
#X connect 18 0 19 1;
#X connect 19 0 26 0;
#X connect 20 0 16 0;
#X connect 20 1 18 0;
#X connect 21 0 23 0;
#X connect 22 0 23 1;
#X connect 23 0 25 0;
#X connect 24 0 21 0;
#X connect 24 1 22 0;
#X connect 25 0 27 0;
#X connect 26 0 27 0;
#X connect 28 0 29 0;
#X connect 29 0 1 0;
#X connect 30 0 24 0;
