#N canvas 97 286 815 458 12;
#X text 337 46 cueinput;
#X text 163 51 datainput;
#X obj 455 171 text define -k \$1;
#A set 1 2 1 \; 2 2 1 \; 3 1 2 \; 4 1 1 \;;
#X obj 294 340 list split 1;
#X obj 118 478 list prepend;
#X obj 320 393 list split 1;
#X text 424 338 get rid of header;
#X text 441 231 search for cue;
#X text 439 267 get cue;
#X obj 118 447 list prepend;
#X obj 294 306 route -1;
#X text 425 308 get rid of false data;
#X obj 294 231 text search \$1;
#X obj 294 272 text get \$1;
#X text 284 481 prepend engine;
#X text 282 443 prepend param;
#X obj 117 536 s \$1;
#X obj 296 46 r cue;
#X obj 157 102 r datainput;
#X connect 3 1 5 0;
#X connect 4 0 16 0;
#X connect 5 0 4 1;
#X connect 5 1 9 1;
#X connect 9 0 4 0;
#X connect 10 1 3 0;
#X connect 12 0 13 0;
#X connect 13 0 10 0;
#X connect 17 0 12 0;
#X connect 18 0 9 0;
