#N canvas 2807 94 1481 874 12;
#X obj 84 19 r jstkbuttonroutin;
#X obj 85 192 outlet;
#X obj 84 59 route 1 2 3 4 5 6 7 8 9 10 11 12;
#N canvas 2454 223 905 708 button 0;
#X obj 356 233 list store;
#X text 311 268 check for item to remove;
#X obj 356 290 list-remove;
#X obj 356 365 list append;
#X text 449 359 append item;
#X obj 356 424 cyclone/zl sort;
#X obj 356 183 t b a;
#X obj 356 472 list prepend set;
#X obj 355 156 t a a;
#X obj 357 505 route list;
#X obj 144 231 list store;
#X text 99 266 check for item to remove;
#X obj 144 288 list-remove;
#X obj 144 181 t b a;
#X obj 143 154 t a a;
#X obj 258 179 bng 19 250 50 0 empty empty empty 0 -10 0 12 #fcfcfc #000000 #000000;
#X text 286 181 init;
#X obj 257 147 loadbang;
#X obj 263 108 route 0 1;
#X obj 144 339 route bang;
#X msg 144 363 set;
#X obj 264 19 inlet;
#X obj 280 606 outlet;
#X connect 0 0 2 0;
#X connect 2 0 3 0;
#X connect 3 0 5 0;
#X connect 5 0 7 0;
#X connect 5 0 10 1;
#X connect 5 0 0 1;
#X connect 6 0 0 0;
#X connect 6 1 2 1;
#X connect 7 0 9 0;
#X connect 8 0 6 0;
#X connect 8 1 3 1;
#X connect 9 0 22 0;
#X connect 10 0 12 0;
#X connect 12 0 10 1;
#X connect 12 0 19 0;
#X connect 13 0 10 0;
#X connect 13 1 12 1;
#X connect 14 0 13 0;
#X connect 15 0 10 1;
#X connect 15 0 0 1;
#X connect 15 0 20 0;
#X connect 17 0 15 0;
#X connect 18 0 14 0;
#X connect 18 1 8 0;
#X connect 19 0 20 0;
#X connect 19 1 5 0;
#X connect 20 0 22 0;
#X connect 21 0 18 0;
#X restore 84 148 pd button;
#X obj 163 192 outlet;
#N canvas 2454 223 905 736 button 0;
#X obj 356 233 list store;
#X text 311 268 check for item to remove;
#X obj 356 290 list-remove;
#X obj 356 365 list append;
#X text 449 359 append item;
#X obj 356 424 cyclone/zl sort;
#X obj 356 183 t b a;
#X obj 356 472 list prepend set;
#X obj 355 156 t a a;
#X obj 357 505 route list;
#X obj 144 231 list store;
#X text 99 266 check for item to remove;
#X obj 144 288 list-remove;
#X obj 144 181 t b a;
#X obj 143 154 t a a;
#X obj 258 179 bng 19 250 50 0 empty empty empty 0 -10 0 12 #fcfcfc #000000 #000000;
#X text 286 181 init;
#X obj 257 147 loadbang;
#X obj 263 108 route 0 1;
#X obj 144 339 route bang;
#X msg 144 363 set;
#X obj 264 19 inlet;
#X obj 280 606 outlet;
#X connect 0 0 2 0;
#X connect 2 0 3 0;
#X connect 3 0 5 0;
#X connect 5 0 7 0;
#X connect 5 0 10 1;
#X connect 5 0 0 1;
#X connect 6 0 0 0;
#X connect 6 1 2 1;
#X connect 7 0 9 0;
#X connect 8 0 6 0;
#X connect 8 1 3 1;
#X connect 9 0 22 0;
#X connect 10 0 12 0;
#X connect 12 0 10 1;
#X connect 12 0 19 0;
#X connect 13 0 10 0;
#X connect 13 1 12 1;
#X connect 14 0 13 0;
#X connect 15 0 10 1;
#X connect 15 0 0 1;
#X connect 15 0 20 0;
#X connect 17 0 15 0;
#X connect 18 0 14 0;
#X connect 18 1 8 0;
#X connect 19 0 20 0;
#X connect 19 1 5 0;
#X connect 20 0 22 0;
#X connect 21 0 18 0;
#X restore 162 148 pd button;
#X obj 243 192 outlet;
#N canvas 2454 223 905 736 button 0;
#X obj 356 233 list store;
#X text 311 268 check for item to remove;
#X obj 356 290 list-remove;
#X obj 356 365 list append;
#X text 449 359 append item;
#X obj 356 424 cyclone/zl sort;
#X obj 356 183 t b a;
#X obj 356 472 list prepend set;
#X obj 355 156 t a a;
#X obj 357 505 route list;
#X obj 144 231 list store;
#X text 99 266 check for item to remove;
#X obj 144 288 list-remove;
#X obj 144 181 t b a;
#X obj 143 154 t a a;
#X obj 258 179 bng 19 250 50 0 empty empty empty 0 -10 0 12 #fcfcfc #000000 #000000;
#X text 286 181 init;
#X obj 257 147 loadbang;
#X obj 263 108 route 0 1;
#X obj 144 339 route bang;
#X msg 144 363 set;
#X obj 264 19 inlet;
#X obj 280 606 outlet;
#X connect 0 0 2 0;
#X connect 2 0 3 0;
#X connect 3 0 5 0;
#X connect 5 0 7 0;
#X connect 5 0 10 1;
#X connect 5 0 0 1;
#X connect 6 0 0 0;
#X connect 6 1 2 1;
#X connect 7 0 9 0;
#X connect 8 0 6 0;
#X connect 8 1 3 1;
#X connect 9 0 22 0;
#X connect 10 0 12 0;
#X connect 12 0 10 1;
#X connect 12 0 19 0;
#X connect 13 0 10 0;
#X connect 13 1 12 1;
#X connect 14 0 13 0;
#X connect 15 0 10 1;
#X connect 15 0 0 1;
#X connect 15 0 20 0;
#X connect 17 0 15 0;
#X connect 18 0 14 0;
#X connect 18 1 8 0;
#X connect 19 0 20 0;
#X connect 19 1 5 0;
#X connect 20 0 22 0;
#X connect 21 0 18 0;
#X restore 242 148 pd button;
#X obj 321 192 outlet;
#N canvas 2454 223 905 736 button 0;
#X obj 356 233 list store;
#X text 311 268 check for item to remove;
#X obj 356 290 list-remove;
#X obj 356 365 list append;
#X text 449 359 append item;
#X obj 356 424 cyclone/zl sort;
#X obj 356 183 t b a;
#X obj 356 472 list prepend set;
#X obj 355 156 t a a;
#X obj 357 505 route list;
#X obj 144 231 list store;
#X text 99 266 check for item to remove;
#X obj 144 288 list-remove;
#X obj 144 181 t b a;
#X obj 143 154 t a a;
#X obj 258 179 bng 19 250 50 0 empty empty empty 0 -10 0 12 #fcfcfc #000000 #000000;
#X text 286 181 init;
#X obj 257 147 loadbang;
#X obj 263 108 route 0 1;
#X obj 144 339 route bang;
#X msg 144 363 set;
#X obj 264 19 inlet;
#X obj 280 606 outlet;
#X connect 0 0 2 0;
#X connect 2 0 3 0;
#X connect 3 0 5 0;
#X connect 5 0 7 0;
#X connect 5 0 10 1;
#X connect 5 0 0 1;
#X connect 6 0 0 0;
#X connect 6 1 2 1;
#X connect 7 0 9 0;
#X connect 8 0 6 0;
#X connect 8 1 3 1;
#X connect 9 0 22 0;
#X connect 10 0 12 0;
#X connect 12 0 10 1;
#X connect 12 0 19 0;
#X connect 13 0 10 0;
#X connect 13 1 12 1;
#X connect 14 0 13 0;
#X connect 15 0 10 1;
#X connect 15 0 0 1;
#X connect 15 0 20 0;
#X connect 17 0 15 0;
#X connect 18 0 14 0;
#X connect 18 1 8 0;
#X connect 19 0 20 0;
#X connect 19 1 5 0;
#X connect 20 0 22 0;
#X connect 21 0 18 0;
#X restore 320 148 pd button;
#X obj 394 192 outlet;
#N canvas 2454 223 905 736 button 0;
#X obj 356 233 list store;
#X text 311 268 check for item to remove;
#X obj 356 290 list-remove;
#X obj 356 365 list append;
#X text 449 359 append item;
#X obj 356 424 cyclone/zl sort;
#X obj 356 183 t b a;
#X obj 356 472 list prepend set;
#X obj 355 156 t a a;
#X obj 357 505 route list;
#X obj 144 231 list store;
#X text 99 266 check for item to remove;
#X obj 144 288 list-remove;
#X obj 144 181 t b a;
#X obj 143 154 t a a;
#X obj 258 179 bng 19 250 50 0 empty empty empty 0 -10 0 12 #fcfcfc #000000 #000000;
#X text 286 181 init;
#X obj 257 147 loadbang;
#X obj 263 108 route 0 1;
#X obj 144 339 route bang;
#X msg 144 363 set;
#X obj 264 19 inlet;
#X obj 280 606 outlet;
#X connect 0 0 2 0;
#X connect 2 0 3 0;
#X connect 3 0 5 0;
#X connect 5 0 7 0;
#X connect 5 0 10 1;
#X connect 5 0 0 1;
#X connect 6 0 0 0;
#X connect 6 1 2 1;
#X connect 7 0 9 0;
#X connect 8 0 6 0;
#X connect 8 1 3 1;
#X connect 9 0 22 0;
#X connect 10 0 12 0;
#X connect 12 0 10 1;
#X connect 12 0 19 0;
#X connect 13 0 10 0;
#X connect 13 1 12 1;
#X connect 14 0 13 0;
#X connect 15 0 10 1;
#X connect 15 0 0 1;
#X connect 15 0 20 0;
#X connect 17 0 15 0;
#X connect 18 0 14 0;
#X connect 18 1 8 0;
#X connect 19 0 20 0;
#X connect 19 1 5 0;
#X connect 20 0 22 0;
#X connect 21 0 18 0;
#X restore 393 148 pd button;
#X obj 472 192 outlet;
#N canvas 2454 223 905 736 button 0;
#X obj 356 233 list store;
#X text 311 268 check for item to remove;
#X obj 356 290 list-remove;
#X obj 356 365 list append;
#X text 449 359 append item;
#X obj 356 424 cyclone/zl sort;
#X obj 356 183 t b a;
#X obj 356 472 list prepend set;
#X obj 355 156 t a a;
#X obj 357 505 route list;
#X obj 144 231 list store;
#X text 99 266 check for item to remove;
#X obj 144 288 list-remove;
#X obj 144 181 t b a;
#X obj 143 154 t a a;
#X obj 258 179 bng 19 250 50 0 empty empty empty 0 -10 0 12 #fcfcfc #000000 #000000;
#X text 286 181 init;
#X obj 257 147 loadbang;
#X obj 263 108 route 0 1;
#X obj 144 339 route bang;
#X msg 144 363 set;
#X obj 264 19 inlet;
#X obj 280 606 outlet;
#X connect 0 0 2 0;
#X connect 2 0 3 0;
#X connect 3 0 5 0;
#X connect 5 0 7 0;
#X connect 5 0 10 1;
#X connect 5 0 0 1;
#X connect 6 0 0 0;
#X connect 6 1 2 1;
#X connect 7 0 9 0;
#X connect 8 0 6 0;
#X connect 8 1 3 1;
#X connect 9 0 22 0;
#X connect 10 0 12 0;
#X connect 12 0 10 1;
#X connect 12 0 19 0;
#X connect 13 0 10 0;
#X connect 13 1 12 1;
#X connect 14 0 13 0;
#X connect 15 0 10 1;
#X connect 15 0 0 1;
#X connect 15 0 20 0;
#X connect 17 0 15 0;
#X connect 18 0 14 0;
#X connect 18 1 8 0;
#X connect 19 0 20 0;
#X connect 19 1 5 0;
#X connect 20 0 22 0;
#X connect 21 0 18 0;
#X restore 471 148 pd button;
#X obj 552 192 outlet;
#N canvas 2454 223 905 736 button 0;
#X obj 356 233 list store;
#X text 311 268 check for item to remove;
#X obj 356 290 list-remove;
#X obj 356 365 list append;
#X text 449 359 append item;
#X obj 356 424 cyclone/zl sort;
#X obj 356 183 t b a;
#X obj 356 472 list prepend set;
#X obj 355 156 t a a;
#X obj 357 505 route list;
#X obj 144 231 list store;
#X text 99 266 check for item to remove;
#X obj 144 288 list-remove;
#X obj 144 181 t b a;
#X obj 143 154 t a a;
#X obj 258 179 bng 19 250 50 0 empty empty empty 0 -10 0 12 #fcfcfc #000000 #000000;
#X text 286 181 init;
#X obj 257 147 loadbang;
#X obj 263 108 route 0 1;
#X obj 144 339 route bang;
#X msg 144 363 set;
#X obj 264 19 inlet;
#X obj 280 606 outlet;
#X connect 0 0 2 0;
#X connect 2 0 3 0;
#X connect 3 0 5 0;
#X connect 5 0 7 0;
#X connect 5 0 10 1;
#X connect 5 0 0 1;
#X connect 6 0 0 0;
#X connect 6 1 2 1;
#X connect 7 0 9 0;
#X connect 8 0 6 0;
#X connect 8 1 3 1;
#X connect 9 0 22 0;
#X connect 10 0 12 0;
#X connect 12 0 10 1;
#X connect 12 0 19 0;
#X connect 13 0 10 0;
#X connect 13 1 12 1;
#X connect 14 0 13 0;
#X connect 15 0 10 1;
#X connect 15 0 0 1;
#X connect 15 0 20 0;
#X connect 17 0 15 0;
#X connect 18 0 14 0;
#X connect 18 1 8 0;
#X connect 19 0 20 0;
#X connect 19 1 5 0;
#X connect 20 0 22 0;
#X connect 21 0 18 0;
#X restore 551 148 pd button;
#X obj 630 192 outlet;
#N canvas 2454 223 905 736 button 0;
#X obj 356 233 list store;
#X text 311 268 check for item to remove;
#X obj 356 290 list-remove;
#X obj 356 365 list append;
#X text 449 359 append item;
#X obj 356 424 cyclone/zl sort;
#X obj 356 183 t b a;
#X obj 356 472 list prepend set;
#X obj 355 156 t a a;
#X obj 357 505 route list;
#X obj 144 231 list store;
#X text 99 266 check for item to remove;
#X obj 144 288 list-remove;
#X obj 144 181 t b a;
#X obj 143 154 t a a;
#X obj 258 179 bng 19 250 50 0 empty empty empty 0 -10 0 12 #fcfcfc #000000 #000000;
#X text 286 181 init;
#X obj 257 147 loadbang;
#X obj 263 108 route 0 1;
#X obj 144 339 route bang;
#X msg 144 363 set;
#X obj 264 19 inlet;
#X obj 280 606 outlet;
#X connect 0 0 2 0;
#X connect 2 0 3 0;
#X connect 3 0 5 0;
#X connect 5 0 7 0;
#X connect 5 0 10 1;
#X connect 5 0 0 1;
#X connect 6 0 0 0;
#X connect 6 1 2 1;
#X connect 7 0 9 0;
#X connect 8 0 6 0;
#X connect 8 1 3 1;
#X connect 9 0 22 0;
#X connect 10 0 12 0;
#X connect 12 0 10 1;
#X connect 12 0 19 0;
#X connect 13 0 10 0;
#X connect 13 1 12 1;
#X connect 14 0 13 0;
#X connect 15 0 10 1;
#X connect 15 0 0 1;
#X connect 15 0 20 0;
#X connect 17 0 15 0;
#X connect 18 0 14 0;
#X connect 18 1 8 0;
#X connect 19 0 20 0;
#X connect 19 1 5 0;
#X connect 20 0 22 0;
#X connect 21 0 18 0;
#X restore 629 148 pd button;
#X obj 707 192 outlet;
#N canvas 2454 223 905 736 button 0;
#X obj 356 233 list store;
#X text 311 268 check for item to remove;
#X obj 356 290 list-remove;
#X obj 356 365 list append;
#X text 449 359 append item;
#X obj 356 424 cyclone/zl sort;
#X obj 356 183 t b a;
#X obj 356 472 list prepend set;
#X obj 355 156 t a a;
#X obj 357 505 route list;
#X obj 144 231 list store;
#X text 99 266 check for item to remove;
#X obj 144 288 list-remove;
#X obj 144 181 t b a;
#X obj 143 154 t a a;
#X obj 258 179 bng 19 250 50 0 empty empty empty 0 -10 0 12 #fcfcfc #000000 #000000;
#X text 286 181 init;
#X obj 257 147 loadbang;
#X obj 263 108 route 0 1;
#X obj 144 339 route bang;
#X msg 144 363 set;
#X obj 264 19 inlet;
#X obj 280 606 outlet;
#X connect 0 0 2 0;
#X connect 2 0 3 0;
#X connect 3 0 5 0;
#X connect 5 0 7 0;
#X connect 5 0 10 1;
#X connect 5 0 0 1;
#X connect 6 0 0 0;
#X connect 6 1 2 1;
#X connect 7 0 9 0;
#X connect 8 0 6 0;
#X connect 8 1 3 1;
#X connect 9 0 22 0;
#X connect 10 0 12 0;
#X connect 12 0 10 1;
#X connect 12 0 19 0;
#X connect 13 0 10 0;
#X connect 13 1 12 1;
#X connect 14 0 13 0;
#X connect 15 0 10 1;
#X connect 15 0 0 1;
#X connect 15 0 20 0;
#X connect 17 0 15 0;
#X connect 18 0 14 0;
#X connect 18 1 8 0;
#X connect 19 0 20 0;
#X connect 19 1 5 0;
#X connect 20 0 22 0;
#X connect 21 0 18 0;
#X restore 706 148 pd button;
#X obj 785 192 outlet;
#N canvas 2454 223 905 736 button 0;
#X obj 356 233 list store;
#X text 311 268 check for item to remove;
#X obj 356 290 list-remove;
#X obj 356 365 list append;
#X text 449 359 append item;
#X obj 356 424 cyclone/zl sort;
#X obj 356 183 t b a;
#X obj 356 472 list prepend set;
#X obj 355 156 t a a;
#X obj 357 505 route list;
#X obj 144 231 list store;
#X text 99 266 check for item to remove;
#X obj 144 288 list-remove;
#X obj 144 181 t b a;
#X obj 143 154 t a a;
#X obj 258 179 bng 19 250 50 0 empty empty empty 0 -10 0 12 #fcfcfc #000000 #000000;
#X text 286 181 init;
#X obj 257 147 loadbang;
#X obj 263 108 route 0 1;
#X obj 144 339 route bang;
#X msg 144 363 set;
#X obj 264 19 inlet;
#X obj 280 606 outlet;
#X connect 0 0 2 0;
#X connect 2 0 3 0;
#X connect 3 0 5 0;
#X connect 5 0 7 0;
#X connect 5 0 10 1;
#X connect 5 0 0 1;
#X connect 6 0 0 0;
#X connect 6 1 2 1;
#X connect 7 0 9 0;
#X connect 8 0 6 0;
#X connect 8 1 3 1;
#X connect 9 0 22 0;
#X connect 10 0 12 0;
#X connect 12 0 10 1;
#X connect 12 0 19 0;
#X connect 13 0 10 0;
#X connect 13 1 12 1;
#X connect 14 0 13 0;
#X connect 15 0 10 1;
#X connect 15 0 0 1;
#X connect 15 0 20 0;
#X connect 17 0 15 0;
#X connect 18 0 14 0;
#X connect 18 1 8 0;
#X connect 19 0 20 0;
#X connect 19 1 5 0;
#X connect 20 0 22 0;
#X connect 21 0 18 0;
#X restore 784 148 pd button;
#X obj 865 192 outlet;
#N canvas 2454 223 905 736 button 0;
#X obj 356 233 list store;
#X text 311 268 check for item to remove;
#X obj 356 290 list-remove;
#X obj 356 365 list append;
#X text 449 359 append item;
#X obj 356 424 cyclone/zl sort;
#X obj 356 183 t b a;
#X obj 356 472 list prepend set;
#X obj 355 156 t a a;
#X obj 357 505 route list;
#X obj 144 231 list store;
#X text 99 266 check for item to remove;
#X obj 144 288 list-remove;
#X obj 144 181 t b a;
#X obj 143 154 t a a;
#X obj 258 179 bng 19 250 50 0 empty empty empty 0 -10 0 12 #fcfcfc #000000 #000000;
#X text 286 181 init;
#X obj 257 147 loadbang;
#X obj 263 108 route 0 1;
#X obj 144 339 route bang;
#X msg 144 363 set;
#X obj 264 19 inlet;
#X obj 280 606 outlet;
#X connect 0 0 2 0;
#X connect 2 0 3 0;
#X connect 3 0 5 0;
#X connect 5 0 7 0;
#X connect 5 0 10 1;
#X connect 5 0 0 1;
#X connect 6 0 0 0;
#X connect 6 1 2 1;
#X connect 7 0 9 0;
#X connect 8 0 6 0;
#X connect 8 1 3 1;
#X connect 9 0 22 0;
#X connect 10 0 12 0;
#X connect 12 0 10 1;
#X connect 12 0 19 0;
#X connect 13 0 10 0;
#X connect 13 1 12 1;
#X connect 14 0 13 0;
#X connect 15 0 10 1;
#X connect 15 0 0 1;
#X connect 15 0 20 0;
#X connect 17 0 15 0;
#X connect 18 0 14 0;
#X connect 18 1 8 0;
#X connect 19 0 20 0;
#X connect 19 1 5 0;
#X connect 20 0 22 0;
#X connect 21 0 18 0;
#X restore 864 148 pd button;
#X obj 943 192 outlet;
#N canvas 2454 223 905 736 button 0;
#X obj 356 233 list store;
#X text 311 268 check for item to remove;
#X obj 356 290 list-remove;
#X obj 356 365 list append;
#X text 449 359 append item;
#X obj 356 424 cyclone/zl sort;
#X obj 356 183 t b a;
#X obj 356 472 list prepend set;
#X obj 355 156 t a a;
#X obj 357 505 route list;
#X obj 144 231 list store;
#X text 99 266 check for item to remove;
#X obj 144 288 list-remove;
#X obj 144 181 t b a;
#X obj 143 154 t a a;
#X obj 258 179 bng 19 250 50 0 empty empty empty 0 -10 0 12 #fcfcfc #000000 #000000;
#X text 286 181 init;
#X obj 257 147 loadbang;
#X obj 263 108 route 0 1;
#X obj 144 339 route bang;
#X msg 144 363 set;
#X obj 264 19 inlet;
#X obj 280 606 outlet;
#X connect 0 0 2 0;
#X connect 2 0 3 0;
#X connect 3 0 5 0;
#X connect 5 0 7 0;
#X connect 5 0 10 1;
#X connect 5 0 0 1;
#X connect 6 0 0 0;
#X connect 6 1 2 1;
#X connect 7 0 9 0;
#X connect 8 0 6 0;
#X connect 8 1 3 1;
#X connect 9 0 22 0;
#X connect 10 0 12 0;
#X connect 12 0 10 1;
#X connect 12 0 19 0;
#X connect 13 0 10 0;
#X connect 13 1 12 1;
#X connect 14 0 13 0;
#X connect 15 0 10 1;
#X connect 15 0 0 1;
#X connect 15 0 20 0;
#X connect 17 0 15 0;
#X connect 18 0 14 0;
#X connect 18 1 8 0;
#X connect 19 0 20 0;
#X connect 19 1 5 0;
#X connect 20 0 22 0;
#X connect 21 0 18 0;
#X restore 942 148 pd button;
#X connect 0 0 2 0;
#X connect 2 0 3 0;
#X connect 2 1 5 0;
#X connect 2 2 7 0;
#X connect 2 3 9 0;
#X connect 2 4 11 0;
#X connect 2 5 13 0;
#X connect 2 6 15 0;
#X connect 2 7 17 0;
#X connect 2 8 19 0;
#X connect 2 9 21 0;
#X connect 2 10 23 0;
#X connect 2 11 25 0;
#X connect 3 0 1 0;
#X connect 5 0 4 0;
#X connect 7 0 6 0;
#X connect 9 0 8 0;
#X connect 11 0 10 0;
#X connect 13 0 12 0;
#X connect 15 0 14 0;
#X connect 17 0 16 0;
#X connect 19 0 18 0;
#X connect 21 0 20 0;
#X connect 23 0 22 0;
#X connect 25 0 24 0;
