#N canvas 0 358 1728 405 12;
#X msg 255 84 list;
#X msg 256 124 list vendorid 1;
#X msg 255 249 list usage_page 1;
#X msg 256 273 list usage 2;
#X msg 256 297 list usage_page 1 usage 2;
#X msg 257 333 list joystick;
#X msg 258 357 list mouse;
#X msg 258 442 open mouse;
#X msg 263 506 close;
#X msg 260 628 poll 0;
#X obj 261 559 bng 15 250 50 0 empty empty empty 17 7 0 10 #fcfcfc #000000 #000000;
#X msg 257 148 list productid 2;
#X msg 257 173 list serial 0vsf-dfsd-sdg123;
#X msg 258 200 list vendorid 1 productid 2 serial 123-456;
#X msg 259 468 open joystick;
#X msg 256 399 open vendorid 1 productid 2 serial 123-345;
#X text 261 526 output all available output values;
#X text 247 48 list all devices or search for particular criteria (any combination possible);
#X text 253 581 automatically poll for values every N ms and turn off with zero value, f 72;
#X text 256 375 open FIRST device matching criteria and close again..;
#X text 657 18 USB HID PD external requires system libusb and hidapi compatibility https://github.com/tschiemer/hid-pd-external;
#X floatatom 821 419 5 0 0 0 - - - 0;
#X floatatom 822 440 5 0 0 0 - - - 0;
#X floatatom 822 460 5 0 0 0 - - - 0;
#X floatatom 822 481 5 0 0 0 - - - 0;
#X floatatom 822 503 5 0 0 0 - - - 0;
#X obj 731 125 route device opened closed value;
#X obj 685 170 print device;
#X obj 785 214 tgl 15 0 empty empty empty 17 7 0 10 #fcfcfc #000000 #000000 0 1;
#X msg 786 171 1;
#X msg 842 171 0;
#X obj 798 251 route 1 9 5;
#X text 653 380 Generic controls (1);
#X text 767 420 x (48);
#X text 767 442 y (49);
#X text 760 463 Rz (53);
#X text 732 482 Slider (54);
#X text 739 504 Wheel (56);
#X text 724 292 button (9);
#X text 718 316 gamepad (5);
#X floatatom 823 526 5 0 0 0 - - - 0;
#X obj 821 381 route 48 49 53 54 56 57;
#X text 703 528 Hat Switch (57);
#X text 703 214 open ?;
#X obj 802 621 route 1 2 3 4 5 6 7 8 9 10 11 12;
#X obj 805 759 s button1;
#X obj 939 461 s xvaluestick;
#X obj 875 760 s button2;
#X obj 946 761 s button3;
#X obj 1016 762 s button4;
#X obj 1087 762 s button5;
#X obj 1157 763 s button6;
#X obj 1228 764 s button7;
#X obj 1298 765 s button8;
#X obj 1371 766 s button9;
#X obj 1441 767 s button10;
#X obj 1512 768 s button11;
#X obj 1582 769 s button12;
#X obj 943 594 s slidervaluestick;
#X obj 942 511 s yvaluestick;
#X obj 943 557 s zvaluestick;
#X text 994 389 normalized values;
#X obj 50 327 loadbang_not;
#X obj 48 361 t b b b;
#X obj 940 439 cyclone/scale 0 1023 0 1;
#X obj 941 484 cyclone/scale 0 1023 0 1;
#X obj 942 536 cyclone/scale 0 255 0 1;
#X obj 945 572 cyclone/scale 0 255 0 1;
#X obj 1205 228 hsl 162 19 0 1 0 0 empty empty empty -2 -10 0 12 #fcfcfc #000000 #000000 0 1;
#X text 1485 86 joystick GUI;
#X obj 1203 276 bng 19 250 50 0 empty empty empty 0 -10 0 12 #fcfcfc #000000 #000000;
#X obj 1203 298 bng 19 250 50 0 empty empty empty 0 -10 0 12 #fcfcfc #000000 #000000;
#X obj 1203 320 bng 19 250 50 0 empty empty empty 0 -10 0 12 #fcfcfc #000000 #000000;
#X obj 1203 342 bng 19 250 50 0 empty empty empty 0 -10 0 12 #fcfcfc #000000 #000000;
#X obj 1203 364 bng 19 250 50 0 empty empty empty 0 -10 0 12 #fcfcfc #000000 #000000;
#X obj 1203 386 bng 19 250 50 0 empty empty empty 0 -10 0 12 #fcfcfc #000000 #000000;
#X obj 1203 408 bng 19 250 50 0 empty empty empty 0 -10 0 12 #fcfcfc #000000 #000000;
#X obj 1203 430 bng 19 250 50 0 empty empty empty 0 -10 0 12 #fcfcfc #000000 #000000;
#X obj 1203 452 bng 19 250 50 0 empty empty empty 0 -10 0 12 #fcfcfc #000000 #000000;
#X obj 1203 474 bng 19 250 50 0 empty empty empty 0 -10 0 12 #fcfcfc #000000 #000000;
#X obj 1203 496 bng 19 250 50 0 empty empty empty 0 -10 0 12 #fcfcfc #000000 #000000;
#X obj 1203 518 bng 19 250 50 0 empty empty empty 0 -10 0 12 #fcfcfc #000000 #000000;
#X text 1323 229 Slider;
#X obj 1481 107 Joystickscalemaps;
#X obj 1431 255 Joystickbuttonmaps;
#X obj 1205 187 hsl 162 19 0 1 0 0 empty empty empty -2 -10 0 12 #fcfcfc #000000 #000000 0 1;
#X text 1323 186 Z-Axis;
#X obj 1204 144 hsl 162 19 0 1 0 0 empty empty empty -2 -10 0 12 #fcfcfc #000000 #000000 0 1;
#X obj 1204 101 hsl 162 19 0 1 0 0 empty empty empty -2 -10 0 12 #fcfcfc #000000 #000000 0 1;
#X text 1322 144 Y-Axis;
#X text 1322 100 X-Axis;
#X text 1103 111 BUGFIX?;
#X listbox 1225 276 20 0 0 0 - - - 0;
#X listbox 1225 298 20 0 0 0 - - - 0;
#X listbox 1225 320 20 0 0 0 - - - 0;
#X listbox 1225 342 20 0 0 0 - - - 0;
#X listbox 1225 364 20 0 0 0 - - - 0;
#X listbox 1225 386 20 0 0 0 - - - 0;
#X listbox 1225 408 20 0 0 0 - - - 0;
#X listbox 1225 430 20 0 0 0 - - - 0;
#X listbox 1225 452 20 0 0 0 - - - 0;
#X listbox 1225 474 20 0 0 0 - - - 0;
#X listbox 1225 496 20 0 0 0 - - - 0;
#X listbox 1225 518 20 0 0 0 - - - 0;
#X listbox 1202 122 20 0 0 0 - - - 0;
#X listbox 1202 166 20 0 0 0 - - - 0;
#X listbox 1202 210 20 0 0 0 - - - 0;
#X listbox 1203 249 20 0 0 0 - - - 0;
#X obj 83 232 inlet;
#X msg 260 601 poll 50;
#X obj 1080 38 r cue;
#X msg 1079 86 set;
#X obj 1079 62 sel 0;
#X obj 160 139 hid;
#X connect 0 0 113 0;
#X connect 1 0 113 0;
#X connect 2 0 113 0;
#X connect 3 0 113 0;
#X connect 4 0 113 0;
#X connect 5 0 113 0;
#X connect 6 0 113 0;
#X connect 7 0 113 0;
#X connect 8 0 113 0;
#X connect 9 0 113 0;
#X connect 10 0 113 0;
#X connect 11 0 113 0;
#X connect 12 0 113 0;
#X connect 13 0 113 0;
#X connect 14 0 113 0;
#X connect 26 0 27 0;
#X connect 26 1 29 0;
#X connect 26 2 30 0;
#X connect 26 3 31 0;
#X connect 29 0 28 0;
#X connect 30 0 28 0;
#X connect 31 0 41 0;
#X connect 31 1 44 0;
#X connect 41 0 21 0;
#X connect 41 0 64 0;
#X connect 41 1 22 0;
#X connect 41 1 65 0;
#X connect 41 2 23 0;
#X connect 41 2 66 0;
#X connect 41 3 24 0;
#X connect 41 3 67 0;
#X connect 41 4 25 0;
#X connect 41 5 40 0;
#X connect 44 0 45 0;
#X connect 44 0 70 0;
#X connect 44 1 47 0;
#X connect 44 1 71 0;
#X connect 44 2 48 0;
#X connect 44 2 72 0;
#X connect 44 3 49 0;
#X connect 44 3 73 0;
#X connect 44 4 50 0;
#X connect 44 4 74 0;
#X connect 44 5 51 0;
#X connect 44 5 75 0;
#X connect 44 6 52 0;
#X connect 44 6 76 0;
#X connect 44 7 53 0;
#X connect 44 7 77 0;
#X connect 44 8 54 0;
#X connect 44 8 78 0;
#X connect 44 9 55 0;
#X connect 44 9 79 0;
#X connect 44 10 56 0;
#X connect 44 10 80 0;
#X connect 44 11 57 0;
#X connect 44 11 81 0;
#X connect 62 0 63 0;
#X connect 63 0 109 0;
#X connect 63 1 14 0;
#X connect 63 2 5 0;
#X connect 64 0 46 0;
#X connect 64 0 88 0;
#X connect 65 0 59 0;
#X connect 65 0 87 0;
#X connect 66 0 60 0;
#X connect 66 0 85 0;
#X connect 67 0 58 0;
#X connect 67 0 68 0;
#X connect 83 0 104 0;
#X connect 83 1 105 0;
#X connect 83 2 106 0;
#X connect 83 3 107 0;
#X connect 84 0 92 0;
#X connect 84 1 93 0;
#X connect 84 2 94 0;
#X connect 84 3 95 0;
#X connect 84 4 96 0;
#X connect 84 5 97 0;
#X connect 84 6 98 0;
#X connect 84 7 99 0;
#X connect 84 8 100 0;
#X connect 84 9 101 0;
#X connect 84 10 102 0;
#X connect 84 11 103 0;
#X connect 108 0 63 0;
#X connect 109 0 113 0;
#X connect 110 0 112 0;
#X connect 111 0 104 0;
#X connect 111 0 105 0;
#X connect 111 0 106 0;
#X connect 111 0 107 0;
#X connect 111 0 92 0;
#X connect 111 0 103 0;
#X connect 111 0 102 0;
#X connect 111 0 101 0;
#X connect 111 0 100 0;
#X connect 111 0 99 0;
#X connect 111 0 98 0;
#X connect 111 0 97 0;
#X connect 111 0 96 0;
#X connect 111 0 95 0;
#X connect 111 0 94 0;
#X connect 111 0 93 0;
#X connect 112 0 111 0;
#X connect 113 0 26 0;
#X coords 0 -1 1 1 200 440 2 1200 100;
