#N canvas 2227 81 2061 723 12;
#X obj 285 10 r jstkroutin;
#X obj 286 266 list store;
#X text 241 301 check for item to remove;
#X obj 286 323 list-remove;
#X obj 286 398 list append;
#X text 379 392 append item;
#X obj 286 457 cyclone/zl sort;
#X obj 286 216 t b a;
#X obj 289 748 route bang float symbol list;
#X obj 290 787 bng 19 250 50 0 empty empty empty 0 -10 0 12 #fcfcfc #000000 #000000;
#X obj 334 787 bng 19 250 50 0 empty empty empty 0 -10 0 12 #fcfcfc #000000 #000000;
#X obj 379 787 bng 19 250 50 0 empty empty empty 0 -10 0 12 #fcfcfc #000000 #000000;
#X obj 423 787 bng 19 250 50 0 empty empty empty 0 -10 0 12 #fcfcfc #000000 #000000;
#X obj 471 787 bng 19 250 50 0 empty empty empty 0 -10 0 12 #fcfcfc #000000 #000000;
#X obj 286 505 list prepend set;
#X obj 285 189 t a a;
#X obj 287 538 route list;
#X text 451 298 check for doublings;
#X obj 470 36 route 0 1 2 3 4, f 144;
#X obj 74 264 list store;
#X text 29 299 check for item to remove;
#X obj 74 321 list-remove;
#X obj 74 214 t b a;
#X obj 73 187 t a a;
#X obj 188 212 bng 19 250 50 0 empty empty empty 0 -10 0 12 #fcfcfc #000000 #000000;
#X text 216 214 init;
#X obj 287 704 outlet;
#X obj 864 266 list store;
#X text 819 301 check for item to remove;
#X obj 864 323 list-remove;
#X obj 864 398 list append;
#X text 957 392 append item;
#X obj 864 457 cyclone/zl sort;
#X obj 864 216 t b a;
#X obj 864 505 list prepend set;
#X obj 863 189 t a a;
#X obj 865 538 route list;
#X text 1029 298 check for doublings;
#X obj 652 264 list store;
#X text 607 299 check for item to remove;
#X obj 652 321 list-remove;
#X obj 652 214 t b a;
#X obj 651 187 t a a;
#X obj 766 212 bng 19 250 50 0 empty empty empty 0 -10 0 12 #fcfcfc #000000 #000000;
#X text 794 214 init;
#X obj 871 717 outlet;
#X obj 1447 266 list store;
#X text 1402 301 check for item to remove;
#X obj 1447 323 list-remove;
#X obj 1447 398 list append;
#X text 1540 392 append item;
#X obj 1447 457 cyclone/zl sort;
#X obj 1447 216 t b a;
#X obj 1447 505 list prepend set;
#X obj 1446 189 t a a;
#X obj 1448 538 route list;
#X text 1612 298 check for doublings;
#X obj 1235 264 list store;
#X text 1190 299 check for item to remove;
#X obj 1235 321 list-remove;
#X obj 1235 214 t b a;
#X obj 1234 187 t a a;
#X obj 1349 212 bng 19 250 50 0 empty empty empty 0 -10 0 12 #fcfcfc #000000 #000000;
#X text 1377 214 init;
#X obj 1454 717 outlet;
#X obj 2066 261 list store;
#X text 2021 296 check for item to remove;
#X obj 2066 318 list-remove;
#X obj 2066 393 list append;
#X text 2159 387 append item;
#X obj 2066 452 cyclone/zl sort;
#X obj 2066 211 t b a;
#X obj 2066 500 list prepend set;
#X obj 2065 184 t a a;
#X obj 2067 533 route list;
#X text 2231 293 check for doublings;
#X obj 1854 259 list store;
#X text 1809 294 check for item to remove;
#X obj 1854 316 list-remove;
#X obj 1854 209 t b a;
#X obj 1853 182 t a a;
#X obj 1968 207 bng 19 250 50 0 empty empty empty 0 -10 0 12 #fcfcfc #000000 #000000;
#X text 1996 209 init;
#X obj 2073 712 outlet;
#X text 211 45 0 = all off n = n on rest off;
#X obj 459 212 loadbang;
#X connect 0 0 18 0;
#X connect 1 0 3 0;
#X connect 3 0 4 0;
#X connect 4 0 6 0;
#X connect 6 0 14 0;
#X connect 6 0 19 1;
#X connect 6 0 1 1;
#X connect 7 0 1 0;
#X connect 7 1 3 1;
#X connect 8 0 9 0;
#X connect 8 1 10 0;
#X connect 8 2 11 0;
#X connect 8 3 12 0;
#X connect 8 4 13 0;
#X connect 14 0 16 0;
#X connect 15 0 7 0;
#X connect 15 1 4 1;
#X connect 16 0 26 0;
#X connect 18 0 23 0;
#X connect 18 0 42 0;
#X connect 18 0 61 0;
#X connect 18 0 80 0;
#X connect 18 1 15 0;
#X connect 18 1 42 0;
#X connect 18 1 61 0;
#X connect 18 1 80 0;
#X connect 18 2 35 0;
#X connect 18 2 23 0;
#X connect 18 2 61 0;
#X connect 18 2 80 0;
#X connect 18 3 54 0;
#X connect 18 3 42 0;
#X connect 18 3 80 0;
#X connect 18 3 23 0;
#X connect 18 4 73 0;
#X connect 18 4 61 0;
#X connect 18 4 42 0;
#X connect 18 4 23 0;
#X connect 19 0 21 0;
#X connect 21 0 19 1;
#X connect 21 0 6 0;
#X connect 22 0 19 0;
#X connect 22 1 21 1;
#X connect 23 0 22 0;
#X connect 24 0 19 1;
#X connect 24 0 1 1;
#X connect 27 0 29 0;
#X connect 29 0 30 0;
#X connect 30 0 32 0;
#X connect 32 0 34 0;
#X connect 32 0 38 1;
#X connect 32 0 27 1;
#X connect 33 0 27 0;
#X connect 33 1 29 1;
#X connect 34 0 36 0;
#X connect 35 0 33 0;
#X connect 35 1 30 1;
#X connect 36 0 45 0;
#X connect 38 0 40 0;
#X connect 40 0 38 1;
#X connect 40 0 32 0;
#X connect 41 0 38 0;
#X connect 41 1 40 1;
#X connect 42 0 41 0;
#X connect 43 0 38 1;
#X connect 43 0 27 1;
#X connect 46 0 48 0;
#X connect 48 0 49 0;
#X connect 49 0 51 0;
#X connect 51 0 53 0;
#X connect 51 0 57 1;
#X connect 51 0 46 1;
#X connect 52 0 46 0;
#X connect 52 1 48 1;
#X connect 53 0 55 0;
#X connect 54 0 52 0;
#X connect 54 1 49 1;
#X connect 55 0 64 0;
#X connect 57 0 59 0;
#X connect 59 0 57 1;
#X connect 59 0 51 0;
#X connect 60 0 57 0;
#X connect 60 1 59 1;
#X connect 61 0 60 0;
#X connect 62 0 57 1;
#X connect 62 0 46 1;
#X connect 65 0 67 0;
#X connect 67 0 68 0;
#X connect 68 0 70 0;
#X connect 70 0 72 0;
#X connect 70 0 76 1;
#X connect 70 0 65 1;
#X connect 71 0 65 0;
#X connect 71 1 67 1;
#X connect 72 0 74 0;
#X connect 73 0 71 0;
#X connect 73 1 68 1;
#X connect 74 0 83 0;
#X connect 76 0 78 0;
#X connect 78 0 76 1;
#X connect 78 0 70 0;
#X connect 79 0 76 0;
#X connect 79 1 78 1;
#X connect 80 0 79 0;
#X connect 81 0 76 1;
#X connect 81 0 65 1;
#X connect 85 0 24 0;
#X connect 85 0 43 0;
#X connect 85 0 62 0;
#X connect 85 0 81 0;
