#N canvas 1912 83 999 459 12;
#X obj 548 614 outlet;
#X obj 60 268 r cue;
#X text 101 345 datainlet;
#X text 440 207 format: cue button onon value offon value;
#X obj 227 385 route -1;
#X obj 227 419 list split 1;
#X obj 547 552 Jstk_buttons;
#X text 293 168 format: cue presetvalue;
#X obj 55 31 loadbang;
#X obj 239 83 symbol \$1;
#X obj 239 27 bng 19 250 50 0 empty empty empty 0 -10 0 12 #fcfcfc #000000 #000000;
#X obj 316 83 symbol \$2;
#X obj 238 106 pack s s;
#X obj 239 51 t b b;
#X obj 55 88 symbol \$1;
#X obj 132 88 symbol \$2;
#X obj 54 111 pack s s;
#X obj 55 56 t b b;
#X msg 54 136 read \$1_\$2_buttonjstk.txt;
#X msg 235 131 write \$1_\$2_buttonjstk.txt;
#X obj 55 167 text define -k \$1_\$2_buttonjstk;
#A set 0 0 0 0 0 \;;
#X obj 227 310 text search \$1_\$2_buttonjstk;
#X obj 227 351 text get \$1_\$2_buttonjstk;
#X obj 156 1 r update;
#X obj 498 45 r makefiles;
#X obj 72 780 s jstkbuttonroutin;
#X obj 77 663 symbol \$1;
#X obj 79 704 pack s s;
#X msg 76 728 \$1_\$2;
#X obj 150 661 symbol \$2;
#X obj 76 626 t b b l;
#X msg 473 471 1 1 100 1 30;
#X obj 74 751 list prepend 1;
#X obj 76 545 list split 1;
#X obj 170 570 |;
#X obj 170 538 unpack f f f f f;
#X text 201 580 check if button on and or off is set to fire;
#X obj 76 593 list append;
#X obj 155 494 t l l;
#X msg 578 472 1 0 100 0 30;
#X msg 681 472 1 0 100 1 30;
#N canvas 2027 284 412 453 listiter 1;
#X obj 59 109 until;
#X obj 59 184 list store;
#X obj 57 48 t b b l;
#X obj 59 134 f;
#X obj 97 134 + 1;
#X msg 116 109 0, f 2;
#X msg 59 159 get \$1 1;
#X obj 57 23 inlet;
#X obj 58 219 outlet;
#X connect 0 0 3 0;
#X connect 1 0 8 0;
#X connect 1 1 0 1;
#X connect 2 0 0 0;
#X connect 2 1 5 0;
#X connect 2 2 1 1;
#X connect 3 0 4 0;
#X connect 3 0 6 0;
#X connect 4 0 3 1;
#X connect 5 0 3 1;
#X connect 6 0 1 0;
#X connect 7 0 2 0;
#X restore 656 285 pd listiter;
#N canvas 777 105 924 629 listiter52 1;
#X obj 411 173 until;
#X obj 411 248 list store;
#X obj 409 112 t b b l;
#X obj 411 198 f;
#X obj 449 198 + 1;
#X msg 468 173 0, f 2;
#X msg 411 223 get \$1 1;
#X obj 408 20 inlet;
#X obj 631 197 int 1;
#X obj 681 196 + 1;
#X obj 632 239 % 5;
#X obj 412 667 outlet;
#X obj 409 546 list;
#X obj 636 412 t b b b;
#X obj 412 607 list;
#X text 704 217 counter;
#X text 178 188 iterating through the list;
#X text 194 453 collect 5 items;
#X text 518 73 reset;
#X obj 632 276 sel 4;
#X msg 620 141 0;
#X obj 515 304 t b f;
#X obj 409 74 t l b b;
#X obj 409 513 list prepend;
#X connect 0 0 3 0;
#X connect 1 0 21 0;
#X connect 1 1 0 1;
#X connect 2 0 0 0;
#X connect 2 1 5 0;
#X connect 2 2 1 1;
#X connect 3 0 4 0;
#X connect 3 0 6 0;
#X connect 4 0 3 1;
#X connect 5 0 3 1;
#X connect 6 0 1 0;
#X connect 7 0 22 0;
#X connect 8 0 9 0;
#X connect 8 0 10 0;
#X connect 9 0 8 1;
#X connect 10 0 19 0;
#X connect 12 0 14 1;
#X connect 12 0 23 1;
#X connect 13 0 23 0;
#X connect 13 1 23 1;
#X connect 13 2 14 0;
#X connect 14 0 11 0;
#X connect 19 0 13 0;
#X connect 20 0 8 1;
#X connect 21 0 8 0;
#X connect 21 1 23 0;
#X connect 22 0 2 0;
#X connect 22 1 23 1;
#X connect 22 1 23 0;
#X connect 22 2 20 0;
#X connect 23 0 12 0;
#X restore 265 453 pd listiter52;
#X msg 783 462 1 0 100 1 30 1 2 3 4 5 6 7 8 9 10;
#X connect 1 0 21 0;
#X connect 4 1 5 0;
#X connect 5 1 42 0;
#X connect 6 0 0 0;
#X connect 8 0 17 0;
#X connect 9 0 12 0;
#X connect 10 0 13 0;
#X connect 11 0 12 1;
#X connect 12 0 19 0;
#X connect 13 0 9 0;
#X connect 13 1 11 0;
#X connect 14 0 16 0;
#X connect 15 0 16 1;
#X connect 16 0 18 0;
#X connect 17 0 14 0;
#X connect 17 1 15 0;
#X connect 18 0 20 0;
#X connect 19 0 20 0;
#X connect 21 0 22 0;
#X connect 22 0 4 0;
#X connect 23 0 17 0;
#X connect 24 0 10 0;
#X connect 26 0 27 0;
#X connect 27 0 28 0;
#X connect 28 0 32 0;
#X connect 29 0 27 1;
#X connect 30 0 26 0;
#X connect 30 1 29 0;
#X connect 30 2 32 1;
#X connect 31 0 38 0;
#X connect 32 0 25 0;
#X connect 33 0 37 0;
#X connect 34 0 37 1;
#X connect 35 1 34 0;
#X connect 35 3 34 1;
#X connect 37 0 30 0;
#X connect 38 0 33 0;
#X connect 38 1 35 0;
#X connect 39 0 38 0;
#X connect 40 0 38 0;
#X connect 42 0 6 0;
#X connect 42 0 38 0;
