#N canvas 553 105 715 474 12;
#X obj 238 602 outlet;
#X obj 60 268 r cue;
#X text 101 345 datainlet;
#X text 440 207 format: cue button onon value offon value;
#X obj 227 385 route -1;
#X obj 227 443 list split 1;
#X obj 237 540 Jstk_buttons;
#X text 293 168 format: cue presetvalue;
#X obj 55 31 loadbang;
#X obj 239 83 symbol \$1;
#X obj 239 27 bng 19 250 50 0 empty empty empty 0 -10 0 12 #fcfcfc #000000 #000000;
#X obj 316 83 symbol \$2;
#X obj 238 106 pack s s;
#X obj 239 51 t b b;
#X obj 55 88 symbol \$1;
#X obj 132 88 symbol \$2;
#X obj 54 111 pack s s;
#X obj 55 56 t b b;
#X msg 54 136 read \$1_\$2_buttonjstk.txt;
#X msg 235 131 write \$1_\$2_buttonjstk.txt;
#X obj 55 167 text define -k \$1_\$2_buttonjstk;
#A set;
#X obj 227 310 text search \$1_\$2_buttonjstk;
#X obj 227 351 text get \$1_\$2_buttonjstk;
#X obj 156 1 r update;
#X connect 1 0 21 0;
#X connect 4 1 5 0;
#X connect 5 1 6 0;
#X connect 6 0 0 0;
#X connect 8 0 17 0;
#X connect 9 0 12 0;
#X connect 10 0 13 0;
#X connect 11 0 12 1;
#X connect 12 0 19 0;
#X connect 13 0 9 0;
#X connect 13 1 11 0;
#X connect 14 0 16 0;
#X connect 15 0 16 1;
#X connect 16 0 18 0;
#X connect 17 0 14 0;
#X connect 17 1 15 0;
#X connect 18 0 20 0;
#X connect 19 0 20 0;
#X connect 21 0 22 0;
#X connect 22 0 4 0;
#X connect 23 0 17 0;
