#N canvas 159 69 792 879 12;
#X obj 49 345 list split 1;
#X obj 49 311 route -1;
#X obj 231 473 * 1;
#X obj 233 506 + 0;
#X text 277 509 offset;
#X obj 230 439 pow;
#X text 276 438 exponent values between 1e-05 and N;
#X text 273 472 range;
#X obj 233 542 outlet;
#X obj 305 185 r cue;
#X text 383 185 receive cue;
#X text 427 320 datainlet;
#X text 39 207 format: cue input offset range exponent;
#X obj 98 386 unpack 0 0 0 0;
#X obj 282 319 Jstk_continuousdata;
#X text 308 137 format: cue presetvalue;
#X obj 52 2 loadbang;
#X obj 252 58 symbol \$1;
#X obj 252 2 bng 19 250 50 0 empty empty empty 0 -10 0 12 #fcfcfc #000000 #000000;
#X obj 329 58 symbol \$2;
#X obj 251 81 pack s s;
#X obj 252 26 t b b;
#X obj 52 59 symbol \$1;
#X obj 129 59 symbol \$2;
#X obj 51 82 pack s s;
#X obj 52 27 t b b;
#X msg 51 107 read \$1_\$2_scalingjstk.txt;
#X msg 248 106 write \$1_\$2_scalingjstk.txt;
#X obj 52 138 text define -k \$1_\$2_scalingjstk;
#A set;
#X obj 49 236 text search \$1_\$2_scalingjstk;
#X obj 49 277 text get \$1_\$2_scalingjstk;
#X connect 0 1 13 0;
#X connect 1 1 0 0;
#X connect 2 0 3 0;
#X connect 3 0 8 0;
#X connect 5 0 2 0;
#X connect 9 0 29 0;
#X connect 13 0 14 0;
#X connect 13 1 3 1;
#X connect 13 2 2 1;
#X connect 13 3 5 1;
#X connect 14 0 5 0;
#X connect 16 0 25 0;
#X connect 17 0 20 0;
#X connect 18 0 21 0;
#X connect 19 0 20 1;
#X connect 20 0 27 0;
#X connect 21 0 17 0;
#X connect 21 1 19 0;
#X connect 22 0 24 0;
#X connect 23 0 24 1;
#X connect 24 0 26 0;
#X connect 25 0 22 0;
#X connect 25 1 23 0;
#X connect 26 0 28 0;
#X connect 27 0 28 0;
#X connect 29 0 30 0;
#X connect 30 0 1 0;
