#N canvas 427 239 857 345 12;
#X obj 578 46 Jstk_buttons;
#X obj 118 50 Jstk_continuousdata;
#X obj 117 333 outlet;
#X obj 584 324 outlet;
#X obj 117 4 inlet;
#X obj 577 9 inlet;
#X connect 0 0 3 0;
#X connect 1 0 2 0;
#X connect 4 0 1 0;
#X connect 5 0 0 0;
