#N canvas 966 249 733 650 12;
#X obj 55 118 line;
#X text 56 20 METAFADER Expanded;
#X obj 63 223 * 100;
#X obj 119 223 * 90;
#X obj 182 222 * 80;
#X obj 239 224 * 70;
#X obj 89 431 *~ 0.2;
#X obj 91 616 dac~ 1 2;
#X text 452 136 DSP on/off;
#X obj 373 109 tgl 17 0 empty empty empty 17 7 0 10 #dfdfdf #000000 #000000 0 1;
#X msg 373 137 \; pd dsp \$1;
#X obj 292 223 * 60;
#X obj 348 223 * 50;
#X obj 411 222 * 40;
#X obj 468 224 * 30;
#X msg 55 67 0 \, 1 12000;
#X obj 63 331 phasor~;
#X obj 118 333 phasor~;
#X obj 191 327 phasor~;
#X obj 253 331 phasor~;
#X obj 292 331 phasor~;
#X obj 347 333 phasor~;
#X obj 420 327 phasor~;
#X obj 482 331 phasor~;
#X obj 65 274 + 100;
#X obj 119 273 + 110;
#X obj 182 275 + 120;
#X obj 244 276 + 130;
#X obj 294 274 + 140;
#X obj 348 273 + 150;
#X obj 411 275 + 160;
#X obj 473 276 + 170;
#X obj 265 450 *~ 0.2;
#X connect 0 0 2 0;
#X connect 0 0 3 0;
#X connect 0 0 4 0;
#X connect 0 0 5 0;
#X connect 0 0 11 0;
#X connect 0 0 12 0;
#X connect 0 0 13 0;
#X connect 0 0 14 0;
#X connect 2 0 24 0;
#X connect 3 0 25 0;
#X connect 4 0 26 0;
#X connect 5 0 27 0;
#X connect 9 0 10 0;
#X connect 11 0 28 0;
#X connect 12 0 29 0;
#X connect 13 0 30 0;
#X connect 14 0 31 0;
#X connect 15 0 0 0;
#X connect 16 0 6 0;
#X connect 17 0 6 0;
#X connect 18 0 6 0;
#X connect 19 0 6 0;
#X connect 20 0 32 0;
#X connect 21 0 32 0;
#X connect 22 0 32 0;
#X connect 23 0 32 0;
#X connect 24 0 16 0;
#X connect 25 0 17 0;
#X connect 26 0 18 0;
#X connect 27 0 19 0;
#X connect 28 0 20 0;
#X connect 29 0 21 0;
#X connect 30 0 22 0;
#X connect 31 0 23 0;
