#N canvas 0 91 1722 895 12;
#X obj 55 118 line;
#X text 56 20 METAFADER Expanded;
#X obj 63 223 * 100;
#X obj 119 223 * 90;
#X obj 182 222 * 80;
#X obj 239 224 * 70;
#X obj 89 431 *~ 0.2;
#X text 452 136 DSP on/off;
#X obj 373 109 tgl 17 0 empty empty empty 17 7 0 10 -228856 -1 -1 0 1;
#X msg 373 137 \; pd dsp \$1;
#X obj 292 223 * 60;
#X obj 348 223 * 50;
#X obj 411 222 * 40;
#X obj 468 224 * 30;
#X obj 63 331 phasor~;
#X obj 118 333 phasor~;
#X obj 191 327 phasor~;
#X obj 253 331 phasor~;
#X obj 292 331 phasor~;
#X obj 347 333 phasor~;
#X obj 420 327 phasor~;
#X obj 482 331 phasor~;
#X obj 65 274 + 100;
#X obj 119 273 + 110;
#X obj 182 275 + 120;
#X obj 244 276 + 130;
#X obj 294 274 + 140;
#X obj 348 273 + 150;
#X obj 411 275 + 160;
#X obj 473 276 + 170;
#X obj 265 450 *~ 0.2;
#X text 1351 67 dauer;
#X msg 1477 139 12;
#X msg 1407 70 15;
#X obj 1408 197 -;
#X obj 1477 221 * 10;
#X obj 1460 326 -;
#X obj 1457 265 t b i;
#X obj 1397 326 * 1000;
#X obj 1392 526 phasor~;
#X msg 1390 432 \$1 \, \$2 \$3;
#X obj 1617 643 *~ 0.2;
#X obj 1398 468 line;
#X obj 1390 402 pack i 400 i;
#X obj 1535 195 -;
#X obj 1604 219 * 10;
#X obj 1587 324 -;
#X obj 1584 263 t b i;
#X obj 1524 324 * 1000;
#X obj 1519 524 phasor~;
#X msg 1517 430 \$1 \, \$2 \$3;
#X obj 1525 466 line;
#X obj 1517 400 pack i 400 i;
#X obj 1652 192 -;
#X obj 1721 216 * 10;
#X obj 1704 321 -;
#X obj 1701 260 t b i;
#X obj 1641 321 * 1000;
#X obj 1636 521 phasor~;
#X msg 1634 427 \$1 \, \$2 \$3;
#X obj 1642 463 line;
#X obj 1634 397 pack i 400 i;
#X obj 1772 190 -;
#X obj 1841 214 * 10;
#X obj 1824 319 -;
#X obj 1821 258 t b i;
#X obj 1761 319 * 1000;
#X obj 1756 519 phasor~;
#X msg 1754 425 \$1 \, \$2 \$3;
#X obj 1762 461 line;
#X obj 1754 395 pack i 400 i;
#X obj 1904 207 -;
#X obj 1973 231 * 10;
#X obj 1956 336 -;
#X obj 1953 275 t b i;
#X obj 1893 336 * 1000;
#X obj 1888 536 phasor~;
#X msg 1886 442 \$1 \, \$2 \$3;
#X obj 1894 478 line;
#X obj 1886 412 pack i 400 i;
#X obj 2109 192 -;
#X obj 2178 216 * 10;
#X obj 2161 321 -;
#X obj 2158 260 t b i;
#X obj 2098 321 * 1000;
#X obj 2093 521 phasor~;
#X msg 2091 427 \$1 \, \$2 \$3;
#X obj 2099 463 line;
#X obj 2091 397 pack i 400 i;
#X msg 1604 137 11;
#X msg 1721 134 10;
#X msg 1841 132 9;
#X msg 1973 149 8;
#X msg 2178 134 7;
#X obj 1820 643 *~ 0.2;
#X obj 1781 43 bng 19 250 50 0 empty empty empty 0 -10 0 12 -262144 -1 -1;
#X obj 1458 288 200;
#X obj 1585 286 200;
#X obj 1702 283 200;
#X obj 1822 281 200;
#X obj 1954 298 200;
#X obj 2159 283 200;
#N canvas 1055 269 673 432 chanelvolumes 1;
#X obj 62 31 inlet~;
#X obj 68 314 *~;
#X obj 68 345 outlet~;
#X obj 65 157 *~;
#X obj 194 314 *~;
#X obj 194 345 outlet~;
#X obj 315 314 *~;
#X obj 315 345 outlet~;
#X obj 429 314 *~;
#X obj 429 345 outlet~;
#X obj 177 34 r idis\$1;
#X obj 109 160 r ch1\$1;
#X obj 230 167 r ch2\$1;
#X obj 340 169 r ch3\$1;
#X obj 474 154 r ch4\$1;
#X obj 481 258 list append 5;
#X obj 100 288 vline~;
#X obj 226 288 vline~;
#X obj 347 288 vline~;
#X obj 461 288 vline~;
#X obj 100 257 list append 4000;
#X obj 226 257 list append 4000;
#X obj 347 257 list append 4000;
#X obj 282 33 inlet;
#X obj 345 32 inlet;
#X obj 401 34 inlet;
#X obj 464 33 inlet;
#X obj 535 34 inlet;
#X connect 0 0 3 0;
#X connect 1 0 2 0;
#X connect 3 0 1 0;
#X connect 3 0 4 0;
#X connect 3 0 6 0;
#X connect 3 0 8 0;
#X connect 4 0 5 0;
#X connect 6 0 7 0;
#X connect 8 0 9 0;
#X connect 10 0 3 1;
#X connect 11 0 20 0;
#X connect 12 0 21 0;
#X connect 13 0 22 0;
#X connect 14 0 15 0;
#X connect 15 0 19 0;
#X connect 16 0 1 1;
#X connect 17 0 4 1;
#X connect 18 0 6 1;
#X connect 19 0 8 1;
#X connect 20 0 16 0;
#X connect 21 0 17 0;
#X connect 22 0 18 0;
#X connect 23 0 3 1;
#X connect 24 0 20 0;
#X connect 25 0 21 0;
#X connect 26 0 22 0;
#X connect 27 0 15 0;
#X restore 85 1052 pd chanelvolumes;
#X obj 435 1004 *~;
#X obj 94 835 *~;
#X msg 459 894 1;
#X obj 279 718 r rev\$1;
#X obj 455 964 vline~;
#X obj 457 928 list append 4000;
#N canvas 505 148 853 631 a1 0;
#X obj 162 166 inlet~;
#X obj 321 56 loadbang;
#X msg 321 95 647;
#X obj 321 134 / 25600;
#X obj 321 173 * 2;
#X obj 321 251 * 20;
#X obj 321 290 /;
#X obj 321 212 t f f;
#X obj 321 329 t b f;
#X obj 321 407 /;
#X msg 321 368 1;
#X obj 321 446 t b f;
#X obj 321 524 pow;
#X msg 321 485 0.001;
#X obj 216 354 * 1000;
#X obj 163 601 cyclone/allpass~;
#X obj 164 646 outlet~;
#X connect 0 0 15 0;
#X connect 1 0 2 0;
#X connect 2 0 3 0;
#X connect 3 0 4 0;
#X connect 4 0 7 0;
#X connect 4 0 14 0;
#X connect 5 0 6 0;
#X connect 6 0 8 0;
#X connect 7 0 5 0;
#X connect 7 1 6 1;
#X connect 8 0 10 0;
#X connect 8 1 9 1;
#X connect 9 0 11 0;
#X connect 10 0 9 0;
#X connect 11 0 13 0;
#X connect 11 1 12 1;
#X connect 12 0 15 2;
#X connect 13 0 12 0;
#X connect 14 0 15 1;
#X connect 15 0 16 0;
#X restore 436 1042 pd a1;
#N canvas 505 148 853 715 a2 0;
#X obj 162 166 inlet~;
#X obj 321 56 loadbang;
#X obj 321 134 / 25600;
#X obj 321 173 * 2;
#X obj 321 251 * 20;
#X obj 321 290 /;
#X obj 321 212 t f f;
#X obj 321 329 t b f;
#X obj 321 407 /;
#X msg 321 368 1;
#X obj 321 446 t b f;
#X obj 321 524 pow;
#X msg 321 485 0.001;
#X obj 216 354 * 1000;
#X obj 163 601 cyclone/allpass~;
#X obj 164 646 outlet~;
#X msg 321 95 213;
#X connect 0 0 14 0;
#X connect 1 0 16 0;
#X connect 2 0 3 0;
#X connect 3 0 6 0;
#X connect 3 0 13 0;
#X connect 4 0 5 0;
#X connect 5 0 7 0;
#X connect 6 0 4 0;
#X connect 6 1 5 1;
#X connect 7 0 9 0;
#X connect 7 1 8 1;
#X connect 8 0 10 0;
#X connect 9 0 8 0;
#X connect 10 0 12 0;
#X connect 10 1 11 1;
#X connect 11 0 14 2;
#X connect 12 0 11 0;
#X connect 13 0 14 1;
#X connect 14 0 15 0;
#X connect 16 0 2 0;
#X restore 436 1078 pd a2;
#N canvas 505 148 853 715 a3 0;
#X obj 162 166 inlet~;
#X obj 321 56 loadbang;
#X obj 321 134 / 25600;
#X obj 321 173 * 2;
#X obj 321 251 * 20;
#X obj 321 290 /;
#X obj 321 212 t f f;
#X obj 321 329 t b f;
#X obj 321 407 /;
#X msg 321 368 1;
#X obj 321 446 t b f;
#X obj 321 524 pow;
#X msg 321 485 0.001;
#X obj 216 354 * 1000;
#X obj 163 601 cyclone/allpass~;
#X obj 164 646 outlet~;
#X msg 321 95 67;
#X connect 0 0 14 0;
#X connect 1 0 16 0;
#X connect 2 0 3 0;
#X connect 3 0 6 0;
#X connect 3 0 13 0;
#X connect 4 0 5 0;
#X connect 5 0 7 0;
#X connect 6 0 4 0;
#X connect 6 1 5 1;
#X connect 7 0 9 0;
#X connect 7 1 8 1;
#X connect 8 0 10 0;
#X connect 9 0 8 0;
#X connect 10 0 12 0;
#X connect 10 1 11 1;
#X connect 11 0 14 2;
#X connect 12 0 11 0;
#X connect 13 0 14 1;
#X connect 14 0 15 0;
#X connect 16 0 2 0;
#X restore 436 1114 pd a3;
#N canvas 875 261 853 631 a4 0;
#X obj 162 166 inlet~;
#X obj 321 56 loadbang;
#X obj 321 134 / 25600;
#X obj 321 173 * 2;
#X obj 321 290 /;
#X obj 321 329 t b f;
#X obj 321 407 /;
#X msg 321 368 1;
#X obj 321 446 t b f;
#X obj 321 524 pow;
#X msg 321 485 0.001;
#X obj 216 354 * 1000;
#X obj 163 601 cyclone/allpass~;
#X obj 163 640 outlet~;
#X msg 321 95 3201;
#X obj 321 251 * 32;
#X obj 321 212 t f f;
#X connect 0 0 12 0;
#X connect 1 0 14 0;
#X connect 2 0 3 0;
#X connect 3 0 11 0;
#X connect 3 0 16 0;
#X connect 4 0 5 0;
#X connect 5 0 7 0;
#X connect 5 1 6 1;
#X connect 6 0 8 0;
#X connect 7 0 6 0;
#X connect 8 0 10 0;
#X connect 8 1 9 1;
#X connect 9 0 12 2;
#X connect 10 0 9 0;
#X connect 11 0 12 1;
#X connect 12 0 13 0;
#X connect 14 0 2 0;
#X connect 15 0 4 0;
#X connect 16 0 15 0;
#X connect 16 1 4 1;
#X restore 437 1174 pd a4;
#N canvas 875 277 853 715 a5 0;
#X obj 162 166 inlet~;
#X obj 321 56 loadbang;
#X obj 321 134 / 25600;
#X obj 321 173 * 2;
#X obj 321 290 /;
#X obj 321 329 t b f;
#X obj 321 407 /;
#X msg 321 368 1;
#X obj 321 446 t b f;
#X obj 321 524 pow;
#X msg 321 485 0.001;
#X obj 216 354 * 1000;
#X obj 163 601 cyclone/allpass~;
#X obj 163 640 outlet~;
#X obj 321 251 * 32;
#X obj 321 212 t f f;
#X msg 321 95 3667;
#X connect 0 0 12 0;
#X connect 1 0 16 0;
#X connect 2 0 3 0;
#X connect 3 0 11 0;
#X connect 3 0 15 0;
#X connect 4 0 5 0;
#X connect 5 0 7 0;
#X connect 5 1 6 1;
#X connect 6 0 8 0;
#X connect 7 0 6 0;
#X connect 8 0 10 0;
#X connect 8 1 9 1;
#X connect 9 0 12 2;
#X connect 10 0 9 0;
#X connect 11 0 12 1;
#X connect 12 0 13 0;
#X connect 14 0 4 0;
#X connect 15 0 14 0;
#X connect 15 1 4 1;
#X connect 16 0 2 0;
#X restore 491 1174 pd a5;
#N canvas 875 277 853 687 a6 0;
#X obj 162 166 inlet~;
#X obj 321 56 loadbang;
#X obj 321 134 / 25600;
#X obj 321 173 * 2;
#X obj 321 290 /;
#X obj 321 329 t b f;
#X obj 321 407 /;
#X msg 321 368 1;
#X obj 321 446 t b f;
#X obj 321 524 pow;
#X msg 321 485 0.001;
#X obj 216 354 * 1000;
#X obj 163 601 cyclone/allpass~;
#X obj 163 640 outlet~;
#X obj 321 251 * 32;
#X obj 321 212 t f f;
#X msg 321 95 4053;
#X connect 0 0 12 0;
#X connect 1 0 16 0;
#X connect 2 0 3 0;
#X connect 3 0 11 0;
#X connect 3 0 15 0;
#X connect 4 0 5 0;
#X connect 5 0 7 0;
#X connect 5 1 6 1;
#X connect 6 0 8 0;
#X connect 7 0 6 0;
#X connect 8 0 10 0;
#X connect 8 1 9 1;
#X connect 9 0 12 2;
#X connect 10 0 9 0;
#X connect 11 0 12 1;
#X connect 12 0 13 0;
#X connect 14 0 4 0;
#X connect 15 0 14 0;
#X connect 15 1 4 1;
#X connect 16 0 2 0;
#X restore 546 1174 pd a6;
#N canvas 875 277 853 659 a7 0;
#X obj 162 166 inlet~;
#X obj 321 56 loadbang;
#X obj 321 134 / 25600;
#X obj 321 173 * 2;
#X obj 321 290 /;
#X obj 321 329 t b f;
#X obj 321 407 /;
#X msg 321 368 1;
#X obj 321 446 t b f;
#X obj 321 524 pow;
#X msg 321 485 0.001;
#X obj 216 354 * 1000;
#X obj 163 601 cyclone/allpass~;
#X obj 163 640 outlet~;
#X obj 321 251 * 32;
#X obj 321 212 t f f;
#X msg 321 95 4451;
#X connect 0 0 12 0;
#X connect 1 0 16 0;
#X connect 2 0 3 0;
#X connect 3 0 11 0;
#X connect 3 0 15 0;
#X connect 4 0 5 0;
#X connect 5 0 7 0;
#X connect 5 1 6 1;
#X connect 6 0 8 0;
#X connect 7 0 6 0;
#X connect 8 0 10 0;
#X connect 8 1 9 1;
#X connect 9 0 12 2;
#X connect 10 0 9 0;
#X connect 11 0 12 1;
#X connect 12 0 13 0;
#X connect 14 0 4 0;
#X connect 15 0 14 0;
#X connect 15 1 4 1;
#X connect 16 0 2 0;
#X restore 597 1174 pd a7;
#N canvas 774 191 669 265 lines 0;
#X obj 96 23 inlet~;
#X obj 165 23 inlet~;
#X obj 235 23 inlet~;
#X obj 299 23 inlet~;
#X obj 97 131 +~;
#X obj 97 162 *~;
#X obj 166 100 +~;
#X obj 197 100 +~;
#X obj 166 131 +~;
#X obj 97 100 -~;
#X obj 236 100 -~;
#X obj 236 131 -~;
#X obj 236 162 -~;
#X obj 300 131 -~;
#X obj 300 162 -~;
#X obj 300 100 +~;
#X obj 97 193 outlet~;
#X obj 165 193 outlet~;
#X obj 236 193 outlet~;
#X obj 300 193 outlet~;
#X connect 0 0 9 0;
#X connect 0 0 6 0;
#X connect 0 0 10 0;
#X connect 0 0 15 0;
#X connect 1 0 9 1;
#X connect 1 0 6 1;
#X connect 1 0 10 1;
#X connect 1 0 15 1;
#X connect 2 0 4 1;
#X connect 2 0 7 0;
#X connect 2 0 11 1;
#X connect 2 0 13 1;
#X connect 3 0 5 1;
#X connect 3 0 7 1;
#X connect 3 0 12 1;
#X connect 3 0 14 1;
#X connect 4 0 5 0;
#X connect 5 0 16 0;
#X connect 6 0 8 0;
#X connect 7 0 8 1;
#X connect 8 0 17 0;
#X connect 9 0 4 0;
#X connect 10 0 11 0;
#X connect 11 0 12 0;
#X connect 12 0 18 0;
#X connect 13 0 14 0;
#X connect 14 0 19 0;
#X connect 15 0 13 0;
#X restore 437 1210 pd lines;
#X obj 142 1322 +~;
#N canvas 1148 323 450 299 AZ1 0;
#X obj 37 37 inlet~;
#X obj 213 37 inlet~;
#X obj 213 71 *~ 0.089;
#X obj 214 171 osc~;
#X obj 318 71 loadbang;
#X msg 239 136 0.75;
#X obj 214 205 *~ -1000;
#X obj 214 239 +~ 1000;
#X obj 214 273 /~ 25600;
#X obj 214 307 *~ 2;
#X obj 39 414 delwrite~ \$0-delay 1000;
#X obj 214 413 delread4~ \$0-delay 1000;
#X obj 215 506 outlet~;
#X connect 0 0 10 0;
#X connect 1 0 2 0;
#X connect 2 0 3 0;
#X connect 3 0 6 0;
#X connect 4 0 5 0;
#X connect 5 0 3 1;
#X connect 6 0 7 0;
#X connect 7 0 8 0;
#X connect 8 0 9 0;
#X connect 9 0 11 0;
#X connect 11 0 12 0;
#X restore 437 1246 pd AZ1;
#N canvas 1148 323 450 523 AZ2 0;
#X obj 37 37 inlet~;
#X obj 213 37 inlet~;
#X obj 214 171 osc~;
#X obj 318 71 loadbang;
#X msg 239 136 0.75;
#X obj 214 205 *~ -1000;
#X obj 214 239 +~ 1000;
#X obj 214 273 /~ 25600;
#X obj 214 307 *~ 2;
#X obj 39 385 delwrite~ \$0-delay 1000;
#X obj 214 413 delread4~ \$0-delay 1000;
#X obj 215 506 outlet~;
#X obj 213 71 *~ 0.0083;
#X connect 0 0 9 0;
#X connect 1 0 12 0;
#X connect 2 0 5 0;
#X connect 3 0 4 0;
#X connect 4 0 2 1;
#X connect 5 0 6 0;
#X connect 6 0 7 0;
#X connect 7 0 8 0;
#X connect 8 0 10 0;
#X connect 10 0 11 0;
#X connect 12 0 2 0;
#X restore 490 1246 pd AZ2;
#N canvas 1278 299 450 215 AZ3 0;
#X obj 37 37 inlet~;
#X obj 213 37 inlet~;
#X obj 213 71 *~ 0.089;
#X obj 214 171 osc~;
#X obj 318 71 loadbang;
#X msg 239 136 0.75;
#X obj 214 205 *~ -1000;
#X obj 214 239 +~ 1000;
#X obj 214 273 /~ 25600;
#X obj 214 307 *~ 2;
#X obj 39 385 delwrite~ \$0-delay 1000;
#X obj 214 413 delread4~ \$0-delay 1000;
#X obj 215 506 outlet~;
#X connect 0 0 10 0;
#X connect 1 0 2 0;
#X connect 2 0 3 0;
#X connect 3 0 6 0;
#X connect 4 0 5 0;
#X connect 5 0 3 1;
#X connect 6 0 7 0;
#X connect 7 0 8 0;
#X connect 8 0 9 0;
#X connect 9 0 11 0;
#X connect 11 0 12 0;
#X restore 541 1246 pd AZ3;
#N canvas 1278 299 450 103 AZ4 0;
#X obj 37 37 inlet~;
#X obj 213 37 inlet~;
#X obj 214 171 osc~;
#X obj 318 71 loadbang;
#X msg 239 136 0.75;
#X obj 214 205 *~ -1000;
#X obj 214 239 +~ 1000;
#X obj 214 273 /~ 25600;
#X obj 214 307 *~ 2;
#X obj 39 385 delwrite~ \$0-delay 1000;
#X obj 214 413 delread4~ \$0-delay 1000;
#X obj 215 506 outlet~;
#X obj 213 71 *~ 0.0101;
#X connect 0 0 9 0;
#X connect 1 0 12 0;
#X connect 2 0 5 0;
#X connect 3 0 4 0;
#X connect 4 0 2 1;
#X connect 5 0 6 0;
#X connect 6 0 7 0;
#X connect 7 0 8 0;
#X connect 8 0 10 0;
#X connect 10 0 11 0;
#X connect 12 0 2 0;
#X restore 599 1246 pd AZ4;
#X obj 210 1322 +~;
#X obj 274 1322 +~;
#X obj 343 1322 +~;
#N canvas 904 168 439 398 arevsc 1;
#X obj 63 401 outlet~;
#X obj 63 354 line~;
#X obj 23 16 r preset;
#X obj 63 166 stripnote;
#X obj 23 63 list split 1;
#X obj 63 119 unpack f f f;
#X obj 63 213 t b;
#X obj 63 260 f;
#X obj 63 307 text get arevsclines;
#X obj 245 48 inlet;
#X connect 1 0 0 0;
#X connect 2 0 4 0;
#X connect 3 0 6 0;
#X connect 4 1 5 0;
#X connect 5 0 3 0;
#X connect 5 1 3 1;
#X connect 5 2 7 1;
#X connect 6 0 7 0;
#X connect 7 0 8 0;
#X connect 8 0 1 0;
#X connect 9 0 1 0;
#X restore 656 1208 pd arevsc;
#X obj 149 1545 +~;
#X text 53 1377 ch1+4;
#X text 465 1381 ch2+3;
#X obj 207 1543 +~;
#X obj 148 1573 dac~ 1 2;
#X text 175 984 idis;
#X text 223 984 ch1;
#X text 256 985 ch2;
#X text 285 984 ch3;
#X text 315 986 ch4;
#X text 390 716 rev;
#X obj 180 925 loadbang;
#X msg 180 949 0.1;
#X floatatom 180 1004 5 0 0 0 - - - 0;
#X floatatom 226 1007 5 0 0 0 - - - 0;
#X floatatom 266 1009 5 0 0 0 - - - 0;
#X floatatom 309 1012 5 0 0 0 - - - 0;
#X floatatom 362 1011 5 0 0 0 - - - 0;
#N canvas 150 188 734 521 volumes 0;
#X obj 128 124 vu 15 120 empty empty -1 -8 0 12 -66577 -1 1 0;
#N canvas 329 161 1399 389 vu 0;
#X obj 59 129 env~ 1024;
#X obj 161 111 abs~;
#X obj 161 213 snapshot~;
#X obj 161 256 rmstodb;
#X obj 161 21 inlet~;
#X obj 161 288 - 100;
#X obj 59 287 - 100;
#X obj 59 361 outlet;
#X obj 161 361 outlet;
#X text 344 307 Check the help file of env~ and slop~ for more details., f 31;
#X obj 239 89 expr 1000 / $f1;
#X floatatom 239 117 5 0 0 0 - - - 0;
#X obj 161 146 slop~ 0 0 0 0 1e+09;
#X obj 239 18 inlet;
#X floatatom 239 57 5 0 0 0 - - - 0;
#X text 359 89 convert to hz;
#X text 282 118 hz;
#X text 284 57 peak decay time in ms;
#X obj 59 171 t f b;
#X text 345 132 The env~ object is dedicated to RMS analysis. Its output is in dB (0-100 range \, pd style) but needs to be converted to dBFS (and we do that by simply subtracting 100)., f 31;
#X text 345 225 The slop~ object is used here for peak detection. We need to convert the output to dB with rmstodb and also subtract by 100 to convert it to dBFS., f 31;
#X connect 0 0 18 0;
#X connect 1 0 12 0;
#X connect 2 0 3 0;
#X connect 3 0 5 0;
#X connect 4 0 0 0;
#X connect 4 0 1 0;
#X connect 5 0 8 0;
#X connect 6 0 7 0;
#X connect 10 0 11 0;
#X connect 11 0 12 3;
#X connect 12 0 2 0;
#X connect 13 0 14 0;
#X connect 14 0 10 0;
#X connect 18 0 6 0;
#X connect 18 1 2 0;
#X restore 127 74 pd vu;
#X obj 382 14 loadbang;
#X obj 414 53 f 500;
#X obj 196 124 vu 15 120 empty empty -1 -8 0 12 -66577 -1 1 0;
#N canvas 329 161 1399 389 vu 0;
#X obj 59 129 env~ 1024;
#X obj 161 111 abs~;
#X obj 161 213 snapshot~;
#X obj 161 256 rmstodb;
#X obj 161 21 inlet~;
#X obj 161 288 - 100;
#X obj 59 287 - 100;
#X obj 59 361 outlet;
#X obj 161 361 outlet;
#X text 344 307 Check the help file of env~ and slop~ for more details., f 31;
#X obj 239 89 expr 1000 / $f1;
#X floatatom 239 117 5 0 0 0 - - - 0;
#X obj 161 146 slop~ 0 0 0 0 1e+09;
#X obj 239 18 inlet;
#X floatatom 239 57 5 0 0 0 - - - 0;
#X text 359 89 convert to hz;
#X text 282 118 hz;
#X text 284 57 peak decay time in ms;
#X obj 59 171 t f b;
#X text 345 132 The env~ object is dedicated to RMS analysis. Its output is in dB (0-100 range \, pd style) but needs to be converted to dBFS (and we do that by simply subtracting 100)., f 31;
#X text 345 225 The slop~ object is used here for peak detection. We need to convert the output to dB with rmstodb and also subtract by 100 to convert it to dBFS., f 31;
#X connect 0 0 18 0;
#X connect 1 0 12 0;
#X connect 2 0 3 0;
#X connect 3 0 5 0;
#X connect 4 0 0 0;
#X connect 4 0 1 0;
#X connect 5 0 8 0;
#X connect 6 0 7 0;
#X connect 10 0 11 0;
#X connect 11 0 12 3;
#X connect 12 0 2 0;
#X connect 13 0 14 0;
#X connect 14 0 10 0;
#X connect 18 0 6 0;
#X connect 18 1 2 0;
#X restore 200 81 pd vu;
#X obj 261 124 vu 15 120 empty empty -1 -8 0 12 -66577 -1 1 0;
#N canvas 329 161 1399 389 vu 0;
#X obj 59 129 env~ 1024;
#X obj 161 111 abs~;
#X obj 161 213 snapshot~;
#X obj 161 256 rmstodb;
#X obj 161 21 inlet~;
#X obj 161 288 - 100;
#X obj 59 287 - 100;
#X obj 59 361 outlet;
#X obj 161 361 outlet;
#X text 344 307 Check the help file of env~ and slop~ for more details., f 31;
#X obj 239 89 expr 1000 / $f1;
#X floatatom 239 117 5 0 0 0 - - - 0;
#X obj 161 146 slop~ 0 0 0 0 1e+09;
#X obj 239 18 inlet;
#X floatatom 239 57 5 0 0 0 - - - 0;
#X text 359 89 convert to hz;
#X text 282 118 hz;
#X text 284 57 peak decay time in ms;
#X obj 59 171 t f b;
#X text 345 132 The env~ object is dedicated to RMS analysis. Its output is in dB (0-100 range \, pd style) but needs to be converted to dBFS (and we do that by simply subtracting 100)., f 31;
#X text 345 225 The slop~ object is used here for peak detection. We need to convert the output to dB with rmstodb and also subtract by 100 to convert it to dBFS., f 31;
#X connect 0 0 18 0;
#X connect 1 0 12 0;
#X connect 2 0 3 0;
#X connect 3 0 5 0;
#X connect 4 0 0 0;
#X connect 4 0 1 0;
#X connect 5 0 8 0;
#X connect 6 0 7 0;
#X connect 10 0 11 0;
#X connect 11 0 12 3;
#X connect 12 0 2 0;
#X connect 13 0 14 0;
#X connect 14 0 10 0;
#X connect 18 0 6 0;
#X connect 18 1 2 0;
#X restore 265 81 pd vu;
#X obj 322 124 vu 15 120 empty empty -1 -8 0 12 -66577 -1 1 0;
#N canvas 329 161 1399 389 vu 0;
#X obj 59 129 env~ 1024;
#X obj 161 111 abs~;
#X obj 161 213 snapshot~;
#X obj 161 256 rmstodb;
#X obj 161 21 inlet~;
#X obj 161 288 - 100;
#X obj 59 287 - 100;
#X obj 59 361 outlet;
#X obj 161 361 outlet;
#X text 344 307 Check the help file of env~ and slop~ for more details., f 31;
#X obj 239 89 expr 1000 / $f1;
#X floatatom 239 117 5 0 0 0 - - - 0;
#X obj 161 146 slop~ 0 0 0 0 1e+09;
#X obj 239 18 inlet;
#X floatatom 239 57 5 0 0 0 - - - 0;
#X text 359 89 convert to hz;
#X text 282 118 hz;
#X text 284 57 peak decay time in ms;
#X obj 59 171 t f b;
#X text 345 132 The env~ object is dedicated to RMS analysis. Its output is in dB (0-100 range \, pd style) but needs to be converted to dBFS (and we do that by simply subtracting 100)., f 31;
#X text 345 225 The slop~ object is used here for peak detection. We need to convert the output to dB with rmstodb and also subtract by 100 to convert it to dBFS., f 31;
#X connect 0 0 18 0;
#X connect 1 0 12 0;
#X connect 2 0 3 0;
#X connect 3 0 5 0;
#X connect 4 0 0 0;
#X connect 4 0 1 0;
#X connect 5 0 8 0;
#X connect 6 0 7 0;
#X connect 10 0 11 0;
#X connect 11 0 12 3;
#X connect 12 0 2 0;
#X connect 13 0 14 0;
#X connect 14 0 10 0;
#X connect 18 0 6 0;
#X connect 18 1 2 0;
#X restore 326 81 pd vu;
#X obj 104 3 inlet~;
#X obj 178 3 inlet~;
#X obj 243 3 inlet~;
#X obj 304 3 inlet~;
#X obj 103 301 outlet~;
#X obj 173 301 outlet~;
#X obj 232 301 outlet~;
#X obj 291 301 outlet~;
#X obj 104 45 *~ 0.02;
#X obj 178 44 *~ 0.02;
#X obj 249 43 *~ 0.02;
#X obj 323 42 *~ 0.02;
#X connect 1 0 0 0;
#X connect 1 1 0 1;
#X connect 2 0 3 0;
#X connect 3 0 1 1;
#X connect 3 0 5 1;
#X connect 3 0 7 1;
#X connect 3 0 9 1;
#X connect 5 0 4 0;
#X connect 5 1 4 1;
#X connect 7 0 6 0;
#X connect 7 1 6 1;
#X connect 9 0 8 0;
#X connect 9 1 8 1;
#X connect 10 0 18 0;
#X connect 11 0 19 0;
#X connect 12 0 20 0;
#X connect 13 0 21 0;
#X connect 18 0 1 0;
#X connect 18 0 14 0;
#X connect 19 0 5 0;
#X connect 19 0 15 0;
#X connect 20 0 16 0;
#X connect 20 0 7 0;
#X connect 21 0 9 0;
#X connect 21 0 17 0;
#X coords 0 -1 1 1 290 150 1 100 100;
#X restore 125 1353 pd volumes;
#X msg 226 952 0.2;
#X msg 317 798 0.2;
#X floatatom 317 848 5 0 0 0 - - - 0;
#X text 693 1118 ch4;
#X floatatom 740 1143 5 0 0 0 - - - 0;
#X obj 81 633 *~ 1;
#X msg 55 67 0 \, 1 12000;
#X msg 228 52 0.75 4000;
#X msg 234 104 1 2000;
#X obj 328 534 tgl 19 0 empty empty empty 0 -10 0 12 -262144 -1 -1 0 1;
#X obj 1755 733 *~ 1;
#X obj 2002 634 tgl 19 0 empty empty empty 0 -10 0 12 -262144 -1 -1 0 1;
#X obj 678 113 line;
#X obj 712 426 *~ 0.2;
#X obj 915 218 * 60;
#X obj 971 218 * 50;
#X obj 1034 217 * 40;
#X obj 1091 219 * 30;
#X obj 686 326 phasor~;
#X obj 741 328 phasor~;
#X obj 814 322 phasor~;
#X obj 876 326 phasor~;
#X obj 915 326 phasor~;
#X obj 970 328 phasor~;
#X obj 1043 322 phasor~;
#X obj 1105 326 phasor~;
#X obj 917 269 + 140;
#X obj 971 268 + 150;
#X obj 1034 270 + 160;
#X obj 1096 271 + 170;
#X obj 888 445 *~ 0.2;
#X msg 678 62 0 \, 1 12000;
#X msg 851 47 0.75 4000;
#X msg 857 99 1 2000;
#X obj 688 168 * -1;
#X obj 686 218 * 60;
#X obj 742 218 * 50;
#X obj 805 217 * 40;
#X obj 862 219 * 30;
#X obj 688 269 + 260;
#X obj 742 268 + 250;
#X obj 805 270 + 240;
#X obj 867 271 + 230;
#X obj 769 530 *~ 1;
#X obj 1016 431 tgl 19 0 empty empty empty 0 -10 0 12 -262144 -1 -1 0 1;
#X connect 0 0 2 0;
#X connect 0 0 3 0;
#X connect 0 0 4 0;
#X connect 0 0 5 0;
#X connect 0 0 10 0;
#X connect 0 0 11 0;
#X connect 0 0 12 0;
#X connect 0 0 13 0;
#X connect 2 0 22 0;
#X connect 3 0 23 0;
#X connect 4 0 24 0;
#X connect 5 0 25 0;
#X connect 6 0 150 0;
#X connect 8 0 9 0;
#X connect 10 0 26 0;
#X connect 11 0 27 0;
#X connect 12 0 28 0;
#X connect 13 0 29 0;
#X connect 14 0 6 0;
#X connect 15 0 6 0;
#X connect 16 0 6 0;
#X connect 17 0 6 0;
#X connect 18 0 30 0;
#X connect 19 0 30 0;
#X connect 20 0 30 0;
#X connect 21 0 30 0;
#X connect 22 0 14 0;
#X connect 23 0 15 0;
#X connect 24 0 16 0;
#X connect 25 0 17 0;
#X connect 26 0 18 0;
#X connect 27 0 19 0;
#X connect 28 0 20 0;
#X connect 29 0 21 0;
#X connect 30 0 150 0;
#X connect 32 0 34 1;
#X connect 32 0 35 0;
#X connect 33 0 34 0;
#X connect 33 0 44 0;
#X connect 33 0 53 0;
#X connect 33 0 62 0;
#X connect 33 0 71 0;
#X connect 33 0 80 0;
#X connect 34 0 38 0;
#X connect 35 0 37 0;
#X connect 36 0 43 0;
#X connect 37 0 96 0;
#X connect 37 1 36 1;
#X connect 38 0 43 2;
#X connect 39 0 41 0;
#X connect 40 0 42 0;
#X connect 41 0 155 0;
#X connect 42 0 39 0;
#X connect 43 0 40 0;
#X connect 44 0 48 0;
#X connect 45 0 47 0;
#X connect 46 0 52 0;
#X connect 47 0 97 0;
#X connect 47 1 46 1;
#X connect 48 0 52 2;
#X connect 49 0 41 0;
#X connect 50 0 51 0;
#X connect 51 0 49 0;
#X connect 52 0 50 0;
#X connect 53 0 57 0;
#X connect 54 0 56 0;
#X connect 55 0 61 0;
#X connect 56 0 98 0;
#X connect 56 1 55 1;
#X connect 57 0 61 2;
#X connect 58 0 41 0;
#X connect 59 0 60 0;
#X connect 60 0 58 0;
#X connect 61 0 59 0;
#X connect 62 0 66 0;
#X connect 63 0 65 0;
#X connect 64 0 70 0;
#X connect 65 0 99 0;
#X connect 65 1 64 1;
#X connect 66 0 70 2;
#X connect 67 0 94 0;
#X connect 68 0 69 0;
#X connect 69 0 67 0;
#X connect 70 0 68 0;
#X connect 71 0 75 0;
#X connect 72 0 74 0;
#X connect 73 0 79 0;
#X connect 74 0 100 0;
#X connect 74 1 73 1;
#X connect 75 0 79 2;
#X connect 76 0 94 0;
#X connect 77 0 78 0;
#X connect 78 0 76 0;
#X connect 79 0 77 0;
#X connect 80 0 84 0;
#X connect 81 0 83 0;
#X connect 82 0 88 0;
#X connect 83 0 101 0;
#X connect 83 1 82 1;
#X connect 84 0 88 2;
#X connect 85 0 94 0;
#X connect 86 0 87 0;
#X connect 87 0 85 0;
#X connect 88 0 86 0;
#X connect 89 0 44 1;
#X connect 89 0 45 0;
#X connect 90 0 53 1;
#X connect 90 0 54 0;
#X connect 91 0 62 1;
#X connect 91 0 63 0;
#X connect 92 0 71 1;
#X connect 92 0 72 0;
#X connect 93 0 80 1;
#X connect 93 0 81 0;
#X connect 94 0 155 0;
#X connect 95 0 32 0;
#X connect 95 0 89 0;
#X connect 95 0 90 0;
#X connect 95 0 91 0;
#X connect 95 0 92 0;
#X connect 95 0 93 0;
#X connect 96 0 36 0;
#X connect 97 0 46 0;
#X connect 98 0 55 0;
#X connect 99 0 64 0;
#X connect 100 0 73 0;
#X connect 101 0 82 0;
#X connect 102 0 117 0;
#X connect 102 1 122 0;
#X connect 102 2 123 0;
#X connect 102 3 124 0;
#X connect 103 0 109 0;
#X connect 104 0 103 0;
#X connect 105 0 108 0;
#X connect 106 0 104 1;
#X connect 107 0 103 1;
#X connect 108 0 107 0;
#X connect 109 0 110 0;
#X connect 110 0 111 0;
#X connect 111 0 112 0;
#X connect 111 0 113 0;
#X connect 111 0 114 0;
#X connect 111 0 115 0;
#X connect 112 0 116 0;
#X connect 113 0 116 1;
#X connect 114 0 116 2;
#X connect 115 0 116 3;
#X connect 116 0 118 0;
#X connect 116 1 119 0;
#X connect 116 2 120 0;
#X connect 116 3 121 0;
#X connect 117 0 144 0;
#X connect 118 0 117 1;
#X connect 119 0 122 1;
#X connect 120 0 123 1;
#X connect 121 0 124 1;
#X connect 122 0 144 1;
#X connect 123 0 144 2;
#X connect 124 0 144 3;
#X connect 125 0 118 1;
#X connect 125 0 119 1;
#X connect 125 0 120 1;
#X connect 125 0 121 1;
#X connect 126 0 130 0;
#X connect 129 0 130 1;
#X connect 137 0 138 0;
#X connect 137 0 145 0;
#X connect 137 0 146 0;
#X connect 138 0 139 0;
#X connect 139 0 102 1;
#X connect 140 0 102 2;
#X connect 141 0 102 3;
#X connect 142 0 102 4;
#X connect 143 0 102 5;
#X connect 144 0 126 0;
#X connect 144 1 129 0;
#X connect 144 2 129 1;
#X connect 144 3 126 1;
#X connect 145 0 140 0;
#X connect 145 0 141 0;
#X connect 145 0 142 0;
#X connect 145 0 143 0;
#X connect 146 0 147 0;
#X connect 147 0 104 1;
#X connect 149 0 125 0;
#X connect 150 0 104 0;
#X connect 150 0 102 0;
#X connect 151 0 0 0;
#X connect 152 0 0 0;
#X connect 153 0 0 0;
#X connect 154 0 150 1;
#X connect 155 0 104 0;
#X connect 155 0 102 0;
#X connect 156 0 155 1;
#X connect 157 0 179 0;
#X connect 157 0 159 0;
#X connect 157 0 160 0;
#X connect 157 0 161 0;
#X connect 157 0 162 0;
#X connect 158 0 188 0;
#X connect 159 0 171 0;
#X connect 160 0 172 0;
#X connect 161 0 173 0;
#X connect 162 0 174 0;
#X connect 163 0 158 0;
#X connect 164 0 158 0;
#X connect 165 0 158 0;
#X connect 166 0 158 0;
#X connect 167 0 175 0;
#X connect 168 0 175 0;
#X connect 169 0 175 0;
#X connect 170 0 175 0;
#X connect 171 0 167 0;
#X connect 172 0 168 0;
#X connect 173 0 169 0;
#X connect 174 0 170 0;
#X connect 175 0 188 0;
#X connect 176 0 157 0;
#X connect 177 0 157 0;
#X connect 178 0 157 0;
#X connect 179 0 180 0;
#X connect 179 0 181 0;
#X connect 179 0 182 0;
#X connect 179 0 183 0;
#X connect 180 0 184 0;
#X connect 181 0 185 0;
#X connect 182 0 186 0;
#X connect 183 0 187 0;
#X connect 184 0 163 0;
#X connect 185 0 164 0;
#X connect 186 0 165 0;
#X connect 187 0 166 0;
#X connect 188 0 104 0;
#X connect 188 0 102 0;
#X connect 189 0 188 1;
