#N canvas 229 91 670 446 12;
#X obj 53 313 list split 1;
#X obj 53 279 route -1;
#X obj 53 171 r cue;
#X text 289 137 format: cue presetvalue;
#X obj 53 350 outlet;
#X obj 52 2 loadbang;
#X obj 236 54 symbol \$1;
#X obj 236 -2 bng 19 250 50 0 empty empty empty 0 -10 0 12 #fcfcfc #000000 #000000;
#X obj 313 54 symbol \$2;
#X obj 235 77 pack s s;
#X msg 232 102 write \$1_\$2_preset.txt;
#X msg 51 107 read \$1_\$2_preset.txt;
#X obj 236 22 t b b;
#X obj 52 59 symbol \$1;
#X obj 129 59 symbol \$2;
#X obj 51 82 pack s s;
#X obj 52 27 t b b;
#X obj 52 138 text define -k \$1_\$2_preset;
#A set 0 0 \; 1 0.5;
#X obj 53 204 text search \$1_\$2_preset;
#X obj 53 245 text get \$1_\$2_preset;
#X obj 156 1 r update;
#X obj 498 45 r makefiles;
#X connect 0 1 4 0;
#X connect 1 1 0 0;
#X connect 2 0 18 0;
#X connect 5 0 16 0;
#X connect 6 0 9 0;
#X connect 7 0 12 0;
#X connect 8 0 9 1;
#X connect 9 0 10 0;
#X connect 10 0 17 0;
#X connect 11 0 17 0;
#X connect 12 0 6 0;
#X connect 12 1 8 0;
#X connect 13 0 15 0;
#X connect 14 0 15 1;
#X connect 15 0 11 0;
#X connect 16 0 13 0;
#X connect 16 1 14 0;
#X connect 18 0 19 0;
#X connect 19 0 1 0;
#X connect 20 0 16 0;
#X connect 21 0 7 0;
