#N canvas 609 214 919 724 12;
#N canvas 1055 269 673 236 chanelvolumes 0;
#X obj 62 31 inlet~;
#X obj 68 314 *~;
#X obj 68 345 outlet~;
#X obj 65 157 *~;
#X obj 194 314 *~;
#X obj 194 345 outlet~;
#X obj 315 314 *~;
#X obj 315 345 outlet~;
#X obj 429 314 *~;
#X obj 429 345 outlet~;
#X obj 177 34 r idis\$1;
#X obj 109 160 r ch1\$1;
#X obj 230 167 r ch2\$1;
#X obj 340 169 r ch3\$1;
#X obj 474 154 r ch4\$1;
#X obj 481 258 list append 5;
#X obj 100 288 vline~;
#X obj 226 288 vline~;
#X obj 347 288 vline~;
#X obj 461 288 vline~;
#X obj 100 257 list append 4000;
#X obj 226 257 list append 4000;
#X obj 347 257 list append 4000;
#X obj 282 33 inlet;
#X obj 345 32 inlet;
#X obj 401 34 inlet;
#X obj 464 33 inlet;
#X obj 535 34 inlet;
#X connect 0 0 3 0;
#X connect 1 0 2 0;
#X connect 3 0 1 0;
#X connect 3 0 4 0;
#X connect 3 0 6 0;
#X connect 3 0 8 0;
#X connect 4 0 5 0;
#X connect 6 0 7 0;
#X connect 8 0 9 0;
#X connect 10 0 3 1;
#X connect 11 0 20 0;
#X connect 12 0 21 0;
#X connect 13 0 22 0;
#X connect 14 0 15 0;
#X connect 15 0 19 0;
#X connect 16 0 1 1;
#X connect 17 0 4 1;
#X connect 18 0 6 1;
#X connect 19 0 8 1;
#X connect 20 0 16 0;
#X connect 21 0 17 0;
#X connect 22 0 18 0;
#X connect 23 0 3 1;
#X connect 24 0 20 0;
#X connect 25 0 21 0;
#X connect 26 0 22 0;
#X connect 27 0 15 0;
#X restore 76 366 pd chanelvolumes;
#X obj 132 533 +~;
#X obj 200 533 +~;
#X obj 264 533 +~;
#X obj 333 533 +~;
#X obj 132 558 outlet~;
#X obj 200 558 outlet~;
#X obj 264 558 outlet~;
#X obj 333 558 outlet~;
#N canvas 505 148 853 547 a1 0;
#X obj 162 166 inlet~;
#X obj 321 56 loadbang;
#X msg 321 95 647;
#X obj 321 134 / 25600;
#X obj 321 173 * 2;
#X obj 321 251 * 20;
#X obj 321 290 /;
#X obj 321 212 t f f;
#X obj 321 329 t b f;
#X obj 321 407 /;
#X msg 321 368 1;
#X obj 321 446 t b f;
#X obj 321 524 pow;
#X msg 321 485 0.001;
#X obj 216 354 * 1000;
#X obj 164 646 outlet~;
#X obj 163 601 cyclone/allpass~ 10000 50.5469 0.707946;
#X connect 0 0 16 0;
#X connect 1 0 2 0;
#X connect 2 0 3 0;
#X connect 3 0 4 0;
#X connect 4 0 7 0;
#X connect 4 0 14 0;
#X connect 5 0 6 0;
#X connect 6 0 8 0;
#X connect 7 0 5 0;
#X connect 7 1 6 1;
#X connect 8 0 10 0;
#X connect 8 1 9 1;
#X connect 9 0 11 0;
#X connect 10 0 9 0;
#X connect 11 0 13 0;
#X connect 11 1 12 1;
#X connect 12 0 16 2;
#X connect 13 0 12 0;
#X connect 14 0 16 1;
#X connect 16 0 15 0;
#X restore 462 237 pd a1;
#N canvas 505 148 853 687 a2 0;
#X obj 162 166 inlet~;
#X obj 321 56 loadbang;
#X obj 321 134 / 25600;
#X obj 321 173 * 2;
#X obj 321 251 * 20;
#X obj 321 290 /;
#X obj 321 212 t f f;
#X obj 321 329 t b f;
#X obj 321 407 /;
#X msg 321 368 1;
#X obj 321 446 t b f;
#X obj 321 524 pow;
#X msg 321 485 0.001;
#X obj 216 354 * 1000;
#X obj 164 646 outlet~;
#X msg 321 95 213;
#X obj 163 601 cyclone/allpass~ 1000 16.6406 0.707946;
#X connect 0 0 16 0;
#X connect 1 0 15 0;
#X connect 2 0 3 0;
#X connect 3 0 6 0;
#X connect 3 0 13 0;
#X connect 4 0 5 0;
#X connect 5 0 7 0;
#X connect 6 0 4 0;
#X connect 6 1 5 1;
#X connect 7 0 9 0;
#X connect 7 1 8 1;
#X connect 8 0 10 0;
#X connect 9 0 8 0;
#X connect 10 0 12 0;
#X connect 10 1 11 1;
#X connect 11 0 16 2;
#X connect 12 0 11 0;
#X connect 13 0 16 1;
#X connect 15 0 2 0;
#X connect 16 0 14 0;
#X restore 462 262 pd a2;
#N canvas 505 148 853 810 a3 0;
#X obj 162 166 inlet~;
#X obj 321 56 loadbang;
#X obj 321 134 / 25600;
#X obj 321 173 * 2;
#X obj 321 251 * 20;
#X obj 321 290 /;
#X obj 321 212 t f f;
#X obj 321 329 t b f;
#X obj 321 407 /;
#X msg 321 368 1;
#X obj 321 446 t b f;
#X obj 321 524 pow;
#X msg 321 485 0.001;
#X obj 216 354 * 1000;
#X obj 164 646 outlet~;
#X msg 321 95 67;
#X obj 163 601 cyclone/allpass~ 1000 5.23438 0.707946;
#X connect 0 0 16 0;
#X connect 1 0 15 0;
#X connect 2 0 3 0;
#X connect 3 0 6 0;
#X connect 3 0 13 0;
#X connect 4 0 5 0;
#X connect 5 0 7 0;
#X connect 6 0 4 0;
#X connect 6 1 5 1;
#X connect 7 0 9 0;
#X connect 7 1 8 1;
#X connect 8 0 10 0;
#X connect 9 0 8 0;
#X connect 10 0 12 0;
#X connect 10 1 11 1;
#X connect 11 0 16 2;
#X connect 12 0 11 0;
#X connect 13 0 16 1;
#X connect 15 0 2 0;
#X connect 16 0 14 0;
#X restore 462 287 pd a3;
#N canvas 875 261 853 659 a4 0;
#X obj 162 166 inlet~;
#X obj 321 56 loadbang;
#X obj 321 134 / 25600;
#X obj 321 173 * 2;
#X obj 321 290 /;
#X obj 321 329 t b f;
#X obj 321 407 /;
#X msg 321 368 1;
#X obj 321 446 t b f;
#X obj 321 524 pow;
#X msg 321 485 0.001;
#X obj 216 354 * 1000;
#X obj 163 640 outlet~;
#X msg 321 95 3201;
#X obj 321 251 * 32;
#X obj 321 212 t f f;
#X obj 163 601 cyclone/comb~ 10000 250.078 0.805842 0.5 0.5;
#X connect 0 0 16 0;
#X connect 1 0 13 0;
#X connect 2 0 3 0;
#X connect 3 0 11 0;
#X connect 3 0 15 0;
#X connect 4 0 5 0;
#X connect 5 0 7 0;
#X connect 5 1 6 1;
#X connect 6 0 8 0;
#X connect 7 0 6 0;
#X connect 8 0 10 0;
#X connect 8 1 9 1;
#X connect 9 0 16 2;
#X connect 10 0 9 0;
#X connect 11 0 16 1;
#X connect 13 0 2 0;
#X connect 14 0 4 0;
#X connect 15 0 14 0;
#X connect 15 1 4 1;
#X connect 16 0 12 0;
#X restore 465 366 pd a4;
#N canvas 875 277 853 687 a5 0;
#X obj 162 166 inlet~;
#X obj 321 56 loadbang;
#X obj 321 134 / 25600;
#X obj 321 173 * 2;
#X obj 321 290 /;
#X obj 321 329 t b f;
#X obj 321 407 /;
#X msg 321 368 1;
#X obj 321 446 t b f;
#X obj 321 524 pow;
#X msg 321 485 0.001;
#X obj 216 354 * 1000;
#X obj 163 640 outlet~;
#X obj 321 251 * 32;
#X obj 321 212 t f f;
#X msg 321 95 3667;
#X obj 163 601 cyclone/comb~ 10000 286.484 0.805842 0.5 0.5;
#X connect 0 0 16 0;
#X connect 1 0 15 0;
#X connect 2 0 3 0;
#X connect 3 0 11 0;
#X connect 3 0 14 0;
#X connect 4 0 5 0;
#X connect 5 0 7 0;
#X connect 5 1 6 1;
#X connect 6 0 8 0;
#X connect 7 0 6 0;
#X connect 8 0 10 0;
#X connect 8 1 9 1;
#X connect 9 0 16 2;
#X connect 10 0 9 0;
#X connect 11 0 16 1;
#X connect 13 0 4 0;
#X connect 14 0 13 0;
#X connect 14 1 4 1;
#X connect 15 0 2 0;
#X connect 16 0 12 0;
#X restore 520 366 pd a5;
#N canvas 875 277 853 659 a6 0;
#X obj 162 166 inlet~;
#X obj 321 56 loadbang;
#X obj 321 134 / 25600;
#X obj 321 173 * 2;
#X obj 321 290 /;
#X obj 321 329 t b f;
#X obj 321 407 /;
#X msg 321 368 1;
#X obj 321 446 t b f;
#X obj 321 524 pow;
#X msg 321 485 0.001;
#X obj 216 354 * 1000;
#X obj 163 640 outlet~;
#X obj 321 251 * 32;
#X obj 321 212 t f f;
#X msg 321 95 4053;
#X obj 163 601 cyclone/comb~ 10000 316.641 0.805842 0.5 0.5;
#X connect 0 0 16 0;
#X connect 1 0 15 0;
#X connect 2 0 3 0;
#X connect 3 0 11 0;
#X connect 3 0 14 0;
#X connect 4 0 5 0;
#X connect 5 0 7 0;
#X connect 5 1 6 1;
#X connect 6 0 8 0;
#X connect 7 0 6 0;
#X connect 8 0 10 0;
#X connect 8 1 9 1;
#X connect 9 0 16 2;
#X connect 10 0 9 0;
#X connect 11 0 16 1;
#X connect 13 0 4 0;
#X connect 14 0 13 0;
#X connect 14 1 4 1;
#X connect 15 0 2 0;
#X connect 16 0 12 0;
#X restore 575 366 pd a6;
#N canvas 875 277 853 603 a7 0;
#X obj 162 166 inlet~;
#X obj 321 56 loadbang;
#X obj 321 134 / 25600;
#X obj 321 173 * 2;
#X obj 321 290 /;
#X obj 321 329 t b f;
#X obj 321 407 /;
#X msg 321 368 1;
#X obj 321 446 t b f;
#X obj 321 524 pow;
#X msg 321 485 0.001;
#X obj 216 354 * 1000;
#X obj 163 640 outlet~;
#X obj 321 251 * 32;
#X obj 321 212 t f f;
#X msg 321 95 4451;
#X obj 163 601 cyclone/comb~ 10000 347.734 0.805842 0.5 0.5;
#X connect 0 0 16 0;
#X connect 1 0 15 0;
#X connect 2 0 3 0;
#X connect 3 0 11 0;
#X connect 3 0 14 0;
#X connect 4 0 5 0;
#X connect 5 0 7 0;
#X connect 5 1 6 1;
#X connect 6 0 8 0;
#X connect 7 0 6 0;
#X connect 8 0 10 0;
#X connect 8 1 9 1;
#X connect 9 0 16 2;
#X connect 10 0 9 0;
#X connect 11 0 16 1;
#X connect 13 0 4 0;
#X connect 14 0 13 0;
#X connect 14 1 4 1;
#X connect 15 0 2 0;
#X connect 16 0 12 0;
#X restore 626 366 pd a7;
#N canvas 774 191 669 209 lines 0;
#X obj 96 23 inlet~;
#X obj 165 23 inlet~;
#X obj 235 23 inlet~;
#X obj 299 23 inlet~;
#X obj 97 131 +~;
#X obj 166 100 +~;
#X obj 197 100 +~;
#X obj 166 131 +~;
#X obj 97 100 -~;
#X obj 236 100 -~;
#X obj 236 131 -~;
#X obj 236 162 -~;
#X obj 300 131 -~;
#X obj 300 162 -~;
#X obj 300 100 +~;
#X obj 97 193 outlet~;
#X obj 165 193 outlet~;
#X obj 236 193 outlet~;
#X obj 300 193 outlet~;
#X obj 97 162 -~;
#X connect 0 0 8 0;
#X connect 0 0 5 0;
#X connect 0 0 9 0;
#X connect 0 0 14 0;
#X connect 1 0 8 1;
#X connect 1 0 5 1;
#X connect 1 0 9 1;
#X connect 1 0 14 1;
#X connect 2 0 4 1;
#X connect 2 0 6 0;
#X connect 2 0 10 1;
#X connect 2 0 12 1;
#X connect 3 0 6 1;
#X connect 3 0 11 1;
#X connect 3 0 13 1;
#X connect 3 0 19 1;
#X connect 4 0 19 0;
#X connect 5 0 7 0;
#X connect 6 0 7 1;
#X connect 7 0 16 0;
#X connect 8 0 4 0;
#X connect 9 0 10 0;
#X connect 10 0 11 0;
#X connect 11 0 17 0;
#X connect 12 0 13 0;
#X connect 13 0 18 0;
#X connect 14 0 12 0;
#X connect 19 0 15 0;
#X restore 466 409 pd lines;
#N canvas 848 183 717 302 AZ1 0;
#X obj 37 37 inlet~;
#X obj 213 37 inlet~;
#X obj 213 71 *~ 0.089;
#X obj 214 171 osc~;
#X obj 318 71 loadbang;
#X msg 239 136 0.75;
#X obj 214 205 *~ -1000;
#X obj 214 239 +~ 1000;
#X obj 214 273 /~ 25600;
#X obj 214 307 *~ 2;
#X obj 215 506 outlet~;
#X obj 104 375 cyclone/delay~ 44100 44100;
#X obj 380 308 block~ 64 1 8;
#X connect 0 0 11 0;
#X connect 1 0 2 0;
#X connect 2 0 3 0;
#X connect 3 0 6 0;
#X connect 4 0 5 0;
#X connect 5 0 3 1;
#X connect 6 0 7 0;
#X connect 7 0 8 0;
#X connect 8 0 9 0;
#X connect 9 0 11 1;
#X connect 11 0 10 0;
#X restore 466 445 pd AZ1;
#N canvas 818 294 450 243 AZ2 0;
#X obj 37 37 inlet~;
#X obj 213 37 inlet~;
#X obj 214 171 osc~;
#X obj 318 71 loadbang;
#X msg 239 136 0.75;
#X obj 214 205 *~ -1000;
#X obj 214 239 +~ 1000;
#X obj 214 273 /~ 25600;
#X obj 214 307 *~ 2;
#X obj 215 506 outlet~;
#X obj 213 71 *~ 0.0083;
#X obj 104 375 cyclone/delay~ 44100 44100;
#X obj 380 308 block~ 64 1 8;
#X connect 0 0 11 0;
#X connect 1 0 10 0;
#X connect 2 0 5 0;
#X connect 3 0 4 0;
#X connect 4 0 2 1;
#X connect 5 0 6 0;
#X connect 6 0 7 0;
#X connect 7 0 8 0;
#X connect 8 0 11 1;
#X connect 10 0 2 0;
#X connect 11 0 9 0;
#X restore 519 445 pd AZ2;
#N canvas 1065 131 552 299 AZ3 0;
#X obj 37 37 inlet~;
#X obj 213 37 inlet~;
#X obj 213 71 *~ 0.089;
#X obj 214 171 osc~;
#X obj 318 71 loadbang;
#X msg 239 136 0.75;
#X obj 214 205 *~ -1000;
#X obj 214 239 +~ 1000;
#X obj 214 273 /~ 25600;
#X obj 214 307 *~ 2;
#X obj 215 506 outlet~;
#X obj 104 375 cyclone/delay~ 44100 44100;
#X obj 380 308 block~ 64 1 8;
#X connect 0 0 11 0;
#X connect 1 0 2 0;
#X connect 2 0 3 0;
#X connect 3 0 6 0;
#X connect 4 0 5 0;
#X connect 5 0 3 1;
#X connect 6 0 7 0;
#X connect 7 0 8 0;
#X connect 8 0 9 0;
#X connect 9 0 11 1;
#X connect 11 0 10 0;
#X restore 570 445 pd AZ3;
#N canvas 605 128 712 355 AZ4 0;
#X obj 37 37 inlet~;
#X obj 213 37 inlet~;
#X obj 214 171 osc~;
#X obj 318 71 loadbang;
#X msg 239 136 0.75;
#X obj 214 205 *~ -1000;
#X obj 214 239 +~ 1000;
#X obj 214 273 /~ 25600;
#X obj 214 307 *~ 2;
#X obj 215 506 outlet~;
#X obj 213 71 *~ 0.0101;
#X obj 104 375 cyclone/delay~ 44100 44100;
#X connect 0 0 11 0;
#X connect 1 0 10 0;
#X connect 2 0 5 0;
#X connect 3 0 4 0;
#X connect 4 0 2 1;
#X connect 5 0 6 0;
#X connect 6 0 7 0;
#X connect 7 0 8 0;
#X connect 8 0 11 1;
#X connect 10 0 2 0;
#X connect 11 0 9 0;
#X restore 625 445 pd AZ4;
#N canvas 904 168 439 477 arevsc 0;
#X obj 64 496 outlet~;
#X obj 64 449 line~;
#X obj 23 16 r preset;
#X obj 63 166 stripnote;
#X obj 23 63 list split 1;
#X obj 63 119 unpack f f f;
#X obj 63 213 t b;
#X obj 63 260 f;
#X obj 63 307 text get arevsclines;
#X obj 63 336 unpack f f;
#X obj 130 366 * 1000;
#X obj 130 392 i;
#X obj 63 417 pack f f;
#X obj 297 238 inlet;
#X connect 1 0 0 0;
#X connect 2 0 4 0;
#X connect 3 0 6 0;
#X connect 4 1 5 0;
#X connect 5 0 3 0;
#X connect 5 1 3 1;
#X connect 5 2 7 1;
#X connect 6 0 7 0;
#X connect 7 0 8 0;
#X connect 8 0 9 0;
#X connect 9 0 12 0;
#X connect 9 1 10 0;
#X connect 10 0 11 0;
#X connect 11 0 12 1;
#X connect 12 0 1 0;
#X connect 13 0 1 0;
#X restore 756 313 pd arevsc;
#X text 705 365 Schroeder Reverberator;
#X text 626 390 Mixingmatrix;
#X obj 73 126 inlet~;
#X text 258 21 idis;
#X text 328 20 ch1;
#X text 424 19 ch2;
#X text 495 22 ch3;
#X text 583 25 ch4;
#X text 73 103 dry sig;
#X text 450 213 wet sig;
#X text 162 24 rev;
#X obj 253 49 inlet;
#X obj 135 191 *~;
#X obj 73 154 *~ 0.02;
#X text 889 23 arevsc;
#X obj 155 49 inlet;
#X obj 422 49 inlet;
#X obj 324 49 inlet;
#X obj 585 51 inlet;
#X obj 487 51 inlet;
#X obj 893 51 inlet;
#X connect 0 0 1 0;
#X connect 0 1 2 0;
#X connect 0 2 3 0;
#X connect 0 3 4 0;
#X connect 1 0 5 0;
#X connect 2 0 6 0;
#X connect 3 0 7 0;
#X connect 4 0 8 0;
#X connect 9 0 10 0;
#X connect 10 0 11 0;
#X connect 11 0 12 0;
#X connect 11 0 13 0;
#X connect 11 0 14 0;
#X connect 11 0 15 0;
#X connect 12 0 16 0;
#X connect 13 0 16 1;
#X connect 14 0 16 2;
#X connect 15 0 16 3;
#X connect 16 0 17 0;
#X connect 16 1 18 0;
#X connect 16 2 19 0;
#X connect 16 3 20 0;
#X connect 17 0 1 1;
#X connect 18 0 2 1;
#X connect 19 0 3 1;
#X connect 20 0 4 1;
#X connect 21 0 17 1;
#X connect 21 0 18 1;
#X connect 21 0 19 1;
#X connect 21 0 20 1;
#X connect 24 0 35 0;
#X connect 33 0 0 1;
#X connect 34 0 9 0;
#X connect 35 0 34 0;
#X connect 35 0 0 0;
#X connect 37 0 34 1;
#X connect 38 0 0 3;
#X connect 39 0 0 2;
#X connect 40 0 0 5;
#X connect 41 0 0 4;
#X connect 42 0 21 0;
