#N canvas 353 391 1002 499 12;
#X floatatom 166 80 5 0 0 0 - - - 0;
#X floatatom 94 79 5 0 0 0 - - - 0;
#X floatatom 233 81 5 0 0 0 - - - 0;
#X text 306 75 continous data one to many;
#X text 162 54 1;
#X text 234 57 2;
#X text 163 30 input;
#X obj 105 204 cyclone/switch 2;
#X obj 258 206 cyclone/switch 2;
#X text 721 67 discrete data many to many;
#X obj 503 49 tgl 19 0 empty empty empty 0 -10 0 12 #fcfcfc #000000 #000000 0 1;
#X obj 636 50 tgl 19 0 empty empty empty 0 -10 0 12 #fcfcfc #000000 #000000 0 1;
#X obj 503 120 list prepend bt1;
#X obj 503 196 route bt1;
#X obj 502 227 tgl 19 0 empty empty empty 0 -10 0 12 #fcfcfc #000000 #000000 0 1;
#X obj 503 157 route list;
#X obj 578 196 route bt2;
#X obj 610 253 tgl 19 0 empty empty empty 0 -10 0 12 #fcfcfc #000000 #000000 0 1;
#X obj 630 120 list prepend bt2;
#X obj 502 256 sel 0 1;
#X obj 478 297 gate;
#X msg 442 242 1;
#X msg 411 242 0;
#X obj 502 363 gate;
#X msg 579 329 1;
#X msg 548 329 0;
#X text 568 402 set message content;
#X msg 502 405 123;
#X msg 451 408 456;
#X msg 461 467;
#X connect 0 0 7 1;
#X connect 0 0 8 1;
#X connect 1 0 7 0;
#X connect 2 0 7 2;
#X connect 2 0 8 2;
#X connect 10 0 12 0;
#X connect 11 0 18 0;
#X connect 12 0 15 0;
#X connect 13 0 14 0;
#X connect 14 0 19 0;
#X connect 15 0 13 0;
#X connect 15 0 16 0;
#X connect 16 0 17 0;
#X connect 18 0 15 0;
#X connect 19 0 20 1;
#X connect 19 1 23 1;
#X connect 20 0 28 0;
#X connect 21 0 20 0;
#X connect 22 0 20 0;
#X connect 23 0 27 0;
#X connect 24 0 23 0;
#X connect 25 0 23 0;
#X connect 27 0 29 0;
#X connect 28 0 29 0;
