#N canvas 521 227 1207 332 12;
#X obj 66 61 Preset \$1 kndx;
#X obj 186 60 Jstk_scaling \$1 \$2;
#X obj 337 59 Jstk_button \$1 \$2;
#X obj 473 59 icon_scaling \$1 \$2;
#X obj 623 58 Icon_button \$1 \$2;
#X obj 291 234 outlet;
#X text 63 27 Five Modes of Inputs;
#X text 161 190 loop to gui;
#X obj 63 192 s \$1_\$2_gui;
#X obj 290 191 r \$1_\$2;
#X connect 0 0 8 0;
#X connect 1 0 8 0;
#X connect 2 0 8 0;
#X connect 3 0 8 0;
#X connect 4 0 8 0;
#X connect 9 0 5 0;
