#N canvas 1767 30 2521 929 12;
#X obj 236 840 outlet;
#X text 520 69 iamp;
#X text 382 72 ifn1;
#X text 965 88 ifn2;
#X text 1525 89 ifn3;
#X text 1563 155 ifma;
#X text 1667 87 idifa;
#X text 2527 82 imag;
#X text 2167 81 ifn4;
#X text 2210 153 ifmb;
#X text 2303 81 idifb;
#X text 1095 88 isk;
#X text 568 453 shape mainosc;
#X text 920 451 shape moda;
#X text 1341 447 shape modb;
#X text 870 674 idis;
#X text 997 665 ch1;
#X text 1121 673 ch2;
#X text 1237 669 ch3;
#X text 1356 667 ch4;
#X text 1476 670 arevsc;
#X text 2668 82 ifc;
#X text 2800 82 ifma;
#X text 2930 82 indxa;
#X text 3197 82 ifmb;
#X text 3064 82 indxb;
#X obj 236 816 route list;
#X obj 993 746 list prepend ch1;
#X obj 1116 746 list prepend ch2;
#X obj 1234 746 list prepend ch3;
#X obj 1354 746 list prepend ch4;
#X obj 865 746 list prepend idis;
#X obj 1475 746 list prepend arevsc;
#X obj 865 787 list prepend reverb;
#X obj 570 531 list prepend mainosc;
#X obj 958 528 list prepend moda;
#X obj 1344 526 list prepend modb;
#X obj 378 303 list prepend env;
#X obj 966 312 list prepend skew;
#X obj 1530 300 list prepend moda;
#X obj 2169 286 list prepend modb;
#X obj 2491 283 list prepend freq;
#X obj 2666 192 list prepend ifc;
#X obj 2799 191 list prepend ifma;
#X obj 2935 191 list prepend indxa;
#X obj 3072 191 list prepend ifmb;
#X obj 3202 191 list prepend indxb;
#X obj 378 437 list prepend tables;
#X obj 382 164 list prepend ifn1;
#X obj 965 182 list prepend ifn2;
#X obj 1527 196 list prepend ifn3;
#X obj 2169 192 list prepend ifn4;
#X obj 2305 193 list prepend idifb;
#X obj 1664 196 list prepend idifa;
#X obj 1101 181 list prepend isk;
#X obj 520 165 list prepend iamp;
#X obj 2484 191 list prepend imag;
#X text 1323 6 INPUT OPTIONS;
#X obj 1554 57 icon_scaling;
#X obj 1752 58 Icon_button;
#X obj 725 745 list prepend rev;
#X text 727 671 rev;
#X obj 571 562 list prepend shapes;
#X obj 569 491 list prepend osctab;
#X obj 715 490 list prepend interpol;
#X obj 954 487 list prepend osctab;
#X obj 1100 486 list prepend interpol;
#X obj 1343 484 list prepend osctab;
#X obj 1489 483 list prepend interpol;
#X obj 1677 776 list prepend enginevol;
#X obj 1676 735 list prepend evolch1;
#X obj 1832 736 list prepend evolch2;
#X obj 1978 736 list prepend evolch3;
#X obj 2132 736 list prepend evolch4;
#X obj 1673 698 line;
#X obj 1830 698 line;
#X obj 1978 697 line;
#X obj 2134 697 line;
#X text 78 223 shape mainosc;
#X obj 79 261 list prepend osctab;
#X obj 225 260 list prepend interpol;
#X obj 1391 57 Jstk_button ifcjstke3;
#X obj 1216 57 Jstk_scaling imagjstke3;
#X obj 1098 62 Preset ifce3;
#X obj 80 301 list prepend osc;
#X obj 92 156 list prepend freq;
#X text 94 60 envosc;
#X text 640 230 shape mainosc;
#X obj 641 268 list prepend osctab;
#X obj 787 267 list prepend interpol;
#X obj 642 308 list prepend osc;
#X obj 654 163 list prepend freq;
#X text 1210 227 shape mainosc;
#X obj 1211 265 list prepend osctab;
#X obj 1357 264 list prepend interpol;
#X obj 1212 305 list prepend osc;
#X obj 1224 160 list prepend freq;
#X text 656 67 skewosc;
#X text 1226 72 modaosc;
#X text 1845 227 shape mainosc;
#X obj 1846 265 list prepend osctab;
#X obj 1992 264 list prepend interpol;
#X obj 1847 305 list prepend osc;
#X obj 1859 160 list prepend freq;
#X text 1861 72 modbosc;
#X obj 94 85 Preset \$1 env;
#X obj 383 96 Preset \$1 ifn1;
#X obj 521 94 Preset \$1 iamp;
#X obj 656 92 Preset \$1 skew;
#X obj 82 191 Preset \$1 envosctab;
#X obj 227 192 Preset \$1 envinterpol;
#X obj 644 198 Preset \$1 skewosctab;
#X obj 789 199 Preset \$1 skewinterpol;
#X obj 573 426 Preset \$1 osctabmain;
#X obj 718 427 Preset \$1 interpolmain;
#X obj 953 423 Preset \$1 osctabmoda;
#X obj 1102 422 Preset \$1 interpolmoda;
#X obj 1346 422 Preset \$1 osctabmodb;
#X obj 1491 423 Preset \$1 interpolmodb;
#X obj 725 701 Preset \$1 rev;
#X obj 867 699 Preset \$1 idis;
#X obj 996 697 Preset \$1 ch1;
#X obj 1113 700 Preset \$1 ch2;
#X obj 1237 698 Preset \$1 ch3;
#X obj 1357 697 Preset \$1 ch4;
#X obj 1476 697 Preset \$1 arevsc;
#X obj 1676 658 Preset \$1 evolch1;
#X obj 1831 656 Preset \$1 evolch2;
#X obj 1977 654 Preset \$1 evolch3;
#X obj 2132 652 Preset \$1 evolch4;
#X obj 965 116 Preset \$1 ifn2;
#X obj 1100 115 Preset \$1 isk;
#X obj 1226 89 Preset \$1 moda;
#X obj 1214 195 Preset \$1 modaosctab;
#X obj 1359 196 Preset \$1 modainterpol;
#X obj 1527 111 Preset \$1 ifn3;
#X obj 1665 110 Preset \$1 idifa;
#X obj 1861 89 Preset \$1 modb;
#X obj 1849 195 Preset \$1 modbosctab;
#X obj 1994 196 Preset \$1 modbinterpol;
#X obj 2169 103 Preset \$1 ifn4;
#X obj 2306 104 Preset \$1 idifb;
#X obj 2482 107 Preset \$1 imag;
#X obj 2661 108 Preset \$1 ifc;
#X obj 2800 107 Preset \$1 ifma;
#X obj 2930 107 Preset \$1 indxa;
#X obj 3064 107 Preset \$1 ifmb;
#X obj 3197 107 Preset \$1 indxb;
#X connect 26 0 0 0;
#X connect 27 0 33 0;
#X connect 28 0 33 0;
#X connect 29 0 33 0;
#X connect 30 0 33 0;
#X connect 31 0 33 0;
#X connect 32 0 33 0;
#X connect 33 0 26 0;
#X connect 34 0 62 0;
#X connect 35 0 62 0;
#X connect 36 0 62 0;
#X connect 37 0 47 0;
#X connect 38 0 47 0;
#X connect 39 0 47 0;
#X connect 40 0 47 0;
#X connect 41 0 26 0;
#X connect 42 0 41 0;
#X connect 43 0 41 0;
#X connect 43 0 40 0;
#X connect 44 0 41 0;
#X connect 45 0 41 0;
#X connect 45 0 39 0;
#X connect 46 0 41 0;
#X connect 47 0 26 0;
#X connect 48 0 37 0;
#X connect 49 0 38 0;
#X connect 50 0 39 0;
#X connect 51 0 40 0;
#X connect 52 0 40 0;
#X connect 53 0 39 0;
#X connect 54 0 38 0;
#X connect 55 0 37 0;
#X connect 56 0 41 0;
#X connect 60 0 33 0;
#X connect 62 0 26 0;
#X connect 63 0 34 0;
#X connect 64 0 34 0;
#X connect 65 0 35 0;
#X connect 66 0 35 0;
#X connect 67 0 36 0;
#X connect 68 0 36 0;
#X connect 69 0 26 0;
#X connect 70 0 69 0;
#X connect 71 0 69 0;
#X connect 72 0 69 0;
#X connect 73 0 69 0;
#X connect 74 0 70 0;
#X connect 75 0 71 0;
#X connect 76 0 72 0;
#X connect 77 0 73 0;
#X connect 79 0 84 0;
#X connect 80 0 84 0;
#X connect 84 0 37 0;
#X connect 85 0 37 0;
#X connect 88 0 90 0;
#X connect 89 0 90 0;
#X connect 90 0 38 0;
#X connect 91 0 38 0;
#X connect 93 0 95 0;
#X connect 94 0 95 0;
#X connect 95 0 39 0;
#X connect 96 0 39 0;
#X connect 100 0 102 0;
#X connect 101 0 102 0;
#X connect 102 0 40 0;
#X connect 103 0 40 0;
#X connect 105 0 85 0;
#X connect 106 0 48 0;
#X connect 107 0 55 0;
#X connect 108 0 91 0;
#X connect 109 0 79 0;
#X connect 110 0 80 0;
#X connect 111 0 88 0;
#X connect 112 0 89 0;
#X connect 113 0 63 0;
#X connect 114 0 64 0;
#X connect 115 0 65 0;
#X connect 116 0 66 0;
#X connect 117 0 67 0;
#X connect 118 0 68 0;
#X connect 119 0 60 0;
#X connect 120 0 31 0;
#X connect 121 0 27 0;
#X connect 122 0 28 0;
#X connect 123 0 29 0;
#X connect 124 0 30 0;
#X connect 125 0 32 0;
#X connect 126 0 74 0;
#X connect 127 0 75 0;
#X connect 128 0 76 0;
#X connect 129 0 77 0;
#X connect 130 0 49 0;
#X connect 131 0 54 0;
#X connect 132 0 96 0;
#X connect 133 0 93 0;
#X connect 134 0 94 0;
#X connect 135 0 50 0;
#X connect 136 0 53 0;
#X connect 137 0 103 0;
#X connect 138 0 100 0;
#X connect 139 0 101 0;
#X connect 140 0 51 0;
#X connect 141 0 52 0;
#X connect 142 0 56 0;
#X connect 143 0 42 0;
#X connect 144 0 43 0;
#X connect 145 0 44 0;
#X connect 146 0 45 0;
#X connect 147 0 46 0;
