#N canvas 5 191 1547 817 12;
#X obj -98 830 outlet;
#X text -90 61 kndx;
#X text 329 63 iamp;
#X text 191 66 ifn1;
#X text 592 62 ifn2;
#X text 910 67 ifn3;
#X text 948 133 ifma;
#X text 1052 65 idifa;
#X text 1547 65 imag;
#X text 1187 64 ifn4;
#X text 1230 136 ifmb;
#X text 1323 64 idifb;
#X text 722 62 isk;
#X text 377 447 shape mainosc;
#X text 729 445 shape moda;
#X text 1150 441 shape modb;
#X text 679 668 idis;
#X text 806 659 ch1;
#X text 930 667 ch2;
#X text 1046 663 ch3;
#X text 1165 661 ch4;
#X text 1285 664 arevsc;
#X text 1688 65 ifc;
#X text 1820 65 ifma;
#X text 1950 65 indxa;
#X text 2084 70 ifmb;
#X text 2272 67 indxb;
#X obj -98 806 route list;
#X obj 802 740 list prepend ch1;
#X obj 925 740 list prepend ch2;
#X obj 1043 740 list prepend ch3;
#X obj 1163 740 list prepend ch4;
#X obj 674 740 list prepend idis;
#X obj 1284 740 list prepend arevsc;
#X obj 674 781 list prepend reverb;
#X obj -92 157 list prepend kndx;
#X obj 379 525 list prepend mainosc;
#X obj 767 522 list prepend moda;
#X obj 1153 520 list prepend modb;
#X obj 187 297 list prepend env;
#X obj 593 286 list prepend skew;
#X obj 915 278 list prepend moda;
#X obj 1189 269 list prepend modb;
#X obj 1511 266 list prepend freq;
#X obj 1686 175 list prepend ifc;
#X obj 1819 174 list prepend ifma;
#X obj 1955 174 list prepend indxa;
#X obj 2092 174 list prepend ifmb;
#X obj 2222 174 list prepend indxb;
#X obj 187 431 list prepend tables;
#X obj 191 158 list prepend ifn1;
#X obj 592 156 list prepend ifn2;
#X obj 912 174 list prepend ifn3;
#X obj 1189 175 list prepend ifn4;
#X obj 1325 176 list prepend idifb;
#X obj 1049 174 list prepend idifa;
#X obj 728 155 list prepend isk;
#X obj 329 159 list prepend iamp;
#X obj 1504 174 list prepend imag;
#X obj 847 29 Jstk_scaling ifce1jstkc;
#X obj 1018 31 Jstk_button ifce1jstkb;
#X text 809 4 INPUT OPTIONS;
#X obj 1181 31 icon_scaling;
#X obj 1271 31 Icon_button;
#X obj 725 36 Preset ifce1;
#X obj 534 739 list prepend rev;
#X text 536 665 rev;
#X obj 380 556 list prepend shapes;
#X obj 378 485 list prepend osctab;
#X obj 524 484 list prepend interpol;
#X obj 763 481 list prepend osctab;
#X obj 909 480 list prepend interpol;
#X obj 1152 478 list prepend osctab;
#X obj 1298 477 list prepend interpol;
#X obj 1486 770 list prepend enginevol;
#X obj 1485 729 list prepend evolch1;
#X obj 1641 730 list prepend evolch2;
#X obj 1787 730 list prepend evolch3;
#X obj 1941 730 list prepend evolch4;
#X obj 1482 692 line;
#X obj 1639 692 line;
#X obj 1787 691 line;
#X obj 1943 691 line;
#X obj 1687 126 Jstk_scaling ifcjstke1;
#X text -109 390 kndx;
#X text -117 446 shape mainosc;
#X obj -116 484 list prepend osctab;
#X obj 30 483 list prepend interpol;
#X obj -115 524 list prepend kndxosc;
#X obj 1487 129 Jstk_scaling imagjstke2;
#X text 2407 67 kndx;
#X text 2826 69 iamp;
#X text 2688 72 ifn1;
#X text 3089 68 ifn2;
#X text 3407 73 ifn3;
#X text 3445 139 ifma;
#X text 3549 71 idifa;
#X text 4044 71 imag;
#X text 3684 70 ifn4;
#X text 3727 142 ifmb;
#X text 3820 70 idifb;
#X text 3219 68 isk;
#X text 2874 453 shape mainosc;
#X text 3226 451 shape moda;
#X text 3647 447 shape modb;
#X text 4185 71 ifc;
#X text 4317 71 ifma;
#X text 4447 71 indxa;
#X text 4589 70 ifmb;
#X text 4754 73 indxb;
#X obj 2405 163 list prepend kndx;
#X obj 2876 531 list prepend mainosc;
#X obj 3264 528 list prepend moda;
#X obj 3650 526 list prepend modb;
#X obj 2684 303 list prepend env;
#X obj 3090 292 list prepend skew;
#X obj 3412 284 list prepend moda;
#X obj 3686 275 list prepend modb;
#X obj 4008 272 list prepend freq;
#X obj 4183 181 list prepend ifc;
#X obj 4316 180 list prepend ifma;
#X obj 4452 180 list prepend indxa;
#X obj 4589 180 list prepend ifmb;
#X obj 4719 180 list prepend indxb;
#X obj 2684 437 list prepend tables;
#X obj 2688 164 list prepend ifn1;
#X obj 3089 162 list prepend ifn2;
#X obj 3409 180 list prepend ifn3;
#X obj 3686 181 list prepend ifn4;
#X obj 3822 182 list prepend idifb;
#X obj 3546 180 list prepend idifa;
#X obj 3225 161 list prepend isk;
#X obj 2826 165 list prepend iamp;
#X obj 4001 180 list prepend imag;
#X obj 2877 562 list prepend shapes;
#X obj 2875 491 list prepend osctab;
#X obj 3021 490 list prepend interpol;
#X obj 3260 487 list prepend osctab;
#X obj 3406 486 list prepend interpol;
#X obj 3649 484 list prepend osctab;
#X obj 3795 483 list prepend interpol;
#X obj 4184 132 Jstk_scaling ifcjstke1;
#X text 2388 396 kndx;
#X text 2380 452 shape mainosc;
#X obj 2381 490 list prepend osctab;
#X obj 2527 489 list prepend interpol;
#X obj 2382 530 list prepend kndxosc;
#X obj 3984 135 Jstk_scaling imagjstke2;
#X obj 2388 833 outlet;
#X obj 2388 809 route list;
#X obj -90 86 Preset e2v1 kndx;
#X obj 192 90 Preset e2v1 ifn1;
#X obj 330 88 Preset e2v1 iamp;
#X obj 592 90 Preset e2v1 ifn2;
#X obj 727 89 Preset e2v1 isk;
#X obj 912 89 Preset e2v1 ifn3;
#X obj 1050 88 Preset e2v1 idifa;
#X obj 1189 86 Preset e2v1 ifn4;
#X obj 1326 87 Preset e2v1 idifb;
#X obj 1502 90 Preset e2v1 imag;
#X obj 1681 91 Preset e2v1 ifc;
#X obj 1950 90 Preset e2v1 indxa;
#X obj 2084 90 Preset e2v1 ifmb;
#X obj 2217 90 Preset e2v1 indxb;
#X obj 2407 92 Preset e2v2 kndx;
#X obj 2689 96 Preset e2v2 ifn1;
#X obj 2827 94 Preset e2v2 iamp;
#X obj 3089 96 Preset e2v2 ifn2;
#X obj 3224 95 Preset e2v2 isk;
#X obj 3409 95 Preset e2v2 ifn3;
#X obj 3547 94 Preset e2v2 idifa;
#X obj 3686 92 Preset e2v2 ifn4;
#X obj 3823 93 Preset e2v2 idifb;
#X obj 3999 96 Preset e2v2 imag;
#X obj 4178 97 Preset e2v2 ifc;
#X obj 4317 96 Preset e2v2 ifma;
#X obj 4447 96 Preset e2v2 indxa;
#X obj 4581 96 Preset e2v2 ifmb;
#X obj 4714 96 Preset e2v2 indxb;
#X obj 3796 418 Preset e2v2 interpolmodb;
#X obj 3636 417 Preset e2v2 osctabmodb;
#X obj 3407 417 Preset e2v2 interpolmoda;
#X obj 3242 418 Preset e2v2 osctabmoda;
#X obj 3023 422 Preset e2v2 interpolmain;
#X obj 2878 421 Preset e2v2 osctabmain;
#X obj 2529 421 Preset e2v2 interpolkndx;
#X obj 2384 420 Preset e2v2 osctabkndx;
#X obj -113 414 Preset e2v1 osctabkndx;
#X obj 32 415 Preset e2v1 interpolkndx;
#X obj 381 415 Preset e2v1 osctabmain;
#X obj 526 416 Preset e2v1 interpolmain;
#X obj 761 412 Preset e2v1 osctabmoda;
#X obj 910 411 Preset e2v1 interpolmoda;
#X obj 1154 411 Preset e2v1 osctabmodb;
#X obj 1299 412 Preset e2v1 interpolmodb;
#X obj 533 690 Preset e2 rev;
#X obj 675 688 Preset e2 idis;
#X obj 804 686 Preset e2 ch1;
#X obj 921 689 Preset e2 ch2;
#X obj 1045 687 Preset e2 ch3;
#X obj 1165 686 Preset e2 ch4;
#X obj 1284 686 Preset e2 arevsc;
#X obj 1484 647 Preset e2 evolch1;
#X obj 1639 645 Preset e2 evolch2;
#X obj 1785 643 Preset e2 evolch3;
#X obj 1940 641 Preset e2 evolch4;
#X obj 1820 90 Preset e2v1 ifma;
#X connect 27 0 0 0;
#X connect 28 0 34 0;
#X connect 29 0 34 0;
#X connect 30 0 34 0;
#X connect 31 0 34 0;
#X connect 32 0 34 0;
#X connect 33 0 34 0;
#X connect 34 0 27 0;
#X connect 35 0 27 0;
#X connect 36 0 67 0;
#X connect 37 0 67 0;
#X connect 38 0 67 0;
#X connect 39 0 49 0;
#X connect 40 0 49 0;
#X connect 41 0 49 0;
#X connect 42 0 49 0;
#X connect 43 0 27 0;
#X connect 44 0 43 0;
#X connect 45 0 43 0;
#X connect 45 0 42 0;
#X connect 46 0 43 0;
#X connect 47 0 43 0;
#X connect 47 0 41 0;
#X connect 48 0 43 0;
#X connect 49 0 27 0;
#X connect 50 0 39 0;
#X connect 51 0 40 0;
#X connect 52 0 41 0;
#X connect 53 0 42 0;
#X connect 54 0 42 0;
#X connect 55 0 41 0;
#X connect 56 0 40 0;
#X connect 57 0 39 0;
#X connect 58 0 43 0;
#X connect 65 0 34 0;
#X connect 67 0 27 0;
#X connect 68 0 36 0;
#X connect 69 0 36 0;
#X connect 70 0 37 0;
#X connect 71 0 37 0;
#X connect 72 0 38 0;
#X connect 73 0 38 0;
#X connect 74 0 27 0;
#X connect 75 0 74 0;
#X connect 76 0 74 0;
#X connect 77 0 74 0;
#X connect 78 0 74 0;
#X connect 79 0 75 0;
#X connect 80 0 76 0;
#X connect 81 0 77 0;
#X connect 82 0 78 0;
#X connect 83 0 44 0;
#X connect 86 0 88 0;
#X connect 87 0 88 0;
#X connect 88 0 67 0;
#X connect 89 0 58 0;
#X connect 110 0 149 0;
#X connect 111 0 134 0;
#X connect 112 0 134 0;
#X connect 113 0 134 0;
#X connect 114 0 124 0;
#X connect 115 0 124 0;
#X connect 116 0 124 0;
#X connect 117 0 124 0;
#X connect 118 0 149 0;
#X connect 119 0 118 0;
#X connect 120 0 118 0;
#X connect 120 0 117 0;
#X connect 121 0 118 0;
#X connect 122 0 118 0;
#X connect 122 0 116 0;
#X connect 123 0 118 0;
#X connect 124 0 149 0;
#X connect 125 0 114 0;
#X connect 126 0 115 0;
#X connect 127 0 116 0;
#X connect 128 0 117 0;
#X connect 129 0 117 0;
#X connect 130 0 116 0;
#X connect 131 0 115 0;
#X connect 132 0 114 0;
#X connect 133 0 118 0;
#X connect 134 0 149 0;
#X connect 135 0 111 0;
#X connect 136 0 111 0;
#X connect 137 0 112 0;
#X connect 138 0 112 0;
#X connect 139 0 113 0;
#X connect 140 0 113 0;
#X connect 141 0 119 0;
#X connect 144 0 146 0;
#X connect 145 0 146 0;
#X connect 146 0 134 0;
#X connect 147 0 133 0;
#X connect 149 0 148 0;
#X connect 150 0 35 0;
#X connect 151 0 50 0;
#X connect 152 0 57 0;
#X connect 153 0 51 0;
#X connect 154 0 56 0;
#X connect 155 0 52 0;
#X connect 156 0 55 0;
#X connect 157 0 53 0;
#X connect 158 0 54 0;
#X connect 159 0 58 0;
#X connect 160 0 44 0;
#X connect 161 0 46 0;
#X connect 162 0 47 0;
#X connect 163 0 48 0;
#X connect 164 0 110 0;
#X connect 165 0 125 0;
#X connect 166 0 132 0;
#X connect 167 0 126 0;
#X connect 168 0 131 0;
#X connect 169 0 127 0;
#X connect 170 0 130 0;
#X connect 171 0 128 0;
#X connect 172 0 129 0;
#X connect 173 0 133 0;
#X connect 174 0 119 0;
#X connect 175 0 120 0;
#X connect 176 0 121 0;
#X connect 177 0 122 0;
#X connect 178 0 123 0;
#X connect 179 0 140 0;
#X connect 180 0 139 0;
#X connect 181 0 138 0;
#X connect 182 0 137 0;
#X connect 183 0 136 0;
#X connect 184 0 135 0;
#X connect 185 0 145 0;
#X connect 186 0 144 0;
#X connect 187 0 86 0;
#X connect 188 0 87 0;
#X connect 189 0 68 0;
#X connect 190 0 69 0;
#X connect 191 0 70 0;
#X connect 192 0 71 0;
#X connect 193 0 72 0;
#X connect 194 0 73 0;
#X connect 195 0 65 0;
#X connect 196 0 32 0;
#X connect 197 0 28 0;
#X connect 198 0 29 0;
#X connect 199 0 30 0;
#X connect 200 0 31 0;
#X connect 201 0 33 0;
#X connect 202 0 79 0;
#X connect 203 0 80 0;
#X connect 204 0 81 0;
#X connect 205 0 82 0;
#X connect 206 0 45 0;
