#N canvas 936 53 538 297 12;
#X obj 54 217 list split 1;
#X obj 54 183 route -1;
#X obj 236 345 * 1;
#X obj 238 378 + 0;
#X text 282 381 offset;
#X obj 103 258 unpack 0 0 0;
#X obj 235 311 pow;
#X text 281 310 exponent values between 1e-05 and N;
#X text 278 344 range;
#X obj 60 41 text define -k \$1;
#A set;
#X obj 54 108 text search \$1;
#X obj 54 149 text get \$1;
#X obj 238 414 outlet;
#X obj 337 41 inlet;
#X obj 244 43 r cue;
#X connect 0 1 5 0;
#X connect 1 1 0 0;
#X connect 2 0 3 0;
#X connect 3 0 12 0;
#X connect 5 0 3 1;
#X connect 5 1 2 1;
#X connect 5 2 6 1;
#X connect 6 0 2 0;
#X connect 10 0 11 0;
#X connect 11 0 1 0;
#X connect 13 0 6 0;
#X connect 14 0 10 0;
