#N struct gifc float colour float width float x1 float y1 float x2 float y2;
#N struct gifma float colour float width float x1 float y1 float x2 float y2;
#N struct gifmb float colour float width float x1 float y1 float x2 float y2;
#N canvas 243 38 1172 490 12;
#N canvas 864 190 864 183 graphicifc 0;
#X scalar gifc 1 1 50 99.5048 200 50.7608 \;;
#X scalar gifc 1 1 50 110.506 200 37.7166 \;;
#X scalar gifc 1 1 50 120.067 200 24.9087 \;;
#X scalar gifc 1 1 50 128.42 200 12.2775 \;;
#X scalar gifc 1 1 50 135.654 200 -0.08925 \;;
#X scalar gifc 1 1 50 86.8956 200 64.0182 \;;
#X scalar gifc 1 1 50 72.1515 200 77.6181 \;;
#X scalar gifc 1 1 50 55.2113 200 91.2076 \;;
#X scalar gifc 1 1 50 34.8875 200 105.13 \;;
#X scalar gifc 1 1 50 23.4402 200 111.971 \;;
#X coords 50 0 200 150 292 80 2 0 0;
#X restore 250 430 pd graphicifc;
#X msg 280 174 \; pd-graphic1 clear;
#X msg 216 273 \; pd-graphicifc clear;
#X obj 67 282 pointer;
#X msg 65 215 traverse pd-graphicifc \, bang;
#X obj -14 639 drawpolygon colour width x1 y1 x2 y2;
#X obj 532 299 pointer;
#X obj -14 374 struct gifc float colour float width float x1 float y1 float x2 float y2;
#X obj -14 583 append gifc colour width x1 y1 x2 y2;
#X obj 573 371 struct gifma float colour float width float x1 float y1 float x2 float y2;
#X obj 960 285 pointer;
#X obj 1001 357 struct gifmb float colour float width float x1 float y1 float x2 float y2;
#N canvas 864 190 864 211 graphicifma 0;
#X scalar gifma 1 1 50 44.5554 200 99.4999 \;;
#X scalar gifma 1 1 50 28.4838 200 110.503 \;;
#X scalar gifma 1 1 50 12.579 200 120.061 \;;
#X scalar gifma 1 1 50 -3.67995 200 128.405 \;;
#X scalar gifma 1 1 50 -20.8225 200 135.651 \;;
#X scalar gifma 1 1 50 60.9969 200 86.8795 \;;
#X scalar gifma 1 1 50 78.2265 200 72.1462 \;;
#X scalar gifma 1 1 50 95.9148 200 55.1859 \;;
#X scalar gifma 1 1 50 114.345 200 34.8844 \;;
#X scalar gifma 1 1 50 123.402 200 23.4207 \;;
#X coords 50 0 200 150 292 80 2 0 0;
#X restore 250 520 pd graphicifma;
#N canvas 864 190 864 267 graphicifmb 0;
#X scalar gifmb 1 1 50 74.9242 200 67.5 \;;
#X scalar gifmb 1 1 50 59.9272 200 67.5 \;;
#X scalar gifmb 1 1 50 44.6364 200 67.5 \;;
#X scalar gifmb 1 1 50 29.0515 200 67.5 \;;
#X scalar gifmb 1 1 50 13.1727 200 67.5 \;;
#X scalar gifmb 1 1 50 89.6273 200 67.5 \;;
#X scalar gifmb 1 1 50 104.036 200 67.5 \;;
#X scalar gifmb 1 1 50 118.152 200 67.5 \;;
#X scalar gifmb 1 1 50 131.973 200 67.5 \;;
#X scalar gifmb 1 1 50 138.811 200 67.5 \;;
#X coords 50 0 200 150 292 80 2 0 0;
#X restore 250 610 pd graphicifmb;
#X msg 536 183 traverse pd-graphicifma \, bang;
#X msg 964 169 traverse pd-graphicifmb \, bang;
#X msg 738 270 \; pd-graphicifma clear;
#X msg 1166 256 \; pd-graphicifmb clear;
#X obj 570 574 append gifma colour width x1 y1 x2 y2;
#X obj 999 563 append gifmb colour width x1 y1 x2 y2;
#X msg 571 542 1 1 50 \$1 200 \$2;
#X obj 571 507 pack f f;
#X obj 589 458 cyclone/scale 0 1 0 150;
#X obj 763 458 cyclone/scale 0 1 0 150;
#N canvas 208 246 1192 753 listiter2 0;
#X obj 411 173 until;
#X obj 411 248 list store;
#X obj 409 112 t b b l;
#X obj 411 198 f;
#X obj 449 198 + 1;
#X msg 468 173 0, f 2;
#X msg 411 223 get \$1 1;
#X obj 408 20 inlet;
#X obj 631 197 int 1;
#X obj 681 196 + 1;
#X obj 412 667 outlet;
#X obj 409 546 list;
#X obj 636 412 t b b b;
#X obj 412 607 list;
#X text 704 217 counter;
#X text 178 188 iterating through the list;
#X text 194 453 collect 5 items;
#X text 518 73 reset;
#X msg 620 141 0;
#X obj 515 304 t b f;
#X obj 409 74 t l b b;
#X obj 409 513 list prepend;
#X obj 632 239 % 2;
#X obj 632 276 sel 1;
#X connect 0 0 3 0;
#X connect 1 0 19 0;
#X connect 1 1 0 1;
#X connect 2 0 0 0;
#X connect 2 1 5 0;
#X connect 2 2 1 1;
#X connect 3 0 4 0;
#X connect 3 0 6 0;
#X connect 4 0 3 1;
#X connect 5 0 3 1;
#X connect 6 0 1 0;
#X connect 7 0 20 0;
#X connect 8 0 9 0;
#X connect 8 0 22 0;
#X connect 9 0 8 1;
#X connect 11 0 13 1;
#X connect 11 0 21 1;
#X connect 12 0 21 0;
#X connect 12 1 21 1;
#X connect 12 2 13 0;
#X connect 13 0 10 0;
#X connect 18 0 8 1;
#X connect 19 0 8 0;
#X connect 19 1 21 0;
#X connect 20 0 2 0;
#X connect 20 1 21 1;
#X connect 20 1 21 0;
#X connect 20 2 18 0;
#X connect 21 0 11 0;
#X connect 22 0 23 0;
#X connect 23 0 12 0;
#X restore 664 133 pd listiter2;
#X obj 660 294 unpack;
#X obj 75 46 inlet;
#X obj 568 33 inlet;
#X obj 1113 22 inlet;
#X obj 549 95 t l b b;
#X msg -14 546 1 1 50 \$1 200 \$2;
#X obj 10 511 pack f f;
#X obj 4 462 cyclone/scale 0 1 0 150;
#X obj 78 492 cyclone/scale 0 1 0 150;
#N canvas 208 246 1192 753 listiter2 0;
#X obj 411 173 until;
#X obj 411 248 list store;
#X obj 409 112 t b b l;
#X obj 411 198 f;
#X obj 449 198 + 1;
#X msg 468 173 0, f 2;
#X msg 411 223 get \$1 1;
#X obj 408 20 inlet;
#X obj 631 197 int 1;
#X obj 681 196 + 1;
#X obj 412 667 outlet;
#X obj 409 546 list;
#X obj 636 412 t b b b;
#X obj 412 607 list;
#X text 704 217 counter;
#X text 178 188 iterating through the list;
#X text 194 453 collect 5 items;
#X text 518 73 reset;
#X msg 620 141 0;
#X obj 515 304 t b f;
#X obj 409 74 t l b b;
#X obj 409 513 list prepend;
#X obj 632 239 % 2;
#X obj 632 276 sel 1;
#X connect 0 0 3 0;
#X connect 1 0 19 0;
#X connect 1 1 0 1;
#X connect 2 0 0 0;
#X connect 2 1 5 0;
#X connect 2 2 1 1;
#X connect 3 0 4 0;
#X connect 3 0 6 0;
#X connect 4 0 3 1;
#X connect 5 0 3 1;
#X connect 6 0 1 0;
#X connect 7 0 20 0;
#X connect 8 0 9 0;
#X connect 8 0 22 0;
#X connect 9 0 8 1;
#X connect 11 0 13 1;
#X connect 11 0 21 1;
#X connect 12 0 21 0;
#X connect 12 1 21 1;
#X connect 12 2 13 0;
#X connect 13 0 10 0;
#X connect 18 0 8 1;
#X connect 19 0 8 0;
#X connect 19 1 21 0;
#X connect 20 0 2 0;
#X connect 20 1 21 1;
#X connect 20 1 21 0;
#X connect 20 2 18 0;
#X connect 21 0 11 0;
#X connect 22 0 23 0;
#X connect 23 0 12 0;
#X restore 162 144 pd listiter2;
#X obj 158 305 unpack;
#X obj 47 106 t l b b;
#X msg 1025 530 1 1 50 \$1 200 \$2;
#X obj 1049 495 pack f f;
#X obj 1043 446 cyclone/scale 0 1 0 150;
#X obj 1117 476 cyclone/scale 0 1 0 150;
#N canvas 208 246 1192 753 listiter2 0;
#X obj 411 173 until;
#X obj 411 248 list store;
#X obj 409 112 t b b l;
#X obj 411 198 f;
#X obj 449 198 + 1;
#X msg 468 173 0, f 2;
#X msg 411 223 get \$1 1;
#X obj 408 20 inlet;
#X obj 631 197 int 1;
#X obj 681 196 + 1;
#X obj 412 667 outlet;
#X obj 409 546 list;
#X obj 636 412 t b b b;
#X obj 412 607 list;
#X text 704 217 counter;
#X text 178 188 iterating through the list;
#X text 194 453 collect 5 items;
#X text 518 73 reset;
#X msg 620 141 0;
#X obj 515 304 t b f;
#X obj 409 74 t l b b;
#X obj 409 513 list prepend;
#X obj 632 239 % 2;
#X obj 632 276 sel 1;
#X connect 0 0 3 0;
#X connect 1 0 19 0;
#X connect 1 1 0 1;
#X connect 2 0 0 0;
#X connect 2 1 5 0;
#X connect 2 2 1 1;
#X connect 3 0 4 0;
#X connect 3 0 6 0;
#X connect 4 0 3 1;
#X connect 5 0 3 1;
#X connect 6 0 1 0;
#X connect 7 0 20 0;
#X connect 8 0 9 0;
#X connect 8 0 22 0;
#X connect 9 0 8 1;
#X connect 11 0 13 1;
#X connect 11 0 21 1;
#X connect 12 0 21 0;
#X connect 12 1 21 1;
#X connect 12 2 13 0;
#X connect 13 0 10 0;
#X connect 18 0 8 1;
#X connect 19 0 8 0;
#X connect 19 1 21 0;
#X connect 20 0 2 0;
#X connect 20 1 21 1;
#X connect 20 1 21 0;
#X connect 20 2 18 0;
#X connect 21 0 11 0;
#X connect 22 0 23 0;
#X connect 23 0 12 0;
#X restore 1201 128 pd listiter2;
#X obj 1197 289 unpack;
#X obj 1086 90 t l b b;
#X obj 254 690 hsl 294 10 0 1 0 0 empty ifmbpos_gui empty -2 -10 0 12 #fcfcfc #000000 #000000 0 1;
#X text 707 617 EInbauen als controlle?;
#X obj 254 600 hsl 294 10 0 1 0 0 empty ifmapos_gui empty -2 -10 0 12 #fcfcfc #000000 #000000 0 1;
#X obj 254 510 hsl 294 10 0 1 0 0 ifcpos ifcpos_gui empty -2 -10 0 12 #fcfcfc #000000 #000000 0 1;
#X obj 542 610 vradio 8 1 0 10 ifmbtan empty empty 0 -10 0 12 #fcfcfc #000000 #000000 0;
#X obj 542 520 vradio 8 1 0 10 ifmatan empty empty 0 -10 0 12 #fcfcfc #000000 #000000 0;
#X obj 542 430 vradio 8 1 0 10 ifctan ifctangui empty 0 -10 0 12 #fcfcfc #000000 #000000 0;
#X connect 3 0 8 6;
#X connect 4 0 3 0;
#X connect 6 0 18 6;
#X connect 10 0 19 6;
#X connect 14 0 6 0;
#X connect 15 0 10 0;
#X connect 20 0 18 0;
#X connect 21 0 20 0;
#X connect 22 0 21 0;
#X connect 23 0 21 1;
#X connect 24 0 25 0;
#X connect 25 0 22 0;
#X connect 25 1 23 0;
#X connect 26 0 36 0;
#X connect 27 0 29 0;
#X connect 28 0 43 0;
#X connect 29 0 24 0;
#X connect 29 1 14 0;
#X connect 29 2 16 0;
#X connect 30 0 8 0;
#X connect 31 0 30 0;
#X connect 32 0 31 0;
#X connect 33 0 31 1;
#X connect 34 0 35 0;
#X connect 35 0 32 0;
#X connect 35 1 33 0;
#X connect 36 0 34 0;
#X connect 36 1 4 0;
#X connect 36 2 2 0;
#X connect 37 0 19 0;
#X connect 38 0 37 0;
#X connect 39 0 38 0;
#X connect 40 0 38 1;
#X connect 41 0 42 0;
#X connect 42 0 39 0;
#X connect 42 1 40 0;
#X connect 43 0 41 0;
#X connect 43 1 15 0;
#X connect 43 2 17 0;
#X coords 0 -1 1 1 300 270 2 250 430;
