#N canvas 1745 25 2444 853 12;
#X obj 231 592 * 1;
#X obj 233 625 + 0;
#X text 1789 628 offset;
#X obj 230 558 pow;
#X text 1788 557 exponent values between 1e-05 and N;
#X text 1785 591 range;
#X obj 233 664 list prepend 0;
#X obj 229 301 inlet;
#X obj 98 533 unpack 0 0 0;
#X obj 63 194 text define -k \$1;
#A set 1 0 0 0 0 \, 5 1 0.1 20 1;
#X obj 64 58 loadbang;
#X obj 64 93 symbol \$1;
#X obj 246 84 symbol \$1;
#X obj 248 54 bng 19 250 50 0 empty empty empty 0 -10 0 12 #fcfcfc #000000 #000000;
#X obj 57 343 list split 1;
#X obj 57 309 route -1;
#X obj 57 234 text search \$1;
#X obj 57 275 text get \$1;
#X obj 313 183 r cue;
#X text 391 183 receive cue;
#X msg 63 135 read voices\$1.txt;
#X msg 244 130 write voices\$1.txt;
#X obj 97 379 list split 3;
#X obj 402 594 * 1;
#X obj 404 627 + 0;
#X obj 401 560 pow;
#X obj 269 535 unpack 0 0 0;
#X obj 268 381 list split 3;
#X obj 565 594 * 1;
#X obj 567 627 + 0;
#X obj 564 560 pow;
#X obj 432 535 unpack 0 0 0;
#X obj 431 381 list split 3;
#X obj 744 593 * 1;
#X obj 746 626 + 0;
#X obj 743 559 pow;
#X obj 611 534 unpack 0 0 0;
#X obj 610 380 list split 3;
#X obj 907 593 * 1;
#X obj 909 626 + 0;
#X obj 906 559 pow;
#X obj 774 534 unpack 0 0 0;
#X obj 773 380 list split 3;
#X obj 1080 594 * 1;
#X obj 1082 627 + 0;
#X obj 1079 560 pow;
#X obj 947 535 unpack 0 0 0;
#X obj 946 381 list split 3;
#X obj 1243 594 * 1;
#X obj 1245 627 + 0;
#X obj 1242 560 pow;
#X obj 1110 535 unpack 0 0 0;
#X obj 1109 381 list split 3;
#X obj 1422 593 * 1;
#X obj 1424 626 + 0;
#X obj 1421 559 pow;
#X obj 1289 534 unpack 0 0 0;
#X obj 1288 380 list split 3;
#X obj 1585 593 * 1;
#X obj 1587 626 + 0;
#X obj 1584 559 pow;
#X obj 1452 534 unpack 0 0 0;
#X obj 1451 380 list split 3;
#X obj 1752 595 * 1;
#X obj 1754 628 + 0;
#X obj 1751 561 pow;
#X obj 1619 536 unpack 0 0 0;
#X obj 1618 382 list split 3;
#X obj 404 666 list prepend 1;
#X obj 567 666 list prepend 2;
#X obj 746 665 list prepend 3;
#X obj 909 665 list prepend 4;
#X obj 1082 666 list prepend 5;
#X obj 1245 666 list prepend 6;
#X obj 1424 665 list prepend 7;
#X obj 1587 665 list prepend 8;
#X obj 1754 667 list prepend 9;
#X obj 233 764 outlet;
#X connect 0 0 1 0;
#X connect 1 0 6 0;
#X connect 3 0 0 0;
#X connect 6 0 77 0;
#X connect 7 0 3 0;
#X connect 7 0 25 0;
#X connect 7 0 65 0;
#X connect 7 0 60 0;
#X connect 7 0 55 0;
#X connect 7 0 50 0;
#X connect 7 0 45 0;
#X connect 7 0 40 0;
#X connect 7 0 35 0;
#X connect 7 0 30 0;
#X connect 8 0 1 1;
#X connect 8 1 0 1;
#X connect 8 2 3 1;
#X connect 10 0 11 0;
#X connect 11 0 20 0;
#X connect 12 0 21 0;
#X connect 13 0 12 0;
#X connect 14 1 22 0;
#X connect 15 1 14 0;
#X connect 16 0 17 0;
#X connect 17 0 15 0;
#X connect 18 0 16 0;
#X connect 20 0 9 0;
#X connect 21 0 9 0;
#X connect 22 0 8 0;
#X connect 22 1 27 0;
#X connect 23 0 24 0;
#X connect 24 0 68 0;
#X connect 25 0 23 0;
#X connect 26 0 24 1;
#X connect 26 1 23 1;
#X connect 26 2 25 1;
#X connect 27 0 26 0;
#X connect 27 1 32 0;
#X connect 28 0 29 0;
#X connect 29 0 69 0;
#X connect 30 0 28 0;
#X connect 31 0 29 1;
#X connect 31 1 28 1;
#X connect 31 2 30 1;
#X connect 32 0 31 0;
#X connect 32 1 37 0;
#X connect 33 0 34 0;
#X connect 34 0 70 0;
#X connect 35 0 33 0;
#X connect 36 0 34 1;
#X connect 36 1 33 1;
#X connect 36 2 35 1;
#X connect 37 0 36 0;
#X connect 37 1 42 0;
#X connect 38 0 39 0;
#X connect 39 0 71 0;
#X connect 40 0 38 0;
#X connect 41 0 39 1;
#X connect 41 1 38 1;
#X connect 41 2 40 1;
#X connect 42 0 41 0;
#X connect 42 1 47 0;
#X connect 43 0 44 0;
#X connect 44 0 72 0;
#X connect 45 0 43 0;
#X connect 46 0 44 1;
#X connect 46 1 43 1;
#X connect 46 2 45 1;
#X connect 47 0 46 0;
#X connect 47 1 52 0;
#X connect 48 0 49 0;
#X connect 49 0 73 0;
#X connect 50 0 48 0;
#X connect 51 0 49 1;
#X connect 51 1 48 1;
#X connect 51 2 50 1;
#X connect 52 0 51 0;
#X connect 52 1 57 0;
#X connect 53 0 54 0;
#X connect 54 0 74 0;
#X connect 55 0 53 0;
#X connect 56 0 54 1;
#X connect 56 1 53 1;
#X connect 56 2 55 1;
#X connect 57 0 56 0;
#X connect 57 1 62 0;
#X connect 58 0 59 0;
#X connect 59 0 75 0;
#X connect 60 0 58 0;
#X connect 61 0 59 1;
#X connect 61 1 58 1;
#X connect 61 2 60 1;
#X connect 62 0 61 0;
#X connect 62 1 67 0;
#X connect 63 0 64 0;
#X connect 64 0 76 0;
#X connect 65 0 63 0;
#X connect 66 0 64 1;
#X connect 66 1 63 1;
#X connect 66 2 65 1;
#X connect 67 0 66 0;
#X connect 68 0 77 0;
#X connect 69 0 77 0;
#X connect 70 0 77 0;
#X connect 71 0 77 0;
#X connect 72 0 77 0;
#X connect 73 0 77 0;
#X connect 74 0 77 0;
#X connect 75 0 77 0;
#X connect 76 0 77 0;
