#N canvas 63 120 1665 596 12;
#N canvas 78 200 1650 414 asig 0;
#X obj 94 67 inlet~;
#X obj 170 67 inlet~;
#X obj 278 62 inlet~;
#X obj 373 63 inlet~;
#X obj 100 510 outlet~;
#X obj 100 484 *~;
#X obj 165 338 +~;
#X obj 279 297 +~;
#N canvas 520 154 1208 566 amoda 0;
#X obj 103 38 inlet~;
#X obj 304 35 inlet~;
#X obj 105 558 outlet~;
#X obj 104 476 *~;
#X obj 150 282 *;
#X obj 152 413 *;
#X obj 338 184 *;
#X obj 104 450 +~ 0;
#X obj 301 322 *~ 0;
#X obj 233 35 inlet;
#X obj 167 36 inlet;
#X obj 364 32 inlet;
#X text 231 3 ifma;
#X text 164 5 indxa;
#X text 369 2 imag;
#X obj 150 256 f;
#X obj 165 201 t b f;
#X obj 339 143 f;
#X obj 340 105 t b f;
#X obj 151 356 f;
#X obj 197 309 t b f;
#X obj 250 394 tabosc4~ polymovemoda-array3;
#X connect 0 0 7 0;
#X connect 1 0 8 0;
#X connect 3 0 2 0;
#X connect 4 0 19 0;
#X connect 5 0 7 1;
#X connect 6 0 8 1;
#X connect 7 0 3 0;
#X connect 8 0 21 0;
#X connect 9 0 15 0;
#X connect 9 0 17 0;
#X connect 10 0 16 0;
#X connect 11 0 18 0;
#X connect 11 0 20 0;
#X connect 15 0 4 0;
#X connect 16 0 15 0;
#X connect 16 1 4 1;
#X connect 17 0 6 0;
#X connect 18 0 17 0;
#X connect 18 1 6 1;
#X connect 19 0 5 0;
#X connect 20 0 19 0;
#X connect 20 1 5 1;
#X connect 21 0 3 1;
#X restore 282 216 pd amoda;
#N canvas 2179 246 953 561 amodb 0;
#X obj 103 38 inlet~;
#X obj 357 38 inlet~;
#X obj 107 617 outlet~;
#X obj 107 577 *~;
#X obj 155 351 *;
#X obj 154 472 *;
#X obj 394 446 *;
#X obj 359 472 *~ 0;
#X obj 106 509 +~ 0;
#X obj 586 35 inlet;
#X obj 648 38 inlet;
#X obj 708 38 inlet;
#X obj 770 39 inlet;
#X text 584 11 ifma;
#X text 646 10 indxb;
#X text 706 12 ifmb;
#X text 766 14 imag;
#X obj 396 348 t b f;
#X obj 396 372 f;
#X obj 155 427 f;
#X obj 209 343 t b f;
#X obj 191 264 t b f;
#X obj 155 297 f;
#X obj 221 539 tabosc4~ polymovemodb-array3;
#X connect 0 0 8 0;
#X connect 1 0 7 0;
#X connect 3 0 2 0;
#X connect 4 0 19 0;
#X connect 5 0 8 1;
#X connect 6 0 7 1;
#X connect 7 0 23 0;
#X connect 8 0 3 0;
#X connect 9 0 22 0;
#X connect 10 0 21 0;
#X connect 11 0 18 0;
#X connect 12 0 20 0;
#X connect 12 0 17 0;
#X connect 17 0 18 0;
#X connect 17 1 6 1;
#X connect 18 0 6 0;
#X connect 19 0 5 0;
#X connect 20 0 19 0;
#X connect 20 1 5 1;
#X connect 21 0 22 0;
#X connect 21 1 4 1;
#X connect 22 0 4 0;
#X connect 23 0 3 1;
#X restore 377 216 pd amodb;
#X f 9;
#X obj 188 275 * 1;
#X obj 165 304 *~ 0;
#X obj 591 64 inlet;
#X obj 542 63 inlet;
#X text 540 37 imag;
#X text 589 35 ifc;
#X obj 647 64 inlet;
#X obj 703 63 inlet;
#X obj 756 61 inlet;
#X obj 808 60 inlet;
#X text 645 35 ifma;
#X text 701 37 indxa;
#X text 754 32 ifmb;
#X text 806 34 indxb;
#X obj 188 228 f;
#X obj 188 188 t b f;
#X obj 166 401 tabosc4~ polymovemain-array3;
#X connect 0 0 5 0;
#X connect 1 0 11 0;
#X connect 1 0 8 3;
#X connect 1 0 9 1;
#X connect 2 0 8 0;
#X connect 3 0 9 0;
#X connect 5 0 4 0;
#X connect 6 0 26 0;
#X connect 7 0 6 1;
#X connect 8 0 7 0;
#X connect 9 0 7 1;
#X connect 10 0 11 1;
#X connect 11 0 6 0;
#X connect 12 0 24 0;
#X connect 13 0 8 4;
#X connect 13 0 9 5;
#X connect 13 0 25 0;
#X connect 16 0 8 2;
#X connect 16 0 9 2;
#X connect 17 0 8 1;
#X connect 18 0 9 4;
#X connect 19 0 9 3;
#X connect 24 0 10 0;
#X connect 25 0 24 0;
#X connect 25 1 10 1;
#X connect 26 0 5 1;
#X restore 246 473 pd asig;
#X f 33;
#X text 362 112 imag;
#X text 441 113 ifc;
#X text 515 104 ifma;
#X text 592 103 indxa;
#X text 690 98 ifmb;
#X text 770 95 indxb;
#X floatatom 444 142 5 0 0 0 - - - 0;
#X floatatom 363 139 5 0 0 0 - - - 0;
#X floatatom 517 137 5 0 0 0 - - - 0;
#X floatatom 594 131 5 0 0 0 - - - 0;
#X floatatom 762 127 5 0 0 0 - - - 0;
#X floatatom 684 129 5 0 0 0 - - - 0;
#X obj 93 74 inlet~;
#X obj 155 71 inlet~;
#X text 88 51 env;
#X text 150 48 skew;
#X obj 243 568 outlet~;
#X obj 378 62 r imag;
#X obj 567 54 r indxa;
#X obj 711 51 r indxb;
#X obj 444 62 inlet;
#X obj 507 56 inlet;
#X obj 658 52 inlet;
#X obj 220 72 inlet~;
#X obj 282 69 inlet~;
#X text 217 48 fda;
#X text 279 45 fdb;
#X obj 259 238 *~ 0;
#X obj 258 293 *~ 0;
#X obj 258 347 *~ 0;
#X text 310 344 imag;
#X text 295 236 ifma;
#X text 304 292 idifa;
#X obj 298 269 r idifa;
#X obj 688 313 *~ 0;
#X obj 687 368 *~ 0;
#X obj 687 422 *~ 0;
#X text 724 262 ifmb;
#X text 800 261 idifb;
#X text 886 262 imag;
#X obj 767 325 r idifb;
#X connect 0 0 17 0;
#X connect 7 0 0 5;
#X connect 8 0 0 4;
#X connect 8 0 30 1;
#X connect 8 0 37 1;
#X connect 9 0 0 6;
#X connect 9 0 28 1;
#X connect 10 0 0 7;
#X connect 11 0 0 9;
#X connect 12 0 0 8;
#X connect 12 0 35 1;
#X connect 13 0 0 0;
#X connect 14 0 0 1;
#X connect 18 0 8 0;
#X connect 19 0 10 0;
#X connect 20 0 11 0;
#X connect 21 0 7 0;
#X connect 22 0 9 0;
#X connect 23 0 12 0;
#X connect 24 0 28 0;
#X connect 25 0 35 0;
#X connect 28 0 29 0;
#X connect 29 0 30 0;
#X connect 30 0 0 2;
#X connect 34 0 29 1;
#X connect 35 0 36 0;
#X connect 36 0 37 0;
#X connect 37 0 0 3;
#X connect 41 0 36 1;
