#N canvas 1850 35 2438 812 12;
#X obj 215 54 bendin;
#X obj 278 114 cyclone/scale 0 16383 0 1;
#X obj 44 127 cyclone/xbendout;
#X obj 43 160 midiout;
#X text 44 88 Feedbackloop for motorized faders, f 17;
#X obj 184 307 s iconfader_1;
#X obj 290 307 s iconfader_2;
#X obj 396 307 s iconfader_3;
#X obj 502 307 s iconfader_4;
#X obj 607 309 s iconfader_5;
#X obj 713 309 s iconfader_6;
#X obj 819 309 s iconfader_7;
#X obj 925 309 s iconfader_8;
#X obj 1029 310 s iconfader_9;
#X obj 184 158 cyclone/gate 9;
#X text 63 304 Fader;
#X obj 110 362 notein 1;
#X text 72 488 touch;
#X obj 187 482 route 104 105 106 107 108 109 110 111 112;
#X obj 191 541 route 24 25 26 27 28 29 30 31;
#X text 78 544 sel;
#X text 80 597 mute;
#X text 77 630 solo;
#X text 81 671 rec;
#X obj 192 590 route 16 17 18 19 20 21 22 23;
#X obj 192 629 route 8 9 10 11 12 13 14 15;
#X obj 190 668 route 0 1 2 3 4 5 6 7;
#X obj 187 509 s iconfader_fadertouch1;
#X obj 353 509 s iconfader_fadertouch2;
#X obj 521 509 s iconfader_fadertouch3;
#X obj 687 509 s iconfader_fadertouch4;
#X obj 857 509 s iconfader_fadertouch5;
#X obj 1023 509 s iconfader_fadertouch6;
#X obj 1191 509 s iconfader_fadertouch7;
#X obj 1357 509 s iconfader_fadertouch8;
#X obj 1524 508 s iconfader_fadertouch9;
#X obj 192 566 s iconfader_sel1;
#X obj 310 566 s iconfader_sel2;
#X obj 433 567 s iconfader_sel3;
#X obj 551 567 s iconfader_sel4;
#X obj 672 568 s iconfader_sel5;
#X obj 790 568 s iconfader_sel6;
#X obj 913 569 s iconfader_sel7;
#X obj 1031 569 s iconfader_sel8;
#X obj 191 610 s iconfader_mute1;
#X obj 191 651 s iconfader_solo1;
#X obj 326 611 s iconfader_mute2;
#X obj 326 652 s iconfader_solo2;
#X obj 326 693 s iconfader_rec2;
#X obj 191 692 s iconfader_rec1;
#X obj 466 611 s iconfader_mute3;
#X obj 466 652 s iconfader_solo3;
#X obj 466 693 s iconfader_rec3;
#X obj 601 612 s iconfader_mute4;
#X obj 601 653 s iconfader_solo4;
#X obj 601 694 s iconfader_rec4;
#X obj 737 612 s iconfader_mute5;
#X obj 737 653 s iconfader_solo5;
#X obj 737 694 s iconfader_rec5;
#X obj 872 613 s iconfader_mute6;
#X obj 872 654 s iconfader_solo6;
#X obj 872 695 s iconfader_rec6;
#X obj 1012 613 s iconfader_mute7;
#X obj 1012 654 s iconfader_solo7;
#X obj 1012 695 s iconfader_rec7;
#X obj 1147 614 s iconfader_mute8;
#X obj 1147 655 s iconfader_solo8;
#X obj 1147 696 s iconfader_rec8;
#X obj 1753 329 vsl 19 162 0 1 0 0 empty empty empty 0 -9 0 12 #fcfcfc #000000 #000000 0 1;
#X listbox 1779 326 4 0 0 0 - - - 0;
#X obj 1812 329 vsl 19 162 0 1 0 0 empty empty empty 0 -9 0 12 #fcfcfc #000000 #000000 0 1;
#X listbox 1838 326 4 0 0 0 - - - 0;
#X obj 1871 329 vsl 19 162 0 1 0 0 empty empty empty 0 -9 0 12 #fcfcfc #000000 #000000 0 1;
#X listbox 1897 325 4 0 0 0 - - - 0;
#X obj 1931 329 vsl 19 162 0 1 0 0 empty empty empty 0 -9 0 12 #fcfcfc #000000 #000000 0 1;
#X listbox 1957 325 4 0 0 0 - - - 0;
#X obj 1991 329 vsl 19 162 0 1 0 0 empty empty empty 0 -9 0 12 #fcfcfc #000000 #000000 0 1;
#X listbox 2017 325 4 0 0 0 - - - 0;
#X obj 2050 329 vsl 19 162 0 1 0 0 empty empty empty 0 -9 0 12 #fcfcfc #000000 #000000 0 1;
#X listbox 2076 325 4 0 0 0 - - - 0;
#X obj 2109 329 vsl 19 162 0 1 0 0 empty empty empty 0 -9 0 12 #fcfcfc #000000 #000000 0 1;
#X listbox 2135 324 4 0 0 0 - - - 0;
#X obj 2169 329 vsl 19 162 0 1 0 0 empty empty empty 0 -9 0 12 #fcfcfc #000000 #000000 0 1;
#X listbox 2195 324 4 0 0 0 - - - 0;
#X text 1753 496 Fader1;
#X text 1812 496 Fader2;
#X text 1871 496 Fader3;
#X text 1931 496 Fader4;
#X text 1991 496 Fader5;
#X text 2050 496 Fader6;
#X text 2109 496 Fader7;
#X text 2169 496 Fader8;
#X obj 2234 328 vsl 19 162 0 1 0 0 empty empty empty 0 -9 0 12 #fcfcfc #000000 #000000 0 1;
#X listbox 2260 325 4 0 0 0 - - - 0;
#X text 2233 497 Fader9;
#X obj 1744 255 iconscalemaps, f 50;
#X obj 1753 516 bng 19 250 50 0 empty empty empty 0 -10 0 12 #fcfcfc #000000 #000000;
#X obj 1753 538 bng 19 250 50 0 empty empty empty 0 -10 0 12 #fcfcfc #000000 #000000;
#X obj 1753 560 bng 19 250 50 0 empty empty empty 0 -10 0 12 #fcfcfc #000000 #000000;
#X obj 1753 582 bng 19 250 50 0 empty empty empty 0 -10 0 12 #fcfcfc #000000 #000000;
#X obj 1753 604 bng 19 250 50 0 empty empty empty 0 -10 0 12 #fcfcfc #000000 #000000;
#X obj 1812 516 bng 19 250 50 0 empty empty empty 0 -10 0 12 #fcfcfc #000000 #000000;
#X obj 1812 538 bng 19 250 50 0 empty empty empty 0 -10 0 12 #fcfcfc #000000 #000000;
#X obj 1812 560 bng 19 250 50 0 empty empty empty 0 -10 0 12 #fcfcfc #000000 #000000;
#X obj 1812 582 bng 19 250 50 0 empty empty empty 0 -10 0 12 #fcfcfc #000000 #000000;
#X obj 1812 604 bng 19 250 50 0 empty empty empty 0 -10 0 12 #fcfcfc #000000 #000000;
#X listbox 1774 517 4 0 0 0 - - - 0;
#X listbox 1833 517 4 0 0 0 - - - 0;
#X listbox 1897 517 4 0 0 0 - - - 0;
#X listbox 1955 517 4 0 0 0 - - - 0;
#X listbox 2018 517 4 0 0 0 - - - 0;
#X obj 1871 516 bng 19 250 50 0 empty empty empty 0 -10 0 12 #fcfcfc #000000 #000000;
#X obj 1871 538 bng 19 250 50 0 empty empty empty 0 -10 0 12 #fcfcfc #000000 #000000;
#X obj 1871 560 bng 19 250 50 0 empty empty empty 0 -10 0 12 #fcfcfc #000000 #000000;
#X obj 1871 582 bng 19 250 50 0 empty empty empty 0 -10 0 12 #fcfcfc #000000 #000000;
#X obj 1871 604 bng 19 250 50 0 empty empty empty 0 -10 0 12 #fcfcfc #000000 #000000;
#X obj 1931 516 bng 19 250 50 0 empty empty empty 0 -10 0 12 #fcfcfc #000000 #000000;
#X obj 1931 538 bng 19 250 50 0 empty empty empty 0 -10 0 12 #fcfcfc #000000 #000000;
#X obj 1931 560 bng 19 250 50 0 empty empty empty 0 -10 0 12 #fcfcfc #000000 #000000;
#X obj 1931 582 bng 19 250 50 0 empty empty empty 0 -10 0 12 #fcfcfc #000000 #000000;
#X obj 1931 604 bng 19 250 50 0 empty empty empty 0 -10 0 12 #fcfcfc #000000 #000000;
#X obj 1991 516 bng 19 250 50 0 empty empty empty 0 -10 0 12 #fcfcfc #000000 #000000;
#X obj 1991 538 bng 19 250 50 0 empty empty empty 0 -10 0 12 #fcfcfc #000000 #000000;
#X obj 1991 560 bng 19 250 50 0 empty empty empty 0 -10 0 12 #fcfcfc #000000 #000000;
#X obj 1991 582 bng 19 250 50 0 empty empty empty 0 -10 0 12 #fcfcfc #000000 #000000;
#X obj 1991 604 bng 19 250 50 0 empty empty empty 0 -10 0 12 #fcfcfc #000000 #000000;
#X obj 2050 516 bng 19 250 50 0 empty empty empty 0 -10 0 12 #fcfcfc #000000 #000000;
#X obj 2050 538 bng 19 250 50 0 empty empty empty 0 -10 0 12 #fcfcfc #000000 #000000;
#X obj 2050 560 bng 19 250 50 0 empty empty empty 0 -10 0 12 #fcfcfc #000000 #000000;
#X obj 2050 582 bng 19 250 50 0 empty empty empty 0 -10 0 12 #fcfcfc #000000 #000000;
#X obj 2050 604 bng 19 250 50 0 empty empty empty 0 -10 0 12 #fcfcfc #000000 #000000;
#X obj 2109 516 bng 19 250 50 0 empty empty empty 0 -10 0 12 #fcfcfc #000000 #000000;
#X obj 2109 538 bng 19 250 50 0 empty empty empty 0 -10 0 12 #fcfcfc #000000 #000000;
#X obj 2109 560 bng 19 250 50 0 empty empty empty 0 -10 0 12 #fcfcfc #000000 #000000;
#X obj 2109 582 bng 19 250 50 0 empty empty empty 0 -10 0 12 #fcfcfc #000000 #000000;
#X obj 2109 604 bng 19 250 50 0 empty empty empty 0 -10 0 12 #fcfcfc #000000 #000000;
#X obj 2169 516 bng 19 250 50 0 empty empty empty 0 -10 0 12 #fcfcfc #000000 #000000;
#X obj 2169 538 bng 19 250 50 0 empty empty empty 0 -10 0 12 #fcfcfc #000000 #000000;
#X obj 2169 560 bng 19 250 50 0 empty empty empty 0 -10 0 12 #fcfcfc #000000 #000000;
#X obj 2169 582 bng 19 250 50 0 empty empty empty 0 -10 0 12 #fcfcfc #000000 #000000;
#X obj 2169 604 bng 19 250 50 0 empty empty empty 0 -10 0 12 #fcfcfc #000000 #000000;
#X obj 2238 517 bng 19 250 50 0 empty empty empty 0 -10 0 12 #fcfcfc #000000 #000000;
#N canvas 2454 223 905 708 button 0;
#X obj 356 233 list store;
#X text 311 268 check for item to remove;
#X obj 356 290 list-remove;
#X obj 356 365 list append;
#X text 449 359 append item;
#X obj 356 424 cyclone/zl sort;
#X obj 356 183 t b a;
#X obj 356 472 list prepend set;
#X obj 355 156 t a a;
#X obj 357 505 route list;
#X obj 144 231 list store;
#X text 99 266 check for item to remove;
#X obj 144 288 list-remove;
#X obj 144 181 t b a;
#X obj 143 154 t a a;
#X obj 258 179 bng 19 250 50 0 empty empty empty 0 -10 0 12 #fcfcfc #000000 #000000;
#X text 286 181 init;
#X obj 257 147 loadbang;
#X obj 263 108 route 0 1;
#X obj 144 339 route bang;
#X msg 144 363 set;
#X obj 264 19 inlet;
#X obj 280 606 outlet;
#X connect 0 0 2 0;
#X connect 2 0 3 0;
#X connect 3 0 5 0;
#X connect 5 0 7 0;
#X connect 5 0 10 1;
#X connect 5 0 0 1;
#X connect 6 0 0 0;
#X connect 6 1 2 1;
#X connect 7 0 9 0;
#X connect 8 0 6 0;
#X connect 8 1 3 1;
#X connect 9 0 22 0;
#X connect 10 0 12 0;
#X connect 12 0 10 1;
#X connect 12 0 19 0;
#X connect 13 0 10 0;
#X connect 13 1 12 1;
#X connect 14 0 13 0;
#X connect 15 0 10 1;
#X connect 15 0 0 1;
#X connect 15 0 20 0;
#X connect 17 0 15 0;
#X connect 18 0 14 0;
#X connect 18 1 8 0;
#X connect 19 0 20 0;
#X connect 19 1 5 0;
#X connect 20 0 22 0;
#X connect 21 0 18 0;
#X restore 2315 498 pd button;
#N canvas 2454 223 905 736 button 0;
#X obj 356 233 list store;
#X text 311 268 check for item to remove;
#X obj 356 290 list-remove;
#X obj 356 365 list append;
#X text 449 359 append item;
#X obj 356 424 cyclone/zl sort;
#X obj 356 183 t b a;
#X obj 356 472 list prepend set;
#X obj 355 156 t a a;
#X obj 357 505 route list;
#X obj 144 231 list store;
#X text 99 266 check for item to remove;
#X obj 144 288 list-remove;
#X obj 144 181 t b a;
#X obj 143 154 t a a;
#X obj 258 179 bng 19 250 50 0 empty empty empty 0 -10 0 12 #fcfcfc #000000 #000000;
#X text 286 181 init;
#X obj 257 147 loadbang;
#X obj 263 108 route 0 1;
#X obj 144 339 route bang;
#X msg 144 363 set;
#X obj 264 19 inlet;
#X obj 280 606 outlet;
#X connect 0 0 2 0;
#X connect 2 0 3 0;
#X connect 3 0 5 0;
#X connect 5 0 7 0;
#X connect 5 0 10 1;
#X connect 5 0 0 1;
#X connect 6 0 0 0;
#X connect 6 1 2 1;
#X connect 7 0 9 0;
#X connect 8 0 6 0;
#X connect 8 1 3 1;
#X connect 9 0 22 0;
#X connect 10 0 12 0;
#X connect 12 0 10 1;
#X connect 12 0 19 0;
#X connect 13 0 10 0;
#X connect 13 1 12 1;
#X connect 14 0 13 0;
#X connect 15 0 10 1;
#X connect 15 0 0 1;
#X connect 15 0 20 0;
#X connect 17 0 15 0;
#X connect 18 0 14 0;
#X connect 18 1 8 0;
#X connect 19 0 20 0;
#X connect 19 1 5 0;
#X connect 20 0 22 0;
#X connect 21 0 18 0;
#X restore 2393 498 pd button;
#N canvas 2454 223 905 736 button 0;
#X obj 356 233 list store;
#X text 311 268 check for item to remove;
#X obj 356 290 list-remove;
#X obj 356 365 list append;
#X text 449 359 append item;
#X obj 356 424 cyclone/zl sort;
#X obj 356 183 t b a;
#X obj 356 472 list prepend set;
#X obj 355 156 t a a;
#X obj 357 505 route list;
#X obj 144 231 list store;
#X text 99 266 check for item to remove;
#X obj 144 288 list-remove;
#X obj 144 181 t b a;
#X obj 143 154 t a a;
#X obj 258 179 bng 19 250 50 0 empty empty empty 0 -10 0 12 #fcfcfc #000000 #000000;
#X text 286 181 init;
#X obj 257 147 loadbang;
#X obj 263 108 route 0 1;
#X obj 144 339 route bang;
#X msg 144 363 set;
#X obj 264 19 inlet;
#X obj 280 606 outlet;
#X connect 0 0 2 0;
#X connect 2 0 3 0;
#X connect 3 0 5 0;
#X connect 5 0 7 0;
#X connect 5 0 10 1;
#X connect 5 0 0 1;
#X connect 6 0 0 0;
#X connect 6 1 2 1;
#X connect 7 0 9 0;
#X connect 8 0 6 0;
#X connect 8 1 3 1;
#X connect 9 0 22 0;
#X connect 10 0 12 0;
#X connect 12 0 10 1;
#X connect 12 0 19 0;
#X connect 13 0 10 0;
#X connect 13 1 12 1;
#X connect 14 0 13 0;
#X connect 15 0 10 1;
#X connect 15 0 0 1;
#X connect 15 0 20 0;
#X connect 17 0 15 0;
#X connect 18 0 14 0;
#X connect 18 1 8 0;
#X connect 19 0 20 0;
#X connect 19 1 5 0;
#X connect 20 0 22 0;
#X connect 21 0 18 0;
#X restore 2473 498 pd button;
#N canvas 2454 223 905 736 button 0;
#X obj 356 233 list store;
#X text 311 268 check for item to remove;
#X obj 356 290 list-remove;
#X obj 356 365 list append;
#X text 449 359 append item;
#X obj 356 424 cyclone/zl sort;
#X obj 356 183 t b a;
#X obj 356 472 list prepend set;
#X obj 355 156 t a a;
#X obj 357 505 route list;
#X obj 144 231 list store;
#X text 99 266 check for item to remove;
#X obj 144 288 list-remove;
#X obj 144 181 t b a;
#X obj 143 154 t a a;
#X obj 258 179 bng 19 250 50 0 empty empty empty 0 -10 0 12 #fcfcfc #000000 #000000;
#X text 286 181 init;
#X obj 257 147 loadbang;
#X obj 263 108 route 0 1;
#X obj 144 339 route bang;
#X msg 144 363 set;
#X obj 264 19 inlet;
#X obj 280 606 outlet;
#X connect 0 0 2 0;
#X connect 2 0 3 0;
#X connect 3 0 5 0;
#X connect 5 0 7 0;
#X connect 5 0 10 1;
#X connect 5 0 0 1;
#X connect 6 0 0 0;
#X connect 6 1 2 1;
#X connect 7 0 9 0;
#X connect 8 0 6 0;
#X connect 8 1 3 1;
#X connect 9 0 22 0;
#X connect 10 0 12 0;
#X connect 12 0 10 1;
#X connect 12 0 19 0;
#X connect 13 0 10 0;
#X connect 13 1 12 1;
#X connect 14 0 13 0;
#X connect 15 0 10 1;
#X connect 15 0 0 1;
#X connect 15 0 20 0;
#X connect 17 0 15 0;
#X connect 18 0 14 0;
#X connect 18 1 8 0;
#X connect 19 0 20 0;
#X connect 19 1 5 0;
#X connect 20 0 22 0;
#X connect 21 0 18 0;
#X restore 2551 498 pd button;
#N canvas 2454 223 905 736 button 0;
#X obj 356 233 list store;
#X text 311 268 check for item to remove;
#X obj 356 290 list-remove;
#X obj 356 365 list append;
#X text 449 359 append item;
#X obj 356 424 cyclone/zl sort;
#X obj 356 183 t b a;
#X obj 356 472 list prepend set;
#X obj 355 156 t a a;
#X obj 357 505 route list;
#X obj 144 231 list store;
#X text 99 266 check for item to remove;
#X obj 144 288 list-remove;
#X obj 144 181 t b a;
#X obj 143 154 t a a;
#X obj 258 179 bng 19 250 50 0 empty empty empty 0 -10 0 12 #fcfcfc #000000 #000000;
#X text 286 181 init;
#X obj 257 147 loadbang;
#X obj 263 108 route 0 1;
#X obj 144 339 route bang;
#X msg 144 363 set;
#X obj 264 19 inlet;
#X obj 280 606 outlet;
#X connect 0 0 2 0;
#X connect 2 0 3 0;
#X connect 3 0 5 0;
#X connect 5 0 7 0;
#X connect 5 0 10 1;
#X connect 5 0 0 1;
#X connect 6 0 0 0;
#X connect 6 1 2 1;
#X connect 7 0 9 0;
#X connect 8 0 6 0;
#X connect 8 1 3 1;
#X connect 9 0 22 0;
#X connect 10 0 12 0;
#X connect 12 0 10 1;
#X connect 12 0 19 0;
#X connect 13 0 10 0;
#X connect 13 1 12 1;
#X connect 14 0 13 0;
#X connect 15 0 10 1;
#X connect 15 0 0 1;
#X connect 15 0 20 0;
#X connect 17 0 15 0;
#X connect 18 0 14 0;
#X connect 18 1 8 0;
#X connect 19 0 20 0;
#X connect 19 1 5 0;
#X connect 20 0 22 0;
#X connect 21 0 18 0;
#X restore 2624 498 pd button;
#N canvas 2454 223 905 736 button 0;
#X obj 356 233 list store;
#X text 311 268 check for item to remove;
#X obj 356 290 list-remove;
#X obj 356 365 list append;
#X text 449 359 append item;
#X obj 356 424 cyclone/zl sort;
#X obj 356 183 t b a;
#X obj 356 472 list prepend set;
#X obj 355 156 t a a;
#X obj 357 505 route list;
#X obj 144 231 list store;
#X text 99 266 check for item to remove;
#X obj 144 288 list-remove;
#X obj 144 181 t b a;
#X obj 143 154 t a a;
#X obj 258 179 bng 19 250 50 0 empty empty empty 0 -10 0 12 #fcfcfc #000000 #000000;
#X text 286 181 init;
#X obj 257 147 loadbang;
#X obj 263 108 route 0 1;
#X obj 144 339 route bang;
#X msg 144 363 set;
#X obj 264 19 inlet;
#X obj 280 606 outlet;
#X connect 0 0 2 0;
#X connect 2 0 3 0;
#X connect 3 0 5 0;
#X connect 5 0 7 0;
#X connect 5 0 10 1;
#X connect 5 0 0 1;
#X connect 6 0 0 0;
#X connect 6 1 2 1;
#X connect 7 0 9 0;
#X connect 8 0 6 0;
#X connect 8 1 3 1;
#X connect 9 0 22 0;
#X connect 10 0 12 0;
#X connect 12 0 10 1;
#X connect 12 0 19 0;
#X connect 13 0 10 0;
#X connect 13 1 12 1;
#X connect 14 0 13 0;
#X connect 15 0 10 1;
#X connect 15 0 0 1;
#X connect 15 0 20 0;
#X connect 17 0 15 0;
#X connect 18 0 14 0;
#X connect 18 1 8 0;
#X connect 19 0 20 0;
#X connect 19 1 5 0;
#X connect 20 0 22 0;
#X connect 21 0 18 0;
#X restore 2702 498 pd button;
#N canvas 2454 223 905 736 button 0;
#X obj 356 233 list store;
#X text 311 268 check for item to remove;
#X obj 356 290 list-remove;
#X obj 356 365 list append;
#X text 449 359 append item;
#X obj 356 424 cyclone/zl sort;
#X obj 356 183 t b a;
#X obj 356 472 list prepend set;
#X obj 355 156 t a a;
#X obj 357 505 route list;
#X obj 144 231 list store;
#X text 99 266 check for item to remove;
#X obj 144 288 list-remove;
#X obj 144 181 t b a;
#X obj 143 154 t a a;
#X obj 258 179 bng 19 250 50 0 empty empty empty 0 -10 0 12 #fcfcfc #000000 #000000;
#X text 286 181 init;
#X obj 257 147 loadbang;
#X obj 263 108 route 0 1;
#X obj 144 339 route bang;
#X msg 144 363 set;
#X obj 264 19 inlet;
#X obj 280 606 outlet;
#X connect 0 0 2 0;
#X connect 2 0 3 0;
#X connect 3 0 5 0;
#X connect 5 0 7 0;
#X connect 5 0 10 1;
#X connect 5 0 0 1;
#X connect 6 0 0 0;
#X connect 6 1 2 1;
#X connect 7 0 9 0;
#X connect 8 0 6 0;
#X connect 8 1 3 1;
#X connect 9 0 22 0;
#X connect 10 0 12 0;
#X connect 12 0 10 1;
#X connect 12 0 19 0;
#X connect 13 0 10 0;
#X connect 13 1 12 1;
#X connect 14 0 13 0;
#X connect 15 0 10 1;
#X connect 15 0 0 1;
#X connect 15 0 20 0;
#X connect 17 0 15 0;
#X connect 18 0 14 0;
#X connect 18 1 8 0;
#X connect 19 0 20 0;
#X connect 19 1 5 0;
#X connect 20 0 22 0;
#X connect 21 0 18 0;
#X restore 2782 498 pd button;
#N canvas 2454 223 905 736 button 0;
#X obj 356 233 list store;
#X text 311 268 check for item to remove;
#X obj 356 290 list-remove;
#X obj 356 365 list append;
#X text 449 359 append item;
#X obj 356 424 cyclone/zl sort;
#X obj 356 183 t b a;
#X obj 356 472 list prepend set;
#X obj 355 156 t a a;
#X obj 357 505 route list;
#X obj 144 231 list store;
#X text 99 266 check for item to remove;
#X obj 144 288 list-remove;
#X obj 144 181 t b a;
#X obj 143 154 t a a;
#X obj 258 179 bng 19 250 50 0 empty empty empty 0 -10 0 12 #fcfcfc #000000 #000000;
#X text 286 181 init;
#X obj 257 147 loadbang;
#X obj 263 108 route 0 1;
#X obj 144 339 route bang;
#X msg 144 363 set;
#X obj 264 19 inlet;
#X obj 280 606 outlet;
#X connect 0 0 2 0;
#X connect 2 0 3 0;
#X connect 3 0 5 0;
#X connect 5 0 7 0;
#X connect 5 0 10 1;
#X connect 5 0 0 1;
#X connect 6 0 0 0;
#X connect 6 1 2 1;
#X connect 7 0 9 0;
#X connect 8 0 6 0;
#X connect 8 1 3 1;
#X connect 9 0 22 0;
#X connect 10 0 12 0;
#X connect 12 0 10 1;
#X connect 12 0 19 0;
#X connect 13 0 10 0;
#X connect 13 1 12 1;
#X connect 14 0 13 0;
#X connect 15 0 10 1;
#X connect 15 0 0 1;
#X connect 15 0 20 0;
#X connect 17 0 15 0;
#X connect 18 0 14 0;
#X connect 18 1 8 0;
#X connect 19 0 20 0;
#X connect 19 1 5 0;
#X connect 20 0 22 0;
#X connect 21 0 18 0;
#X restore 2860 498 pd button;
#N canvas 2454 223 905 736 button 0;
#X obj 356 233 list store;
#X text 311 268 check for item to remove;
#X obj 356 290 list-remove;
#X obj 356 365 list append;
#X text 449 359 append item;
#X obj 356 424 cyclone/zl sort;
#X obj 356 183 t b a;
#X obj 356 472 list prepend set;
#X obj 355 156 t a a;
#X obj 357 505 route list;
#X obj 144 231 list store;
#X text 99 266 check for item to remove;
#X obj 144 288 list-remove;
#X obj 144 181 t b a;
#X obj 143 154 t a a;
#X obj 258 179 bng 19 250 50 0 empty empty empty 0 -10 0 12 #fcfcfc #000000 #000000;
#X text 286 181 init;
#X obj 257 147 loadbang;
#X obj 263 108 route 0 1;
#X obj 144 339 route bang;
#X msg 144 363 set;
#X obj 264 19 inlet;
#X obj 280 606 outlet;
#X connect 0 0 2 0;
#X connect 2 0 3 0;
#X connect 3 0 5 0;
#X connect 5 0 7 0;
#X connect 5 0 10 1;
#X connect 5 0 0 1;
#X connect 6 0 0 0;
#X connect 6 1 2 1;
#X connect 7 0 9 0;
#X connect 8 0 6 0;
#X connect 8 1 3 1;
#X connect 9 0 22 0;
#X connect 10 0 12 0;
#X connect 12 0 10 1;
#X connect 12 0 19 0;
#X connect 13 0 10 0;
#X connect 13 1 12 1;
#X connect 14 0 13 0;
#X connect 15 0 10 1;
#X connect 15 0 0 1;
#X connect 15 0 20 0;
#X connect 17 0 15 0;
#X connect 18 0 14 0;
#X connect 18 1 8 0;
#X connect 19 0 20 0;
#X connect 19 1 5 0;
#X connect 20 0 22 0;
#X connect 21 0 18 0;
#X restore 2937 498 pd button;
#X obj 3013 479 route 104 105 106 107 108 109 110 111 112;
#X listbox 2078 517 4 0 0 0 - - - 0;
#X listbox 2134 517 4 0 0 0 - - - 0;
#X listbox 2197 517 4 0 0 0 - - - 0;
#X listbox 2265 517 4 0 0 0 - - - 0;
#X listbox 1774 539 4 0 0 0 - - - 0;
#X listbox 1833 539 4 0 0 0 - - - 0;
#X listbox 1897 539 4 0 0 0 - - - 0;
#X listbox 1955 539 4 0 0 0 - - - 0;
#X listbox 2018 539 4 0 0 0 - - - 0;
#N canvas 2454 223 905 708 button 0;
#X obj 356 233 list store;
#X text 311 268 check for item to remove;
#X obj 356 290 list-remove;
#X obj 356 365 list append;
#X text 449 359 append item;
#X obj 356 424 cyclone/zl sort;
#X obj 356 183 t b a;
#X obj 356 472 list prepend set;
#X obj 355 156 t a a;
#X obj 357 505 route list;
#X obj 144 231 list store;
#X text 99 266 check for item to remove;
#X obj 144 288 list-remove;
#X obj 144 181 t b a;
#X obj 143 154 t a a;
#X obj 258 179 bng 19 250 50 0 empty empty empty 0 -10 0 12 #fcfcfc #000000 #000000;
#X text 286 181 init;
#X obj 257 147 loadbang;
#X obj 263 108 route 0 1;
#X obj 144 339 route bang;
#X msg 144 363 set;
#X obj 264 19 inlet;
#X obj 280 606 outlet;
#X connect 0 0 2 0;
#X connect 2 0 3 0;
#X connect 3 0 5 0;
#X connect 5 0 7 0;
#X connect 5 0 10 1;
#X connect 5 0 0 1;
#X connect 6 0 0 0;
#X connect 6 1 2 1;
#X connect 7 0 9 0;
#X connect 8 0 6 0;
#X connect 8 1 3 1;
#X connect 9 0 22 0;
#X connect 10 0 12 0;
#X connect 12 0 10 1;
#X connect 12 0 19 0;
#X connect 13 0 10 0;
#X connect 13 1 12 1;
#X connect 14 0 13 0;
#X connect 15 0 10 1;
#X connect 15 0 0 1;
#X connect 15 0 20 0;
#X connect 17 0 15 0;
#X connect 18 0 14 0;
#X connect 18 1 8 0;
#X connect 19 0 20 0;
#X connect 19 1 5 0;
#X connect 20 0 22 0;
#X connect 21 0 18 0;
#X restore 2315 520 pd button;
#N canvas 2454 223 905 736 button 0;
#X obj 356 233 list store;
#X text 311 268 check for item to remove;
#X obj 356 290 list-remove;
#X obj 356 365 list append;
#X text 449 359 append item;
#X obj 356 424 cyclone/zl sort;
#X obj 356 183 t b a;
#X obj 356 472 list prepend set;
#X obj 355 156 t a a;
#X obj 357 505 route list;
#X obj 144 231 list store;
#X text 99 266 check for item to remove;
#X obj 144 288 list-remove;
#X obj 144 181 t b a;
#X obj 143 154 t a a;
#X obj 258 179 bng 19 250 50 0 empty empty empty 0 -10 0 12 #fcfcfc #000000 #000000;
#X text 286 181 init;
#X obj 257 147 loadbang;
#X obj 263 108 route 0 1;
#X obj 144 339 route bang;
#X msg 144 363 set;
#X obj 264 19 inlet;
#X obj 280 606 outlet;
#X connect 0 0 2 0;
#X connect 2 0 3 0;
#X connect 3 0 5 0;
#X connect 5 0 7 0;
#X connect 5 0 10 1;
#X connect 5 0 0 1;
#X connect 6 0 0 0;
#X connect 6 1 2 1;
#X connect 7 0 9 0;
#X connect 8 0 6 0;
#X connect 8 1 3 1;
#X connect 9 0 22 0;
#X connect 10 0 12 0;
#X connect 12 0 10 1;
#X connect 12 0 19 0;
#X connect 13 0 10 0;
#X connect 13 1 12 1;
#X connect 14 0 13 0;
#X connect 15 0 10 1;
#X connect 15 0 0 1;
#X connect 15 0 20 0;
#X connect 17 0 15 0;
#X connect 18 0 14 0;
#X connect 18 1 8 0;
#X connect 19 0 20 0;
#X connect 19 1 5 0;
#X connect 20 0 22 0;
#X connect 21 0 18 0;
#X restore 2393 520 pd button;
#N canvas 2454 223 905 736 button 0;
#X obj 356 233 list store;
#X text 311 268 check for item to remove;
#X obj 356 290 list-remove;
#X obj 356 365 list append;
#X text 449 359 append item;
#X obj 356 424 cyclone/zl sort;
#X obj 356 183 t b a;
#X obj 356 472 list prepend set;
#X obj 355 156 t a a;
#X obj 357 505 route list;
#X obj 144 231 list store;
#X text 99 266 check for item to remove;
#X obj 144 288 list-remove;
#X obj 144 181 t b a;
#X obj 143 154 t a a;
#X obj 258 179 bng 19 250 50 0 empty empty empty 0 -10 0 12 #fcfcfc #000000 #000000;
#X text 286 181 init;
#X obj 257 147 loadbang;
#X obj 263 108 route 0 1;
#X obj 144 339 route bang;
#X msg 144 363 set;
#X obj 264 19 inlet;
#X obj 280 606 outlet;
#X connect 0 0 2 0;
#X connect 2 0 3 0;
#X connect 3 0 5 0;
#X connect 5 0 7 0;
#X connect 5 0 10 1;
#X connect 5 0 0 1;
#X connect 6 0 0 0;
#X connect 6 1 2 1;
#X connect 7 0 9 0;
#X connect 8 0 6 0;
#X connect 8 1 3 1;
#X connect 9 0 22 0;
#X connect 10 0 12 0;
#X connect 12 0 10 1;
#X connect 12 0 19 0;
#X connect 13 0 10 0;
#X connect 13 1 12 1;
#X connect 14 0 13 0;
#X connect 15 0 10 1;
#X connect 15 0 0 1;
#X connect 15 0 20 0;
#X connect 17 0 15 0;
#X connect 18 0 14 0;
#X connect 18 1 8 0;
#X connect 19 0 20 0;
#X connect 19 1 5 0;
#X connect 20 0 22 0;
#X connect 21 0 18 0;
#X restore 2473 520 pd button;
#N canvas 2454 223 905 736 button 0;
#X obj 356 233 list store;
#X text 311 268 check for item to remove;
#X obj 356 290 list-remove;
#X obj 356 365 list append;
#X text 449 359 append item;
#X obj 356 424 cyclone/zl sort;
#X obj 356 183 t b a;
#X obj 356 472 list prepend set;
#X obj 355 156 t a a;
#X obj 357 505 route list;
#X obj 144 231 list store;
#X text 99 266 check for item to remove;
#X obj 144 288 list-remove;
#X obj 144 181 t b a;
#X obj 143 154 t a a;
#X obj 258 179 bng 19 250 50 0 empty empty empty 0 -10 0 12 #fcfcfc #000000 #000000;
#X text 286 181 init;
#X obj 257 147 loadbang;
#X obj 263 108 route 0 1;
#X obj 144 339 route bang;
#X msg 144 363 set;
#X obj 264 19 inlet;
#X obj 280 606 outlet;
#X connect 0 0 2 0;
#X connect 2 0 3 0;
#X connect 3 0 5 0;
#X connect 5 0 7 0;
#X connect 5 0 10 1;
#X connect 5 0 0 1;
#X connect 6 0 0 0;
#X connect 6 1 2 1;
#X connect 7 0 9 0;
#X connect 8 0 6 0;
#X connect 8 1 3 1;
#X connect 9 0 22 0;
#X connect 10 0 12 0;
#X connect 12 0 10 1;
#X connect 12 0 19 0;
#X connect 13 0 10 0;
#X connect 13 1 12 1;
#X connect 14 0 13 0;
#X connect 15 0 10 1;
#X connect 15 0 0 1;
#X connect 15 0 20 0;
#X connect 17 0 15 0;
#X connect 18 0 14 0;
#X connect 18 1 8 0;
#X connect 19 0 20 0;
#X connect 19 1 5 0;
#X connect 20 0 22 0;
#X connect 21 0 18 0;
#X restore 2551 520 pd button;
#N canvas 2454 223 905 736 button 0;
#X obj 356 233 list store;
#X text 311 268 check for item to remove;
#X obj 356 290 list-remove;
#X obj 356 365 list append;
#X text 449 359 append item;
#X obj 356 424 cyclone/zl sort;
#X obj 356 183 t b a;
#X obj 356 472 list prepend set;
#X obj 355 156 t a a;
#X obj 357 505 route list;
#X obj 144 231 list store;
#X text 99 266 check for item to remove;
#X obj 144 288 list-remove;
#X obj 144 181 t b a;
#X obj 143 154 t a a;
#X obj 258 179 bng 19 250 50 0 empty empty empty 0 -10 0 12 #fcfcfc #000000 #000000;
#X text 286 181 init;
#X obj 257 147 loadbang;
#X obj 263 108 route 0 1;
#X obj 144 339 route bang;
#X msg 144 363 set;
#X obj 264 19 inlet;
#X obj 280 606 outlet;
#X connect 0 0 2 0;
#X connect 2 0 3 0;
#X connect 3 0 5 0;
#X connect 5 0 7 0;
#X connect 5 0 10 1;
#X connect 5 0 0 1;
#X connect 6 0 0 0;
#X connect 6 1 2 1;
#X connect 7 0 9 0;
#X connect 8 0 6 0;
#X connect 8 1 3 1;
#X connect 9 0 22 0;
#X connect 10 0 12 0;
#X connect 12 0 10 1;
#X connect 12 0 19 0;
#X connect 13 0 10 0;
#X connect 13 1 12 1;
#X connect 14 0 13 0;
#X connect 15 0 10 1;
#X connect 15 0 0 1;
#X connect 15 0 20 0;
#X connect 17 0 15 0;
#X connect 18 0 14 0;
#X connect 18 1 8 0;
#X connect 19 0 20 0;
#X connect 19 1 5 0;
#X connect 20 0 22 0;
#X connect 21 0 18 0;
#X restore 2624 520 pd button;
#N canvas 2454 223 905 736 button 0;
#X obj 356 233 list store;
#X text 311 268 check for item to remove;
#X obj 356 290 list-remove;
#X obj 356 365 list append;
#X text 449 359 append item;
#X obj 356 424 cyclone/zl sort;
#X obj 356 183 t b a;
#X obj 356 472 list prepend set;
#X obj 355 156 t a a;
#X obj 357 505 route list;
#X obj 144 231 list store;
#X text 99 266 check for item to remove;
#X obj 144 288 list-remove;
#X obj 144 181 t b a;
#X obj 143 154 t a a;
#X obj 258 179 bng 19 250 50 0 empty empty empty 0 -10 0 12 #fcfcfc #000000 #000000;
#X text 286 181 init;
#X obj 257 147 loadbang;
#X obj 263 108 route 0 1;
#X obj 144 339 route bang;
#X msg 144 363 set;
#X obj 264 19 inlet;
#X obj 280 606 outlet;
#X connect 0 0 2 0;
#X connect 2 0 3 0;
#X connect 3 0 5 0;
#X connect 5 0 7 0;
#X connect 5 0 10 1;
#X connect 5 0 0 1;
#X connect 6 0 0 0;
#X connect 6 1 2 1;
#X connect 7 0 9 0;
#X connect 8 0 6 0;
#X connect 8 1 3 1;
#X connect 9 0 22 0;
#X connect 10 0 12 0;
#X connect 12 0 10 1;
#X connect 12 0 19 0;
#X connect 13 0 10 0;
#X connect 13 1 12 1;
#X connect 14 0 13 0;
#X connect 15 0 10 1;
#X connect 15 0 0 1;
#X connect 15 0 20 0;
#X connect 17 0 15 0;
#X connect 18 0 14 0;
#X connect 18 1 8 0;
#X connect 19 0 20 0;
#X connect 19 1 5 0;
#X connect 20 0 22 0;
#X connect 21 0 18 0;
#X restore 2702 520 pd button;
#N canvas 2454 223 905 736 button 0;
#X obj 356 233 list store;
#X text 311 268 check for item to remove;
#X obj 356 290 list-remove;
#X obj 356 365 list append;
#X text 449 359 append item;
#X obj 356 424 cyclone/zl sort;
#X obj 356 183 t b a;
#X obj 356 472 list prepend set;
#X obj 355 156 t a a;
#X obj 357 505 route list;
#X obj 144 231 list store;
#X text 99 266 check for item to remove;
#X obj 144 288 list-remove;
#X obj 144 181 t b a;
#X obj 143 154 t a a;
#X obj 258 179 bng 19 250 50 0 empty empty empty 0 -10 0 12 #fcfcfc #000000 #000000;
#X text 286 181 init;
#X obj 257 147 loadbang;
#X obj 263 108 route 0 1;
#X obj 144 339 route bang;
#X msg 144 363 set;
#X obj 264 19 inlet;
#X obj 280 606 outlet;
#X connect 0 0 2 0;
#X connect 2 0 3 0;
#X connect 3 0 5 0;
#X connect 5 0 7 0;
#X connect 5 0 10 1;
#X connect 5 0 0 1;
#X connect 6 0 0 0;
#X connect 6 1 2 1;
#X connect 7 0 9 0;
#X connect 8 0 6 0;
#X connect 8 1 3 1;
#X connect 9 0 22 0;
#X connect 10 0 12 0;
#X connect 12 0 10 1;
#X connect 12 0 19 0;
#X connect 13 0 10 0;
#X connect 13 1 12 1;
#X connect 14 0 13 0;
#X connect 15 0 10 1;
#X connect 15 0 0 1;
#X connect 15 0 20 0;
#X connect 17 0 15 0;
#X connect 18 0 14 0;
#X connect 18 1 8 0;
#X connect 19 0 20 0;
#X connect 19 1 5 0;
#X connect 20 0 22 0;
#X connect 21 0 18 0;
#X restore 2782 520 pd button;
#N canvas 2454 223 905 736 button 0;
#X obj 356 233 list store;
#X text 311 268 check for item to remove;
#X obj 356 290 list-remove;
#X obj 356 365 list append;
#X text 449 359 append item;
#X obj 356 424 cyclone/zl sort;
#X obj 356 183 t b a;
#X obj 356 472 list prepend set;
#X obj 355 156 t a a;
#X obj 357 505 route list;
#X obj 144 231 list store;
#X text 99 266 check for item to remove;
#X obj 144 288 list-remove;
#X obj 144 181 t b a;
#X obj 143 154 t a a;
#X obj 258 179 bng 19 250 50 0 empty empty empty 0 -10 0 12 #fcfcfc #000000 #000000;
#X text 286 181 init;
#X obj 257 147 loadbang;
#X obj 263 108 route 0 1;
#X obj 144 339 route bang;
#X msg 144 363 set;
#X obj 264 19 inlet;
#X obj 280 606 outlet;
#X connect 0 0 2 0;
#X connect 2 0 3 0;
#X connect 3 0 5 0;
#X connect 5 0 7 0;
#X connect 5 0 10 1;
#X connect 5 0 0 1;
#X connect 6 0 0 0;
#X connect 6 1 2 1;
#X connect 7 0 9 0;
#X connect 8 0 6 0;
#X connect 8 1 3 1;
#X connect 9 0 22 0;
#X connect 10 0 12 0;
#X connect 12 0 10 1;
#X connect 12 0 19 0;
#X connect 13 0 10 0;
#X connect 13 1 12 1;
#X connect 14 0 13 0;
#X connect 15 0 10 1;
#X connect 15 0 0 1;
#X connect 15 0 20 0;
#X connect 17 0 15 0;
#X connect 18 0 14 0;
#X connect 18 1 8 0;
#X connect 19 0 20 0;
#X connect 19 1 5 0;
#X connect 20 0 22 0;
#X connect 21 0 18 0;
#X restore 2860 520 pd button;
#X listbox 2078 539 4 0 0 0 - - - 0;
#X listbox 2134 539 4 0 0 0 - - - 0;
#X listbox 2197 539 4 0 0 0 - - - 0;
#X listbox 1774 561 4 0 0 0 - - - 0;
#X listbox 1833 561 4 0 0 0 - - - 0;
#X listbox 1897 561 4 0 0 0 - - - 0;
#X listbox 1955 561 4 0 0 0 - - - 0;
#X listbox 2018 561 4 0 0 0 - - - 0;
#N canvas 2454 223 905 708 button 0;
#X obj 356 233 list store;
#X text 311 268 check for item to remove;
#X obj 356 290 list-remove;
#X obj 356 365 list append;
#X text 449 359 append item;
#X obj 356 424 cyclone/zl sort;
#X obj 356 183 t b a;
#X obj 356 472 list prepend set;
#X obj 355 156 t a a;
#X obj 357 505 route list;
#X obj 144 231 list store;
#X text 99 266 check for item to remove;
#X obj 144 288 list-remove;
#X obj 144 181 t b a;
#X obj 143 154 t a a;
#X obj 258 179 bng 19 250 50 0 empty empty empty 0 -10 0 12 #fcfcfc #000000 #000000;
#X text 286 181 init;
#X obj 257 147 loadbang;
#X obj 263 108 route 0 1;
#X obj 144 339 route bang;
#X msg 144 363 set;
#X obj 264 19 inlet;
#X obj 280 606 outlet;
#X connect 0 0 2 0;
#X connect 2 0 3 0;
#X connect 3 0 5 0;
#X connect 5 0 7 0;
#X connect 5 0 10 1;
#X connect 5 0 0 1;
#X connect 6 0 0 0;
#X connect 6 1 2 1;
#X connect 7 0 9 0;
#X connect 8 0 6 0;
#X connect 8 1 3 1;
#X connect 9 0 22 0;
#X connect 10 0 12 0;
#X connect 12 0 10 1;
#X connect 12 0 19 0;
#X connect 13 0 10 0;
#X connect 13 1 12 1;
#X connect 14 0 13 0;
#X connect 15 0 10 1;
#X connect 15 0 0 1;
#X connect 15 0 20 0;
#X connect 17 0 15 0;
#X connect 18 0 14 0;
#X connect 18 1 8 0;
#X connect 19 0 20 0;
#X connect 19 1 5 0;
#X connect 20 0 22 0;
#X connect 21 0 18 0;
#X restore 2315 542 pd button;
#N canvas 2454 223 905 736 button 0;
#X obj 356 233 list store;
#X text 311 268 check for item to remove;
#X obj 356 290 list-remove;
#X obj 356 365 list append;
#X text 449 359 append item;
#X obj 356 424 cyclone/zl sort;
#X obj 356 183 t b a;
#X obj 356 472 list prepend set;
#X obj 355 156 t a a;
#X obj 357 505 route list;
#X obj 144 231 list store;
#X text 99 266 check for item to remove;
#X obj 144 288 list-remove;
#X obj 144 181 t b a;
#X obj 143 154 t a a;
#X obj 258 179 bng 19 250 50 0 empty empty empty 0 -10 0 12 #fcfcfc #000000 #000000;
#X text 286 181 init;
#X obj 257 147 loadbang;
#X obj 263 108 route 0 1;
#X obj 144 339 route bang;
#X msg 144 363 set;
#X obj 264 19 inlet;
#X obj 280 606 outlet;
#X connect 0 0 2 0;
#X connect 2 0 3 0;
#X connect 3 0 5 0;
#X connect 5 0 7 0;
#X connect 5 0 10 1;
#X connect 5 0 0 1;
#X connect 6 0 0 0;
#X connect 6 1 2 1;
#X connect 7 0 9 0;
#X connect 8 0 6 0;
#X connect 8 1 3 1;
#X connect 9 0 22 0;
#X connect 10 0 12 0;
#X connect 12 0 10 1;
#X connect 12 0 19 0;
#X connect 13 0 10 0;
#X connect 13 1 12 1;
#X connect 14 0 13 0;
#X connect 15 0 10 1;
#X connect 15 0 0 1;
#X connect 15 0 20 0;
#X connect 17 0 15 0;
#X connect 18 0 14 0;
#X connect 18 1 8 0;
#X connect 19 0 20 0;
#X connect 19 1 5 0;
#X connect 20 0 22 0;
#X connect 21 0 18 0;
#X restore 2393 542 pd button;
#N canvas 2454 223 905 736 button 0;
#X obj 356 233 list store;
#X text 311 268 check for item to remove;
#X obj 356 290 list-remove;
#X obj 356 365 list append;
#X text 449 359 append item;
#X obj 356 424 cyclone/zl sort;
#X obj 356 183 t b a;
#X obj 356 472 list prepend set;
#X obj 355 156 t a a;
#X obj 357 505 route list;
#X obj 144 231 list store;
#X text 99 266 check for item to remove;
#X obj 144 288 list-remove;
#X obj 144 181 t b a;
#X obj 143 154 t a a;
#X obj 258 179 bng 19 250 50 0 empty empty empty 0 -10 0 12 #fcfcfc #000000 #000000;
#X text 286 181 init;
#X obj 257 147 loadbang;
#X obj 263 108 route 0 1;
#X obj 144 339 route bang;
#X msg 144 363 set;
#X obj 264 19 inlet;
#X obj 280 606 outlet;
#X connect 0 0 2 0;
#X connect 2 0 3 0;
#X connect 3 0 5 0;
#X connect 5 0 7 0;
#X connect 5 0 10 1;
#X connect 5 0 0 1;
#X connect 6 0 0 0;
#X connect 6 1 2 1;
#X connect 7 0 9 0;
#X connect 8 0 6 0;
#X connect 8 1 3 1;
#X connect 9 0 22 0;
#X connect 10 0 12 0;
#X connect 12 0 10 1;
#X connect 12 0 19 0;
#X connect 13 0 10 0;
#X connect 13 1 12 1;
#X connect 14 0 13 0;
#X connect 15 0 10 1;
#X connect 15 0 0 1;
#X connect 15 0 20 0;
#X connect 17 0 15 0;
#X connect 18 0 14 0;
#X connect 18 1 8 0;
#X connect 19 0 20 0;
#X connect 19 1 5 0;
#X connect 20 0 22 0;
#X connect 21 0 18 0;
#X restore 2473 542 pd button;
#N canvas 2454 223 905 736 button 0;
#X obj 356 233 list store;
#X text 311 268 check for item to remove;
#X obj 356 290 list-remove;
#X obj 356 365 list append;
#X text 449 359 append item;
#X obj 356 424 cyclone/zl sort;
#X obj 356 183 t b a;
#X obj 356 472 list prepend set;
#X obj 355 156 t a a;
#X obj 357 505 route list;
#X obj 144 231 list store;
#X text 99 266 check for item to remove;
#X obj 144 288 list-remove;
#X obj 144 181 t b a;
#X obj 143 154 t a a;
#X obj 258 179 bng 19 250 50 0 empty empty empty 0 -10 0 12 #fcfcfc #000000 #000000;
#X text 286 181 init;
#X obj 257 147 loadbang;
#X obj 263 108 route 0 1;
#X obj 144 339 route bang;
#X msg 144 363 set;
#X obj 264 19 inlet;
#X obj 280 606 outlet;
#X connect 0 0 2 0;
#X connect 2 0 3 0;
#X connect 3 0 5 0;
#X connect 5 0 7 0;
#X connect 5 0 10 1;
#X connect 5 0 0 1;
#X connect 6 0 0 0;
#X connect 6 1 2 1;
#X connect 7 0 9 0;
#X connect 8 0 6 0;
#X connect 8 1 3 1;
#X connect 9 0 22 0;
#X connect 10 0 12 0;
#X connect 12 0 10 1;
#X connect 12 0 19 0;
#X connect 13 0 10 0;
#X connect 13 1 12 1;
#X connect 14 0 13 0;
#X connect 15 0 10 1;
#X connect 15 0 0 1;
#X connect 15 0 20 0;
#X connect 17 0 15 0;
#X connect 18 0 14 0;
#X connect 18 1 8 0;
#X connect 19 0 20 0;
#X connect 19 1 5 0;
#X connect 20 0 22 0;
#X connect 21 0 18 0;
#X restore 2551 542 pd button;
#N canvas 2454 223 905 736 button 0;
#X obj 356 233 list store;
#X text 311 268 check for item to remove;
#X obj 356 290 list-remove;
#X obj 356 365 list append;
#X text 449 359 append item;
#X obj 356 424 cyclone/zl sort;
#X obj 356 183 t b a;
#X obj 356 472 list prepend set;
#X obj 355 156 t a a;
#X obj 357 505 route list;
#X obj 144 231 list store;
#X text 99 266 check for item to remove;
#X obj 144 288 list-remove;
#X obj 144 181 t b a;
#X obj 143 154 t a a;
#X obj 258 179 bng 19 250 50 0 empty empty empty 0 -10 0 12 #fcfcfc #000000 #000000;
#X text 286 181 init;
#X obj 257 147 loadbang;
#X obj 263 108 route 0 1;
#X obj 144 339 route bang;
#X msg 144 363 set;
#X obj 264 19 inlet;
#X obj 280 606 outlet;
#X connect 0 0 2 0;
#X connect 2 0 3 0;
#X connect 3 0 5 0;
#X connect 5 0 7 0;
#X connect 5 0 10 1;
#X connect 5 0 0 1;
#X connect 6 0 0 0;
#X connect 6 1 2 1;
#X connect 7 0 9 0;
#X connect 8 0 6 0;
#X connect 8 1 3 1;
#X connect 9 0 22 0;
#X connect 10 0 12 0;
#X connect 12 0 10 1;
#X connect 12 0 19 0;
#X connect 13 0 10 0;
#X connect 13 1 12 1;
#X connect 14 0 13 0;
#X connect 15 0 10 1;
#X connect 15 0 0 1;
#X connect 15 0 20 0;
#X connect 17 0 15 0;
#X connect 18 0 14 0;
#X connect 18 1 8 0;
#X connect 19 0 20 0;
#X connect 19 1 5 0;
#X connect 20 0 22 0;
#X connect 21 0 18 0;
#X restore 2624 542 pd button;
#N canvas 2454 223 905 736 button 0;
#X obj 356 233 list store;
#X text 311 268 check for item to remove;
#X obj 356 290 list-remove;
#X obj 356 365 list append;
#X text 449 359 append item;
#X obj 356 424 cyclone/zl sort;
#X obj 356 183 t b a;
#X obj 356 472 list prepend set;
#X obj 355 156 t a a;
#X obj 357 505 route list;
#X obj 144 231 list store;
#X text 99 266 check for item to remove;
#X obj 144 288 list-remove;
#X obj 144 181 t b a;
#X obj 143 154 t a a;
#X obj 258 179 bng 19 250 50 0 empty empty empty 0 -10 0 12 #fcfcfc #000000 #000000;
#X text 286 181 init;
#X obj 257 147 loadbang;
#X obj 263 108 route 0 1;
#X obj 144 339 route bang;
#X msg 144 363 set;
#X obj 264 19 inlet;
#X obj 280 606 outlet;
#X connect 0 0 2 0;
#X connect 2 0 3 0;
#X connect 3 0 5 0;
#X connect 5 0 7 0;
#X connect 5 0 10 1;
#X connect 5 0 0 1;
#X connect 6 0 0 0;
#X connect 6 1 2 1;
#X connect 7 0 9 0;
#X connect 8 0 6 0;
#X connect 8 1 3 1;
#X connect 9 0 22 0;
#X connect 10 0 12 0;
#X connect 12 0 10 1;
#X connect 12 0 19 0;
#X connect 13 0 10 0;
#X connect 13 1 12 1;
#X connect 14 0 13 0;
#X connect 15 0 10 1;
#X connect 15 0 0 1;
#X connect 15 0 20 0;
#X connect 17 0 15 0;
#X connect 18 0 14 0;
#X connect 18 1 8 0;
#X connect 19 0 20 0;
#X connect 19 1 5 0;
#X connect 20 0 22 0;
#X connect 21 0 18 0;
#X restore 2702 542 pd button;
#N canvas 2454 223 905 736 button 0;
#X obj 356 233 list store;
#X text 311 268 check for item to remove;
#X obj 356 290 list-remove;
#X obj 356 365 list append;
#X text 449 359 append item;
#X obj 356 424 cyclone/zl sort;
#X obj 356 183 t b a;
#X obj 356 472 list prepend set;
#X obj 355 156 t a a;
#X obj 357 505 route list;
#X obj 144 231 list store;
#X text 99 266 check for item to remove;
#X obj 144 288 list-remove;
#X obj 144 181 t b a;
#X obj 143 154 t a a;
#X obj 258 179 bng 19 250 50 0 empty empty empty 0 -10 0 12 #fcfcfc #000000 #000000;
#X text 286 181 init;
#X obj 257 147 loadbang;
#X obj 263 108 route 0 1;
#X obj 144 339 route bang;
#X msg 144 363 set;
#X obj 264 19 inlet;
#X obj 280 606 outlet;
#X connect 0 0 2 0;
#X connect 2 0 3 0;
#X connect 3 0 5 0;
#X connect 5 0 7 0;
#X connect 5 0 10 1;
#X connect 5 0 0 1;
#X connect 6 0 0 0;
#X connect 6 1 2 1;
#X connect 7 0 9 0;
#X connect 8 0 6 0;
#X connect 8 1 3 1;
#X connect 9 0 22 0;
#X connect 10 0 12 0;
#X connect 12 0 10 1;
#X connect 12 0 19 0;
#X connect 13 0 10 0;
#X connect 13 1 12 1;
#X connect 14 0 13 0;
#X connect 15 0 10 1;
#X connect 15 0 0 1;
#X connect 15 0 20 0;
#X connect 17 0 15 0;
#X connect 18 0 14 0;
#X connect 18 1 8 0;
#X connect 19 0 20 0;
#X connect 19 1 5 0;
#X connect 20 0 22 0;
#X connect 21 0 18 0;
#X restore 2782 542 pd button;
#N canvas 2454 223 905 736 button 0;
#X obj 356 233 list store;
#X text 311 268 check for item to remove;
#X obj 356 290 list-remove;
#X obj 356 365 list append;
#X text 449 359 append item;
#X obj 356 424 cyclone/zl sort;
#X obj 356 183 t b a;
#X obj 356 472 list prepend set;
#X obj 355 156 t a a;
#X obj 357 505 route list;
#X obj 144 231 list store;
#X text 99 266 check for item to remove;
#X obj 144 288 list-remove;
#X obj 144 181 t b a;
#X obj 143 154 t a a;
#X obj 258 179 bng 19 250 50 0 empty empty empty 0 -10 0 12 #fcfcfc #000000 #000000;
#X text 286 181 init;
#X obj 257 147 loadbang;
#X obj 263 108 route 0 1;
#X obj 144 339 route bang;
#X msg 144 363 set;
#X obj 264 19 inlet;
#X obj 280 606 outlet;
#X connect 0 0 2 0;
#X connect 2 0 3 0;
#X connect 3 0 5 0;
#X connect 5 0 7 0;
#X connect 5 0 10 1;
#X connect 5 0 0 1;
#X connect 6 0 0 0;
#X connect 6 1 2 1;
#X connect 7 0 9 0;
#X connect 8 0 6 0;
#X connect 8 1 3 1;
#X connect 9 0 22 0;
#X connect 10 0 12 0;
#X connect 12 0 10 1;
#X connect 12 0 19 0;
#X connect 13 0 10 0;
#X connect 13 1 12 1;
#X connect 14 0 13 0;
#X connect 15 0 10 1;
#X connect 15 0 0 1;
#X connect 15 0 20 0;
#X connect 17 0 15 0;
#X connect 18 0 14 0;
#X connect 18 1 8 0;
#X connect 19 0 20 0;
#X connect 19 1 5 0;
#X connect 20 0 22 0;
#X connect 21 0 18 0;
#X restore 2860 542 pd button;
#X listbox 2078 561 4 0 0 0 - - - 0;
#X listbox 2134 561 4 0 0 0 - - - 0;
#X listbox 2197 561 4 0 0 0 - - - 0;
#X listbox 1774 583 4 0 0 0 - - - 0;
#X listbox 1833 583 4 0 0 0 - - - 0;
#X listbox 1897 583 4 0 0 0 - - - 0;
#X listbox 1955 583 4 0 0 0 - - - 0;
#X listbox 2018 583 4 0 0 0 - - - 0;
#N canvas 2454 223 905 708 button 0;
#X obj 356 233 list store;
#X text 311 268 check for item to remove;
#X obj 356 290 list-remove;
#X obj 356 365 list append;
#X text 449 359 append item;
#X obj 356 424 cyclone/zl sort;
#X obj 356 183 t b a;
#X obj 356 472 list prepend set;
#X obj 355 156 t a a;
#X obj 357 505 route list;
#X obj 144 231 list store;
#X text 99 266 check for item to remove;
#X obj 144 288 list-remove;
#X obj 144 181 t b a;
#X obj 143 154 t a a;
#X obj 258 179 bng 19 250 50 0 empty empty empty 0 -10 0 12 #fcfcfc #000000 #000000;
#X text 286 181 init;
#X obj 257 147 loadbang;
#X obj 263 108 route 0 1;
#X obj 144 339 route bang;
#X msg 144 363 set;
#X obj 264 19 inlet;
#X obj 280 606 outlet;
#X connect 0 0 2 0;
#X connect 2 0 3 0;
#X connect 3 0 5 0;
#X connect 5 0 7 0;
#X connect 5 0 10 1;
#X connect 5 0 0 1;
#X connect 6 0 0 0;
#X connect 6 1 2 1;
#X connect 7 0 9 0;
#X connect 8 0 6 0;
#X connect 8 1 3 1;
#X connect 9 0 22 0;
#X connect 10 0 12 0;
#X connect 12 0 10 1;
#X connect 12 0 19 0;
#X connect 13 0 10 0;
#X connect 13 1 12 1;
#X connect 14 0 13 0;
#X connect 15 0 10 1;
#X connect 15 0 0 1;
#X connect 15 0 20 0;
#X connect 17 0 15 0;
#X connect 18 0 14 0;
#X connect 18 1 8 0;
#X connect 19 0 20 0;
#X connect 19 1 5 0;
#X connect 20 0 22 0;
#X connect 21 0 18 0;
#X restore 2315 564 pd button;
#N canvas 2454 223 905 736 button 0;
#X obj 356 233 list store;
#X text 311 268 check for item to remove;
#X obj 356 290 list-remove;
#X obj 356 365 list append;
#X text 449 359 append item;
#X obj 356 424 cyclone/zl sort;
#X obj 356 183 t b a;
#X obj 356 472 list prepend set;
#X obj 355 156 t a a;
#X obj 357 505 route list;
#X obj 144 231 list store;
#X text 99 266 check for item to remove;
#X obj 144 288 list-remove;
#X obj 144 181 t b a;
#X obj 143 154 t a a;
#X obj 258 179 bng 19 250 50 0 empty empty empty 0 -10 0 12 #fcfcfc #000000 #000000;
#X text 286 181 init;
#X obj 257 147 loadbang;
#X obj 263 108 route 0 1;
#X obj 144 339 route bang;
#X msg 144 363 set;
#X obj 264 19 inlet;
#X obj 280 606 outlet;
#X connect 0 0 2 0;
#X connect 2 0 3 0;
#X connect 3 0 5 0;
#X connect 5 0 7 0;
#X connect 5 0 10 1;
#X connect 5 0 0 1;
#X connect 6 0 0 0;
#X connect 6 1 2 1;
#X connect 7 0 9 0;
#X connect 8 0 6 0;
#X connect 8 1 3 1;
#X connect 9 0 22 0;
#X connect 10 0 12 0;
#X connect 12 0 10 1;
#X connect 12 0 19 0;
#X connect 13 0 10 0;
#X connect 13 1 12 1;
#X connect 14 0 13 0;
#X connect 15 0 10 1;
#X connect 15 0 0 1;
#X connect 15 0 20 0;
#X connect 17 0 15 0;
#X connect 18 0 14 0;
#X connect 18 1 8 0;
#X connect 19 0 20 0;
#X connect 19 1 5 0;
#X connect 20 0 22 0;
#X connect 21 0 18 0;
#X restore 2393 564 pd button;
#N canvas 2454 223 905 736 button 0;
#X obj 356 233 list store;
#X text 311 268 check for item to remove;
#X obj 356 290 list-remove;
#X obj 356 365 list append;
#X text 449 359 append item;
#X obj 356 424 cyclone/zl sort;
#X obj 356 183 t b a;
#X obj 356 472 list prepend set;
#X obj 355 156 t a a;
#X obj 357 505 route list;
#X obj 144 231 list store;
#X text 99 266 check for item to remove;
#X obj 144 288 list-remove;
#X obj 144 181 t b a;
#X obj 143 154 t a a;
#X obj 258 179 bng 19 250 50 0 empty empty empty 0 -10 0 12 #fcfcfc #000000 #000000;
#X text 286 181 init;
#X obj 257 147 loadbang;
#X obj 263 108 route 0 1;
#X obj 144 339 route bang;
#X msg 144 363 set;
#X obj 264 19 inlet;
#X obj 280 606 outlet;
#X connect 0 0 2 0;
#X connect 2 0 3 0;
#X connect 3 0 5 0;
#X connect 5 0 7 0;
#X connect 5 0 10 1;
#X connect 5 0 0 1;
#X connect 6 0 0 0;
#X connect 6 1 2 1;
#X connect 7 0 9 0;
#X connect 8 0 6 0;
#X connect 8 1 3 1;
#X connect 9 0 22 0;
#X connect 10 0 12 0;
#X connect 12 0 10 1;
#X connect 12 0 19 0;
#X connect 13 0 10 0;
#X connect 13 1 12 1;
#X connect 14 0 13 0;
#X connect 15 0 10 1;
#X connect 15 0 0 1;
#X connect 15 0 20 0;
#X connect 17 0 15 0;
#X connect 18 0 14 0;
#X connect 18 1 8 0;
#X connect 19 0 20 0;
#X connect 19 1 5 0;
#X connect 20 0 22 0;
#X connect 21 0 18 0;
#X restore 2473 564 pd button;
#N canvas 2454 223 905 736 button 0;
#X obj 356 233 list store;
#X text 311 268 check for item to remove;
#X obj 356 290 list-remove;
#X obj 356 365 list append;
#X text 449 359 append item;
#X obj 356 424 cyclone/zl sort;
#X obj 356 183 t b a;
#X obj 356 472 list prepend set;
#X obj 355 156 t a a;
#X obj 357 505 route list;
#X obj 144 231 list store;
#X text 99 266 check for item to remove;
#X obj 144 288 list-remove;
#X obj 144 181 t b a;
#X obj 143 154 t a a;
#X obj 258 179 bng 19 250 50 0 empty empty empty 0 -10 0 12 #fcfcfc #000000 #000000;
#X text 286 181 init;
#X obj 257 147 loadbang;
#X obj 263 108 route 0 1;
#X obj 144 339 route bang;
#X msg 144 363 set;
#X obj 264 19 inlet;
#X obj 280 606 outlet;
#X connect 0 0 2 0;
#X connect 2 0 3 0;
#X connect 3 0 5 0;
#X connect 5 0 7 0;
#X connect 5 0 10 1;
#X connect 5 0 0 1;
#X connect 6 0 0 0;
#X connect 6 1 2 1;
#X connect 7 0 9 0;
#X connect 8 0 6 0;
#X connect 8 1 3 1;
#X connect 9 0 22 0;
#X connect 10 0 12 0;
#X connect 12 0 10 1;
#X connect 12 0 19 0;
#X connect 13 0 10 0;
#X connect 13 1 12 1;
#X connect 14 0 13 0;
#X connect 15 0 10 1;
#X connect 15 0 0 1;
#X connect 15 0 20 0;
#X connect 17 0 15 0;
#X connect 18 0 14 0;
#X connect 18 1 8 0;
#X connect 19 0 20 0;
#X connect 19 1 5 0;
#X connect 20 0 22 0;
#X connect 21 0 18 0;
#X restore 2551 564 pd button;
#N canvas 2454 223 905 736 button 0;
#X obj 356 233 list store;
#X text 311 268 check for item to remove;
#X obj 356 290 list-remove;
#X obj 356 365 list append;
#X text 449 359 append item;
#X obj 356 424 cyclone/zl sort;
#X obj 356 183 t b a;
#X obj 356 472 list prepend set;
#X obj 355 156 t a a;
#X obj 357 505 route list;
#X obj 144 231 list store;
#X text 99 266 check for item to remove;
#X obj 144 288 list-remove;
#X obj 144 181 t b a;
#X obj 143 154 t a a;
#X obj 258 179 bng 19 250 50 0 empty empty empty 0 -10 0 12 #fcfcfc #000000 #000000;
#X text 286 181 init;
#X obj 257 147 loadbang;
#X obj 263 108 route 0 1;
#X obj 144 339 route bang;
#X msg 144 363 set;
#X obj 264 19 inlet;
#X obj 280 606 outlet;
#X connect 0 0 2 0;
#X connect 2 0 3 0;
#X connect 3 0 5 0;
#X connect 5 0 7 0;
#X connect 5 0 10 1;
#X connect 5 0 0 1;
#X connect 6 0 0 0;
#X connect 6 1 2 1;
#X connect 7 0 9 0;
#X connect 8 0 6 0;
#X connect 8 1 3 1;
#X connect 9 0 22 0;
#X connect 10 0 12 0;
#X connect 12 0 10 1;
#X connect 12 0 19 0;
#X connect 13 0 10 0;
#X connect 13 1 12 1;
#X connect 14 0 13 0;
#X connect 15 0 10 1;
#X connect 15 0 0 1;
#X connect 15 0 20 0;
#X connect 17 0 15 0;
#X connect 18 0 14 0;
#X connect 18 1 8 0;
#X connect 19 0 20 0;
#X connect 19 1 5 0;
#X connect 20 0 22 0;
#X connect 21 0 18 0;
#X restore 2624 564 pd button;
#N canvas 2454 223 905 736 button 0;
#X obj 356 233 list store;
#X text 311 268 check for item to remove;
#X obj 356 290 list-remove;
#X obj 356 365 list append;
#X text 449 359 append item;
#X obj 356 424 cyclone/zl sort;
#X obj 356 183 t b a;
#X obj 356 472 list prepend set;
#X obj 355 156 t a a;
#X obj 357 505 route list;
#X obj 144 231 list store;
#X text 99 266 check for item to remove;
#X obj 144 288 list-remove;
#X obj 144 181 t b a;
#X obj 143 154 t a a;
#X obj 258 179 bng 19 250 50 0 empty empty empty 0 -10 0 12 #fcfcfc #000000 #000000;
#X text 286 181 init;
#X obj 257 147 loadbang;
#X obj 263 108 route 0 1;
#X obj 144 339 route bang;
#X msg 144 363 set;
#X obj 264 19 inlet;
#X obj 280 606 outlet;
#X connect 0 0 2 0;
#X connect 2 0 3 0;
#X connect 3 0 5 0;
#X connect 5 0 7 0;
#X connect 5 0 10 1;
#X connect 5 0 0 1;
#X connect 6 0 0 0;
#X connect 6 1 2 1;
#X connect 7 0 9 0;
#X connect 8 0 6 0;
#X connect 8 1 3 1;
#X connect 9 0 22 0;
#X connect 10 0 12 0;
#X connect 12 0 10 1;
#X connect 12 0 19 0;
#X connect 13 0 10 0;
#X connect 13 1 12 1;
#X connect 14 0 13 0;
#X connect 15 0 10 1;
#X connect 15 0 0 1;
#X connect 15 0 20 0;
#X connect 17 0 15 0;
#X connect 18 0 14 0;
#X connect 18 1 8 0;
#X connect 19 0 20 0;
#X connect 19 1 5 0;
#X connect 20 0 22 0;
#X connect 21 0 18 0;
#X restore 2702 564 pd button;
#N canvas 2454 223 905 736 button 0;
#X obj 356 233 list store;
#X text 311 268 check for item to remove;
#X obj 356 290 list-remove;
#X obj 356 365 list append;
#X text 449 359 append item;
#X obj 356 424 cyclone/zl sort;
#X obj 356 183 t b a;
#X obj 356 472 list prepend set;
#X obj 355 156 t a a;
#X obj 357 505 route list;
#X obj 144 231 list store;
#X text 99 266 check for item to remove;
#X obj 144 288 list-remove;
#X obj 144 181 t b a;
#X obj 143 154 t a a;
#X obj 258 179 bng 19 250 50 0 empty empty empty 0 -10 0 12 #fcfcfc #000000 #000000;
#X text 286 181 init;
#X obj 257 147 loadbang;
#X obj 263 108 route 0 1;
#X obj 144 339 route bang;
#X msg 144 363 set;
#X obj 264 19 inlet;
#X obj 280 606 outlet;
#X connect 0 0 2 0;
#X connect 2 0 3 0;
#X connect 3 0 5 0;
#X connect 5 0 7 0;
#X connect 5 0 10 1;
#X connect 5 0 0 1;
#X connect 6 0 0 0;
#X connect 6 1 2 1;
#X connect 7 0 9 0;
#X connect 8 0 6 0;
#X connect 8 1 3 1;
#X connect 9 0 22 0;
#X connect 10 0 12 0;
#X connect 12 0 10 1;
#X connect 12 0 19 0;
#X connect 13 0 10 0;
#X connect 13 1 12 1;
#X connect 14 0 13 0;
#X connect 15 0 10 1;
#X connect 15 0 0 1;
#X connect 15 0 20 0;
#X connect 17 0 15 0;
#X connect 18 0 14 0;
#X connect 18 1 8 0;
#X connect 19 0 20 0;
#X connect 19 1 5 0;
#X connect 20 0 22 0;
#X connect 21 0 18 0;
#X restore 2782 564 pd button;
#N canvas 2454 223 905 736 button 0;
#X obj 356 233 list store;
#X text 311 268 check for item to remove;
#X obj 356 290 list-remove;
#X obj 356 365 list append;
#X text 449 359 append item;
#X obj 356 424 cyclone/zl sort;
#X obj 356 183 t b a;
#X obj 356 472 list prepend set;
#X obj 355 156 t a a;
#X obj 357 505 route list;
#X obj 144 231 list store;
#X text 99 266 check for item to remove;
#X obj 144 288 list-remove;
#X obj 144 181 t b a;
#X obj 143 154 t a a;
#X obj 258 179 bng 19 250 50 0 empty empty empty 0 -10 0 12 #fcfcfc #000000 #000000;
#X text 286 181 init;
#X obj 257 147 loadbang;
#X obj 263 108 route 0 1;
#X obj 144 339 route bang;
#X msg 144 363 set;
#X obj 264 19 inlet;
#X obj 280 606 outlet;
#X connect 0 0 2 0;
#X connect 2 0 3 0;
#X connect 3 0 5 0;
#X connect 5 0 7 0;
#X connect 5 0 10 1;
#X connect 5 0 0 1;
#X connect 6 0 0 0;
#X connect 6 1 2 1;
#X connect 7 0 9 0;
#X connect 8 0 6 0;
#X connect 8 1 3 1;
#X connect 9 0 22 0;
#X connect 10 0 12 0;
#X connect 12 0 10 1;
#X connect 12 0 19 0;
#X connect 13 0 10 0;
#X connect 13 1 12 1;
#X connect 14 0 13 0;
#X connect 15 0 10 1;
#X connect 15 0 0 1;
#X connect 15 0 20 0;
#X connect 17 0 15 0;
#X connect 18 0 14 0;
#X connect 18 1 8 0;
#X connect 19 0 20 0;
#X connect 19 1 5 0;
#X connect 20 0 22 0;
#X connect 21 0 18 0;
#X restore 2860 564 pd button;
#X listbox 2078 583 4 0 0 0 - - - 0;
#X listbox 2134 583 4 0 0 0 - - - 0;
#X listbox 2197 583 4 0 0 0 - - - 0;
#X listbox 1774 605 4 0 0 0 - - - 0;
#X listbox 1833 605 4 0 0 0 - - - 0;
#X listbox 1897 605 4 0 0 0 - - - 0;
#X listbox 1955 605 4 0 0 0 - - - 0;
#X listbox 2018 605 4 0 0 0 - - - 0;
#N canvas 2454 223 905 708 button 0;
#X obj 356 233 list store;
#X text 311 268 check for item to remove;
#X obj 356 290 list-remove;
#X obj 356 365 list append;
#X text 449 359 append item;
#X obj 356 424 cyclone/zl sort;
#X obj 356 183 t b a;
#X obj 356 472 list prepend set;
#X obj 355 156 t a a;
#X obj 357 505 route list;
#X obj 144 231 list store;
#X text 99 266 check for item to remove;
#X obj 144 288 list-remove;
#X obj 144 181 t b a;
#X obj 143 154 t a a;
#X obj 258 179 bng 19 250 50 0 empty empty empty 0 -10 0 12 #fcfcfc #000000 #000000;
#X text 286 181 init;
#X obj 257 147 loadbang;
#X obj 263 108 route 0 1;
#X obj 144 339 route bang;
#X msg 144 363 set;
#X obj 264 19 inlet;
#X obj 280 606 outlet;
#X connect 0 0 2 0;
#X connect 2 0 3 0;
#X connect 3 0 5 0;
#X connect 5 0 7 0;
#X connect 5 0 10 1;
#X connect 5 0 0 1;
#X connect 6 0 0 0;
#X connect 6 1 2 1;
#X connect 7 0 9 0;
#X connect 8 0 6 0;
#X connect 8 1 3 1;
#X connect 9 0 22 0;
#X connect 10 0 12 0;
#X connect 12 0 10 1;
#X connect 12 0 19 0;
#X connect 13 0 10 0;
#X connect 13 1 12 1;
#X connect 14 0 13 0;
#X connect 15 0 10 1;
#X connect 15 0 0 1;
#X connect 15 0 20 0;
#X connect 17 0 15 0;
#X connect 18 0 14 0;
#X connect 18 1 8 0;
#X connect 19 0 20 0;
#X connect 19 1 5 0;
#X connect 20 0 22 0;
#X connect 21 0 18 0;
#X restore 2315 586 pd button;
#N canvas 2454 223 905 736 button 0;
#X obj 356 233 list store;
#X text 311 268 check for item to remove;
#X obj 356 290 list-remove;
#X obj 356 365 list append;
#X text 449 359 append item;
#X obj 356 424 cyclone/zl sort;
#X obj 356 183 t b a;
#X obj 356 472 list prepend set;
#X obj 355 156 t a a;
#X obj 357 505 route list;
#X obj 144 231 list store;
#X text 99 266 check for item to remove;
#X obj 144 288 list-remove;
#X obj 144 181 t b a;
#X obj 143 154 t a a;
#X obj 258 179 bng 19 250 50 0 empty empty empty 0 -10 0 12 #fcfcfc #000000 #000000;
#X text 286 181 init;
#X obj 257 147 loadbang;
#X obj 263 108 route 0 1;
#X obj 144 339 route bang;
#X msg 144 363 set;
#X obj 264 19 inlet;
#X obj 280 606 outlet;
#X connect 0 0 2 0;
#X connect 2 0 3 0;
#X connect 3 0 5 0;
#X connect 5 0 7 0;
#X connect 5 0 10 1;
#X connect 5 0 0 1;
#X connect 6 0 0 0;
#X connect 6 1 2 1;
#X connect 7 0 9 0;
#X connect 8 0 6 0;
#X connect 8 1 3 1;
#X connect 9 0 22 0;
#X connect 10 0 12 0;
#X connect 12 0 10 1;
#X connect 12 0 19 0;
#X connect 13 0 10 0;
#X connect 13 1 12 1;
#X connect 14 0 13 0;
#X connect 15 0 10 1;
#X connect 15 0 0 1;
#X connect 15 0 20 0;
#X connect 17 0 15 0;
#X connect 18 0 14 0;
#X connect 18 1 8 0;
#X connect 19 0 20 0;
#X connect 19 1 5 0;
#X connect 20 0 22 0;
#X connect 21 0 18 0;
#X restore 2393 586 pd button;
#N canvas 2454 223 905 736 button 0;
#X obj 356 233 list store;
#X text 311 268 check for item to remove;
#X obj 356 290 list-remove;
#X obj 356 365 list append;
#X text 449 359 append item;
#X obj 356 424 cyclone/zl sort;
#X obj 356 183 t b a;
#X obj 356 472 list prepend set;
#X obj 355 156 t a a;
#X obj 357 505 route list;
#X obj 144 231 list store;
#X text 99 266 check for item to remove;
#X obj 144 288 list-remove;
#X obj 144 181 t b a;
#X obj 143 154 t a a;
#X obj 258 179 bng 19 250 50 0 empty empty empty 0 -10 0 12 #fcfcfc #000000 #000000;
#X text 286 181 init;
#X obj 257 147 loadbang;
#X obj 263 108 route 0 1;
#X obj 144 339 route bang;
#X msg 144 363 set;
#X obj 264 19 inlet;
#X obj 280 606 outlet;
#X connect 0 0 2 0;
#X connect 2 0 3 0;
#X connect 3 0 5 0;
#X connect 5 0 7 0;
#X connect 5 0 10 1;
#X connect 5 0 0 1;
#X connect 6 0 0 0;
#X connect 6 1 2 1;
#X connect 7 0 9 0;
#X connect 8 0 6 0;
#X connect 8 1 3 1;
#X connect 9 0 22 0;
#X connect 10 0 12 0;
#X connect 12 0 10 1;
#X connect 12 0 19 0;
#X connect 13 0 10 0;
#X connect 13 1 12 1;
#X connect 14 0 13 0;
#X connect 15 0 10 1;
#X connect 15 0 0 1;
#X connect 15 0 20 0;
#X connect 17 0 15 0;
#X connect 18 0 14 0;
#X connect 18 1 8 0;
#X connect 19 0 20 0;
#X connect 19 1 5 0;
#X connect 20 0 22 0;
#X connect 21 0 18 0;
#X restore 2473 586 pd button;
#N canvas 2454 223 905 736 button 0;
#X obj 356 233 list store;
#X text 311 268 check for item to remove;
#X obj 356 290 list-remove;
#X obj 356 365 list append;
#X text 449 359 append item;
#X obj 356 424 cyclone/zl sort;
#X obj 356 183 t b a;
#X obj 356 472 list prepend set;
#X obj 355 156 t a a;
#X obj 357 505 route list;
#X obj 144 231 list store;
#X text 99 266 check for item to remove;
#X obj 144 288 list-remove;
#X obj 144 181 t b a;
#X obj 143 154 t a a;
#X obj 258 179 bng 19 250 50 0 empty empty empty 0 -10 0 12 #fcfcfc #000000 #000000;
#X text 286 181 init;
#X obj 257 147 loadbang;
#X obj 263 108 route 0 1;
#X obj 144 339 route bang;
#X msg 144 363 set;
#X obj 264 19 inlet;
#X obj 280 606 outlet;
#X connect 0 0 2 0;
#X connect 2 0 3 0;
#X connect 3 0 5 0;
#X connect 5 0 7 0;
#X connect 5 0 10 1;
#X connect 5 0 0 1;
#X connect 6 0 0 0;
#X connect 6 1 2 1;
#X connect 7 0 9 0;
#X connect 8 0 6 0;
#X connect 8 1 3 1;
#X connect 9 0 22 0;
#X connect 10 0 12 0;
#X connect 12 0 10 1;
#X connect 12 0 19 0;
#X connect 13 0 10 0;
#X connect 13 1 12 1;
#X connect 14 0 13 0;
#X connect 15 0 10 1;
#X connect 15 0 0 1;
#X connect 15 0 20 0;
#X connect 17 0 15 0;
#X connect 18 0 14 0;
#X connect 18 1 8 0;
#X connect 19 0 20 0;
#X connect 19 1 5 0;
#X connect 20 0 22 0;
#X connect 21 0 18 0;
#X restore 2551 586 pd button;
#N canvas 2454 223 905 736 button 0;
#X obj 356 233 list store;
#X text 311 268 check for item to remove;
#X obj 356 290 list-remove;
#X obj 356 365 list append;
#X text 449 359 append item;
#X obj 356 424 cyclone/zl sort;
#X obj 356 183 t b a;
#X obj 356 472 list prepend set;
#X obj 355 156 t a a;
#X obj 357 505 route list;
#X obj 144 231 list store;
#X text 99 266 check for item to remove;
#X obj 144 288 list-remove;
#X obj 144 181 t b a;
#X obj 143 154 t a a;
#X obj 258 179 bng 19 250 50 0 empty empty empty 0 -10 0 12 #fcfcfc #000000 #000000;
#X text 286 181 init;
#X obj 257 147 loadbang;
#X obj 263 108 route 0 1;
#X obj 144 339 route bang;
#X msg 144 363 set;
#X obj 264 19 inlet;
#X obj 280 606 outlet;
#X connect 0 0 2 0;
#X connect 2 0 3 0;
#X connect 3 0 5 0;
#X connect 5 0 7 0;
#X connect 5 0 10 1;
#X connect 5 0 0 1;
#X connect 6 0 0 0;
#X connect 6 1 2 1;
#X connect 7 0 9 0;
#X connect 8 0 6 0;
#X connect 8 1 3 1;
#X connect 9 0 22 0;
#X connect 10 0 12 0;
#X connect 12 0 10 1;
#X connect 12 0 19 0;
#X connect 13 0 10 0;
#X connect 13 1 12 1;
#X connect 14 0 13 0;
#X connect 15 0 10 1;
#X connect 15 0 0 1;
#X connect 15 0 20 0;
#X connect 17 0 15 0;
#X connect 18 0 14 0;
#X connect 18 1 8 0;
#X connect 19 0 20 0;
#X connect 19 1 5 0;
#X connect 20 0 22 0;
#X connect 21 0 18 0;
#X restore 2624 586 pd button;
#N canvas 2454 223 905 736 button 0;
#X obj 356 233 list store;
#X text 311 268 check for item to remove;
#X obj 356 290 list-remove;
#X obj 356 365 list append;
#X text 449 359 append item;
#X obj 356 424 cyclone/zl sort;
#X obj 356 183 t b a;
#X obj 356 472 list prepend set;
#X obj 355 156 t a a;
#X obj 357 505 route list;
#X obj 144 231 list store;
#X text 99 266 check for item to remove;
#X obj 144 288 list-remove;
#X obj 144 181 t b a;
#X obj 143 154 t a a;
#X obj 258 179 bng 19 250 50 0 empty empty empty 0 -10 0 12 #fcfcfc #000000 #000000;
#X text 286 181 init;
#X obj 257 147 loadbang;
#X obj 263 108 route 0 1;
#X obj 144 339 route bang;
#X msg 144 363 set;
#X obj 264 19 inlet;
#X obj 280 606 outlet;
#X connect 0 0 2 0;
#X connect 2 0 3 0;
#X connect 3 0 5 0;
#X connect 5 0 7 0;
#X connect 5 0 10 1;
#X connect 5 0 0 1;
#X connect 6 0 0 0;
#X connect 6 1 2 1;
#X connect 7 0 9 0;
#X connect 8 0 6 0;
#X connect 8 1 3 1;
#X connect 9 0 22 0;
#X connect 10 0 12 0;
#X connect 12 0 10 1;
#X connect 12 0 19 0;
#X connect 13 0 10 0;
#X connect 13 1 12 1;
#X connect 14 0 13 0;
#X connect 15 0 10 1;
#X connect 15 0 0 1;
#X connect 15 0 20 0;
#X connect 17 0 15 0;
#X connect 18 0 14 0;
#X connect 18 1 8 0;
#X connect 19 0 20 0;
#X connect 19 1 5 0;
#X connect 20 0 22 0;
#X connect 21 0 18 0;
#X restore 2702 586 pd button;
#N canvas 2454 223 905 736 button 0;
#X obj 356 233 list store;
#X text 311 268 check for item to remove;
#X obj 356 290 list-remove;
#X obj 356 365 list append;
#X text 449 359 append item;
#X obj 356 424 cyclone/zl sort;
#X obj 356 183 t b a;
#X obj 356 472 list prepend set;
#X obj 355 156 t a a;
#X obj 357 505 route list;
#X obj 144 231 list store;
#X text 99 266 check for item to remove;
#X obj 144 288 list-remove;
#X obj 144 181 t b a;
#X obj 143 154 t a a;
#X obj 258 179 bng 19 250 50 0 empty empty empty 0 -10 0 12 #fcfcfc #000000 #000000;
#X text 286 181 init;
#X obj 257 147 loadbang;
#X obj 263 108 route 0 1;
#X obj 144 339 route bang;
#X msg 144 363 set;
#X obj 264 19 inlet;
#X obj 280 606 outlet;
#X connect 0 0 2 0;
#X connect 2 0 3 0;
#X connect 3 0 5 0;
#X connect 5 0 7 0;
#X connect 5 0 10 1;
#X connect 5 0 0 1;
#X connect 6 0 0 0;
#X connect 6 1 2 1;
#X connect 7 0 9 0;
#X connect 8 0 6 0;
#X connect 8 1 3 1;
#X connect 9 0 22 0;
#X connect 10 0 12 0;
#X connect 12 0 10 1;
#X connect 12 0 19 0;
#X connect 13 0 10 0;
#X connect 13 1 12 1;
#X connect 14 0 13 0;
#X connect 15 0 10 1;
#X connect 15 0 0 1;
#X connect 15 0 20 0;
#X connect 17 0 15 0;
#X connect 18 0 14 0;
#X connect 18 1 8 0;
#X connect 19 0 20 0;
#X connect 19 1 5 0;
#X connect 20 0 22 0;
#X connect 21 0 18 0;
#X restore 2782 586 pd button;
#N canvas 2454 223 905 736 button 0;
#X obj 356 233 list store;
#X text 311 268 check for item to remove;
#X obj 356 290 list-remove;
#X obj 356 365 list append;
#X text 449 359 append item;
#X obj 356 424 cyclone/zl sort;
#X obj 356 183 t b a;
#X obj 356 472 list prepend set;
#X obj 355 156 t a a;
#X obj 357 505 route list;
#X obj 144 231 list store;
#X text 99 266 check for item to remove;
#X obj 144 288 list-remove;
#X obj 144 181 t b a;
#X obj 143 154 t a a;
#X obj 258 179 bng 19 250 50 0 empty empty empty 0 -10 0 12 #fcfcfc #000000 #000000;
#X text 286 181 init;
#X obj 257 147 loadbang;
#X obj 263 108 route 0 1;
#X obj 144 339 route bang;
#X msg 144 363 set;
#X obj 264 19 inlet;
#X obj 280 606 outlet;
#X connect 0 0 2 0;
#X connect 2 0 3 0;
#X connect 3 0 5 0;
#X connect 5 0 7 0;
#X connect 5 0 10 1;
#X connect 5 0 0 1;
#X connect 6 0 0 0;
#X connect 6 1 2 1;
#X connect 7 0 9 0;
#X connect 8 0 6 0;
#X connect 8 1 3 1;
#X connect 9 0 22 0;
#X connect 10 0 12 0;
#X connect 12 0 10 1;
#X connect 12 0 19 0;
#X connect 13 0 10 0;
#X connect 13 1 12 1;
#X connect 14 0 13 0;
#X connect 15 0 10 1;
#X connect 15 0 0 1;
#X connect 15 0 20 0;
#X connect 17 0 15 0;
#X connect 18 0 14 0;
#X connect 18 1 8 0;
#X connect 19 0 20 0;
#X connect 19 1 5 0;
#X connect 20 0 22 0;
#X connect 21 0 18 0;
#X restore 2860 586 pd button;
#X listbox 2078 605 4 0 0 0 - - - 0;
#X listbox 2134 605 4 0 0 0 - - - 0;
#X listbox 2197 605 4 0 0 0 - - - 0;
#X obj 3013 501 route 24 25 26 27 28 29 30 31;
#X obj 3013 523 route 16 17 18 19 20 21 22 23;
#X obj 3013 545 route 8 9 10 11 12 13 14 15;
#X obj 3013 567 route 0 1 2 3 4 5 6 7;
#X obj 3012 385 r iconbuttonroutin;
#X obj 179 421 pack;
#X obj 267 380 sel 127;
#X msg 210 394 1;
#X connect 0 0 1 0;
#X connect 0 0 2 0;
#X connect 0 1 2 1;
#X connect 0 1 14 0;
#X connect 1 0 14 1;
#X connect 2 0 3 0;
#X connect 14 0 5 0;
#X connect 14 0 68 0;
#X connect 14 1 6 0;
#X connect 14 1 70 0;
#X connect 14 2 7 0;
#X connect 14 2 72 0;
#X connect 14 3 8 0;
#X connect 14 3 74 0;
#X connect 14 4 9 0;
#X connect 14 4 76 0;
#X connect 14 5 10 0;
#X connect 14 5 78 0;
#X connect 14 6 11 0;
#X connect 14 6 80 0;
#X connect 14 7 12 0;
#X connect 14 7 82 0;
#X connect 14 8 13 0;
#X connect 14 8 92 0;
#X connect 16 0 225 0;
#X connect 16 1 226 0;
#X connect 18 0 27 0;
#X connect 18 0 96 0;
#X connect 18 1 28 0;
#X connect 18 1 101 0;
#X connect 18 2 29 0;
#X connect 18 2 111 0;
#X connect 18 3 30 0;
#X connect 18 3 116 0;
#X connect 18 4 31 0;
#X connect 18 4 121 0;
#X connect 18 5 32 0;
#X connect 18 5 126 0;
#X connect 18 6 33 0;
#X connect 18 6 131 0;
#X connect 18 7 34 0;
#X connect 18 7 136 0;
#X connect 18 8 35 0;
#X connect 18 8 141 0;
#X connect 19 0 36 0;
#X connect 19 0 97 0;
#X connect 19 1 37 0;
#X connect 19 1 102 0;
#X connect 19 2 38 0;
#X connect 19 2 112 0;
#X connect 19 3 39 0;
#X connect 19 3 117 0;
#X connect 19 4 40 0;
#X connect 19 4 122 0;
#X connect 19 5 41 0;
#X connect 19 5 127 0;
#X connect 19 6 42 0;
#X connect 19 6 132 0;
#X connect 19 7 43 0;
#X connect 19 7 137 0;
#X connect 24 0 44 0;
#X connect 24 0 98 0;
#X connect 24 1 46 0;
#X connect 24 1 103 0;
#X connect 24 2 50 0;
#X connect 24 2 113 0;
#X connect 24 3 53 0;
#X connect 24 3 118 0;
#X connect 24 4 56 0;
#X connect 24 4 123 0;
#X connect 24 5 59 0;
#X connect 24 5 128 0;
#X connect 24 6 62 0;
#X connect 24 6 133 0;
#X connect 24 7 65 0;
#X connect 24 7 138 0;
#X connect 25 0 45 0;
#X connect 25 0 99 0;
#X connect 25 1 47 0;
#X connect 25 1 104 0;
#X connect 25 2 51 0;
#X connect 25 2 114 0;
#X connect 25 3 54 0;
#X connect 25 3 119 0;
#X connect 25 4 57 0;
#X connect 25 4 124 0;
#X connect 25 5 60 0;
#X connect 25 5 129 0;
#X connect 25 6 63 0;
#X connect 25 6 134 0;
#X connect 25 7 66 0;
#X connect 25 7 139 0;
#X connect 26 0 49 0;
#X connect 26 0 100 0;
#X connect 26 1 48 0;
#X connect 26 1 105 0;
#X connect 26 2 52 0;
#X connect 26 2 115 0;
#X connect 26 3 55 0;
#X connect 26 3 120 0;
#X connect 26 4 58 0;
#X connect 26 4 125 0;
#X connect 26 5 61 0;
#X connect 26 5 130 0;
#X connect 26 6 64 0;
#X connect 26 6 135 0;
#X connect 26 7 67 0;
#X connect 26 7 140 0;
#X connect 95 0 69 0;
#X connect 95 1 71 0;
#X connect 95 2 73 0;
#X connect 95 3 75 0;
#X connect 95 4 77 0;
#X connect 95 5 79 0;
#X connect 95 6 81 0;
#X connect 95 7 83 0;
#X connect 95 8 93 0;
#X connect 142 0 106 0;
#X connect 143 0 107 0;
#X connect 144 0 108 0;
#X connect 145 0 109 0;
#X connect 146 0 110 0;
#X connect 147 0 152 0;
#X connect 148 0 153 0;
#X connect 149 0 154 0;
#X connect 150 0 155 0;
#X connect 151 0 142 0;
#X connect 151 1 143 0;
#X connect 151 2 144 0;
#X connect 151 3 145 0;
#X connect 151 4 146 0;
#X connect 151 5 147 0;
#X connect 151 6 148 0;
#X connect 151 7 149 0;
#X connect 151 8 150 0;
#X connect 161 0 156 0;
#X connect 162 0 157 0;
#X connect 163 0 158 0;
#X connect 164 0 159 0;
#X connect 165 0 160 0;
#X connect 166 0 169 0;
#X connect 167 0 170 0;
#X connect 168 0 171 0;
#X connect 177 0 172 0;
#X connect 178 0 173 0;
#X connect 179 0 174 0;
#X connect 180 0 175 0;
#X connect 181 0 176 0;
#X connect 182 0 185 0;
#X connect 183 0 186 0;
#X connect 184 0 187 0;
#X connect 193 0 188 0;
#X connect 194 0 189 0;
#X connect 195 0 190 0;
#X connect 196 0 191 0;
#X connect 197 0 192 0;
#X connect 198 0 201 0;
#X connect 199 0 202 0;
#X connect 200 0 203 0;
#X connect 209 0 204 0;
#X connect 210 0 205 0;
#X connect 211 0 206 0;
#X connect 212 0 207 0;
#X connect 213 0 208 0;
#X connect 214 0 217 0;
#X connect 215 0 218 0;
#X connect 216 0 219 0;
#X connect 220 0 161 0;
#X connect 220 1 162 0;
#X connect 220 2 163 0;
#X connect 220 3 164 0;
#X connect 220 4 165 0;
#X connect 220 5 166 0;
#X connect 220 6 167 0;
#X connect 220 7 168 0;
#X connect 221 0 177 0;
#X connect 221 1 178 0;
#X connect 221 2 179 0;
#X connect 221 3 180 0;
#X connect 221 4 181 0;
#X connect 221 5 182 0;
#X connect 221 6 183 0;
#X connect 221 7 184 0;
#X connect 222 0 193 0;
#X connect 222 1 194 0;
#X connect 222 2 195 0;
#X connect 222 3 196 0;
#X connect 222 4 197 0;
#X connect 222 5 198 0;
#X connect 222 6 199 0;
#X connect 222 7 200 0;
#X connect 223 0 209 0;
#X connect 223 1 210 0;
#X connect 223 2 211 0;
#X connect 223 3 212 0;
#X connect 223 4 213 0;
#X connect 223 5 214 0;
#X connect 223 6 215 0;
#X connect 223 7 216 0;
#X connect 224 0 151 0;
#X connect 224 0 220 0;
#X connect 224 0 221 0;
#X connect 224 0 222 0;
#X connect 224 0 223 0;
#X connect 225 0 18 0;
#X connect 225 0 26 0;
#X connect 225 0 25 0;
#X connect 225 0 24 0;
#X connect 225 0 19 0;
#X connect 226 0 227 0;
#X connect 226 1 225 1;
#X connect 227 0 225 1;
#X coords 0 -1 1 1 560 310 2 1740 320;
