#N canvas 2539 77 1679 822 12;
#X obj 285 10 r jstkroutin;
#X text 211 45 0 = all off n = n on rest off;
#N canvas 2213 285 1079 739 iconfadermap 0;
#X obj 286 266 list store;
#X text 241 301 check for item to remove;
#X obj 286 323 list-remove;
#X obj 286 398 list append;
#X text 379 392 append item;
#X obj 286 457 cyclone/zl sort;
#X obj 286 216 t b a;
#X obj 286 505 list prepend set;
#X obj 285 189 t a a;
#X obj 287 538 route list;
#X text 451 298 check for doublings;
#X obj 74 264 list store;
#X text 29 299 check for item to remove;
#X obj 74 321 list-remove;
#X obj 74 214 t b a;
#X obj 73 187 t a a;
#X obj 188 212 bng 19 250 50 0 empty empty empty 0 -10 0 12 #fcfcfc #000000 #000000;
#X text 216 214 init;
#X obj 287 704 outlet;
#X obj 459 212 loadbang;
#X obj 75 97 inlet;
#X obj 292 94 inlet;
#X text 101 72 off;
#X text 336 75 assign;
#X connect 0 0 2 0;
#X connect 2 0 3 0;
#X connect 3 0 5 0;
#X connect 5 0 7 0;
#X connect 5 0 11 1;
#X connect 5 0 0 1;
#X connect 6 0 0 0;
#X connect 6 1 2 1;
#X connect 7 0 9 0;
#X connect 8 0 6 0;
#X connect 8 1 3 1;
#X connect 9 0 18 0;
#X connect 11 0 13 0;
#X connect 13 0 11 1;
#X connect 13 0 5 0;
#X connect 14 0 11 0;
#X connect 14 1 13 1;
#X connect 15 0 14 0;
#X connect 16 0 11 1;
#X connect 16 0 0 1;
#X connect 19 0 16 0;
#X connect 20 0 15 0;
#X connect 21 0 8 0;
#X restore 470 140 pd iconfadermap;
#X obj 470 164 outlet;
#N canvas 2213 285 1079 739 iconfadermap 0;
#X obj 286 266 list store;
#X text 241 301 check for item to remove;
#X obj 286 323 list-remove;
#X obj 286 398 list append;
#X text 379 392 append item;
#X obj 286 457 cyclone/zl sort;
#X obj 286 216 t b a;
#X obj 286 505 list prepend set;
#X obj 285 189 t a a;
#X obj 287 538 route list;
#X text 451 298 check for doublings;
#X obj 74 264 list store;
#X text 29 299 check for item to remove;
#X obj 74 321 list-remove;
#X obj 74 214 t b a;
#X obj 73 187 t a a;
#X obj 188 212 bng 19 250 50 0 empty empty empty 0 -10 0 12 #fcfcfc #000000 #000000;
#X text 216 214 init;
#X obj 287 704 outlet;
#X obj 459 212 loadbang;
#X obj 75 97 inlet;
#X obj 292 94 inlet;
#X text 101 72 off;
#X text 336 75 assign;
#X connect 0 0 2 0;
#X connect 2 0 3 0;
#X connect 3 0 5 0;
#X connect 5 0 7 0;
#X connect 5 0 11 1;
#X connect 5 0 0 1;
#X connect 6 0 0 0;
#X connect 6 1 2 1;
#X connect 7 0 9 0;
#X connect 8 0 6 0;
#X connect 8 1 3 1;
#X connect 9 0 18 0;
#X connect 11 0 13 0;
#X connect 13 0 11 1;
#X connect 13 0 5 0;
#X connect 14 0 11 0;
#X connect 14 1 13 1;
#X connect 15 0 14 0;
#X connect 16 0 11 1;
#X connect 16 0 0 1;
#X connect 19 0 16 0;
#X connect 20 0 15 0;
#X connect 21 0 8 0;
#X restore 585 140 pd iconfadermap;
#X obj 585 164 outlet;
#N canvas 2213 285 1079 739 iconfadermap 0;
#X obj 286 266 list store;
#X text 241 301 check for item to remove;
#X obj 286 323 list-remove;
#X obj 286 398 list append;
#X text 379 392 append item;
#X obj 286 457 cyclone/zl sort;
#X obj 286 216 t b a;
#X obj 286 505 list prepend set;
#X obj 285 189 t a a;
#X obj 287 538 route list;
#X text 451 298 check for doublings;
#X obj 74 264 list store;
#X text 29 299 check for item to remove;
#X obj 74 321 list-remove;
#X obj 74 214 t b a;
#X obj 73 187 t a a;
#X obj 188 212 bng 19 250 50 0 empty empty empty 0 -10 0 12 #fcfcfc #000000 #000000;
#X text 216 214 init;
#X obj 287 704 outlet;
#X obj 459 212 loadbang;
#X obj 75 97 inlet;
#X obj 292 94 inlet;
#X text 101 72 off;
#X text 336 75 assign;
#X connect 0 0 2 0;
#X connect 2 0 3 0;
#X connect 3 0 5 0;
#X connect 5 0 7 0;
#X connect 5 0 11 1;
#X connect 5 0 0 1;
#X connect 6 0 0 0;
#X connect 6 1 2 1;
#X connect 7 0 9 0;
#X connect 8 0 6 0;
#X connect 8 1 3 1;
#X connect 9 0 18 0;
#X connect 11 0 13 0;
#X connect 13 0 11 1;
#X connect 13 0 5 0;
#X connect 14 0 11 0;
#X connect 14 1 13 1;
#X connect 15 0 14 0;
#X connect 16 0 11 1;
#X connect 16 0 0 1;
#X connect 19 0 16 0;
#X connect 20 0 15 0;
#X connect 21 0 8 0;
#X restore 697 140 pd iconfadermap;
#X obj 697 164 outlet;
#N canvas 2213 285 1079 739 iconfadermap 0;
#X obj 286 266 list store;
#X text 241 301 check for item to remove;
#X obj 286 323 list-remove;
#X obj 286 398 list append;
#X text 379 392 append item;
#X obj 286 457 cyclone/zl sort;
#X obj 286 216 t b a;
#X obj 286 505 list prepend set;
#X obj 285 189 t a a;
#X obj 287 538 route list;
#X text 451 298 check for doublings;
#X obj 74 264 list store;
#X text 29 299 check for item to remove;
#X obj 74 321 list-remove;
#X obj 74 214 t b a;
#X obj 73 187 t a a;
#X obj 188 212 bng 19 250 50 0 empty empty empty 0 -10 0 12 #fcfcfc #000000 #000000;
#X text 216 214 init;
#X obj 287 704 outlet;
#X obj 459 212 loadbang;
#X obj 75 97 inlet;
#X obj 292 94 inlet;
#X text 101 72 off;
#X text 336 75 assign;
#X connect 0 0 2 0;
#X connect 2 0 3 0;
#X connect 3 0 5 0;
#X connect 5 0 7 0;
#X connect 5 0 11 1;
#X connect 5 0 0 1;
#X connect 6 0 0 0;
#X connect 6 1 2 1;
#X connect 7 0 9 0;
#X connect 8 0 6 0;
#X connect 8 1 3 1;
#X connect 9 0 18 0;
#X connect 11 0 13 0;
#X connect 13 0 11 1;
#X connect 13 0 5 0;
#X connect 14 0 11 0;
#X connect 14 1 13 1;
#X connect 15 0 14 0;
#X connect 16 0 11 1;
#X connect 16 0 0 1;
#X connect 19 0 16 0;
#X connect 20 0 15 0;
#X connect 21 0 8 0;
#X restore 812 140 pd iconfadermap;
#X obj 812 164 outlet;
#N canvas 2213 285 1079 739 iconfadermap 0;
#X obj 286 266 list store;
#X text 241 301 check for item to remove;
#X obj 286 323 list-remove;
#X obj 286 398 list append;
#X text 379 392 append item;
#X obj 286 457 cyclone/zl sort;
#X obj 286 216 t b a;
#X obj 286 505 list prepend set;
#X obj 285 189 t a a;
#X obj 287 538 route list;
#X text 451 298 check for doublings;
#X obj 74 264 list store;
#X text 29 299 check for item to remove;
#X obj 74 321 list-remove;
#X obj 74 214 t b a;
#X obj 73 187 t a a;
#X obj 188 212 bng 19 250 50 0 empty empty empty 0 -10 0 12 #fcfcfc #000000 #000000;
#X text 216 214 init;
#X obj 287 704 outlet;
#X obj 459 212 loadbang;
#X obj 75 97 inlet;
#X obj 292 94 inlet;
#X text 101 72 off;
#X text 336 75 assign;
#X connect 0 0 2 0;
#X connect 2 0 3 0;
#X connect 3 0 5 0;
#X connect 5 0 7 0;
#X connect 5 0 11 1;
#X connect 5 0 0 1;
#X connect 6 0 0 0;
#X connect 6 1 2 1;
#X connect 7 0 9 0;
#X connect 8 0 6 0;
#X connect 8 1 3 1;
#X connect 9 0 18 0;
#X connect 11 0 13 0;
#X connect 13 0 11 1;
#X connect 13 0 5 0;
#X connect 14 0 11 0;
#X connect 14 1 13 1;
#X connect 15 0 14 0;
#X connect 16 0 11 1;
#X connect 16 0 0 1;
#X connect 19 0 16 0;
#X connect 20 0 15 0;
#X connect 21 0 8 0;
#X restore 924 140 pd iconfadermap;
#X obj 924 164 outlet;
#N canvas 2213 285 1079 739 iconfadermap 0;
#X obj 286 266 list store;
#X text 241 301 check for item to remove;
#X obj 286 323 list-remove;
#X obj 286 398 list append;
#X text 379 392 append item;
#X obj 286 457 cyclone/zl sort;
#X obj 286 216 t b a;
#X obj 286 505 list prepend set;
#X obj 285 189 t a a;
#X obj 287 538 route list;
#X text 451 298 check for doublings;
#X obj 74 264 list store;
#X text 29 299 check for item to remove;
#X obj 74 321 list-remove;
#X obj 74 214 t b a;
#X obj 73 187 t a a;
#X obj 188 212 bng 19 250 50 0 empty empty empty 0 -10 0 12 #fcfcfc #000000 #000000;
#X text 216 214 init;
#X obj 287 704 outlet;
#X obj 459 212 loadbang;
#X obj 75 97 inlet;
#X obj 292 94 inlet;
#X text 101 72 off;
#X text 336 75 assign;
#X connect 0 0 2 0;
#X connect 2 0 3 0;
#X connect 3 0 5 0;
#X connect 5 0 7 0;
#X connect 5 0 11 1;
#X connect 5 0 0 1;
#X connect 6 0 0 0;
#X connect 6 1 2 1;
#X connect 7 0 9 0;
#X connect 8 0 6 0;
#X connect 8 1 3 1;
#X connect 9 0 18 0;
#X connect 11 0 13 0;
#X connect 13 0 11 1;
#X connect 13 0 5 0;
#X connect 14 0 11 0;
#X connect 14 1 13 1;
#X connect 15 0 14 0;
#X connect 16 0 11 1;
#X connect 16 0 0 1;
#X connect 19 0 16 0;
#X connect 20 0 15 0;
#X connect 21 0 8 0;
#X restore 1039 140 pd iconfadermap;
#X obj 1039 164 outlet;
#N canvas 2213 285 1079 739 iconfadermap 0;
#X obj 286 266 list store;
#X text 241 301 check for item to remove;
#X obj 286 323 list-remove;
#X obj 286 398 list append;
#X text 379 392 append item;
#X obj 286 457 cyclone/zl sort;
#X obj 286 216 t b a;
#X obj 286 505 list prepend set;
#X obj 285 189 t a a;
#X obj 287 538 route list;
#X text 451 298 check for doublings;
#X obj 74 264 list store;
#X text 29 299 check for item to remove;
#X obj 74 321 list-remove;
#X obj 74 214 t b a;
#X obj 73 187 t a a;
#X obj 188 212 bng 19 250 50 0 empty empty empty 0 -10 0 12 #fcfcfc #000000 #000000;
#X text 216 214 init;
#X obj 287 704 outlet;
#X obj 459 212 loadbang;
#X obj 75 97 inlet;
#X obj 292 94 inlet;
#X text 101 72 off;
#X text 336 75 assign;
#X connect 0 0 2 0;
#X connect 2 0 3 0;
#X connect 3 0 5 0;
#X connect 5 0 7 0;
#X connect 5 0 11 1;
#X connect 5 0 0 1;
#X connect 6 0 0 0;
#X connect 6 1 2 1;
#X connect 7 0 9 0;
#X connect 8 0 6 0;
#X connect 8 1 3 1;
#X connect 9 0 18 0;
#X connect 11 0 13 0;
#X connect 13 0 11 1;
#X connect 13 0 5 0;
#X connect 14 0 11 0;
#X connect 14 1 13 1;
#X connect 15 0 14 0;
#X connect 16 0 11 1;
#X connect 16 0 0 1;
#X connect 19 0 16 0;
#X connect 20 0 15 0;
#X connect 21 0 8 0;
#X restore 1151 140 pd iconfadermap;
#X obj 1151 164 outlet;
#N canvas 2213 285 1079 739 iconfadermap 0;
#X obj 286 266 list store;
#X text 241 301 check for item to remove;
#X obj 286 323 list-remove;
#X obj 286 398 list append;
#X text 379 392 append item;
#X obj 286 457 cyclone/zl sort;
#X obj 286 216 t b a;
#X obj 286 505 list prepend set;
#X obj 285 189 t a a;
#X obj 287 538 route list;
#X text 451 298 check for doublings;
#X obj 74 264 list store;
#X text 29 299 check for item to remove;
#X obj 74 321 list-remove;
#X obj 74 214 t b a;
#X obj 73 187 t a a;
#X obj 188 212 bng 19 250 50 0 empty empty empty 0 -10 0 12 #fcfcfc #000000 #000000;
#X text 216 214 init;
#X obj 287 704 outlet;
#X obj 459 212 loadbang;
#X obj 75 97 inlet;
#X obj 292 94 inlet;
#X text 101 72 off;
#X text 336 75 assign;
#X connect 0 0 2 0;
#X connect 2 0 3 0;
#X connect 3 0 5 0;
#X connect 5 0 7 0;
#X connect 5 0 11 1;
#X connect 5 0 0 1;
#X connect 6 0 0 0;
#X connect 6 1 2 1;
#X connect 7 0 9 0;
#X connect 8 0 6 0;
#X connect 8 1 3 1;
#X connect 9 0 18 0;
#X connect 11 0 13 0;
#X connect 13 0 11 1;
#X connect 13 0 5 0;
#X connect 14 0 11 0;
#X connect 14 1 13 1;
#X connect 15 0 14 0;
#X connect 16 0 11 1;
#X connect 16 0 0 1;
#X connect 19 0 16 0;
#X connect 20 0 15 0;
#X connect 21 0 8 0;
#X restore 1266 140 pd iconfadermap;
#X obj 1266 164 outlet;
#N canvas 2213 285 1079 739 iconfadermap 0;
#X obj 286 266 list store;
#X text 241 301 check for item to remove;
#X obj 286 323 list-remove;
#X obj 286 398 list append;
#X text 379 392 append item;
#X obj 286 457 cyclone/zl sort;
#X obj 286 216 t b a;
#X obj 286 505 list prepend set;
#X obj 285 189 t a a;
#X obj 287 538 route list;
#X text 451 298 check for doublings;
#X obj 74 264 list store;
#X text 29 299 check for item to remove;
#X obj 74 321 list-remove;
#X obj 74 214 t b a;
#X obj 73 187 t a a;
#X obj 188 212 bng 19 250 50 0 empty empty empty 0 -10 0 12 #fcfcfc #000000 #000000;
#X text 216 214 init;
#X obj 287 704 outlet;
#X obj 459 212 loadbang;
#X obj 75 97 inlet;
#X obj 292 94 inlet;
#X text 101 72 off;
#X text 336 75 assign;
#X connect 0 0 2 0;
#X connect 2 0 3 0;
#X connect 3 0 5 0;
#X connect 5 0 7 0;
#X connect 5 0 11 1;
#X connect 5 0 0 1;
#X connect 6 0 0 0;
#X connect 6 1 2 1;
#X connect 7 0 9 0;
#X connect 8 0 6 0;
#X connect 8 1 3 1;
#X connect 9 0 18 0;
#X connect 11 0 13 0;
#X connect 13 0 11 1;
#X connect 13 0 5 0;
#X connect 14 0 11 0;
#X connect 14 1 13 1;
#X connect 15 0 14 0;
#X connect 16 0 11 1;
#X connect 16 0 0 1;
#X connect 19 0 16 0;
#X connect 20 0 15 0;
#X connect 21 0 8 0;
#X restore 1379 140 pd iconfadermap;
#X obj 1379 164 outlet;
#X obj 470 36 route 0 1 2 3 4 5 6 7 8 9, f 161;
#X connect 0 0 20 0;
#X connect 2 0 3 0;
#X connect 4 0 5 0;
#X connect 6 0 7 0;
#X connect 8 0 9 0;
#X connect 10 0 11 0;
#X connect 12 0 13 0;
#X connect 14 0 15 0;
#X connect 16 0 17 0;
#X connect 18 0 19 0;
#X connect 20 0 2 0;
#X connect 20 0 18 0;
#X connect 20 0 16 0;
#X connect 20 0 14 0;
#X connect 20 0 12 0;
#X connect 20 0 10 0;
#X connect 20 0 8 0;
#X connect 20 0 6 0;
#X connect 20 0 4 0;
#X connect 20 1 2 1;
#X connect 20 1 4 0;
#X connect 20 1 18 0;
#X connect 20 1 16 0;
#X connect 20 1 14 0;
#X connect 20 1 12 0;
#X connect 20 1 10 0;
#X connect 20 1 8 0;
#X connect 20 1 6 0;
#X connect 20 2 4 1;
#X connect 20 2 6 0;
#X connect 20 2 2 0;
#X connect 20 2 18 0;
#X connect 20 2 16 0;
#X connect 20 2 14 0;
#X connect 20 2 12 0;
#X connect 20 2 10 0;
#X connect 20 2 8 0;
#X connect 20 3 6 1;
#X connect 20 3 8 0;
#X connect 20 3 4 0;
#X connect 20 3 2 0;
#X connect 20 3 18 0;
#X connect 20 3 16 0;
#X connect 20 3 14 0;
#X connect 20 3 12 0;
#X connect 20 3 10 0;
#X connect 20 4 8 1;
#X connect 20 4 10 0;
#X connect 20 4 6 0;
#X connect 20 4 4 0;
#X connect 20 4 2 0;
#X connect 20 4 18 0;
#X connect 20 4 16 0;
#X connect 20 4 14 0;
#X connect 20 4 12 0;
#X connect 20 5 10 1;
#X connect 20 5 12 0;
#X connect 20 5 8 0;
#X connect 20 5 6 0;
#X connect 20 5 4 0;
#X connect 20 5 2 0;
#X connect 20 5 18 0;
#X connect 20 5 16 0;
#X connect 20 5 14 0;
#X connect 20 6 12 1;
#X connect 20 6 14 0;
#X connect 20 6 18 0;
#X connect 20 6 16 0;
#X connect 20 6 10 0;
#X connect 20 6 8 0;
#X connect 20 6 6 0;
#X connect 20 6 4 0;
#X connect 20 6 2 0;
#X connect 20 7 14 1;
#X connect 20 7 16 0;
#X connect 20 7 12 0;
#X connect 20 7 18 0;
#X connect 20 7 10 0;
#X connect 20 7 8 0;
#X connect 20 7 6 0;
#X connect 20 7 4 0;
#X connect 20 7 2 0;
#X connect 20 8 16 1;
#X connect 20 8 18 0;
#X connect 20 8 14 0;
#X connect 20 8 12 0;
#X connect 20 8 10 0;
#X connect 20 8 8 0;
#X connect 20 8 6 0;
#X connect 20 8 4 0;
#X connect 20 8 2 0;
#X connect 20 9 18 1;
#X connect 20 9 16 0;
#X connect 20 9 14 0;
#X connect 20 9 12 0;
#X connect 20 9 10 0;
#X connect 20 9 8 0;
#X connect 20 9 6 0;
#X connect 20 9 4 0;
#X connect 20 9 2 0;
