#N canvas 590 53 1062 615 12;
#X obj 613 686 outlet;
#X obj 213 328 r cue;
#X text 291 328 receive cue;
#X text 493 622 datainlet;
#X text 510 8 format: cue button onon value offon value;
#X obj 216 474 route -1;
#X obj 216 532 list split 1;
#X obj 612 624 Icon_buttons;
#X text 521 42 fadertouch 104 105 106 107 108 109 110 111 112;
#X text 521 63 select 24 25 26 27 28 29 30 31;
#X text 521 84 mute 16 17 18 19 20 21 22 23;
#X text 521 105 solo 8 9 10 11 12 13 14 15;
#X text 521 126 record 0 1 2 3 4 5 6 7;
#X obj 53 20 loadbang;
#X obj 253 76 symbol \$1;
#X obj 253 20 bng 19 250 50 0 empty empty empty 0 -10 0 12 #fcfcfc #000000 #000000;
#X obj 330 76 symbol \$2;
#X obj 252 99 pack s s;
#X obj 253 44 t b b;
#X obj 53 77 symbol \$1;
#X obj 130 77 symbol \$2;
#X obj 52 100 pack s s;
#X obj 53 45 t b b;
#X msg 52 125 read \$1_\$2_buttonicon.txt;
#X msg 249 124 write \$1_\$2_buttonicon.txt;
#X obj 53 156 text define -k \$1_\$2_buttonicon;
#A set 0 0 0 0 0 \; 24 8 0 0 1 1 9 0 0 1 2 10 0 0 1 3 \;;
#X obj 216 399 text search \$1_\$2_buttonicon;
#X obj 216 440 text get \$1_\$2_buttonicon;
#X obj 156 1 r update;
#X obj 410 11 r makefiles;
#X obj 75 750 symbol \$1;
#X obj 77 791 pack s s;
#X msg 74 815 \$1_\$2;
#X obj 148 748 symbol \$2;
#X obj 74 713 t b b l;
#X obj 72 838 list prepend 1;
#X obj 74 632 list split 1;
#X obj 168 657 |;
#X obj 168 625 unpack f f f f f;
#X obj 74 680 list append;
#X obj 153 581 t l l;
#X obj 70 867 s iconbuttonroutin;
#N canvas 777 105 924 601 listiter52 0;
#X obj 411 173 until;
#X obj 411 248 list store;
#X obj 409 112 t b b l;
#X obj 411 198 f;
#X obj 449 198 + 1;
#X msg 468 173 0, f 2;
#X msg 411 223 get \$1 1;
#X obj 408 20 inlet;
#X obj 631 197 int 1;
#X obj 681 196 + 1;
#X obj 632 239 % 5;
#X obj 412 667 outlet;
#X obj 409 546 list;
#X obj 636 412 t b b b;
#X obj 412 607 list;
#X text 704 217 counter;
#X text 178 188 iterating through the list;
#X text 194 453 collect 5 items;
#X text 518 73 reset;
#X obj 632 276 sel 4;
#X msg 620 141 0;
#X obj 515 304 t b f;
#X obj 409 74 t l b b;
#X obj 409 513 list prepend;
#X connect 0 0 3 0;
#X connect 1 0 21 0;
#X connect 1 1 0 1;
#X connect 2 0 0 0;
#X connect 2 1 5 0;
#X connect 2 2 1 1;
#X connect 3 0 4 0;
#X connect 3 0 6 0;
#X connect 4 0 3 1;
#X connect 5 0 3 1;
#X connect 6 0 1 0;
#X connect 7 0 22 0;
#X connect 8 0 9 0;
#X connect 8 0 10 0;
#X connect 9 0 8 1;
#X connect 10 0 19 0;
#X connect 12 0 14 1;
#X connect 12 0 23 1;
#X connect 13 0 23 0;
#X connect 13 1 23 1;
#X connect 13 2 14 0;
#X connect 14 0 11 0;
#X connect 19 0 13 0;
#X connect 20 0 8 1;
#X connect 21 0 8 0;
#X connect 21 1 23 0;
#X connect 22 0 2 0;
#X connect 22 1 23 1;
#X connect 22 1 23 0;
#X connect 22 2 20 0;
#X connect 23 0 12 0;
#X restore 256 556 pd listiter52;
#X obj 521 451 cyclone/uzi 8;
#X obj 609 494 - 1;
#X obj 655 497 + 7;
#X obj 689 498 + 15;
#X obj 737 496 + 23;
#X obj 785 496 + 103;
#X obj 615 543 list append 0 0 0 0;
#X obj 499 364 sel 0;
#X text 681 418 init;
#X connect 1 0 26 0;
#X connect 1 0 50 0;
#X connect 5 1 6 0;
#X connect 6 1 42 0;
#X connect 7 0 0 0;
#X connect 13 0 22 0;
#X connect 14 0 17 0;
#X connect 15 0 18 0;
#X connect 16 0 17 1;
#X connect 17 0 24 0;
#X connect 18 0 14 0;
#X connect 18 1 16 0;
#X connect 19 0 21 0;
#X connect 20 0 21 1;
#X connect 21 0 23 0;
#X connect 22 0 19 0;
#X connect 22 1 20 0;
#X connect 23 0 25 0;
#X connect 24 0 25 0;
#X connect 26 0 27 0;
#X connect 27 0 5 0;
#X connect 28 0 22 0;
#X connect 29 0 15 0;
#X connect 30 0 31 0;
#X connect 31 0 32 0;
#X connect 32 0 35 0;
#X connect 33 0 31 1;
#X connect 34 0 30 0;
#X connect 34 1 33 0;
#X connect 34 2 35 1;
#X connect 35 0 41 0;
#X connect 36 0 39 0;
#X connect 37 0 39 1;
#X connect 38 1 37 0;
#X connect 38 3 37 1;
#X connect 39 0 34 0;
#X connect 40 0 36 0;
#X connect 40 1 38 0;
#X connect 42 0 7 0;
#X connect 42 0 40 0;
#X connect 43 2 44 0;
#X connect 43 2 45 0;
#X connect 43 2 46 0;
#X connect 43 2 47 0;
#X connect 43 2 48 0;
#X connect 44 0 49 0;
#X connect 45 0 49 0;
#X connect 46 0 49 0;
#X connect 47 0 49 0;
#X connect 48 0 49 0;
#X connect 49 0 7 0;
#X connect 50 0 43 0;
