#N canvas 936 53 715 726 12;
#X obj 53 296 list split 1;
#X obj 53 262 route -1;
#X obj 235 424 * 1;
#X obj 237 457 + 0;
#X text 281 460 offset;
#X obj 234 390 pow;
#X text 280 389 exponent values between 1e-05 and N;
#X text 277 423 range;
#X obj 52 121 text define -k \$1;
#A set 1 1 0 100 1;
#X obj 53 187 text search \$1;
#X obj 53 228 text get \$1;
#X obj 237 493 outlet;
#X obj 225 32 r cue;
#X text 303 32 receive cue;
#X text 338 231 datainlet;
#X obj 234 233 Jstk_routing;
#X text 47 98 format: cue input offset range exponent;
#X text 376 96 format: cue button onon value offon value;
#X obj 464 271 route -1;
#X obj 463 130 text define -k \$2;
#A set 2 1 1 100 1 20;
#X obj 464 196 text search \$2;
#X obj 464 237 text get \$2;
#X obj 102 337 unpack 0 0 0 0;
#X obj 464 329 list split 1;
#X connect 0 1 22 0;
#X connect 1 1 0 0;
#X connect 2 0 3 0;
#X connect 3 0 11 0;
#X connect 5 0 2 0;
#X connect 9 0 10 0;
#X connect 10 0 1 0;
#X connect 12 0 9 0;
#X connect 12 0 20 0;
#X connect 15 0 5 0;
#X connect 15 1 11 0;
#X connect 18 1 23 0;
#X connect 20 0 21 0;
#X connect 21 0 18 0;
#X connect 22 0 15 0;
#X connect 22 1 3 1;
#X connect 22 2 2 1;
#X connect 22 3 5 1;
#X connect 23 1 15 1;
